G04 EAGLE Gerber X2 export*
%TF.Part,Single*%
%TF.FileFunction,Copper,L1,Top,Mixed*%
%TF.FilePolarity,Positive*%
%TF.GenerationSoftware,Autodesk,EAGLE,8.6.0*%
%TF.CreationDate,2018-01-31T11:55:17Z*%
G75*
%MOMM*%
%FSLAX34Y34*%
%LPD*%
%AMOC8*
5,1,8,0,0,1.08239X$1,22.5*%
G01*
%ADD10C,1.778000*%
%ADD11C,1.524000*%
%ADD12C,1.320800*%
%ADD13R,1.308000X1.308000*%
%ADD14C,1.308000*%
%ADD15P,1.429621X8X202.500000*%
%ADD16R,2.500000X2.500000*%
%ADD17C,1.208000*%
%ADD18C,0.756400*%

G36*
X214398Y327664D02*
X214398Y327664D01*
X214417Y327662D01*
X214519Y327684D01*
X214621Y327700D01*
X214638Y327710D01*
X214658Y327714D01*
X214747Y327767D01*
X214838Y327816D01*
X214852Y327830D01*
X214869Y327840D01*
X214936Y327919D01*
X215008Y327994D01*
X215016Y328012D01*
X215029Y328027D01*
X215068Y328123D01*
X215111Y328217D01*
X215113Y328237D01*
X215121Y328255D01*
X215139Y328422D01*
X215139Y801778D01*
X215136Y801798D01*
X215138Y801817D01*
X215116Y801919D01*
X215100Y802021D01*
X215090Y802038D01*
X215086Y802058D01*
X215033Y802147D01*
X214984Y802238D01*
X214970Y802252D01*
X214960Y802269D01*
X214881Y802336D01*
X214806Y802408D01*
X214788Y802416D01*
X214773Y802429D01*
X214677Y802468D01*
X214583Y802511D01*
X214563Y802513D01*
X214545Y802521D01*
X214378Y802539D01*
X-1778Y802539D01*
X-1798Y802536D01*
X-1817Y802538D01*
X-1919Y802516D01*
X-2021Y802500D01*
X-2038Y802490D01*
X-2058Y802486D01*
X-2147Y802433D01*
X-2238Y802384D01*
X-2252Y802370D01*
X-2269Y802360D01*
X-2336Y802281D01*
X-2408Y802206D01*
X-2416Y802188D01*
X-2429Y802173D01*
X-2468Y802077D01*
X-2511Y801983D01*
X-2513Y801963D01*
X-2521Y801945D01*
X-2539Y801778D01*
X-2539Y328422D01*
X-2536Y328402D01*
X-2538Y328383D01*
X-2516Y328281D01*
X-2500Y328179D01*
X-2490Y328162D01*
X-2486Y328142D01*
X-2433Y328053D01*
X-2384Y327962D01*
X-2370Y327948D01*
X-2360Y327931D01*
X-2281Y327864D01*
X-2206Y327792D01*
X-2188Y327784D01*
X-2173Y327771D01*
X-2077Y327732D01*
X-1983Y327689D01*
X-1963Y327687D01*
X-1945Y327679D01*
X-1778Y327661D01*
X214378Y327661D01*
X214398Y327664D01*
G37*
%LPC*%
G36*
X60783Y399539D02*
X60783Y399539D01*
X55762Y401619D01*
X51919Y405462D01*
X49839Y410483D01*
X49839Y413898D01*
X49836Y413918D01*
X49838Y413937D01*
X49816Y414039D01*
X49800Y414141D01*
X49790Y414158D01*
X49786Y414178D01*
X49733Y414267D01*
X49684Y414358D01*
X49670Y414372D01*
X49660Y414389D01*
X49581Y414456D01*
X49506Y414528D01*
X49488Y414536D01*
X49473Y414549D01*
X49377Y414588D01*
X49283Y414631D01*
X49263Y414633D01*
X49245Y414641D01*
X49078Y414659D01*
X45999Y414659D01*
X45999Y415778D01*
X45996Y415798D01*
X45998Y415817D01*
X45976Y415919D01*
X45960Y416021D01*
X45950Y416038D01*
X45946Y416058D01*
X45893Y416147D01*
X45844Y416238D01*
X45830Y416252D01*
X45820Y416269D01*
X45741Y416336D01*
X45666Y416408D01*
X45648Y416416D01*
X45633Y416429D01*
X45537Y416468D01*
X45443Y416511D01*
X45423Y416513D01*
X45405Y416521D01*
X45238Y416539D01*
X43762Y416539D01*
X43742Y416536D01*
X43722Y416538D01*
X43621Y416516D01*
X43519Y416500D01*
X43502Y416490D01*
X43482Y416486D01*
X43393Y416433D01*
X43302Y416384D01*
X43288Y416370D01*
X43271Y416360D01*
X43204Y416281D01*
X43132Y416206D01*
X43124Y416188D01*
X43111Y416173D01*
X43072Y416077D01*
X43029Y415983D01*
X43027Y415963D01*
X43019Y415945D01*
X43001Y415778D01*
X43001Y414659D01*
X31666Y414659D01*
X31019Y414832D01*
X30440Y415167D01*
X29967Y415640D01*
X29632Y416219D01*
X29459Y416866D01*
X29459Y425075D01*
X29446Y425155D01*
X29442Y425235D01*
X29424Y425289D01*
X29420Y425318D01*
X29406Y425343D01*
X29395Y425377D01*
X29394Y425381D01*
X29393Y425382D01*
X29389Y425394D01*
X28568Y427172D01*
X28791Y429631D01*
X28789Y429661D01*
X28790Y429703D01*
X28790Y429708D01*
X28790Y429710D01*
X28791Y429769D01*
X28568Y432228D01*
X29389Y434006D01*
X29411Y434083D01*
X29441Y434158D01*
X29447Y434215D01*
X29455Y434243D01*
X29453Y434271D01*
X29459Y434325D01*
X29459Y442534D01*
X29632Y443181D01*
X29967Y443760D01*
X30440Y444233D01*
X31019Y444568D01*
X31666Y444741D01*
X43001Y444741D01*
X43001Y443622D01*
X43004Y443602D01*
X43002Y443583D01*
X43024Y443481D01*
X43040Y443379D01*
X43050Y443362D01*
X43054Y443342D01*
X43107Y443253D01*
X43156Y443162D01*
X43170Y443148D01*
X43180Y443131D01*
X43259Y443064D01*
X43334Y442992D01*
X43352Y442984D01*
X43367Y442971D01*
X43463Y442932D01*
X43557Y442889D01*
X43577Y442887D01*
X43595Y442879D01*
X43762Y442861D01*
X45238Y442861D01*
X45258Y442864D01*
X45277Y442862D01*
X45379Y442884D01*
X45481Y442900D01*
X45498Y442910D01*
X45518Y442914D01*
X45607Y442967D01*
X45698Y443016D01*
X45712Y443030D01*
X45729Y443040D01*
X45796Y443119D01*
X45868Y443194D01*
X45876Y443212D01*
X45889Y443227D01*
X45928Y443323D01*
X45971Y443417D01*
X45973Y443437D01*
X45981Y443455D01*
X45999Y443622D01*
X45999Y444741D01*
X57334Y444741D01*
X57981Y444568D01*
X58560Y444233D01*
X59033Y443760D01*
X59368Y443181D01*
X59541Y442534D01*
X59541Y434059D01*
X59546Y434028D01*
X59543Y433997D01*
X59575Y433832D01*
X59947Y432638D01*
X59952Y432629D01*
X59955Y432614D01*
X60352Y431340D01*
X60209Y429769D01*
X60211Y429739D01*
X60209Y429631D01*
X60352Y428060D01*
X60286Y427848D01*
X60284Y427837D01*
X60279Y427827D01*
X60267Y427716D01*
X60251Y427605D01*
X60254Y427594D01*
X60252Y427583D01*
X60276Y427473D01*
X60297Y427363D01*
X60302Y427353D01*
X60305Y427342D01*
X60362Y427246D01*
X60417Y427148D01*
X60425Y427141D01*
X60431Y427131D01*
X60516Y427058D01*
X60599Y426983D01*
X60609Y426979D01*
X60618Y426971D01*
X60722Y426929D01*
X60824Y426884D01*
X60835Y426883D01*
X60846Y426879D01*
X61013Y426861D01*
X63158Y426861D01*
X63178Y426864D01*
X63197Y426862D01*
X63299Y426884D01*
X63401Y426900D01*
X63418Y426910D01*
X63438Y426914D01*
X63527Y426967D01*
X63618Y427016D01*
X63632Y427030D01*
X63649Y427040D01*
X63716Y427119D01*
X63787Y427194D01*
X63796Y427212D01*
X63809Y427227D01*
X63848Y427323D01*
X63891Y427417D01*
X63893Y427437D01*
X63901Y427455D01*
X63919Y427622D01*
X63919Y439625D01*
X64249Y441283D01*
X64896Y442845D01*
X65835Y444250D01*
X67030Y445445D01*
X68435Y446384D01*
X69997Y447031D01*
X70977Y447226D01*
X70977Y427462D01*
X70980Y427442D01*
X70978Y427423D01*
X71000Y427321D01*
X71017Y427219D01*
X71026Y427202D01*
X71030Y427182D01*
X71083Y427093D01*
X71132Y427002D01*
X71146Y426988D01*
X71156Y426971D01*
X71235Y426904D01*
X71310Y426833D01*
X71328Y426824D01*
X71343Y426811D01*
X71439Y426773D01*
X71533Y426729D01*
X71553Y426727D01*
X71571Y426719D01*
X71738Y426701D01*
X72501Y426701D01*
X72501Y425938D01*
X72504Y425918D01*
X72502Y425899D01*
X72524Y425797D01*
X72541Y425695D01*
X72550Y425678D01*
X72554Y425658D01*
X72607Y425569D01*
X72656Y425478D01*
X72670Y425464D01*
X72680Y425447D01*
X72759Y425380D01*
X72834Y425309D01*
X72852Y425300D01*
X72867Y425287D01*
X72963Y425248D01*
X73057Y425205D01*
X73077Y425203D01*
X73095Y425195D01*
X73262Y425177D01*
X80946Y425177D01*
X80751Y424197D01*
X80104Y422635D01*
X80003Y422484D01*
X79165Y421230D01*
X77970Y420035D01*
X76520Y419066D01*
X76470Y419019D01*
X76413Y418980D01*
X76380Y418936D01*
X76340Y418898D01*
X76307Y418838D01*
X76266Y418783D01*
X76249Y418730D01*
X76223Y418682D01*
X76212Y418614D01*
X76190Y418549D01*
X76191Y418493D01*
X76181Y418439D01*
X76192Y418371D01*
X76193Y418303D01*
X76214Y418229D01*
X76219Y418196D01*
X76229Y418177D01*
X76239Y418142D01*
X77161Y415917D01*
X77161Y410483D01*
X75081Y405462D01*
X71238Y401619D01*
X66217Y399539D01*
X60783Y399539D01*
G37*
%LPD*%
%LPC*%
G36*
X69997Y340369D02*
X69997Y340369D01*
X68435Y341016D01*
X67030Y341955D01*
X65835Y343150D01*
X64896Y344555D01*
X64249Y346117D01*
X63919Y347775D01*
X63919Y359778D01*
X63916Y359798D01*
X63918Y359817D01*
X63896Y359919D01*
X63880Y360021D01*
X63870Y360038D01*
X63866Y360058D01*
X63813Y360147D01*
X63764Y360238D01*
X63750Y360252D01*
X63740Y360269D01*
X63661Y360336D01*
X63586Y360408D01*
X63568Y360416D01*
X63553Y360429D01*
X63457Y360468D01*
X63363Y360511D01*
X63343Y360513D01*
X63325Y360521D01*
X63158Y360539D01*
X61013Y360539D01*
X61001Y360537D01*
X60990Y360539D01*
X60880Y360518D01*
X60770Y360500D01*
X60760Y360494D01*
X60749Y360492D01*
X60651Y360437D01*
X60552Y360384D01*
X60545Y360376D01*
X60535Y360371D01*
X60460Y360287D01*
X60383Y360206D01*
X60378Y360196D01*
X60371Y360187D01*
X60326Y360084D01*
X60279Y359983D01*
X60278Y359972D01*
X60274Y359961D01*
X60265Y359849D01*
X60252Y359739D01*
X60255Y359728D01*
X60254Y359716D01*
X60286Y359552D01*
X60352Y359340D01*
X60209Y357769D01*
X60211Y357739D01*
X60209Y357631D01*
X60352Y356060D01*
X59955Y354786D01*
X59953Y354776D01*
X59947Y354762D01*
X59575Y353568D01*
X59571Y353537D01*
X59559Y353508D01*
X59541Y353341D01*
X59541Y344866D01*
X59368Y344219D01*
X59033Y343640D01*
X58560Y343167D01*
X57981Y342832D01*
X57334Y342659D01*
X45999Y342659D01*
X45999Y343778D01*
X45996Y343798D01*
X45998Y343817D01*
X45976Y343919D01*
X45960Y344021D01*
X45950Y344038D01*
X45946Y344058D01*
X45893Y344147D01*
X45844Y344238D01*
X45830Y344252D01*
X45820Y344269D01*
X45741Y344336D01*
X45666Y344408D01*
X45648Y344416D01*
X45633Y344429D01*
X45537Y344468D01*
X45443Y344511D01*
X45423Y344513D01*
X45405Y344521D01*
X45238Y344539D01*
X43762Y344539D01*
X43742Y344536D01*
X43722Y344538D01*
X43621Y344516D01*
X43519Y344500D01*
X43502Y344490D01*
X43482Y344486D01*
X43393Y344433D01*
X43302Y344384D01*
X43288Y344370D01*
X43271Y344360D01*
X43204Y344281D01*
X43132Y344206D01*
X43124Y344188D01*
X43111Y344173D01*
X43072Y344077D01*
X43029Y343983D01*
X43027Y343963D01*
X43019Y343945D01*
X43001Y343778D01*
X43001Y342659D01*
X31666Y342659D01*
X31019Y342832D01*
X30440Y343167D01*
X29967Y343640D01*
X29632Y344219D01*
X29459Y344866D01*
X29459Y353075D01*
X29446Y353154D01*
X29442Y353235D01*
X29424Y353289D01*
X29420Y353318D01*
X29406Y353343D01*
X29389Y353394D01*
X28568Y355172D01*
X28791Y357631D01*
X28789Y357661D01*
X28791Y357769D01*
X28568Y360228D01*
X29389Y362006D01*
X29411Y362083D01*
X29441Y362158D01*
X29447Y362215D01*
X29455Y362243D01*
X29453Y362271D01*
X29459Y362325D01*
X29459Y370534D01*
X29632Y371181D01*
X29967Y371760D01*
X30440Y372233D01*
X31019Y372568D01*
X31666Y372741D01*
X43001Y372741D01*
X43001Y371622D01*
X43004Y371602D01*
X43002Y371583D01*
X43024Y371481D01*
X43040Y371379D01*
X43050Y371362D01*
X43054Y371342D01*
X43107Y371253D01*
X43156Y371162D01*
X43170Y371148D01*
X43180Y371131D01*
X43259Y371064D01*
X43334Y370992D01*
X43352Y370984D01*
X43367Y370971D01*
X43463Y370932D01*
X43557Y370889D01*
X43577Y370887D01*
X43595Y370879D01*
X43762Y370861D01*
X45238Y370861D01*
X45258Y370864D01*
X45277Y370862D01*
X45379Y370884D01*
X45481Y370900D01*
X45498Y370910D01*
X45518Y370914D01*
X45607Y370967D01*
X45698Y371016D01*
X45712Y371030D01*
X45729Y371040D01*
X45796Y371119D01*
X45868Y371194D01*
X45876Y371212D01*
X45889Y371227D01*
X45928Y371323D01*
X45971Y371417D01*
X45973Y371437D01*
X45981Y371455D01*
X45999Y371622D01*
X45999Y372741D01*
X49078Y372741D01*
X49098Y372744D01*
X49117Y372742D01*
X49219Y372764D01*
X49321Y372780D01*
X49338Y372790D01*
X49358Y372794D01*
X49447Y372847D01*
X49538Y372896D01*
X49552Y372910D01*
X49569Y372920D01*
X49636Y372999D01*
X49708Y373074D01*
X49716Y373092D01*
X49729Y373107D01*
X49768Y373203D01*
X49811Y373297D01*
X49813Y373317D01*
X49821Y373335D01*
X49839Y373502D01*
X49839Y376917D01*
X51919Y381938D01*
X55762Y385781D01*
X60783Y387861D01*
X66217Y387861D01*
X71238Y385781D01*
X75081Y381938D01*
X77161Y376917D01*
X77161Y371483D01*
X76239Y369258D01*
X76224Y369191D01*
X76199Y369128D01*
X76196Y369073D01*
X76183Y369019D01*
X76190Y368951D01*
X76186Y368882D01*
X76201Y368829D01*
X76206Y368774D01*
X76234Y368711D01*
X76253Y368645D01*
X76284Y368600D01*
X76306Y368549D01*
X76353Y368499D01*
X76391Y368442D01*
X76451Y368392D01*
X76473Y368368D01*
X76492Y368358D01*
X76520Y368334D01*
X77970Y367365D01*
X79165Y366170D01*
X80104Y364765D01*
X80751Y363203D01*
X80946Y362223D01*
X73262Y362223D01*
X73242Y362220D01*
X73223Y362222D01*
X73121Y362200D01*
X73019Y362183D01*
X73002Y362174D01*
X72982Y362170D01*
X72893Y362117D01*
X72802Y362068D01*
X72788Y362054D01*
X72771Y362044D01*
X72704Y361965D01*
X72633Y361890D01*
X72624Y361872D01*
X72611Y361857D01*
X72573Y361761D01*
X72529Y361667D01*
X72527Y361647D01*
X72519Y361629D01*
X72501Y361462D01*
X72501Y360699D01*
X71738Y360699D01*
X71718Y360696D01*
X71699Y360698D01*
X71597Y360676D01*
X71495Y360659D01*
X71478Y360650D01*
X71458Y360646D01*
X71369Y360593D01*
X71278Y360544D01*
X71264Y360530D01*
X71247Y360520D01*
X71180Y360441D01*
X71109Y360366D01*
X71100Y360348D01*
X71087Y360333D01*
X71048Y360237D01*
X71005Y360143D01*
X71003Y360123D01*
X70995Y360105D01*
X70977Y359938D01*
X70977Y340174D01*
X69997Y340369D01*
G37*
%LPD*%
%LPC*%
G36*
X135087Y625347D02*
X135087Y625347D01*
X131726Y626739D01*
X129153Y629312D01*
X127761Y632673D01*
X127761Y651551D01*
X129153Y654912D01*
X131726Y657485D01*
X135087Y658877D01*
X138725Y658877D01*
X142086Y657485D01*
X144659Y654912D01*
X146051Y651551D01*
X146051Y632673D01*
X144659Y629312D01*
X142086Y626739D01*
X138725Y625347D01*
X135087Y625347D01*
G37*
%LPD*%
%LPC*%
G36*
X135087Y560323D02*
X135087Y560323D01*
X131726Y561715D01*
X129153Y564288D01*
X127761Y567649D01*
X127761Y586527D01*
X129153Y589888D01*
X131726Y592461D01*
X135087Y593853D01*
X138725Y593853D01*
X142086Y592461D01*
X144659Y589888D01*
X146051Y586527D01*
X146051Y567649D01*
X144659Y564288D01*
X142086Y561715D01*
X138725Y560323D01*
X135087Y560323D01*
G37*
%LPD*%
%LPC*%
G36*
X89875Y560323D02*
X89875Y560323D01*
X86514Y561715D01*
X83941Y564288D01*
X82549Y567649D01*
X82549Y586527D01*
X83941Y589888D01*
X86514Y592461D01*
X89875Y593853D01*
X93513Y593853D01*
X96874Y592461D01*
X99447Y589888D01*
X100839Y586527D01*
X100839Y567649D01*
X99447Y564288D01*
X96874Y561715D01*
X93513Y560323D01*
X89875Y560323D01*
G37*
%LPD*%
%LPC*%
G36*
X169579Y715771D02*
X169579Y715771D01*
X166591Y717009D01*
X164305Y719295D01*
X163067Y722283D01*
X163067Y725517D01*
X164305Y728505D01*
X166591Y730791D01*
X169579Y732029D01*
X186021Y732029D01*
X189009Y730791D01*
X191295Y728505D01*
X192533Y725517D01*
X192533Y722283D01*
X191295Y719295D01*
X189009Y717009D01*
X186021Y715771D01*
X169579Y715771D01*
G37*
%LPD*%
%LPC*%
G36*
X169579Y690371D02*
X169579Y690371D01*
X166591Y691609D01*
X164305Y693895D01*
X163067Y696883D01*
X163067Y700117D01*
X164305Y703105D01*
X166591Y705391D01*
X169579Y706629D01*
X186021Y706629D01*
X189009Y705391D01*
X191295Y703105D01*
X192533Y700117D01*
X192533Y696883D01*
X191295Y693895D01*
X189009Y691609D01*
X186021Y690371D01*
X169579Y690371D01*
G37*
%LPD*%
%LPC*%
G36*
X169579Y664971D02*
X169579Y664971D01*
X166591Y666209D01*
X164305Y668495D01*
X163067Y671483D01*
X163067Y674717D01*
X164305Y677705D01*
X166591Y679991D01*
X169579Y681229D01*
X186021Y681229D01*
X189009Y679991D01*
X191295Y677705D01*
X192533Y674717D01*
X192533Y671483D01*
X191295Y668495D01*
X189009Y666209D01*
X186021Y664971D01*
X169579Y664971D01*
G37*
%LPD*%
%LPC*%
G36*
X36028Y713485D02*
X36028Y713485D01*
X32200Y715071D01*
X29271Y718000D01*
X27685Y721828D01*
X27685Y725972D01*
X29271Y729800D01*
X32200Y732729D01*
X36028Y734315D01*
X40172Y734315D01*
X44000Y732729D01*
X46929Y729800D01*
X48515Y725972D01*
X48515Y721828D01*
X46929Y718000D01*
X44000Y715071D01*
X40172Y713485D01*
X36028Y713485D01*
G37*
%LPD*%
%LPC*%
G36*
X94578Y746810D02*
X94578Y746810D01*
X93685Y747703D01*
X93685Y762047D01*
X94578Y762940D01*
X108922Y762940D01*
X109815Y762047D01*
X109815Y747703D01*
X108922Y746810D01*
X94578Y746810D01*
G37*
%LPD*%
%LPC*%
G36*
X149033Y690371D02*
X149033Y690371D01*
X144271Y695133D01*
X144271Y701867D01*
X149033Y706629D01*
X155767Y706629D01*
X160529Y701867D01*
X160529Y695133D01*
X155767Y690371D01*
X149033Y690371D01*
G37*
%LPD*%
%LPC*%
G36*
X72833Y690371D02*
X72833Y690371D01*
X68071Y695133D01*
X68071Y701867D01*
X72833Y706629D01*
X79567Y706629D01*
X84329Y701867D01*
X84329Y695133D01*
X79567Y690371D01*
X72833Y690371D01*
G37*
%LPD*%
%LPC*%
G36*
X125546Y772210D02*
X125546Y772210D01*
X122582Y773438D01*
X120313Y775707D01*
X119085Y778671D01*
X119085Y781879D01*
X120313Y784843D01*
X122582Y787112D01*
X125546Y788340D01*
X128754Y788340D01*
X131718Y787112D01*
X133987Y784843D01*
X135215Y781879D01*
X135215Y778671D01*
X133987Y775707D01*
X131718Y773438D01*
X128754Y772210D01*
X125546Y772210D01*
G37*
%LPD*%
%LPC*%
G36*
X100146Y772210D02*
X100146Y772210D01*
X97182Y773438D01*
X94913Y775707D01*
X93685Y778671D01*
X93685Y781879D01*
X94913Y784843D01*
X97182Y787112D01*
X100146Y788340D01*
X103354Y788340D01*
X106318Y787112D01*
X108587Y784843D01*
X109815Y781879D01*
X109815Y778671D01*
X108587Y775707D01*
X106318Y773438D01*
X103354Y772210D01*
X100146Y772210D01*
G37*
%LPD*%
%LPC*%
G36*
X176346Y772210D02*
X176346Y772210D01*
X173382Y773438D01*
X171113Y775707D01*
X169885Y778671D01*
X169885Y781879D01*
X171113Y784843D01*
X173382Y787112D01*
X176346Y788340D01*
X179554Y788340D01*
X182518Y787112D01*
X184787Y784843D01*
X186015Y781879D01*
X186015Y778671D01*
X184787Y775707D01*
X182518Y773438D01*
X179554Y772210D01*
X176346Y772210D01*
G37*
%LPD*%
%LPC*%
G36*
X150946Y772210D02*
X150946Y772210D01*
X147982Y773438D01*
X145713Y775707D01*
X144485Y778671D01*
X144485Y781879D01*
X145713Y784843D01*
X147982Y787112D01*
X150946Y788340D01*
X154154Y788340D01*
X157118Y787112D01*
X159387Y784843D01*
X160615Y781879D01*
X160615Y778671D01*
X159387Y775707D01*
X157118Y773438D01*
X154154Y772210D01*
X150946Y772210D01*
G37*
%LPD*%
%LPC*%
G36*
X150946Y746810D02*
X150946Y746810D01*
X147982Y748038D01*
X145713Y750307D01*
X144485Y753271D01*
X144485Y756479D01*
X145713Y759443D01*
X147982Y761712D01*
X150946Y762940D01*
X154154Y762940D01*
X157118Y761712D01*
X159387Y759443D01*
X160615Y756479D01*
X160615Y753271D01*
X159387Y750307D01*
X157118Y748038D01*
X154154Y746810D01*
X150946Y746810D01*
G37*
%LPD*%
%LPC*%
G36*
X125546Y746810D02*
X125546Y746810D01*
X122582Y748038D01*
X120313Y750307D01*
X119085Y753271D01*
X119085Y756479D01*
X120313Y759443D01*
X122582Y761712D01*
X125546Y762940D01*
X128754Y762940D01*
X131718Y761712D01*
X133987Y759443D01*
X135215Y756479D01*
X135215Y753271D01*
X133987Y750307D01*
X131718Y748038D01*
X128754Y746810D01*
X125546Y746810D01*
G37*
%LPD*%
%LPC*%
G36*
X74023Y428223D02*
X74023Y428223D01*
X74023Y447226D01*
X75003Y447031D01*
X76565Y446384D01*
X77970Y445445D01*
X79165Y444250D01*
X80104Y442845D01*
X80751Y441283D01*
X81081Y439625D01*
X81081Y428223D01*
X74023Y428223D01*
G37*
%LPD*%
%LPC*%
G36*
X74023Y359177D02*
X74023Y359177D01*
X81081Y359177D01*
X81081Y347775D01*
X80751Y346117D01*
X80104Y344555D01*
X79165Y343150D01*
X77970Y341955D01*
X76565Y341016D01*
X75003Y340369D01*
X74023Y340174D01*
X74023Y359177D01*
G37*
%LPD*%
%LPC*%
G36*
X93217Y643635D02*
X93217Y643635D01*
X93217Y659778D01*
X94073Y659643D01*
X95594Y659148D01*
X97019Y658422D01*
X98313Y657482D01*
X99444Y656351D01*
X100384Y655057D01*
X101110Y653632D01*
X101605Y652111D01*
X101855Y650532D01*
X101855Y643635D01*
X93217Y643635D01*
G37*
%LPD*%
%LPC*%
G36*
X93217Y640589D02*
X93217Y640589D01*
X101855Y640589D01*
X101855Y633692D01*
X101605Y632113D01*
X101110Y630592D01*
X100384Y629167D01*
X99444Y627873D01*
X98313Y626742D01*
X97019Y625802D01*
X95594Y625076D01*
X94073Y624581D01*
X93217Y624446D01*
X93217Y640589D01*
G37*
%LPD*%
%LPC*%
G36*
X81533Y643635D02*
X81533Y643635D01*
X81533Y650532D01*
X81783Y652111D01*
X82278Y653632D01*
X83004Y655057D01*
X83944Y656351D01*
X85075Y657482D01*
X86369Y658422D01*
X87794Y659148D01*
X89315Y659643D01*
X90171Y659778D01*
X90171Y643635D01*
X81533Y643635D01*
G37*
%LPD*%
%LPC*%
G36*
X89315Y624581D02*
X89315Y624581D01*
X87794Y625076D01*
X86369Y625802D01*
X85075Y626742D01*
X83944Y627873D01*
X83004Y629167D01*
X82278Y630592D01*
X81783Y632113D01*
X81533Y633692D01*
X81533Y640589D01*
X90171Y640589D01*
X90171Y624446D01*
X89315Y624581D01*
G37*
%LPD*%
%LPC*%
G36*
X179473Y756398D02*
X179473Y756398D01*
X179473Y763956D01*
X184824Y763956D01*
X185471Y763783D01*
X186050Y763448D01*
X186523Y762975D01*
X186858Y762396D01*
X187031Y761749D01*
X187031Y756398D01*
X179473Y756398D01*
G37*
%LPD*%
%LPC*%
G36*
X168869Y756398D02*
X168869Y756398D01*
X168869Y761749D01*
X169042Y762396D01*
X169377Y762975D01*
X169850Y763448D01*
X170429Y763783D01*
X171076Y763956D01*
X176427Y763956D01*
X176427Y756398D01*
X168869Y756398D01*
G37*
%LPD*%
%LPC*%
G36*
X179473Y745794D02*
X179473Y745794D01*
X179473Y753352D01*
X187031Y753352D01*
X187031Y748001D01*
X186858Y747354D01*
X186523Y746775D01*
X186050Y746302D01*
X185471Y745967D01*
X184824Y745794D01*
X179473Y745794D01*
G37*
%LPD*%
%LPC*%
G36*
X171076Y745794D02*
X171076Y745794D01*
X170429Y745967D01*
X169850Y746302D01*
X169377Y746775D01*
X169042Y747354D01*
X168869Y748001D01*
X168869Y753352D01*
X176427Y753352D01*
X176427Y745794D01*
X171076Y745794D01*
G37*
%LPD*%
%LPC*%
G36*
X177949Y754874D02*
X177949Y754874D01*
X177949Y754876D01*
X177951Y754876D01*
X177951Y754874D01*
X177949Y754874D01*
G37*
%LPD*%
%LPC*%
G36*
X91693Y642111D02*
X91693Y642111D01*
X91693Y642113D01*
X91695Y642113D01*
X91695Y642111D01*
X91693Y642111D01*
G37*
%LPD*%
D10*
X38100Y723900D03*
D11*
X91694Y649732D02*
X91694Y634492D01*
X91694Y584708D02*
X91694Y569468D01*
X136906Y634492D02*
X136906Y649732D01*
X136906Y584708D02*
X136906Y569468D01*
D12*
X171196Y723900D02*
X184404Y723900D01*
X184404Y673100D02*
X171196Y673100D01*
X171196Y698500D02*
X184404Y698500D01*
D13*
X177950Y754875D03*
X101750Y754875D03*
D14*
X152550Y754875D03*
X127150Y754875D03*
X127150Y780275D03*
X152550Y780275D03*
X177950Y780275D03*
X101750Y780275D03*
D15*
X152400Y698500D03*
X76200Y698500D03*
D16*
X44500Y429700D03*
X44500Y357700D03*
D17*
X72500Y360700D02*
X72500Y348620D01*
X72500Y426700D02*
X72500Y438780D01*
D18*
X88900Y673100D03*
X76200Y647700D03*
X177800Y647700D03*
X114300Y647700D03*
X152400Y673100D03*
X127000Y723900D03*
X177800Y736600D03*
X190500Y774700D03*
X76200Y749300D03*
X88900Y520700D03*
X127000Y508000D03*
X152400Y495300D03*
X190500Y495300D03*
X177800Y469900D03*
X139700Y469900D03*
X88900Y469900D03*
X25400Y393700D03*
X101600Y419100D03*
X139700Y355600D03*
X190500Y368300D03*
X190500Y406400D03*
X127000Y457200D03*
X114300Y469900D03*
X25400Y406400D03*
X25400Y381000D03*
M02*
