G04 EAGLE Gerber X2 export*
%TF.Part,Single*%
%TF.FileFunction,Copper,L2,Bot,Mixed*%
%TF.FilePolarity,Positive*%
%TF.GenerationSoftware,Autodesk,EAGLE,8.6.0*%
%TF.CreationDate,2018-01-31T11:55:17Z*%
G75*
%MOMM*%
%FSLAX34Y34*%
%LPD*%
%AMOC8*
5,1,8,0,0,1.08239X$1,22.5*%
G01*
%ADD10C,1.778000*%
%ADD11C,1.524000*%
%ADD12C,1.320800*%
%ADD13R,1.308000X1.308000*%
%ADD14C,1.308000*%
%ADD15P,1.429621X8X202.500000*%
%ADD16R,1.200000X0.550000*%
%ADD17R,1.200000X1.200000*%
%ADD18R,1.300000X1.500000*%
%ADD19R,1.500000X1.300000*%
%ADD20R,4.600000X1.000000*%
%ADD21R,3.400000X1.600000*%
%ADD22R,2.500000X2.500000*%
%ADD23C,1.208000*%
%ADD24R,1.350000X0.400000*%
%ADD25R,2.000000X1.000000*%
%ADD26C,0.152400*%
%ADD27C,0.756400*%

G36*
X214398Y327664D02*
X214398Y327664D01*
X214417Y327662D01*
X214519Y327684D01*
X214621Y327700D01*
X214638Y327710D01*
X214658Y327714D01*
X214747Y327767D01*
X214838Y327816D01*
X214852Y327830D01*
X214869Y327840D01*
X214936Y327919D01*
X215008Y327994D01*
X215016Y328012D01*
X215029Y328027D01*
X215068Y328123D01*
X215111Y328217D01*
X215113Y328237D01*
X215121Y328255D01*
X215139Y328422D01*
X215139Y801778D01*
X215136Y801798D01*
X215138Y801817D01*
X215116Y801919D01*
X215100Y802021D01*
X215090Y802038D01*
X215086Y802058D01*
X215033Y802147D01*
X214984Y802238D01*
X214970Y802252D01*
X214960Y802269D01*
X214881Y802336D01*
X214806Y802408D01*
X214788Y802416D01*
X214773Y802429D01*
X214677Y802468D01*
X214583Y802511D01*
X214563Y802513D01*
X214545Y802521D01*
X214378Y802539D01*
X-1778Y802539D01*
X-1798Y802536D01*
X-1817Y802538D01*
X-1919Y802516D01*
X-2021Y802500D01*
X-2038Y802490D01*
X-2058Y802486D01*
X-2147Y802433D01*
X-2238Y802384D01*
X-2252Y802370D01*
X-2269Y802360D01*
X-2336Y802281D01*
X-2408Y802206D01*
X-2416Y802188D01*
X-2429Y802173D01*
X-2468Y802077D01*
X-2511Y801983D01*
X-2513Y801963D01*
X-2521Y801945D01*
X-2539Y801778D01*
X-2539Y328422D01*
X-2536Y328402D01*
X-2538Y328383D01*
X-2516Y328281D01*
X-2500Y328179D01*
X-2490Y328162D01*
X-2486Y328142D01*
X-2433Y328053D01*
X-2384Y327962D01*
X-2370Y327948D01*
X-2360Y327931D01*
X-2281Y327864D01*
X-2206Y327792D01*
X-2188Y327784D01*
X-2173Y327771D01*
X-2077Y327732D01*
X-1983Y327689D01*
X-1963Y327687D01*
X-1945Y327679D01*
X-1778Y327661D01*
X214378Y327661D01*
X214398Y327664D01*
G37*
%LPC*%
G36*
X156968Y338075D02*
X156968Y338075D01*
X156075Y338968D01*
X156075Y343052D01*
X156072Y343072D01*
X156074Y343091D01*
X156052Y343193D01*
X156036Y343295D01*
X156026Y343312D01*
X156022Y343332D01*
X155969Y343421D01*
X155920Y343512D01*
X155906Y343526D01*
X155896Y343543D01*
X155817Y343610D01*
X155742Y343682D01*
X155724Y343690D01*
X155709Y343703D01*
X155613Y343742D01*
X155519Y343785D01*
X155499Y343787D01*
X155481Y343795D01*
X155314Y343813D01*
X135587Y343813D01*
X135567Y343810D01*
X135548Y343812D01*
X135446Y343790D01*
X135344Y343774D01*
X135327Y343764D01*
X135307Y343760D01*
X135218Y343707D01*
X135127Y343658D01*
X135113Y343644D01*
X135096Y343634D01*
X135029Y343555D01*
X134957Y343480D01*
X134949Y343462D01*
X134936Y343447D01*
X134897Y343351D01*
X134854Y343257D01*
X134852Y343237D01*
X134844Y343219D01*
X134826Y343052D01*
X134826Y342718D01*
X133933Y341825D01*
X120669Y341825D01*
X119776Y342718D01*
X119776Y349482D01*
X119908Y349614D01*
X119977Y349709D01*
X120048Y349806D01*
X120050Y349810D01*
X120052Y349813D01*
X120087Y349927D01*
X120123Y350040D01*
X120123Y350045D01*
X120124Y350048D01*
X120121Y350165D01*
X120119Y350286D01*
X120118Y350290D01*
X120118Y350294D01*
X120077Y350405D01*
X120038Y350518D01*
X120035Y350521D01*
X120034Y350525D01*
X119959Y350618D01*
X119886Y350712D01*
X119882Y350715D01*
X119880Y350717D01*
X119868Y350725D01*
X119751Y350811D01*
X119741Y350817D01*
X119268Y351290D01*
X118933Y351869D01*
X118760Y352516D01*
X118760Y354226D01*
X126688Y354226D01*
X126707Y354229D01*
X126727Y354227D01*
X126829Y354249D01*
X126931Y354265D01*
X126948Y354275D01*
X126968Y354279D01*
X127057Y354332D01*
X127148Y354381D01*
X127162Y354395D01*
X127179Y354405D01*
X127246Y354484D01*
X127300Y354541D01*
X127308Y354527D01*
X127322Y354513D01*
X127332Y354496D01*
X127411Y354429D01*
X127486Y354357D01*
X127504Y354349D01*
X127519Y354336D01*
X127616Y354297D01*
X127709Y354254D01*
X127729Y354252D01*
X127747Y354244D01*
X127914Y354226D01*
X135842Y354226D01*
X135842Y352516D01*
X135669Y351869D01*
X135334Y351290D01*
X134861Y350817D01*
X134851Y350811D01*
X134760Y350736D01*
X134666Y350662D01*
X134664Y350658D01*
X134661Y350655D01*
X134598Y350556D01*
X134533Y350455D01*
X134532Y350451D01*
X134530Y350447D01*
X134502Y350332D01*
X134473Y350216D01*
X134474Y350212D01*
X134473Y350208D01*
X134483Y350089D01*
X134492Y349971D01*
X134494Y349967D01*
X134494Y349963D01*
X134542Y349855D01*
X134589Y349745D01*
X134592Y349741D01*
X134593Y349738D01*
X134602Y349728D01*
X134694Y349614D01*
X134826Y349482D01*
X134826Y349148D01*
X134829Y349128D01*
X134827Y349109D01*
X134849Y349007D01*
X134865Y348905D01*
X134875Y348888D01*
X134879Y348868D01*
X134932Y348779D01*
X134981Y348688D01*
X134995Y348674D01*
X135005Y348657D01*
X135084Y348590D01*
X135159Y348518D01*
X135177Y348510D01*
X135192Y348497D01*
X135288Y348458D01*
X135382Y348415D01*
X135402Y348413D01*
X135420Y348405D01*
X135587Y348387D01*
X155314Y348387D01*
X155334Y348390D01*
X155353Y348388D01*
X155455Y348410D01*
X155557Y348426D01*
X155574Y348436D01*
X155594Y348440D01*
X155683Y348493D01*
X155774Y348542D01*
X155788Y348556D01*
X155805Y348566D01*
X155872Y348645D01*
X155944Y348720D01*
X155952Y348738D01*
X155965Y348753D01*
X156004Y348849D01*
X156047Y348943D01*
X156049Y348963D01*
X156057Y348981D01*
X156075Y349148D01*
X156075Y353232D01*
X156968Y354125D01*
X173232Y354125D01*
X174125Y353232D01*
X174125Y349148D01*
X174128Y349128D01*
X174126Y349109D01*
X174148Y349007D01*
X174164Y348905D01*
X174174Y348888D01*
X174178Y348868D01*
X174231Y348779D01*
X174280Y348688D01*
X174294Y348674D01*
X174304Y348657D01*
X174383Y348590D01*
X174458Y348518D01*
X174476Y348510D01*
X174491Y348497D01*
X174587Y348458D01*
X174681Y348415D01*
X174701Y348413D01*
X174719Y348405D01*
X174886Y348387D01*
X198630Y348387D01*
X198650Y348390D01*
X198669Y348388D01*
X198771Y348410D01*
X198873Y348426D01*
X198890Y348436D01*
X198910Y348440D01*
X198999Y348493D01*
X199090Y348542D01*
X199104Y348556D01*
X199121Y348566D01*
X199188Y348645D01*
X199260Y348720D01*
X199268Y348738D01*
X199281Y348753D01*
X199320Y348849D01*
X199363Y348943D01*
X199365Y348963D01*
X199373Y348981D01*
X199391Y349148D01*
X199391Y412550D01*
X199372Y412667D01*
X199354Y412785D01*
X199352Y412789D01*
X199352Y412793D01*
X199296Y412897D01*
X199241Y413004D01*
X199238Y413007D01*
X199236Y413010D01*
X199151Y413092D01*
X199065Y413175D01*
X199061Y413177D01*
X199058Y413180D01*
X198951Y413230D01*
X198843Y413281D01*
X198839Y413282D01*
X198835Y413283D01*
X198717Y413297D01*
X198599Y413311D01*
X198594Y413310D01*
X198591Y413311D01*
X198577Y413308D01*
X198433Y413286D01*
X198335Y413259D01*
X192023Y413259D01*
X192023Y421538D01*
X192020Y421558D01*
X192022Y421577D01*
X192000Y421679D01*
X191983Y421781D01*
X191974Y421798D01*
X191970Y421818D01*
X191917Y421907D01*
X191868Y421998D01*
X191854Y422012D01*
X191844Y422029D01*
X191765Y422096D01*
X191690Y422167D01*
X191672Y422176D01*
X191657Y422189D01*
X191561Y422228D01*
X191467Y422271D01*
X191447Y422273D01*
X191429Y422281D01*
X191262Y422299D01*
X190499Y422299D01*
X190499Y422301D01*
X191262Y422301D01*
X191282Y422304D01*
X191301Y422302D01*
X191403Y422324D01*
X191505Y422341D01*
X191522Y422350D01*
X191542Y422354D01*
X191631Y422407D01*
X191722Y422456D01*
X191736Y422470D01*
X191753Y422480D01*
X191820Y422559D01*
X191891Y422634D01*
X191900Y422652D01*
X191913Y422667D01*
X191952Y422763D01*
X191995Y422857D01*
X191997Y422877D01*
X192005Y422895D01*
X192023Y423062D01*
X192023Y431341D01*
X198335Y431341D01*
X198433Y431314D01*
X198551Y431303D01*
X198669Y431289D01*
X198674Y431290D01*
X198678Y431290D01*
X198793Y431316D01*
X198910Y431342D01*
X198913Y431344D01*
X198917Y431345D01*
X199020Y431407D01*
X199121Y431468D01*
X199124Y431471D01*
X199127Y431473D01*
X199203Y431564D01*
X199281Y431655D01*
X199282Y431659D01*
X199285Y431662D01*
X199328Y431771D01*
X199373Y431883D01*
X199373Y431888D01*
X199375Y431891D01*
X199375Y431905D01*
X199391Y432050D01*
X199391Y432514D01*
X199388Y432534D01*
X199390Y432553D01*
X199368Y432655D01*
X199352Y432757D01*
X199342Y432774D01*
X199338Y432794D01*
X199285Y432883D01*
X199236Y432974D01*
X199222Y432988D01*
X199212Y433005D01*
X199133Y433072D01*
X199058Y433144D01*
X199040Y433152D01*
X199025Y433165D01*
X198929Y433204D01*
X198835Y433247D01*
X198815Y433249D01*
X198797Y433257D01*
X198630Y433275D01*
X182368Y433275D01*
X181475Y434168D01*
X181475Y439252D01*
X181472Y439272D01*
X181474Y439291D01*
X181452Y439393D01*
X181436Y439495D01*
X181426Y439512D01*
X181422Y439532D01*
X181369Y439621D01*
X181320Y439712D01*
X181306Y439726D01*
X181296Y439743D01*
X181217Y439810D01*
X181142Y439882D01*
X181124Y439890D01*
X181109Y439903D01*
X181013Y439942D01*
X180919Y439985D01*
X180899Y439987D01*
X180881Y439995D01*
X180714Y440013D01*
X173386Y440013D01*
X173366Y440010D01*
X173347Y440012D01*
X173245Y439990D01*
X173143Y439974D01*
X173126Y439964D01*
X173106Y439960D01*
X173017Y439907D01*
X172926Y439858D01*
X172912Y439844D01*
X172895Y439834D01*
X172828Y439755D01*
X172756Y439680D01*
X172748Y439662D01*
X172735Y439647D01*
X172696Y439551D01*
X172653Y439457D01*
X172651Y439437D01*
X172643Y439419D01*
X172625Y439252D01*
X172625Y435668D01*
X171732Y434775D01*
X158468Y434775D01*
X157575Y435668D01*
X157575Y441452D01*
X157572Y441472D01*
X157574Y441491D01*
X157552Y441593D01*
X157536Y441695D01*
X157526Y441712D01*
X157522Y441732D01*
X157469Y441821D01*
X157420Y441912D01*
X157406Y441926D01*
X157396Y441943D01*
X157317Y442010D01*
X157242Y442082D01*
X157224Y442090D01*
X157209Y442103D01*
X157113Y442142D01*
X157019Y442185D01*
X156999Y442187D01*
X156981Y442195D01*
X156814Y442213D01*
X144081Y442213D01*
X144010Y442202D01*
X143938Y442200D01*
X143889Y442182D01*
X143838Y442174D01*
X143775Y442140D01*
X143707Y442115D01*
X143667Y442083D01*
X143621Y442058D01*
X143571Y442006D01*
X143515Y441962D01*
X143487Y441918D01*
X143451Y441880D01*
X143421Y441815D01*
X143382Y441755D01*
X143370Y441704D01*
X143348Y441657D01*
X143340Y441586D01*
X143322Y441516D01*
X143326Y441464D01*
X143321Y441413D01*
X143336Y441342D01*
X143341Y441271D01*
X143362Y441223D01*
X143373Y441172D01*
X143410Y441111D01*
X143438Y441045D01*
X143483Y440989D01*
X143499Y440961D01*
X143517Y440946D01*
X143543Y440914D01*
X144525Y439932D01*
X144525Y434848D01*
X144528Y434828D01*
X144526Y434809D01*
X144548Y434707D01*
X144564Y434605D01*
X144574Y434588D01*
X144578Y434568D01*
X144631Y434479D01*
X144680Y434388D01*
X144694Y434374D01*
X144704Y434357D01*
X144783Y434290D01*
X144858Y434218D01*
X144876Y434210D01*
X144891Y434197D01*
X144987Y434158D01*
X145081Y434115D01*
X145101Y434113D01*
X145119Y434105D01*
X145286Y434087D01*
X153347Y434087D01*
X154687Y432747D01*
X154687Y424348D01*
X154690Y424328D01*
X154688Y424309D01*
X154710Y424207D01*
X154726Y424105D01*
X154736Y424088D01*
X154740Y424068D01*
X154793Y423979D01*
X154842Y423888D01*
X154856Y423874D01*
X154866Y423857D01*
X154945Y423790D01*
X155020Y423718D01*
X155038Y423710D01*
X155053Y423697D01*
X155149Y423658D01*
X155243Y423615D01*
X155263Y423613D01*
X155281Y423605D01*
X155448Y423587D01*
X156814Y423587D01*
X156834Y423590D01*
X156853Y423588D01*
X156955Y423610D01*
X157057Y423626D01*
X157074Y423636D01*
X157094Y423640D01*
X157183Y423693D01*
X157274Y423742D01*
X157288Y423756D01*
X157305Y423766D01*
X157372Y423845D01*
X157444Y423920D01*
X157452Y423938D01*
X157465Y423953D01*
X157504Y424049D01*
X157547Y424143D01*
X157549Y424163D01*
X157557Y424181D01*
X157575Y424348D01*
X157575Y427932D01*
X158468Y428825D01*
X171732Y428825D01*
X172625Y427932D01*
X172625Y414668D01*
X171732Y413775D01*
X158468Y413775D01*
X157575Y414668D01*
X157575Y418252D01*
X157572Y418271D01*
X157574Y418289D01*
X157574Y418290D01*
X157574Y418291D01*
X157552Y418393D01*
X157536Y418495D01*
X157526Y418512D01*
X157522Y418532D01*
X157469Y418621D01*
X157420Y418712D01*
X157406Y418726D01*
X157396Y418743D01*
X157317Y418810D01*
X157242Y418882D01*
X157224Y418890D01*
X157209Y418903D01*
X157113Y418942D01*
X157019Y418985D01*
X156999Y418987D01*
X156981Y418995D01*
X156814Y419013D01*
X151453Y419013D01*
X150113Y420353D01*
X150113Y428752D01*
X150110Y428772D01*
X150112Y428791D01*
X150090Y428893D01*
X150074Y428995D01*
X150064Y429012D01*
X150060Y429032D01*
X150007Y429121D01*
X149958Y429212D01*
X149944Y429226D01*
X149934Y429243D01*
X149855Y429310D01*
X149780Y429382D01*
X149762Y429390D01*
X149747Y429403D01*
X149651Y429442D01*
X149557Y429485D01*
X149537Y429487D01*
X149519Y429495D01*
X149352Y429513D01*
X145286Y429513D01*
X145266Y429510D01*
X145247Y429512D01*
X145145Y429490D01*
X145043Y429474D01*
X145026Y429464D01*
X145006Y429460D01*
X144917Y429407D01*
X144826Y429358D01*
X144812Y429344D01*
X144795Y429334D01*
X144728Y429255D01*
X144656Y429180D01*
X144648Y429162D01*
X144635Y429147D01*
X144596Y429051D01*
X144553Y428957D01*
X144551Y428937D01*
X144543Y428919D01*
X144525Y428752D01*
X144525Y423668D01*
X143632Y422775D01*
X131310Y422775D01*
X131240Y422764D01*
X131168Y422762D01*
X131119Y422744D01*
X131068Y422736D01*
X131004Y422702D01*
X130937Y422677D01*
X130896Y422645D01*
X130850Y422620D01*
X130801Y422568D01*
X130745Y422524D01*
X130717Y422480D01*
X130681Y422442D01*
X130651Y422377D01*
X130612Y422317D01*
X130599Y422266D01*
X130577Y422219D01*
X130569Y422148D01*
X130552Y422078D01*
X130556Y422026D01*
X130550Y421975D01*
X130565Y421904D01*
X130571Y421833D01*
X130591Y421785D01*
X130602Y421734D01*
X130639Y421673D01*
X130667Y421607D01*
X130712Y421551D01*
X130729Y421523D01*
X130746Y421508D01*
X130772Y421476D01*
X132201Y420047D01*
X132201Y411986D01*
X132204Y411966D01*
X132202Y411947D01*
X132224Y411845D01*
X132240Y411743D01*
X132250Y411726D01*
X132254Y411706D01*
X132307Y411617D01*
X132356Y411526D01*
X132370Y411512D01*
X132380Y411495D01*
X132459Y411428D01*
X132534Y411356D01*
X132552Y411348D01*
X132567Y411335D01*
X132663Y411296D01*
X132757Y411253D01*
X132777Y411251D01*
X132795Y411243D01*
X132962Y411225D01*
X147832Y411225D01*
X148725Y410332D01*
X148725Y406248D01*
X148728Y406228D01*
X148726Y406209D01*
X148748Y406107D01*
X148764Y406005D01*
X148774Y405988D01*
X148778Y405968D01*
X148831Y405879D01*
X148880Y405788D01*
X148894Y405774D01*
X148904Y405757D01*
X148983Y405690D01*
X149058Y405618D01*
X149076Y405610D01*
X149091Y405597D01*
X149187Y405558D01*
X149281Y405515D01*
X149301Y405513D01*
X149319Y405505D01*
X149486Y405487D01*
X156814Y405487D01*
X156834Y405490D01*
X156853Y405488D01*
X156955Y405510D01*
X157057Y405526D01*
X157074Y405536D01*
X157094Y405540D01*
X157183Y405593D01*
X157274Y405642D01*
X157288Y405656D01*
X157305Y405666D01*
X157372Y405745D01*
X157444Y405820D01*
X157452Y405838D01*
X157465Y405853D01*
X157504Y405949D01*
X157547Y406043D01*
X157549Y406063D01*
X157557Y406081D01*
X157575Y406248D01*
X157575Y410832D01*
X158468Y411725D01*
X171732Y411725D01*
X172625Y410832D01*
X172625Y397568D01*
X171732Y396675D01*
X158468Y396675D01*
X157575Y397568D01*
X157575Y400152D01*
X157572Y400172D01*
X157574Y400191D01*
X157552Y400293D01*
X157536Y400395D01*
X157526Y400412D01*
X157522Y400432D01*
X157469Y400521D01*
X157420Y400612D01*
X157406Y400626D01*
X157396Y400643D01*
X157317Y400710D01*
X157242Y400782D01*
X157224Y400790D01*
X157209Y400803D01*
X157113Y400842D01*
X157019Y400885D01*
X156999Y400887D01*
X156981Y400895D01*
X156814Y400913D01*
X149486Y400913D01*
X149466Y400910D01*
X149447Y400912D01*
X149345Y400890D01*
X149243Y400874D01*
X149226Y400864D01*
X149206Y400860D01*
X149117Y400807D01*
X149026Y400758D01*
X149012Y400744D01*
X148995Y400734D01*
X148928Y400655D01*
X148856Y400580D01*
X148848Y400562D01*
X148835Y400547D01*
X148796Y400451D01*
X148753Y400357D01*
X148751Y400337D01*
X148743Y400319D01*
X148725Y400152D01*
X148725Y396068D01*
X147832Y395175D01*
X135564Y395175D01*
X135493Y395164D01*
X135421Y395162D01*
X135372Y395144D01*
X135321Y395136D01*
X135258Y395102D01*
X135190Y395077D01*
X135149Y395045D01*
X135103Y395020D01*
X135054Y394969D01*
X134998Y394924D01*
X134970Y394880D01*
X134934Y394842D01*
X134904Y394777D01*
X134865Y394717D01*
X134852Y394666D01*
X134830Y394619D01*
X134823Y394548D01*
X134805Y394478D01*
X134809Y394426D01*
X134803Y394375D01*
X134819Y394304D01*
X134824Y394233D01*
X134845Y394185D01*
X134856Y394134D01*
X134892Y394073D01*
X134920Y394007D01*
X134965Y393951D01*
X134982Y393923D01*
X135000Y393908D01*
X135025Y393876D01*
X136453Y392448D01*
X136527Y392395D01*
X136597Y392335D01*
X136627Y392323D01*
X136653Y392304D01*
X136740Y392277D01*
X136825Y392243D01*
X136866Y392239D01*
X136888Y392232D01*
X136920Y392233D01*
X136992Y392225D01*
X147832Y392225D01*
X148725Y391332D01*
X148725Y377068D01*
X147832Y376175D01*
X142748Y376175D01*
X142728Y376172D01*
X142709Y376174D01*
X142607Y376152D01*
X142505Y376136D01*
X142488Y376126D01*
X142468Y376122D01*
X142379Y376069D01*
X142288Y376020D01*
X142274Y376006D01*
X142257Y375996D01*
X142190Y375917D01*
X142118Y375842D01*
X142110Y375824D01*
X142097Y375809D01*
X142058Y375713D01*
X142015Y375619D01*
X142013Y375599D01*
X142005Y375581D01*
X141987Y375414D01*
X141987Y364153D01*
X140647Y362813D01*
X135587Y362813D01*
X135567Y362810D01*
X135548Y362812D01*
X135446Y362790D01*
X135344Y362774D01*
X135327Y362764D01*
X135307Y362760D01*
X135218Y362707D01*
X135127Y362658D01*
X135113Y362644D01*
X135096Y362634D01*
X135029Y362555D01*
X134957Y362480D01*
X134949Y362462D01*
X134936Y362447D01*
X134897Y362351D01*
X134854Y362257D01*
X134852Y362237D01*
X134844Y362219D01*
X134826Y362052D01*
X134826Y361718D01*
X134694Y361586D01*
X134625Y361491D01*
X134554Y361394D01*
X134552Y361390D01*
X134550Y361387D01*
X134515Y361273D01*
X134479Y361160D01*
X134479Y361155D01*
X134478Y361152D01*
X134481Y361033D01*
X134483Y360914D01*
X134484Y360910D01*
X134484Y360906D01*
X134525Y360795D01*
X134564Y360682D01*
X134567Y360679D01*
X134568Y360675D01*
X134643Y360582D01*
X134716Y360488D01*
X134720Y360485D01*
X134722Y360483D01*
X134734Y360475D01*
X134851Y360389D01*
X134861Y360383D01*
X135334Y359910D01*
X135669Y359331D01*
X135842Y358684D01*
X135842Y356974D01*
X127914Y356974D01*
X127895Y356971D01*
X127875Y356973D01*
X127773Y356951D01*
X127671Y356935D01*
X127654Y356925D01*
X127634Y356921D01*
X127545Y356868D01*
X127454Y356819D01*
X127440Y356805D01*
X127423Y356795D01*
X127356Y356716D01*
X127302Y356659D01*
X127294Y356673D01*
X127280Y356687D01*
X127270Y356704D01*
X127191Y356771D01*
X127116Y356843D01*
X127098Y356851D01*
X127083Y356864D01*
X126986Y356903D01*
X126893Y356946D01*
X126873Y356948D01*
X126855Y356956D01*
X126688Y356974D01*
X118760Y356974D01*
X118760Y358684D01*
X118933Y359331D01*
X119268Y359910D01*
X119741Y360383D01*
X119751Y360389D01*
X119842Y360464D01*
X119936Y360538D01*
X119938Y360542D01*
X119941Y360545D01*
X120004Y360644D01*
X120069Y360745D01*
X120070Y360749D01*
X120072Y360753D01*
X120100Y360868D01*
X120129Y360984D01*
X120128Y360988D01*
X120129Y360992D01*
X120119Y361111D01*
X120110Y361229D01*
X120108Y361233D01*
X120108Y361237D01*
X120060Y361345D01*
X120013Y361455D01*
X120010Y361459D01*
X120009Y361462D01*
X120000Y361472D01*
X119908Y361586D01*
X119776Y361718D01*
X119776Y368482D01*
X120669Y369375D01*
X133933Y369375D01*
X134826Y368482D01*
X134826Y368148D01*
X134829Y368128D01*
X134827Y368109D01*
X134849Y368007D01*
X134865Y367905D01*
X134875Y367888D01*
X134879Y367868D01*
X134932Y367779D01*
X134981Y367688D01*
X134995Y367674D01*
X135005Y367657D01*
X135084Y367590D01*
X135159Y367518D01*
X135177Y367510D01*
X135192Y367497D01*
X135288Y367458D01*
X135382Y367415D01*
X135402Y367413D01*
X135420Y367405D01*
X135587Y367387D01*
X136652Y367387D01*
X136672Y367390D01*
X136691Y367388D01*
X136793Y367410D01*
X136895Y367426D01*
X136912Y367436D01*
X136932Y367440D01*
X137021Y367493D01*
X137112Y367542D01*
X137126Y367556D01*
X137143Y367566D01*
X137210Y367645D01*
X137282Y367720D01*
X137290Y367738D01*
X137303Y367753D01*
X137342Y367849D01*
X137385Y367943D01*
X137387Y367963D01*
X137395Y367981D01*
X137413Y368148D01*
X137413Y375414D01*
X137410Y375434D01*
X137412Y375453D01*
X137390Y375555D01*
X137374Y375657D01*
X137364Y375674D01*
X137360Y375694D01*
X137307Y375783D01*
X137258Y375874D01*
X137244Y375888D01*
X137234Y375905D01*
X137155Y375972D01*
X137080Y376044D01*
X137062Y376052D01*
X137047Y376065D01*
X136951Y376104D01*
X136857Y376147D01*
X136837Y376149D01*
X136819Y376157D01*
X136652Y376175D01*
X131568Y376175D01*
X130675Y377068D01*
X130675Y391443D01*
X130661Y391533D01*
X130653Y391624D01*
X130641Y391653D01*
X130636Y391685D01*
X130593Y391766D01*
X130557Y391850D01*
X130531Y391882D01*
X130520Y391903D01*
X130497Y391925D01*
X130452Y391981D01*
X129190Y393243D01*
X127627Y394806D01*
X127627Y416052D01*
X127624Y416072D01*
X127626Y416091D01*
X127604Y416193D01*
X127588Y416295D01*
X127578Y416312D01*
X127574Y416332D01*
X127521Y416421D01*
X127472Y416512D01*
X127458Y416526D01*
X127448Y416543D01*
X127369Y416610D01*
X127294Y416682D01*
X127276Y416690D01*
X127261Y416703D01*
X127165Y416742D01*
X127071Y416785D01*
X127051Y416787D01*
X127033Y416795D01*
X126866Y416813D01*
X113353Y416813D01*
X112013Y418153D01*
X112013Y422014D01*
X112010Y422034D01*
X112012Y422053D01*
X111990Y422155D01*
X111974Y422257D01*
X111964Y422274D01*
X111960Y422294D01*
X111907Y422383D01*
X111858Y422474D01*
X111844Y422488D01*
X111834Y422505D01*
X111755Y422572D01*
X111680Y422644D01*
X111662Y422652D01*
X111647Y422665D01*
X111551Y422704D01*
X111457Y422747D01*
X111437Y422749D01*
X111419Y422757D01*
X111252Y422775D01*
X110368Y422775D01*
X109475Y423668D01*
X109475Y439932D01*
X110457Y440914D01*
X110499Y440972D01*
X110549Y441024D01*
X110571Y441071D01*
X110601Y441113D01*
X110622Y441182D01*
X110652Y441247D01*
X110658Y441299D01*
X110673Y441349D01*
X110671Y441420D01*
X110679Y441491D01*
X110668Y441542D01*
X110667Y441594D01*
X110642Y441662D01*
X110627Y441732D01*
X110600Y441777D01*
X110583Y441825D01*
X110538Y441881D01*
X110501Y441943D01*
X110461Y441977D01*
X110429Y442017D01*
X110369Y442056D01*
X110314Y442103D01*
X110266Y442122D01*
X110222Y442150D01*
X110152Y442168D01*
X110086Y442195D01*
X110015Y442203D01*
X109983Y442211D01*
X109960Y442209D01*
X109919Y442213D01*
X91948Y442213D01*
X91928Y442210D01*
X91909Y442212D01*
X91807Y442190D01*
X91705Y442174D01*
X91688Y442164D01*
X91668Y442160D01*
X91579Y442107D01*
X91488Y442058D01*
X91474Y442044D01*
X91457Y442034D01*
X91390Y441955D01*
X91318Y441880D01*
X91310Y441862D01*
X91297Y441847D01*
X91258Y441751D01*
X91215Y441657D01*
X91213Y441637D01*
X91205Y441619D01*
X91187Y441452D01*
X91187Y379753D01*
X91110Y379676D01*
X91057Y379602D01*
X90997Y379532D01*
X90985Y379502D01*
X90966Y379476D01*
X90939Y379389D01*
X90905Y379304D01*
X90901Y379263D01*
X90894Y379241D01*
X90895Y379209D01*
X90887Y379138D01*
X90887Y360062D01*
X90901Y359971D01*
X90909Y359881D01*
X90921Y359851D01*
X90926Y359819D01*
X90969Y359738D01*
X91005Y359654D01*
X91031Y359622D01*
X91042Y359601D01*
X91065Y359579D01*
X91110Y359523D01*
X100035Y350598D01*
X100109Y350545D01*
X100179Y350485D01*
X100209Y350473D01*
X100235Y350454D01*
X100322Y350427D01*
X100407Y350393D01*
X100448Y350389D01*
X100470Y350382D01*
X100502Y350383D01*
X100574Y350375D01*
X107931Y350375D01*
X108824Y349482D01*
X108824Y342718D01*
X107931Y341825D01*
X94667Y341825D01*
X93774Y342718D01*
X93774Y349514D01*
X93834Y349598D01*
X93840Y349617D01*
X93851Y349633D01*
X93876Y349734D01*
X93907Y349833D01*
X93906Y349853D01*
X93911Y349872D01*
X93903Y349975D01*
X93900Y350079D01*
X93893Y350097D01*
X93892Y350117D01*
X93851Y350212D01*
X93816Y350310D01*
X93803Y350325D01*
X93795Y350343D01*
X93691Y350474D01*
X86313Y357852D01*
X86313Y377652D01*
X86310Y377672D01*
X86312Y377691D01*
X86290Y377793D01*
X86274Y377895D01*
X86264Y377912D01*
X86260Y377932D01*
X86207Y378021D01*
X86158Y378112D01*
X86144Y378126D01*
X86134Y378143D01*
X86055Y378210D01*
X85980Y378282D01*
X85962Y378290D01*
X85947Y378303D01*
X85851Y378342D01*
X85757Y378385D01*
X85737Y378387D01*
X85719Y378395D01*
X85552Y378413D01*
X80185Y378413D01*
X80095Y378399D01*
X80004Y378391D01*
X79974Y378379D01*
X79942Y378374D01*
X79861Y378331D01*
X79778Y378295D01*
X79745Y378269D01*
X79725Y378258D01*
X79703Y378235D01*
X79647Y378190D01*
X78632Y377175D01*
X77922Y377175D01*
X77902Y377172D01*
X77883Y377174D01*
X77781Y377152D01*
X77679Y377136D01*
X77662Y377126D01*
X77642Y377122D01*
X77553Y377069D01*
X77462Y377020D01*
X77448Y377006D01*
X77431Y376996D01*
X77364Y376917D01*
X77292Y376842D01*
X77284Y376824D01*
X77271Y376809D01*
X77232Y376713D01*
X77189Y376619D01*
X77187Y376599D01*
X77179Y376581D01*
X77161Y376414D01*
X77161Y371483D01*
X76239Y369258D01*
X76224Y369191D01*
X76199Y369128D01*
X76196Y369073D01*
X76183Y369019D01*
X76190Y368951D01*
X76186Y368882D01*
X76201Y368829D01*
X76206Y368774D01*
X76234Y368711D01*
X76253Y368645D01*
X76284Y368600D01*
X76306Y368549D01*
X76353Y368499D01*
X76391Y368442D01*
X76450Y368392D01*
X76473Y368368D01*
X76492Y368358D01*
X76520Y368334D01*
X77970Y367365D01*
X79165Y366170D01*
X80104Y364765D01*
X80751Y363203D01*
X80946Y362223D01*
X73262Y362223D01*
X73242Y362220D01*
X73223Y362222D01*
X73121Y362200D01*
X73019Y362183D01*
X73002Y362174D01*
X72982Y362170D01*
X72893Y362117D01*
X72802Y362068D01*
X72788Y362054D01*
X72771Y362044D01*
X72704Y361965D01*
X72633Y361890D01*
X72624Y361872D01*
X72611Y361857D01*
X72573Y361761D01*
X72529Y361667D01*
X72527Y361647D01*
X72519Y361629D01*
X72501Y361462D01*
X72501Y360699D01*
X71738Y360699D01*
X71718Y360696D01*
X71699Y360698D01*
X71597Y360676D01*
X71495Y360659D01*
X71478Y360650D01*
X71458Y360646D01*
X71369Y360593D01*
X71278Y360544D01*
X71264Y360530D01*
X71247Y360520D01*
X71180Y360441D01*
X71109Y360366D01*
X71100Y360348D01*
X71087Y360333D01*
X71048Y360237D01*
X71005Y360143D01*
X71003Y360123D01*
X70995Y360105D01*
X70977Y359938D01*
X70977Y340174D01*
X69997Y340369D01*
X68435Y341016D01*
X67030Y341955D01*
X65835Y343150D01*
X64896Y344555D01*
X64249Y346117D01*
X63919Y347775D01*
X63919Y359778D01*
X63916Y359798D01*
X63918Y359817D01*
X63896Y359919D01*
X63880Y360021D01*
X63870Y360038D01*
X63866Y360058D01*
X63813Y360147D01*
X63764Y360238D01*
X63750Y360252D01*
X63740Y360269D01*
X63661Y360336D01*
X63586Y360408D01*
X63568Y360416D01*
X63553Y360429D01*
X63457Y360468D01*
X63363Y360511D01*
X63343Y360513D01*
X63325Y360521D01*
X63158Y360539D01*
X61013Y360539D01*
X61001Y360537D01*
X60990Y360539D01*
X60880Y360518D01*
X60770Y360500D01*
X60760Y360494D01*
X60749Y360492D01*
X60651Y360437D01*
X60552Y360384D01*
X60545Y360376D01*
X60535Y360371D01*
X60460Y360287D01*
X60383Y360206D01*
X60378Y360196D01*
X60371Y360187D01*
X60326Y360084D01*
X60279Y359983D01*
X60278Y359972D01*
X60274Y359961D01*
X60265Y359849D01*
X60252Y359739D01*
X60255Y359728D01*
X60254Y359716D01*
X60286Y359552D01*
X60352Y359340D01*
X60209Y357769D01*
X60211Y357739D01*
X60209Y357631D01*
X60352Y356060D01*
X59955Y354786D01*
X59953Y354776D01*
X59947Y354762D01*
X59575Y353568D01*
X59571Y353537D01*
X59559Y353508D01*
X59541Y353341D01*
X59541Y344866D01*
X59368Y344219D01*
X59033Y343640D01*
X58560Y343167D01*
X57981Y342832D01*
X57334Y342659D01*
X45999Y342659D01*
X45999Y343778D01*
X45996Y343798D01*
X45998Y343817D01*
X45976Y343919D01*
X45960Y344021D01*
X45950Y344038D01*
X45946Y344058D01*
X45893Y344147D01*
X45844Y344238D01*
X45830Y344252D01*
X45820Y344269D01*
X45741Y344336D01*
X45666Y344408D01*
X45648Y344416D01*
X45633Y344429D01*
X45537Y344468D01*
X45443Y344511D01*
X45423Y344513D01*
X45405Y344521D01*
X45238Y344539D01*
X43762Y344539D01*
X43742Y344536D01*
X43722Y344538D01*
X43621Y344516D01*
X43519Y344500D01*
X43502Y344490D01*
X43482Y344486D01*
X43393Y344433D01*
X43302Y344384D01*
X43288Y344370D01*
X43271Y344360D01*
X43204Y344281D01*
X43132Y344206D01*
X43124Y344188D01*
X43111Y344173D01*
X43072Y344077D01*
X43029Y343983D01*
X43027Y343963D01*
X43019Y343945D01*
X43001Y343778D01*
X43001Y342659D01*
X31666Y342659D01*
X31019Y342832D01*
X30440Y343167D01*
X29967Y343640D01*
X29632Y344219D01*
X29459Y344866D01*
X29459Y353075D01*
X29446Y353154D01*
X29442Y353235D01*
X29424Y353289D01*
X29420Y353318D01*
X29406Y353343D01*
X29389Y353394D01*
X28568Y355172D01*
X28791Y357631D01*
X28789Y357661D01*
X28791Y357769D01*
X28568Y360228D01*
X29389Y362006D01*
X29411Y362083D01*
X29441Y362158D01*
X29447Y362215D01*
X29455Y362243D01*
X29453Y362271D01*
X29459Y362325D01*
X29459Y370534D01*
X29632Y371181D01*
X29967Y371760D01*
X30440Y372233D01*
X31019Y372568D01*
X31666Y372741D01*
X43001Y372741D01*
X43001Y371622D01*
X43004Y371602D01*
X43002Y371583D01*
X43024Y371481D01*
X43040Y371379D01*
X43050Y371362D01*
X43054Y371342D01*
X43107Y371253D01*
X43156Y371162D01*
X43170Y371148D01*
X43180Y371131D01*
X43259Y371064D01*
X43334Y370992D01*
X43352Y370984D01*
X43367Y370971D01*
X43463Y370932D01*
X43557Y370889D01*
X43577Y370887D01*
X43595Y370879D01*
X43762Y370861D01*
X45238Y370861D01*
X45258Y370864D01*
X45277Y370862D01*
X45379Y370884D01*
X45481Y370900D01*
X45498Y370910D01*
X45518Y370914D01*
X45607Y370967D01*
X45698Y371016D01*
X45712Y371030D01*
X45729Y371040D01*
X45796Y371119D01*
X45868Y371194D01*
X45876Y371212D01*
X45889Y371227D01*
X45928Y371323D01*
X45971Y371417D01*
X45973Y371437D01*
X45981Y371455D01*
X45999Y371622D01*
X45999Y372741D01*
X49078Y372741D01*
X49098Y372744D01*
X49117Y372742D01*
X49219Y372764D01*
X49321Y372780D01*
X49338Y372790D01*
X49358Y372794D01*
X49447Y372847D01*
X49538Y372896D01*
X49552Y372910D01*
X49569Y372920D01*
X49636Y372999D01*
X49708Y373074D01*
X49716Y373092D01*
X49729Y373107D01*
X49768Y373203D01*
X49811Y373297D01*
X49813Y373317D01*
X49821Y373335D01*
X49839Y373502D01*
X49839Y376917D01*
X50125Y377607D01*
X50135Y377651D01*
X50155Y377693D01*
X50163Y377770D01*
X50181Y377846D01*
X50177Y377892D01*
X50182Y377937D01*
X50165Y378014D01*
X50158Y378091D01*
X50139Y378133D01*
X50130Y378178D01*
X50090Y378245D01*
X50058Y378316D01*
X50027Y378350D01*
X50003Y378389D01*
X49944Y378440D01*
X49892Y378497D01*
X49851Y378519D01*
X49816Y378549D01*
X49744Y378578D01*
X49676Y378615D01*
X49631Y378624D01*
X49588Y378641D01*
X49452Y378656D01*
X49434Y378659D01*
X49429Y378658D01*
X49422Y378659D01*
X45023Y378659D01*
X45023Y385438D01*
X45020Y385458D01*
X45022Y385477D01*
X45000Y385579D01*
X44983Y385681D01*
X44974Y385698D01*
X44970Y385718D01*
X44917Y385807D01*
X44868Y385898D01*
X44854Y385912D01*
X44844Y385929D01*
X44765Y385996D01*
X44690Y386067D01*
X44672Y386076D01*
X44657Y386089D01*
X44561Y386128D01*
X44467Y386171D01*
X44447Y386173D01*
X44429Y386181D01*
X44262Y386199D01*
X43499Y386199D01*
X43499Y386201D01*
X44262Y386201D01*
X44282Y386204D01*
X44301Y386202D01*
X44403Y386224D01*
X44505Y386241D01*
X44522Y386250D01*
X44542Y386254D01*
X44631Y386307D01*
X44722Y386356D01*
X44736Y386370D01*
X44753Y386380D01*
X44820Y386459D01*
X44891Y386534D01*
X44900Y386552D01*
X44913Y386567D01*
X44952Y386663D01*
X44995Y386757D01*
X44997Y386777D01*
X45005Y386795D01*
X45023Y386962D01*
X45023Y400438D01*
X45020Y400458D01*
X45022Y400477D01*
X45000Y400579D01*
X44983Y400681D01*
X44974Y400698D01*
X44970Y400718D01*
X44917Y400807D01*
X44868Y400898D01*
X44854Y400912D01*
X44844Y400929D01*
X44765Y400996D01*
X44690Y401067D01*
X44672Y401076D01*
X44657Y401089D01*
X44561Y401128D01*
X44467Y401171D01*
X44447Y401173D01*
X44429Y401181D01*
X44262Y401199D01*
X43499Y401199D01*
X43499Y401201D01*
X44262Y401201D01*
X44282Y401204D01*
X44301Y401202D01*
X44403Y401224D01*
X44505Y401241D01*
X44522Y401250D01*
X44542Y401254D01*
X44631Y401307D01*
X44722Y401356D01*
X44736Y401370D01*
X44753Y401380D01*
X44820Y401459D01*
X44891Y401534D01*
X44900Y401552D01*
X44913Y401567D01*
X44952Y401663D01*
X44995Y401757D01*
X44997Y401777D01*
X45005Y401795D01*
X45023Y401962D01*
X45023Y408741D01*
X49422Y408741D01*
X49467Y408748D01*
X49513Y408746D01*
X49588Y408768D01*
X49664Y408780D01*
X49705Y408802D01*
X49749Y408815D01*
X49813Y408859D01*
X49882Y408896D01*
X49913Y408929D01*
X49951Y408955D01*
X49997Y409018D01*
X50051Y409074D01*
X50070Y409116D01*
X50098Y409152D01*
X50122Y409226D01*
X50155Y409297D01*
X50160Y409343D01*
X50174Y409386D01*
X50173Y409464D01*
X50182Y409541D01*
X50172Y409586D01*
X50172Y409632D01*
X50134Y409763D01*
X50130Y409782D01*
X50127Y409786D01*
X50125Y409793D01*
X49839Y410483D01*
X49839Y413898D01*
X49836Y413918D01*
X49838Y413937D01*
X49816Y414039D01*
X49800Y414141D01*
X49790Y414158D01*
X49786Y414178D01*
X49733Y414267D01*
X49684Y414358D01*
X49670Y414372D01*
X49660Y414389D01*
X49581Y414456D01*
X49506Y414528D01*
X49488Y414536D01*
X49473Y414549D01*
X49377Y414588D01*
X49283Y414631D01*
X49263Y414633D01*
X49245Y414641D01*
X49078Y414659D01*
X45999Y414659D01*
X45999Y415778D01*
X45996Y415798D01*
X45998Y415817D01*
X45976Y415919D01*
X45960Y416021D01*
X45950Y416038D01*
X45946Y416058D01*
X45893Y416147D01*
X45844Y416238D01*
X45830Y416252D01*
X45820Y416269D01*
X45741Y416336D01*
X45666Y416408D01*
X45648Y416416D01*
X45633Y416429D01*
X45537Y416468D01*
X45443Y416511D01*
X45423Y416513D01*
X45405Y416521D01*
X45238Y416539D01*
X43762Y416539D01*
X43742Y416536D01*
X43722Y416538D01*
X43621Y416516D01*
X43519Y416500D01*
X43502Y416490D01*
X43482Y416486D01*
X43393Y416433D01*
X43302Y416384D01*
X43288Y416370D01*
X43271Y416360D01*
X43204Y416281D01*
X43132Y416206D01*
X43124Y416188D01*
X43111Y416173D01*
X43072Y416077D01*
X43029Y415983D01*
X43027Y415963D01*
X43019Y415945D01*
X43001Y415778D01*
X43001Y414659D01*
X31666Y414659D01*
X31019Y414832D01*
X30440Y415167D01*
X29967Y415640D01*
X29632Y416219D01*
X29459Y416866D01*
X29459Y425075D01*
X29446Y425154D01*
X29442Y425235D01*
X29424Y425289D01*
X29420Y425318D01*
X29406Y425343D01*
X29395Y425377D01*
X29394Y425381D01*
X29393Y425382D01*
X29389Y425394D01*
X28568Y427172D01*
X28791Y429631D01*
X28789Y429661D01*
X28790Y429703D01*
X28790Y429708D01*
X28790Y429710D01*
X28791Y429769D01*
X28568Y432228D01*
X29389Y434006D01*
X29411Y434083D01*
X29441Y434158D01*
X29447Y434215D01*
X29455Y434243D01*
X29453Y434271D01*
X29459Y434325D01*
X29459Y442534D01*
X29632Y443181D01*
X29967Y443760D01*
X30440Y444233D01*
X31019Y444568D01*
X31666Y444741D01*
X43001Y444741D01*
X43001Y443622D01*
X43004Y443602D01*
X43002Y443583D01*
X43024Y443481D01*
X43040Y443379D01*
X43050Y443362D01*
X43054Y443342D01*
X43107Y443253D01*
X43156Y443162D01*
X43170Y443148D01*
X43180Y443131D01*
X43259Y443064D01*
X43334Y442992D01*
X43352Y442984D01*
X43367Y442971D01*
X43463Y442932D01*
X43557Y442889D01*
X43577Y442887D01*
X43595Y442879D01*
X43762Y442861D01*
X45238Y442861D01*
X45258Y442864D01*
X45277Y442862D01*
X45379Y442884D01*
X45481Y442900D01*
X45498Y442910D01*
X45518Y442914D01*
X45607Y442967D01*
X45698Y443016D01*
X45712Y443030D01*
X45729Y443040D01*
X45796Y443119D01*
X45868Y443194D01*
X45876Y443212D01*
X45889Y443227D01*
X45928Y443323D01*
X45971Y443417D01*
X45973Y443437D01*
X45981Y443455D01*
X45999Y443622D01*
X45999Y444741D01*
X57334Y444741D01*
X57981Y444568D01*
X58560Y444233D01*
X59033Y443760D01*
X59368Y443181D01*
X59541Y442534D01*
X59541Y434059D01*
X59546Y434028D01*
X59543Y433997D01*
X59575Y433832D01*
X59947Y432638D01*
X59952Y432629D01*
X59955Y432614D01*
X60352Y431340D01*
X60209Y429769D01*
X60211Y429739D01*
X60209Y429631D01*
X60352Y428060D01*
X60286Y427848D01*
X60284Y427837D01*
X60279Y427827D01*
X60267Y427716D01*
X60251Y427605D01*
X60254Y427594D01*
X60252Y427583D01*
X60276Y427473D01*
X60297Y427363D01*
X60302Y427353D01*
X60305Y427342D01*
X60362Y427246D01*
X60417Y427148D01*
X60425Y427141D01*
X60431Y427131D01*
X60516Y427058D01*
X60599Y426983D01*
X60609Y426979D01*
X60618Y426971D01*
X60722Y426929D01*
X60824Y426884D01*
X60835Y426883D01*
X60846Y426879D01*
X61013Y426861D01*
X63158Y426861D01*
X63178Y426864D01*
X63197Y426862D01*
X63299Y426884D01*
X63401Y426900D01*
X63418Y426910D01*
X63438Y426914D01*
X63527Y426967D01*
X63618Y427016D01*
X63632Y427030D01*
X63649Y427040D01*
X63716Y427119D01*
X63787Y427194D01*
X63796Y427212D01*
X63809Y427227D01*
X63848Y427323D01*
X63891Y427417D01*
X63893Y427437D01*
X63901Y427455D01*
X63919Y427622D01*
X63919Y439625D01*
X64249Y441283D01*
X64896Y442845D01*
X65835Y444250D01*
X67030Y445445D01*
X68435Y446384D01*
X69997Y447031D01*
X70977Y447226D01*
X70977Y427462D01*
X70980Y427442D01*
X70978Y427423D01*
X71000Y427321D01*
X71017Y427219D01*
X71026Y427202D01*
X71030Y427182D01*
X71083Y427093D01*
X71132Y427002D01*
X71146Y426988D01*
X71156Y426971D01*
X71235Y426904D01*
X71310Y426833D01*
X71328Y426824D01*
X71343Y426811D01*
X71439Y426773D01*
X71533Y426729D01*
X71553Y426727D01*
X71571Y426719D01*
X71738Y426701D01*
X72501Y426701D01*
X72501Y425938D01*
X72504Y425918D01*
X72502Y425899D01*
X72524Y425797D01*
X72541Y425695D01*
X72550Y425678D01*
X72554Y425658D01*
X72607Y425569D01*
X72656Y425478D01*
X72670Y425464D01*
X72680Y425447D01*
X72759Y425380D01*
X72834Y425309D01*
X72852Y425300D01*
X72867Y425287D01*
X72963Y425248D01*
X73057Y425205D01*
X73077Y425203D01*
X73095Y425195D01*
X73262Y425177D01*
X80946Y425177D01*
X80751Y424197D01*
X80104Y422635D01*
X80003Y422484D01*
X79165Y421230D01*
X77970Y420035D01*
X76520Y419066D01*
X76469Y419019D01*
X76413Y418980D01*
X76380Y418936D01*
X76340Y418898D01*
X76307Y418838D01*
X76266Y418783D01*
X76249Y418730D01*
X76223Y418682D01*
X76212Y418614D01*
X76190Y418549D01*
X76191Y418494D01*
X76181Y418439D01*
X76192Y418371D01*
X76193Y418303D01*
X76214Y418229D01*
X76219Y418196D01*
X76229Y418177D01*
X76239Y418142D01*
X77161Y415917D01*
X77161Y412002D01*
X77164Y411982D01*
X77162Y411963D01*
X77184Y411861D01*
X77200Y411759D01*
X77210Y411742D01*
X77214Y411722D01*
X77267Y411633D01*
X77316Y411542D01*
X77330Y411528D01*
X77340Y411511D01*
X77419Y411444D01*
X77494Y411372D01*
X77512Y411364D01*
X77527Y411351D01*
X77623Y411312D01*
X77717Y411269D01*
X77737Y411267D01*
X77755Y411259D01*
X77922Y411241D01*
X78334Y411241D01*
X78981Y411068D01*
X79560Y410733D01*
X80033Y410260D01*
X80368Y409681D01*
X80541Y409034D01*
X80541Y407699D01*
X76516Y407699D01*
X76402Y407680D01*
X76285Y407663D01*
X76280Y407661D01*
X76274Y407660D01*
X76171Y407605D01*
X76066Y407552D01*
X76062Y407547D01*
X76056Y407544D01*
X75976Y407460D01*
X75894Y407376D01*
X75890Y407370D01*
X75887Y407366D01*
X75879Y407349D01*
X75813Y407229D01*
X75616Y406753D01*
X75605Y406709D01*
X75586Y406667D01*
X75578Y406590D01*
X75560Y406514D01*
X75564Y406468D01*
X75559Y406422D01*
X75576Y406346D01*
X75583Y406269D01*
X75602Y406227D01*
X75611Y406182D01*
X75651Y406115D01*
X75683Y406044D01*
X75714Y406010D01*
X75737Y405971D01*
X75797Y405920D01*
X75849Y405863D01*
X75889Y405841D01*
X75924Y405811D01*
X75997Y405782D01*
X76065Y405744D01*
X76110Y405736D01*
X76153Y405719D01*
X76288Y405704D01*
X76307Y405701D01*
X76312Y405702D01*
X76319Y405701D01*
X80541Y405701D01*
X80541Y404366D01*
X80368Y403719D01*
X80033Y403140D01*
X79748Y402855D01*
X79695Y402781D01*
X79635Y402711D01*
X79623Y402681D01*
X79604Y402655D01*
X79577Y402568D01*
X79543Y402483D01*
X79539Y402442D01*
X79532Y402420D01*
X79533Y402388D01*
X79525Y402316D01*
X79525Y397568D01*
X79445Y397488D01*
X79433Y397472D01*
X79417Y397460D01*
X79361Y397372D01*
X79301Y397289D01*
X79295Y397270D01*
X79284Y397253D01*
X79259Y397152D01*
X79229Y397053D01*
X79229Y397033D01*
X79224Y397014D01*
X79232Y396911D01*
X79235Y396808D01*
X79242Y396789D01*
X79243Y396769D01*
X79284Y396674D01*
X79290Y396658D01*
X79290Y396655D01*
X79292Y396652D01*
X79319Y396577D01*
X79332Y396561D01*
X79340Y396543D01*
X79409Y396456D01*
X79417Y396444D01*
X79424Y396437D01*
X79445Y396412D01*
X79525Y396332D01*
X79525Y391068D01*
X79445Y390988D01*
X79433Y390972D01*
X79417Y390960D01*
X79361Y390872D01*
X79301Y390789D01*
X79295Y390770D01*
X79284Y390753D01*
X79259Y390652D01*
X79229Y390553D01*
X79229Y390533D01*
X79224Y390514D01*
X79232Y390411D01*
X79235Y390308D01*
X79242Y390289D01*
X79243Y390269D01*
X79284Y390174D01*
X79319Y390077D01*
X79332Y390061D01*
X79340Y390043D01*
X79445Y389912D01*
X79525Y389832D01*
X79525Y384568D01*
X79445Y384488D01*
X79433Y384472D01*
X79417Y384460D01*
X79361Y384372D01*
X79301Y384289D01*
X79295Y384270D01*
X79284Y384253D01*
X79259Y384152D01*
X79229Y384053D01*
X79229Y384033D01*
X79224Y384014D01*
X79232Y383911D01*
X79235Y383808D01*
X79242Y383789D01*
X79243Y383769D01*
X79284Y383674D01*
X79319Y383577D01*
X79332Y383561D01*
X79340Y383543D01*
X79445Y383412D01*
X79647Y383210D01*
X79721Y383157D01*
X79790Y383097D01*
X79820Y383085D01*
X79846Y383066D01*
X79933Y383039D01*
X80018Y383005D01*
X80059Y383001D01*
X80081Y382994D01*
X80114Y382995D01*
X80185Y382987D01*
X85852Y382987D01*
X85872Y382990D01*
X85891Y382988D01*
X85993Y383010D01*
X86095Y383026D01*
X86112Y383036D01*
X86132Y383040D01*
X86221Y383093D01*
X86312Y383142D01*
X86326Y383156D01*
X86343Y383166D01*
X86410Y383245D01*
X86482Y383320D01*
X86490Y383338D01*
X86503Y383353D01*
X86542Y383449D01*
X86585Y383543D01*
X86587Y383563D01*
X86595Y383581D01*
X86613Y383748D01*
X86613Y445447D01*
X87953Y446787D01*
X156814Y446787D01*
X156834Y446790D01*
X156853Y446788D01*
X156955Y446810D01*
X157057Y446826D01*
X157074Y446836D01*
X157094Y446840D01*
X157183Y446893D01*
X157274Y446942D01*
X157288Y446956D01*
X157305Y446966D01*
X157372Y447045D01*
X157444Y447120D01*
X157452Y447138D01*
X157465Y447153D01*
X157504Y447249D01*
X157547Y447343D01*
X157549Y447363D01*
X157557Y447381D01*
X157575Y447548D01*
X157575Y448932D01*
X158468Y449825D01*
X171732Y449825D01*
X172625Y448932D01*
X172625Y445348D01*
X172628Y445328D01*
X172626Y445309D01*
X172648Y445207D01*
X172664Y445105D01*
X172674Y445088D01*
X172678Y445068D01*
X172731Y444979D01*
X172780Y444888D01*
X172794Y444874D01*
X172804Y444857D01*
X172883Y444790D01*
X172958Y444718D01*
X172976Y444710D01*
X172991Y444697D01*
X173087Y444658D01*
X173181Y444615D01*
X173201Y444613D01*
X173219Y444605D01*
X173386Y444587D01*
X180714Y444587D01*
X180734Y444590D01*
X180753Y444588D01*
X180855Y444610D01*
X180957Y444626D01*
X180974Y444636D01*
X180994Y444640D01*
X181083Y444693D01*
X181174Y444742D01*
X181188Y444756D01*
X181205Y444766D01*
X181272Y444845D01*
X181344Y444920D01*
X181352Y444938D01*
X181365Y444953D01*
X181404Y445049D01*
X181447Y445143D01*
X181449Y445163D01*
X181457Y445181D01*
X181475Y445348D01*
X181475Y448432D01*
X182368Y449325D01*
X198630Y449325D01*
X198650Y449328D01*
X198669Y449326D01*
X198771Y449348D01*
X198873Y449364D01*
X198890Y449374D01*
X198910Y449378D01*
X198999Y449431D01*
X199090Y449480D01*
X199104Y449494D01*
X199121Y449504D01*
X199188Y449583D01*
X199260Y449658D01*
X199268Y449676D01*
X199281Y449691D01*
X199320Y449787D01*
X199363Y449881D01*
X199365Y449901D01*
X199373Y449919D01*
X199391Y450086D01*
X199391Y479552D01*
X199388Y479572D01*
X199390Y479591D01*
X199368Y479693D01*
X199352Y479795D01*
X199342Y479812D01*
X199338Y479832D01*
X199285Y479921D01*
X199236Y480012D01*
X199222Y480026D01*
X199212Y480043D01*
X199133Y480110D01*
X199058Y480182D01*
X199040Y480190D01*
X199025Y480203D01*
X198929Y480242D01*
X198835Y480285D01*
X198815Y480287D01*
X198797Y480295D01*
X198630Y480313D01*
X113086Y480313D01*
X113066Y480310D01*
X113047Y480312D01*
X112945Y480290D01*
X112843Y480274D01*
X112826Y480264D01*
X112806Y480260D01*
X112717Y480207D01*
X112626Y480158D01*
X112612Y480144D01*
X112595Y480134D01*
X112528Y480055D01*
X112456Y479980D01*
X112448Y479962D01*
X112435Y479947D01*
X112396Y479851D01*
X112353Y479757D01*
X112351Y479737D01*
X112343Y479719D01*
X112339Y479683D01*
X111432Y478775D01*
X64168Y478775D01*
X63275Y479668D01*
X63275Y490932D01*
X64168Y491825D01*
X111432Y491825D01*
X112325Y490932D01*
X112325Y485648D01*
X112328Y485628D01*
X112326Y485609D01*
X112348Y485507D01*
X112364Y485405D01*
X112374Y485388D01*
X112378Y485368D01*
X112431Y485279D01*
X112480Y485188D01*
X112494Y485174D01*
X112504Y485157D01*
X112583Y485090D01*
X112658Y485018D01*
X112676Y485010D01*
X112691Y484997D01*
X112787Y484958D01*
X112881Y484915D01*
X112901Y484913D01*
X112919Y484905D01*
X113086Y484887D01*
X202625Y484887D01*
X203965Y483547D01*
X203965Y345153D01*
X202625Y343813D01*
X174886Y343813D01*
X174866Y343810D01*
X174847Y343812D01*
X174745Y343790D01*
X174643Y343774D01*
X174626Y343764D01*
X174606Y343760D01*
X174517Y343707D01*
X174426Y343658D01*
X174412Y343644D01*
X174395Y343634D01*
X174328Y343555D01*
X174256Y343480D01*
X174248Y343462D01*
X174235Y343447D01*
X174196Y343351D01*
X174153Y343257D01*
X174151Y343237D01*
X174143Y343219D01*
X174125Y343052D01*
X174125Y338968D01*
X173232Y338075D01*
X156968Y338075D01*
G37*
%LPD*%
%LPC*%
G36*
X169579Y715771D02*
X169579Y715771D01*
X166591Y717009D01*
X164305Y719295D01*
X163060Y722301D01*
X163053Y722346D01*
X163045Y722437D01*
X163033Y722467D01*
X163028Y722499D01*
X162985Y722579D01*
X162949Y722663D01*
X162923Y722695D01*
X162912Y722716D01*
X162889Y722738D01*
X162844Y722794D01*
X155358Y730280D01*
X155284Y730333D01*
X155215Y730393D01*
X155185Y730405D01*
X155158Y730424D01*
X155071Y730451D01*
X154987Y730485D01*
X154946Y730489D01*
X154923Y730496D01*
X154891Y730495D01*
X154820Y730503D01*
X151193Y730503D01*
X151105Y730489D01*
X151016Y730482D01*
X150975Y730467D01*
X150951Y730464D01*
X150923Y730449D01*
X150858Y730425D01*
X150643Y730320D01*
X150225Y730463D01*
X150185Y730469D01*
X150146Y730485D01*
X149989Y730502D01*
X149983Y730503D01*
X149981Y730503D01*
X149980Y730503D01*
X149538Y730503D01*
X149369Y730672D01*
X149296Y730724D01*
X149228Y730783D01*
X149189Y730801D01*
X149169Y730816D01*
X149139Y730825D01*
X149076Y730854D01*
X148850Y730931D01*
X148656Y731328D01*
X148632Y731362D01*
X148615Y731399D01*
X148516Y731523D01*
X148513Y731528D01*
X148512Y731529D01*
X148511Y731530D01*
X148198Y731843D01*
X148198Y732082D01*
X148184Y732170D01*
X148177Y732260D01*
X148162Y732300D01*
X148159Y732324D01*
X148144Y732352D01*
X148120Y732417D01*
X136659Y755740D01*
X136617Y755799D01*
X136582Y755864D01*
X136546Y755899D01*
X136516Y755940D01*
X136457Y755983D01*
X136404Y756033D01*
X136358Y756055D01*
X136317Y756084D01*
X136247Y756106D01*
X136181Y756137D01*
X136131Y756143D01*
X136083Y756158D01*
X136009Y756156D01*
X135937Y756164D01*
X135887Y756153D01*
X135837Y756152D01*
X135768Y756127D01*
X135696Y756112D01*
X135653Y756086D01*
X135605Y756069D01*
X135548Y756023D01*
X135485Y755986D01*
X135452Y755947D01*
X135413Y755916D01*
X135373Y755854D01*
X135325Y755799D01*
X135306Y755752D01*
X135279Y755710D01*
X135261Y755639D01*
X135233Y755571D01*
X135226Y755502D01*
X135218Y755471D01*
X135220Y755447D01*
X135215Y755404D01*
X135215Y753271D01*
X133987Y750307D01*
X131718Y748038D01*
X128754Y746810D01*
X125546Y746810D01*
X122582Y748038D01*
X120313Y750307D01*
X119085Y753271D01*
X119085Y756479D01*
X120313Y759443D01*
X122582Y761712D01*
X125546Y762940D01*
X128754Y762940D01*
X131718Y761712D01*
X132416Y761014D01*
X132512Y760945D01*
X132539Y760922D01*
X132549Y760918D01*
X132613Y760872D01*
X132615Y760871D01*
X132616Y760870D01*
X132730Y760835D01*
X132848Y760798D01*
X132850Y760798D01*
X132851Y760798D01*
X132975Y760801D01*
X133094Y760804D01*
X133095Y760804D01*
X133097Y760804D01*
X133216Y760848D01*
X133325Y760887D01*
X133327Y760888D01*
X133328Y760889D01*
X133425Y760966D01*
X133518Y761040D01*
X133519Y761042D01*
X133520Y761043D01*
X133586Y761145D01*
X133652Y761247D01*
X133652Y761248D01*
X133653Y761249D01*
X133682Y761365D01*
X133713Y761485D01*
X133713Y761487D01*
X133713Y761488D01*
X133704Y761603D01*
X133704Y761607D01*
X133704Y761613D01*
X133703Y761620D01*
X133695Y761730D01*
X133694Y761732D01*
X133694Y761733D01*
X133692Y761739D01*
X133655Y761840D01*
X133652Y761853D01*
X133648Y761861D01*
X133638Y761888D01*
X128774Y771785D01*
X128720Y771860D01*
X128673Y771940D01*
X128650Y771960D01*
X128632Y771985D01*
X128557Y772040D01*
X128486Y772100D01*
X128457Y772111D01*
X128432Y772129D01*
X128344Y772157D01*
X128258Y772192D01*
X128219Y772196D01*
X128198Y772203D01*
X128165Y772202D01*
X128091Y772210D01*
X125546Y772210D01*
X122582Y773438D01*
X120313Y775707D01*
X119085Y778671D01*
X119085Y781879D01*
X120313Y784843D01*
X122582Y787112D01*
X125546Y788340D01*
X128754Y788340D01*
X131718Y787112D01*
X133987Y784843D01*
X135215Y781879D01*
X135215Y778671D01*
X133987Y775707D01*
X133002Y774721D01*
X132991Y774706D01*
X132976Y774695D01*
X132919Y774607D01*
X132858Y774522D01*
X132853Y774504D01*
X132843Y774489D01*
X132816Y774387D01*
X132786Y774287D01*
X132786Y774268D01*
X132782Y774250D01*
X132789Y774145D01*
X132792Y774041D01*
X132798Y774023D01*
X132800Y774005D01*
X132857Y773847D01*
X143041Y753123D01*
X143083Y753063D01*
X143118Y752999D01*
X143154Y752964D01*
X143184Y752923D01*
X143243Y752880D01*
X143296Y752829D01*
X143342Y752808D01*
X143383Y752779D01*
X143453Y752757D01*
X143519Y752726D01*
X143569Y752720D01*
X143617Y752705D01*
X143691Y752707D01*
X143763Y752699D01*
X143813Y752709D01*
X143863Y752711D01*
X143932Y752735D01*
X144004Y752751D01*
X144047Y752777D01*
X144095Y752794D01*
X144152Y752840D01*
X144215Y752877D01*
X144248Y752916D01*
X144287Y752947D01*
X144327Y753008D01*
X144375Y753064D01*
X144394Y753111D01*
X144421Y753153D01*
X144439Y753224D01*
X144467Y753292D01*
X144474Y753361D01*
X144482Y753392D01*
X144480Y753416D01*
X144485Y753459D01*
X144485Y756479D01*
X145713Y759443D01*
X147982Y761712D01*
X150946Y762940D01*
X154154Y762940D01*
X157118Y761712D01*
X159387Y759443D01*
X160615Y756479D01*
X160615Y753271D01*
X159387Y750307D01*
X157118Y748038D01*
X154154Y746810D01*
X150946Y746810D01*
X147982Y748038D01*
X146427Y749593D01*
X146329Y749663D01*
X146230Y749735D01*
X146228Y749736D01*
X146227Y749737D01*
X146112Y749772D01*
X145995Y749809D01*
X145993Y749809D01*
X145992Y749809D01*
X145868Y749806D01*
X145749Y749803D01*
X145747Y749803D01*
X145746Y749803D01*
X145628Y749760D01*
X145518Y749720D01*
X145516Y749719D01*
X145515Y749718D01*
X145418Y749641D01*
X145325Y749567D01*
X145324Y749566D01*
X145323Y749565D01*
X145257Y749463D01*
X145191Y749361D01*
X145191Y749359D01*
X145190Y749358D01*
X145161Y749243D01*
X145130Y749122D01*
X145130Y749121D01*
X145130Y749119D01*
X145139Y749002D01*
X145148Y748877D01*
X145149Y748875D01*
X145149Y748874D01*
X145151Y748869D01*
X145205Y748719D01*
X151700Y735502D01*
X151754Y735427D01*
X151802Y735347D01*
X151825Y735327D01*
X151843Y735302D01*
X151918Y735247D01*
X151988Y735187D01*
X152017Y735176D01*
X152042Y735158D01*
X152130Y735130D01*
X152217Y735095D01*
X152255Y735091D01*
X152277Y735084D01*
X152309Y735085D01*
X152383Y735077D01*
X157030Y735077D01*
X163415Y728691D01*
X163431Y728680D01*
X163444Y728664D01*
X163531Y728608D01*
X163615Y728548D01*
X163634Y728542D01*
X163651Y728531D01*
X163751Y728506D01*
X163850Y728475D01*
X163870Y728476D01*
X163889Y728471D01*
X163992Y728479D01*
X164096Y728482D01*
X164114Y728489D01*
X164134Y728490D01*
X164229Y728531D01*
X164327Y728566D01*
X164342Y728579D01*
X164361Y728586D01*
X164492Y728691D01*
X166591Y730791D01*
X169579Y732029D01*
X186021Y732029D01*
X189009Y730791D01*
X191295Y728505D01*
X192533Y725517D01*
X192533Y722283D01*
X191295Y719295D01*
X189009Y717009D01*
X186021Y715771D01*
X169579Y715771D01*
G37*
%LPD*%
%LPC*%
G36*
X135087Y625347D02*
X135087Y625347D01*
X131726Y626739D01*
X129153Y629312D01*
X127761Y632673D01*
X127761Y651551D01*
X129153Y654912D01*
X131726Y657485D01*
X135087Y658877D01*
X138725Y658877D01*
X142086Y657485D01*
X144659Y654912D01*
X146059Y651531D01*
X146102Y651461D01*
X146137Y651387D01*
X146167Y651357D01*
X146189Y651322D01*
X146252Y651270D01*
X146309Y651211D01*
X146346Y651192D01*
X146378Y651165D01*
X146455Y651136D01*
X146527Y651098D01*
X146569Y651092D01*
X146608Y651077D01*
X146689Y651073D01*
X146770Y651061D01*
X146812Y651068D01*
X146854Y651066D01*
X146932Y651089D01*
X147013Y651103D01*
X147062Y651127D01*
X147090Y651135D01*
X147113Y651151D01*
X147164Y651175D01*
X168197Y664239D01*
X168204Y664246D01*
X168213Y664250D01*
X168297Y664326D01*
X168382Y664401D01*
X168387Y664410D01*
X168394Y664416D01*
X168449Y664516D01*
X168506Y664614D01*
X168508Y664623D01*
X168513Y664632D01*
X168533Y664744D01*
X168556Y664855D01*
X168555Y664864D01*
X168557Y664874D01*
X168540Y664986D01*
X168526Y665099D01*
X168522Y665107D01*
X168521Y665117D01*
X168469Y665219D01*
X168420Y665321D01*
X168414Y665328D01*
X168409Y665336D01*
X168328Y665416D01*
X168249Y665497D01*
X168241Y665502D01*
X168234Y665509D01*
X168176Y665540D01*
X168170Y665545D01*
X168158Y665550D01*
X168087Y665589D01*
X166591Y666209D01*
X164305Y668495D01*
X163067Y671483D01*
X163067Y674717D01*
X164305Y677705D01*
X166591Y679991D01*
X169579Y681229D01*
X186021Y681229D01*
X189009Y679991D01*
X191295Y677705D01*
X192533Y674717D01*
X192533Y671483D01*
X191295Y668495D01*
X189009Y666209D01*
X186021Y664971D01*
X178261Y664971D01*
X178257Y664971D01*
X178253Y664971D01*
X178134Y664951D01*
X178018Y664932D01*
X178014Y664930D01*
X178010Y664929D01*
X177859Y664857D01*
X146410Y645323D01*
X146369Y645287D01*
X146321Y645258D01*
X146277Y645207D01*
X146225Y645162D01*
X146197Y645114D01*
X146161Y645072D01*
X146136Y645008D01*
X146101Y644949D01*
X146090Y644895D01*
X146069Y644843D01*
X146058Y644738D01*
X146051Y644708D01*
X146053Y644696D01*
X146051Y644677D01*
X146051Y632673D01*
X144659Y629312D01*
X142086Y626739D01*
X138725Y625347D01*
X135087Y625347D01*
G37*
%LPD*%
%LPC*%
G36*
X94667Y360825D02*
X94667Y360825D01*
X93774Y361718D01*
X93774Y368482D01*
X94667Y369375D01*
X98251Y369375D01*
X98271Y369378D01*
X98290Y369376D01*
X98392Y369398D01*
X98494Y369414D01*
X98511Y369424D01*
X98531Y369428D01*
X98620Y369481D01*
X98711Y369530D01*
X98725Y369544D01*
X98742Y369554D01*
X98809Y369633D01*
X98881Y369708D01*
X98889Y369726D01*
X98902Y369741D01*
X98941Y369837D01*
X98984Y369931D01*
X98986Y369951D01*
X98994Y369969D01*
X99012Y370136D01*
X99012Y407347D01*
X100352Y408687D01*
X104514Y408687D01*
X104534Y408690D01*
X104553Y408688D01*
X104655Y408710D01*
X104757Y408726D01*
X104774Y408736D01*
X104794Y408740D01*
X104883Y408793D01*
X104974Y408842D01*
X104988Y408856D01*
X105005Y408866D01*
X105072Y408945D01*
X105144Y409020D01*
X105152Y409038D01*
X105165Y409053D01*
X105204Y409149D01*
X105247Y409243D01*
X105249Y409263D01*
X105257Y409281D01*
X105275Y409448D01*
X105275Y410332D01*
X106168Y411225D01*
X122432Y411225D01*
X123325Y410332D01*
X123325Y396068D01*
X122432Y395175D01*
X106168Y395175D01*
X105275Y396068D01*
X105275Y403352D01*
X105272Y403372D01*
X105274Y403391D01*
X105252Y403493D01*
X105236Y403595D01*
X105226Y403612D01*
X105222Y403632D01*
X105169Y403721D01*
X105120Y403812D01*
X105106Y403826D01*
X105096Y403843D01*
X105017Y403910D01*
X104942Y403982D01*
X104924Y403990D01*
X104909Y404003D01*
X104813Y404042D01*
X104719Y404085D01*
X104699Y404087D01*
X104681Y404095D01*
X104514Y404113D01*
X104347Y404113D01*
X104327Y404110D01*
X104308Y404112D01*
X104206Y404090D01*
X104104Y404074D01*
X104087Y404064D01*
X104067Y404060D01*
X103978Y404007D01*
X103887Y403958D01*
X103873Y403944D01*
X103856Y403934D01*
X103789Y403855D01*
X103717Y403780D01*
X103709Y403762D01*
X103696Y403747D01*
X103657Y403651D01*
X103614Y403557D01*
X103612Y403537D01*
X103604Y403519D01*
X103586Y403352D01*
X103586Y392917D01*
X103597Y392846D01*
X103599Y392774D01*
X103617Y392725D01*
X103625Y392674D01*
X103659Y392611D01*
X103684Y392543D01*
X103716Y392503D01*
X103741Y392457D01*
X103792Y392407D01*
X103837Y392351D01*
X103881Y392323D01*
X103919Y392287D01*
X103984Y392257D01*
X104044Y392218D01*
X104095Y392205D01*
X104142Y392184D01*
X104213Y392176D01*
X104283Y392158D01*
X104335Y392162D01*
X104386Y392156D01*
X104457Y392172D01*
X104528Y392177D01*
X104576Y392198D01*
X104627Y392209D01*
X104688Y392246D01*
X104754Y392274D01*
X104810Y392318D01*
X104838Y392335D01*
X104853Y392353D01*
X104885Y392378D01*
X105240Y392733D01*
X105819Y393068D01*
X106466Y393241D01*
X112777Y393241D01*
X112777Y384962D01*
X112780Y384942D01*
X112778Y384923D01*
X112800Y384821D01*
X112817Y384719D01*
X112826Y384702D01*
X112830Y384682D01*
X112883Y384593D01*
X112932Y384502D01*
X112946Y384488D01*
X112956Y384471D01*
X113035Y384404D01*
X113110Y384333D01*
X113128Y384324D01*
X113143Y384311D01*
X113239Y384272D01*
X113333Y384229D01*
X113353Y384227D01*
X113371Y384219D01*
X113538Y384201D01*
X114301Y384201D01*
X114301Y384199D01*
X113538Y384199D01*
X113518Y384196D01*
X113499Y384198D01*
X113397Y384176D01*
X113295Y384159D01*
X113278Y384150D01*
X113258Y384146D01*
X113169Y384093D01*
X113078Y384044D01*
X113064Y384030D01*
X113047Y384020D01*
X112980Y383941D01*
X112909Y383866D01*
X112900Y383848D01*
X112887Y383833D01*
X112848Y383737D01*
X112805Y383643D01*
X112803Y383623D01*
X112795Y383605D01*
X112777Y383438D01*
X112777Y375159D01*
X106466Y375159D01*
X105819Y375332D01*
X105240Y375667D01*
X104885Y376022D01*
X104827Y376063D01*
X104775Y376113D01*
X104728Y376135D01*
X104686Y376165D01*
X104617Y376186D01*
X104552Y376216D01*
X104500Y376222D01*
X104450Y376238D01*
X104379Y376236D01*
X104308Y376244D01*
X104257Y376232D01*
X104205Y376231D01*
X104137Y376207D01*
X104067Y376191D01*
X104022Y376165D01*
X103974Y376147D01*
X103918Y376102D01*
X103856Y376065D01*
X103822Y376026D01*
X103782Y375993D01*
X103743Y375933D01*
X103696Y375878D01*
X103677Y375830D01*
X103649Y375786D01*
X103631Y375717D01*
X103604Y375650D01*
X103596Y375579D01*
X103588Y375548D01*
X103590Y375524D01*
X103586Y375483D01*
X103586Y370136D01*
X103589Y370116D01*
X103587Y370097D01*
X103609Y369995D01*
X103625Y369893D01*
X103635Y369876D01*
X103639Y369856D01*
X103692Y369767D01*
X103741Y369676D01*
X103755Y369662D01*
X103765Y369645D01*
X103844Y369578D01*
X103919Y369506D01*
X103937Y369498D01*
X103952Y369485D01*
X104048Y369446D01*
X104142Y369403D01*
X104162Y369401D01*
X104180Y369393D01*
X104347Y369375D01*
X107931Y369375D01*
X108824Y368482D01*
X108824Y361718D01*
X107931Y360825D01*
X94667Y360825D01*
G37*
%LPD*%
%LPC*%
G36*
X18168Y451775D02*
X18168Y451775D01*
X17275Y452668D01*
X17275Y469932D01*
X18168Y470825D01*
X53432Y470825D01*
X54325Y469932D01*
X54325Y452668D01*
X53432Y451775D01*
X18168Y451775D01*
G37*
%LPD*%
%LPC*%
G36*
X18168Y519775D02*
X18168Y519775D01*
X17275Y520668D01*
X17275Y537932D01*
X18168Y538825D01*
X53432Y538825D01*
X54325Y537932D01*
X54325Y520668D01*
X53432Y519775D01*
X18168Y519775D01*
G37*
%LPD*%
%LPC*%
G36*
X72833Y690371D02*
X72833Y690371D01*
X68071Y695133D01*
X68071Y700763D01*
X68064Y700806D01*
X68066Y700849D01*
X68045Y700927D01*
X68032Y701006D01*
X68011Y701044D01*
X68000Y701086D01*
X67954Y701152D01*
X67916Y701224D01*
X67885Y701253D01*
X67861Y701289D01*
X67747Y701385D01*
X67738Y701393D01*
X67736Y701394D01*
X67732Y701397D01*
X45807Y716013D01*
X45745Y716042D01*
X45688Y716078D01*
X45634Y716092D01*
X45583Y716115D01*
X45516Y716122D01*
X45449Y716139D01*
X45394Y716134D01*
X45339Y716140D01*
X45272Y716125D01*
X45204Y716119D01*
X45153Y716098D01*
X45099Y716085D01*
X45041Y716050D01*
X44978Y716023D01*
X44917Y715974D01*
X44889Y715957D01*
X44875Y715941D01*
X44847Y715918D01*
X44000Y715071D01*
X40172Y713485D01*
X36028Y713485D01*
X32200Y715071D01*
X29271Y718000D01*
X27685Y721828D01*
X27685Y725972D01*
X29271Y729800D01*
X32200Y732729D01*
X36028Y734315D01*
X40172Y734315D01*
X44000Y732729D01*
X46929Y729800D01*
X48515Y725972D01*
X48515Y721828D01*
X48065Y720742D01*
X48055Y720701D01*
X48041Y720671D01*
X48039Y720649D01*
X48024Y720611D01*
X48021Y720556D01*
X48009Y720503D01*
X48015Y720436D01*
X48014Y720426D01*
X48015Y720423D01*
X48012Y720365D01*
X48027Y720313D01*
X48032Y720258D01*
X48060Y720195D01*
X48079Y720129D01*
X48110Y720083D01*
X48132Y720033D01*
X48178Y719983D01*
X48217Y719926D01*
X48276Y719876D01*
X48298Y719852D01*
X48317Y719842D01*
X48346Y719818D01*
X70432Y705093D01*
X70494Y705065D01*
X70552Y705028D01*
X70606Y705015D01*
X70656Y704992D01*
X70724Y704985D01*
X70790Y704968D01*
X70846Y704973D01*
X70901Y704967D01*
X70968Y704982D01*
X71036Y704987D01*
X71087Y705009D01*
X71141Y705022D01*
X71199Y705057D01*
X71262Y705084D01*
X71323Y705132D01*
X71351Y705150D01*
X71365Y705166D01*
X71393Y705189D01*
X72833Y706629D01*
X79567Y706629D01*
X84329Y701867D01*
X84329Y695133D01*
X79567Y690371D01*
X72833Y690371D01*
G37*
%LPD*%
%LPC*%
G36*
X149033Y690371D02*
X149033Y690371D01*
X144271Y695133D01*
X144271Y701867D01*
X149033Y706629D01*
X155767Y706629D01*
X160529Y701867D01*
X160529Y701548D01*
X160532Y701528D01*
X160530Y701509D01*
X160552Y701407D01*
X160568Y701305D01*
X160578Y701288D01*
X160582Y701268D01*
X160635Y701179D01*
X160684Y701088D01*
X160698Y701074D01*
X160708Y701057D01*
X160787Y700990D01*
X160862Y700918D01*
X160880Y700910D01*
X160895Y700897D01*
X160991Y700858D01*
X161085Y700815D01*
X161105Y700813D01*
X161123Y700805D01*
X161290Y700787D01*
X162836Y700787D01*
X162951Y700806D01*
X163067Y700823D01*
X163073Y700825D01*
X163079Y700826D01*
X163181Y700881D01*
X163286Y700934D01*
X163291Y700939D01*
X163296Y700942D01*
X163376Y701026D01*
X163459Y701110D01*
X163462Y701116D01*
X163466Y701120D01*
X163473Y701137D01*
X163539Y701257D01*
X164305Y703105D01*
X166591Y705391D01*
X169579Y706629D01*
X186021Y706629D01*
X189009Y705391D01*
X191295Y703105D01*
X192533Y700117D01*
X192533Y696883D01*
X191295Y693895D01*
X189009Y691609D01*
X186021Y690371D01*
X169579Y690371D01*
X166591Y691609D01*
X164305Y693895D01*
X163539Y695743D01*
X163477Y695843D01*
X163418Y695943D01*
X163413Y695947D01*
X163410Y695952D01*
X163319Y696027D01*
X163231Y696103D01*
X163225Y696105D01*
X163220Y696109D01*
X163112Y696151D01*
X163003Y696195D01*
X162995Y696196D01*
X162991Y696197D01*
X162972Y696198D01*
X162836Y696213D01*
X161290Y696213D01*
X161270Y696210D01*
X161251Y696212D01*
X161149Y696190D01*
X161047Y696174D01*
X161030Y696164D01*
X161010Y696160D01*
X160921Y696107D01*
X160830Y696058D01*
X160816Y696044D01*
X160799Y696034D01*
X160732Y695955D01*
X160660Y695880D01*
X160652Y695862D01*
X160639Y695847D01*
X160600Y695751D01*
X160557Y695657D01*
X160555Y695637D01*
X160547Y695619D01*
X160529Y695452D01*
X160529Y695133D01*
X155767Y690371D01*
X149033Y690371D01*
G37*
%LPD*%
%LPC*%
G36*
X135087Y560323D02*
X135087Y560323D01*
X131726Y561715D01*
X129153Y564288D01*
X127761Y567649D01*
X127761Y586527D01*
X129153Y589888D01*
X131726Y592461D01*
X135087Y593853D01*
X138725Y593853D01*
X142086Y592461D01*
X144659Y589888D01*
X146051Y586527D01*
X146051Y567649D01*
X144659Y564288D01*
X142086Y561715D01*
X138725Y560323D01*
X135087Y560323D01*
G37*
%LPD*%
%LPC*%
G36*
X89875Y560323D02*
X89875Y560323D01*
X86514Y561715D01*
X83941Y564288D01*
X82549Y567649D01*
X82549Y586527D01*
X83941Y589888D01*
X86514Y592461D01*
X89875Y593853D01*
X93513Y593853D01*
X96874Y592461D01*
X99447Y589888D01*
X100839Y586527D01*
X100839Y567649D01*
X99447Y564288D01*
X96874Y561715D01*
X93513Y560323D01*
X89875Y560323D01*
G37*
%LPD*%
%LPC*%
G36*
X94578Y746810D02*
X94578Y746810D01*
X93685Y747703D01*
X93685Y762047D01*
X94578Y762940D01*
X108922Y762940D01*
X109815Y762047D01*
X109815Y747703D01*
X108922Y746810D01*
X94578Y746810D01*
G37*
%LPD*%
%LPC*%
G36*
X176346Y772210D02*
X176346Y772210D01*
X173382Y773438D01*
X171113Y775707D01*
X169885Y778671D01*
X169885Y781879D01*
X171113Y784843D01*
X173382Y787112D01*
X176346Y788340D01*
X179554Y788340D01*
X182518Y787112D01*
X184787Y784843D01*
X186015Y781879D01*
X186015Y778671D01*
X184787Y775707D01*
X182518Y773438D01*
X179554Y772210D01*
X176346Y772210D01*
G37*
%LPD*%
%LPC*%
G36*
X150946Y772210D02*
X150946Y772210D01*
X147982Y773438D01*
X145713Y775707D01*
X144485Y778671D01*
X144485Y781879D01*
X145713Y784843D01*
X147982Y787112D01*
X150946Y788340D01*
X154154Y788340D01*
X157118Y787112D01*
X159387Y784843D01*
X160615Y781879D01*
X160615Y778671D01*
X159387Y775707D01*
X157118Y773438D01*
X154154Y772210D01*
X150946Y772210D01*
G37*
%LPD*%
%LPC*%
G36*
X100146Y772210D02*
X100146Y772210D01*
X97182Y773438D01*
X94913Y775707D01*
X93685Y778671D01*
X93685Y781879D01*
X94913Y784843D01*
X97182Y787112D01*
X100146Y788340D01*
X103354Y788340D01*
X106318Y787112D01*
X108587Y784843D01*
X109815Y781879D01*
X109815Y778671D01*
X108587Y775707D01*
X106318Y773438D01*
X103354Y772210D01*
X100146Y772210D01*
G37*
%LPD*%
%LPC*%
G36*
X62259Y506823D02*
X62259Y506823D01*
X62259Y510634D01*
X62432Y511281D01*
X62767Y511860D01*
X63240Y512333D01*
X63819Y512668D01*
X64466Y512841D01*
X86277Y512841D01*
X86277Y506823D01*
X62259Y506823D01*
G37*
%LPD*%
%LPC*%
G36*
X89323Y506823D02*
X89323Y506823D01*
X89323Y512841D01*
X111134Y512841D01*
X111781Y512668D01*
X112360Y512333D01*
X112833Y511860D01*
X113168Y511281D01*
X113341Y510634D01*
X113341Y506823D01*
X89323Y506823D01*
G37*
%LPD*%
%LPC*%
G36*
X89323Y497759D02*
X89323Y497759D01*
X89323Y503777D01*
X113341Y503777D01*
X113341Y499966D01*
X113168Y499319D01*
X112833Y498740D01*
X112360Y498267D01*
X111781Y497932D01*
X111134Y497759D01*
X89323Y497759D01*
G37*
%LPD*%
%LPC*%
G36*
X64466Y497759D02*
X64466Y497759D01*
X63819Y497932D01*
X63240Y498267D01*
X62767Y498740D01*
X62432Y499319D01*
X62259Y499966D01*
X62259Y503777D01*
X86277Y503777D01*
X86277Y497759D01*
X64466Y497759D01*
G37*
%LPD*%
%LPC*%
G36*
X30959Y387723D02*
X30959Y387723D01*
X30959Y391534D01*
X31132Y392181D01*
X31467Y392760D01*
X31869Y393162D01*
X31880Y393178D01*
X31896Y393190D01*
X31952Y393277D01*
X32012Y393361D01*
X32018Y393380D01*
X32029Y393397D01*
X32054Y393498D01*
X32084Y393596D01*
X32084Y393616D01*
X32089Y393636D01*
X32081Y393739D01*
X32078Y393842D01*
X32071Y393861D01*
X32070Y393881D01*
X32029Y393976D01*
X31994Y394073D01*
X31981Y394089D01*
X31973Y394107D01*
X31869Y394238D01*
X31467Y394640D01*
X31132Y395219D01*
X30959Y395866D01*
X30959Y399677D01*
X41977Y399677D01*
X41977Y387723D01*
X30959Y387723D01*
G37*
%LPD*%
%LPC*%
G36*
X74023Y428223D02*
X74023Y428223D01*
X74023Y447226D01*
X75003Y447031D01*
X76565Y446384D01*
X77970Y445445D01*
X79165Y444250D01*
X80104Y442845D01*
X80751Y441283D01*
X81081Y439625D01*
X81081Y428223D01*
X74023Y428223D01*
G37*
%LPD*%
%LPC*%
G36*
X74023Y359177D02*
X74023Y359177D01*
X81081Y359177D01*
X81081Y347775D01*
X80751Y346117D01*
X80104Y344555D01*
X79165Y343150D01*
X77970Y341955D01*
X76565Y341016D01*
X75003Y340369D01*
X74023Y340174D01*
X74023Y359177D01*
G37*
%LPD*%
%LPC*%
G36*
X93217Y643635D02*
X93217Y643635D01*
X93217Y659778D01*
X94073Y659643D01*
X95594Y659148D01*
X97019Y658422D01*
X98313Y657482D01*
X99444Y656351D01*
X100384Y655057D01*
X101110Y653632D01*
X101605Y652111D01*
X101855Y650532D01*
X101855Y643635D01*
X93217Y643635D01*
G37*
%LPD*%
%LPC*%
G36*
X93217Y640589D02*
X93217Y640589D01*
X101855Y640589D01*
X101855Y633692D01*
X101605Y632113D01*
X101110Y630592D01*
X100384Y629167D01*
X99444Y627873D01*
X98313Y626742D01*
X97019Y625802D01*
X95594Y625076D01*
X94073Y624581D01*
X93217Y624446D01*
X93217Y640589D01*
G37*
%LPD*%
%LPC*%
G36*
X81533Y643635D02*
X81533Y643635D01*
X81533Y650532D01*
X81783Y652111D01*
X82278Y653632D01*
X83004Y655057D01*
X83944Y656351D01*
X85075Y657482D01*
X86369Y658422D01*
X87794Y659148D01*
X89315Y659643D01*
X90171Y659778D01*
X90171Y643635D01*
X81533Y643635D01*
G37*
%LPD*%
%LPC*%
G36*
X89315Y624581D02*
X89315Y624581D01*
X87794Y625076D01*
X86369Y625802D01*
X85075Y626742D01*
X83944Y627873D01*
X83004Y629167D01*
X82278Y630592D01*
X81783Y632113D01*
X81533Y633692D01*
X81533Y640589D01*
X90171Y640589D01*
X90171Y624446D01*
X89315Y624581D01*
G37*
%LPD*%
%LPC*%
G36*
X166623Y366623D02*
X166623Y366623D01*
X166623Y381677D01*
X173641Y381677D01*
X173641Y376866D01*
X173468Y376219D01*
X173133Y375640D01*
X172841Y375348D01*
X172786Y375271D01*
X172724Y375197D01*
X172714Y375171D01*
X172698Y375148D01*
X172669Y375057D01*
X172635Y374968D01*
X172633Y374940D01*
X172625Y374913D01*
X172628Y374818D01*
X172623Y374723D01*
X172631Y374695D01*
X172632Y374667D01*
X172664Y374578D01*
X172690Y374486D01*
X172706Y374463D01*
X172716Y374436D01*
X172776Y374362D01*
X172829Y374283D01*
X172852Y374266D01*
X172870Y374244D01*
X172950Y374193D01*
X173026Y374135D01*
X173059Y374122D01*
X173077Y374111D01*
X173108Y374103D01*
X173182Y374074D01*
X173581Y373968D01*
X174160Y373633D01*
X174633Y373160D01*
X174968Y372581D01*
X175141Y371934D01*
X175141Y366623D01*
X166623Y366623D01*
G37*
%LPD*%
%LPC*%
G36*
X155059Y366623D02*
X155059Y366623D01*
X155059Y371934D01*
X155232Y372581D01*
X155567Y373160D01*
X156040Y373633D01*
X156619Y373968D01*
X157018Y374074D01*
X157105Y374114D01*
X157194Y374146D01*
X157216Y374164D01*
X157242Y374176D01*
X157312Y374240D01*
X157386Y374300D01*
X157401Y374324D01*
X157422Y374343D01*
X157468Y374427D01*
X157519Y374507D01*
X157526Y374534D01*
X157540Y374559D01*
X157556Y374653D01*
X157579Y374745D01*
X157577Y374773D01*
X157582Y374801D01*
X157567Y374896D01*
X157560Y374991D01*
X157549Y375017D01*
X157545Y375045D01*
X157501Y375129D01*
X157464Y375217D01*
X157442Y375245D01*
X157432Y375263D01*
X157408Y375286D01*
X157359Y375348D01*
X157067Y375640D01*
X156732Y376219D01*
X156559Y376866D01*
X156559Y381677D01*
X163577Y381677D01*
X163577Y366623D01*
X155059Y366623D01*
G37*
%LPD*%
%LPC*%
G36*
X30959Y402723D02*
X30959Y402723D01*
X30959Y406534D01*
X31132Y407181D01*
X31467Y407760D01*
X31940Y408233D01*
X32519Y408568D01*
X33166Y408741D01*
X41977Y408741D01*
X41977Y402723D01*
X30959Y402723D01*
G37*
%LPD*%
%LPC*%
G36*
X33166Y378659D02*
X33166Y378659D01*
X32519Y378832D01*
X31940Y379167D01*
X31467Y379640D01*
X31132Y380219D01*
X30959Y380866D01*
X30959Y384677D01*
X41977Y384677D01*
X41977Y378659D01*
X33166Y378659D01*
G37*
%LPD*%
%LPC*%
G36*
X115823Y385723D02*
X115823Y385723D01*
X115823Y393241D01*
X122134Y393241D01*
X122781Y393068D01*
X123360Y392733D01*
X123833Y392260D01*
X124168Y391681D01*
X124341Y391034D01*
X124341Y385723D01*
X115823Y385723D01*
G37*
%LPD*%
%LPC*%
G36*
X180459Y423823D02*
X180459Y423823D01*
X180459Y429134D01*
X180632Y429781D01*
X180967Y430360D01*
X181440Y430833D01*
X182019Y431168D01*
X182666Y431341D01*
X188977Y431341D01*
X188977Y423823D01*
X180459Y423823D01*
G37*
%LPD*%
%LPC*%
G36*
X115823Y375159D02*
X115823Y375159D01*
X115823Y382677D01*
X124341Y382677D01*
X124341Y377366D01*
X124168Y376719D01*
X123833Y376140D01*
X123360Y375667D01*
X122781Y375332D01*
X122134Y375159D01*
X115823Y375159D01*
G37*
%LPD*%
%LPC*%
G36*
X166623Y356059D02*
X166623Y356059D01*
X166623Y363577D01*
X175141Y363577D01*
X175141Y358266D01*
X174968Y357619D01*
X174633Y357040D01*
X174160Y356567D01*
X173581Y356232D01*
X172934Y356059D01*
X166623Y356059D01*
G37*
%LPD*%
%LPC*%
G36*
X182666Y413259D02*
X182666Y413259D01*
X182019Y413432D01*
X181440Y413767D01*
X180967Y414240D01*
X180632Y414819D01*
X180459Y415466D01*
X180459Y420777D01*
X188977Y420777D01*
X188977Y413259D01*
X182666Y413259D01*
G37*
%LPD*%
%LPC*%
G36*
X157266Y356059D02*
X157266Y356059D01*
X156619Y356232D01*
X156040Y356567D01*
X155567Y357040D01*
X155232Y357619D01*
X155059Y358266D01*
X155059Y363577D01*
X163577Y363577D01*
X163577Y356059D01*
X157266Y356059D01*
G37*
%LPD*%
%LPC*%
G36*
X179473Y756398D02*
X179473Y756398D01*
X179473Y763956D01*
X184824Y763956D01*
X185471Y763783D01*
X186050Y763448D01*
X186523Y762975D01*
X186858Y762396D01*
X187031Y761749D01*
X187031Y756398D01*
X179473Y756398D01*
G37*
%LPD*%
%LPC*%
G36*
X168869Y756398D02*
X168869Y756398D01*
X168869Y761749D01*
X169042Y762396D01*
X169377Y762975D01*
X169850Y763448D01*
X170429Y763783D01*
X171076Y763956D01*
X176427Y763956D01*
X176427Y756398D01*
X168869Y756398D01*
G37*
%LPD*%
%LPC*%
G36*
X179473Y745794D02*
X179473Y745794D01*
X179473Y753352D01*
X187031Y753352D01*
X187031Y748001D01*
X186858Y747354D01*
X186523Y746775D01*
X186050Y746302D01*
X185471Y745967D01*
X184824Y745794D01*
X179473Y745794D01*
G37*
%LPD*%
%LPC*%
G36*
X171076Y745794D02*
X171076Y745794D01*
X170429Y745967D01*
X169850Y746302D01*
X169377Y746775D01*
X169042Y747354D01*
X168869Y748001D01*
X168869Y753352D01*
X176427Y753352D01*
X176427Y745794D01*
X171076Y745794D01*
G37*
%LPD*%
%LPC*%
G36*
X166623Y384723D02*
X166623Y384723D01*
X166623Y391741D01*
X171434Y391741D01*
X172081Y391568D01*
X172660Y391233D01*
X173133Y390760D01*
X173468Y390181D01*
X173641Y389534D01*
X173641Y384723D01*
X166623Y384723D01*
G37*
%LPD*%
%LPC*%
G36*
X156559Y384723D02*
X156559Y384723D01*
X156559Y389534D01*
X156732Y390181D01*
X157067Y390760D01*
X157540Y391233D01*
X158119Y391568D01*
X158766Y391741D01*
X163577Y391741D01*
X163577Y384723D01*
X156559Y384723D01*
G37*
%LPD*%
%LPC*%
G36*
X177949Y754874D02*
X177949Y754874D01*
X177949Y754876D01*
X177951Y754876D01*
X177951Y754874D01*
X177949Y754874D01*
G37*
%LPD*%
%LPC*%
G36*
X91693Y642111D02*
X91693Y642111D01*
X91693Y642113D01*
X91695Y642113D01*
X91695Y642111D01*
X91693Y642111D01*
G37*
%LPD*%
%LPC*%
G36*
X87799Y505299D02*
X87799Y505299D01*
X87799Y505301D01*
X87801Y505301D01*
X87801Y505299D01*
X87799Y505299D01*
G37*
%LPD*%
%LPC*%
G36*
X165099Y383199D02*
X165099Y383199D01*
X165099Y383201D01*
X165101Y383201D01*
X165101Y383199D01*
X165099Y383199D01*
G37*
%LPD*%
%LPC*%
G36*
X165099Y365099D02*
X165099Y365099D01*
X165099Y365101D01*
X165101Y365101D01*
X165101Y365099D01*
X165099Y365099D01*
G37*
%LPD*%
D10*
X38100Y723900D03*
D11*
X91694Y649732D02*
X91694Y634492D01*
X91694Y584708D02*
X91694Y569468D01*
X136906Y634492D02*
X136906Y649732D01*
X136906Y584708D02*
X136906Y569468D01*
D12*
X171196Y723900D02*
X184404Y723900D01*
X184404Y673100D02*
X171196Y673100D01*
X171196Y698500D02*
X184404Y698500D01*
D13*
X177950Y754875D03*
X101750Y754875D03*
D14*
X152550Y754875D03*
X127150Y754875D03*
X127150Y780275D03*
X152550Y780275D03*
X177950Y780275D03*
X101750Y780275D03*
D15*
X152400Y698500D03*
X76200Y698500D03*
D16*
X127301Y365100D03*
X127301Y355600D03*
X127301Y346100D03*
X101299Y346100D03*
X101299Y365100D03*
D17*
X165100Y421300D03*
X165100Y442300D03*
X165100Y383200D03*
X165100Y404200D03*
D18*
X136500Y431800D03*
X117500Y431800D03*
D19*
X139700Y403200D03*
X139700Y384200D03*
D20*
X87800Y505300D03*
X87800Y485300D03*
D21*
X35800Y529300D03*
X35800Y461300D03*
D19*
X190500Y441300D03*
X190500Y422300D03*
X165100Y346100D03*
X165100Y365100D03*
X114300Y403200D03*
X114300Y384200D03*
D22*
X44500Y429700D03*
X44500Y357700D03*
D23*
X72500Y360700D02*
X72500Y348620D01*
X72500Y426700D02*
X72500Y438780D01*
D24*
X71250Y380700D03*
X71250Y387200D03*
X71250Y393700D03*
X71250Y400200D03*
X71250Y406700D03*
D25*
X43500Y386200D03*
X43500Y401200D03*
D26*
X76200Y698500D02*
X38100Y723900D01*
X127150Y780275D02*
X150485Y732790D01*
X164972Y723900D02*
X177800Y723900D01*
X156082Y732790D02*
X150485Y732790D01*
X156082Y732790D02*
X164972Y723900D01*
X177800Y667512D02*
X136906Y642112D01*
X177800Y667512D02*
X177800Y673100D01*
X177800Y698500D02*
X152400Y698500D01*
D27*
X88900Y673100D03*
X76200Y647700D03*
X177800Y647700D03*
X114300Y647700D03*
X152400Y673100D03*
X127000Y723900D03*
X177800Y736600D03*
X190500Y774700D03*
X76200Y749300D03*
X88900Y520700D03*
X127000Y508000D03*
X152400Y495300D03*
X190500Y495300D03*
X177800Y469900D03*
X139700Y469900D03*
X88900Y469900D03*
X25400Y393700D03*
X101600Y419100D03*
X139700Y355600D03*
X190500Y368300D03*
X190500Y406400D03*
X127000Y457200D03*
X114300Y469900D03*
X25400Y406400D03*
X25400Y381000D03*
D26*
X152400Y421300D02*
X165100Y421300D01*
X152400Y421300D02*
X152400Y431800D01*
X136500Y431800D01*
X139700Y365100D02*
X127301Y365100D01*
X139700Y365100D02*
X139700Y384200D01*
X139700Y385967D01*
X129914Y395753D01*
X129914Y419100D02*
X114300Y419100D01*
X129914Y419100D02*
X129914Y395753D01*
X114300Y419100D02*
X114300Y431800D01*
X117500Y431800D01*
X88900Y381000D02*
X88900Y380700D01*
X88900Y381000D02*
X88900Y444500D01*
X165100Y444500D02*
X165100Y442300D01*
X165100Y444500D02*
X88900Y444500D01*
X165100Y442300D02*
X190500Y442300D01*
X190500Y441300D01*
X88600Y380700D02*
X71250Y380700D01*
X88600Y380700D02*
X88900Y381000D01*
X88600Y380700D02*
X88600Y358799D01*
X101299Y346100D01*
X127301Y346100D02*
X165100Y346100D01*
X90500Y482600D02*
X87800Y485300D01*
X90500Y482600D02*
X201678Y482600D01*
X201678Y346100D01*
X165100Y346100D01*
X114300Y403200D02*
X114300Y406400D01*
X101299Y406400D02*
X101299Y365100D01*
X101299Y406400D02*
X114300Y406400D01*
X139700Y403200D02*
X165100Y403200D01*
X165100Y404200D01*
M02*
