M48
;GenerationSoftware,Autodesk,EAGLE,8.6.0*%
;CreationDate,2018-01-31T11:55:17Z*%
FMAT,2
ICI,OFF
METRIC,TZ,000.000
T6C0.350
T5C0.600
T4C0.700
T3C0.800
T2C0.813
T1C1.016
%
G90
M71
T1
X13691Y64211
X3810Y72390
X9169Y64211
X9169Y57709
X13691Y57709
T2
X17780Y72390
X17780Y67310
X17780Y69850
X15240Y69850
X7620Y69850
T3
X10175Y78028
X17795Y75488
X10175Y75488
X15255Y75488
X12715Y75488
X12715Y78028
X15255Y78028
X17795Y78028
T4
X6350Y37420
X6350Y41320
X7250Y36070
X7250Y42670
T5
X4450Y42970
X4450Y35770
T6
X17780Y73660
X8890Y67310
X7620Y64770
X17780Y64770
X11430Y64770
X15240Y67310
X2540Y38100
X12700Y72390
X19050Y77470
X7620Y74930
X8890Y52070
X12700Y50800
X15240Y49530
X19050Y49530
X17780Y46990
X13970Y46990
X8890Y46990
X2540Y39370
X13970Y35560
X10160Y41910
X19050Y36830
X19050Y40640
X12700Y45720
X11430Y46990
X2540Y40640
M30