  0
SECTION
  2
HEADER
  9
$ACADVER
  1
AC1009
  9
$FILLMODE
 70
1
  9
$EXTMIN
 10
-6.3500
 20
28.4988
 30
0.0000
  9
$EXTMAX
 10
21.2600
 20
80.0588
 30
0.0000
  0
ENDSEC
  0
SECTION
  2
TABLES
  0
TABLE
  2
LTYPE
 70
1
  0
LTYPE
  2
CONTINUOUS
 70
64
  3
Solid line
 72
65
 73
0
 40
0
  0
ENDTAB
  0
TABLE
  2
LAYER
 70
255
  0
LAYER
  2
1
 70
64
 62
22
  6
CONTINUOUS
  0
LAYER
  2
16
 70
64
 62
175
  6
CONTINUOUS
  0
LAYER
  2
17
 70
64
 62
82
  6
CONTINUOUS
  0
LAYER
  2
18
 70
64
 62
82
  6
CONTINUOUS
  0
LAYER
  2
19
 70
64
 62
53
  6
CONTINUOUS
  0
LAYER
  2
20
 70
64
 62
30
  6
CONTINUOUS
  0
LAYER
  2
21
 70
64
 62
253
  6
CONTINUOUS
  0
LAYER
  2
22
 70
64
 62
253
  6
CONTINUOUS
  0
LAYER
  2
23
 70
64
 62
7
  6
CONTINUOUS
  0
LAYER
  2
24
 70
64
 62
7
  6
CONTINUOUS
  0
LAYER
  2
26
 70
64
 62
253
  6
CONTINUOUS
  0
LAYER
  2
27
 70
64
 62
253
  6
CONTINUOUS
  0
LAYER
  2
28
 70
64
 62
253
  6
CONTINUOUS
  0
LAYER
  2
39
 70
64
 62
22
  6
CONTINUOUS
  0
LAYER
  2
40
 70
64
 62
175
  6
CONTINUOUS
  0
LAYER
  2
41
 70
64
 62
22
  6
CONTINUOUS
  0
LAYER
  2
42
 70
64
 62
175
  6
CONTINUOUS
  0
LAYER
  2
43
 70
64
 62
82
  6
CONTINUOUS
  0
LAYER
  2
48
 70
64
 62
253
  6
CONTINUOUS
  0
LAYER
  2
49
 70
64
 62
253
  6
CONTINUOUS
  0
LAYER
  2
51
 70
64
 62
253
  6
CONTINUOUS
  0
LAYER
  2
52
 70
64
 62
253
  6
CONTINUOUS
  0
LAYER
  2
100
 70
64
 62
253
  6
CONTINUOUS
  0
LAYER
  2
101
 70
64
 62
253
  6
CONTINUOUS
  0
LAYER
  2
102
 70
64
 62
253
  6
CONTINUOUS
  0
LAYER
  2
103
 70
64
 62
253
  6
CONTINUOUS
  0
LAYER
  2
104
 70
64
 62
253
  6
CONTINUOUS
  0
LAYER
  2
105
 70
64
 62
253
  6
CONTINUOUS
  0
LAYER
  2
106
 70
64
 62
253
  6
CONTINUOUS
  0
LAYER
  2
107
 70
64
 62
253
  6
CONTINUOUS
  0
LAYER
  2
108
 70
64
 62
253
  6
CONTINUOUS
  0
LAYER
  2
109
 70
64
 62
253
  6
CONTINUOUS
  0
LAYER
  2
110
 70
64
 62
253
  6
CONTINUOUS
  0
LAYER
  2
111
 70
64
 62
253
  6
CONTINUOUS
  0
LAYER
  2
112
 70
64
 62
253
  6
CONTINUOUS
  0
LAYER
  2
116
 70
64
 62
253
  6
CONTINUOUS
  0
LAYER
  2
121
 70
64
 62
253
  6
CONTINUOUS
  0
LAYER
  2
122
 70
64
 62
253
  6
CONTINUOUS
  0
LAYER
  2
123
 70
64
 62
253
  6
CONTINUOUS
  0
LAYER
  2
124
 70
64
 62
253
  6
CONTINUOUS
  0
LAYER
  2
125
 70
64
 62
253
  6
CONTINUOUS
  0
LAYER
  2
126
 70
64
 62
253
  6
CONTINUOUS
  0
LAYER
  2
127
 70
64
 62
253
  6
CONTINUOUS
  0
LAYER
  2
128
 70
64
 62
253
  6
CONTINUOUS
  0
LAYER
  2
129
 70
64
 62
253
  6
CONTINUOUS
  0
LAYER
  2
131
 70
64
 62
253
  6
CONTINUOUS
  0
LAYER
  2
132
 70
64
 62
253
  6
CONTINUOUS
  0
LAYER
  2
144
 70
64
 62
253
  6
CONTINUOUS
  0
LAYER
  2
150
 70
64
 62
253
  6
CONTINUOUS
  0
LAYER
  2
151
 70
64
 62
253
  6
CONTINUOUS
  0
LAYER
  2
152
 70
64
 62
253
  6
CONTINUOUS
  0
LAYER
  2
153
 70
64
 62
253
  6
CONTINUOUS
  0
LAYER
  2
154
 70
64
 62
253
  6
CONTINUOUS
  0
LAYER
  2
155
 70
64
 62
253
  6
CONTINUOUS
  0
LAYER
  2
199
 70
64
 62
253
  6
CONTINUOUS
  0
LAYER
  2
200
 70
64
 62
253
  6
CONTINUOUS
  0
LAYER
  2
201
 70
64
 62
253
  6
CONTINUOUS
  0
LAYER
  2
202
 70
64
 62
253
  6
CONTINUOUS
  0
LAYER
  2
203
 70
64
 62
253
  6
CONTINUOUS
  0
LAYER
  2
204
 70
64
 62
253
  6
CONTINUOUS
  0
LAYER
  2
205
 70
64
 62
253
  6
CONTINUOUS
  0
LAYER
  2
206
 70
64
 62
253
  6
CONTINUOUS
  0
LAYER
  2
207
 70
64
 62
253
  6
CONTINUOUS
  0
LAYER
  2
208
 70
64
 62
253
  6
CONTINUOUS
  0
LAYER
  2
209
 70
64
 62
253
  6
CONTINUOUS
  0
LAYER
  2
210
 70
64
 62
253
  6
CONTINUOUS
  0
LAYER
  2
211
 70
64
 62
253
  6
CONTINUOUS
  0
LAYER
  2
212
 70
64
 62
253
  6
CONTINUOUS
  0
LAYER
  2
213
 70
64
 62
253
  6
CONTINUOUS
  0
LAYER
  2
214
 70
64
 62
253
  6
CONTINUOUS
  0
LAYER
  2
215
 70
64
 62
253
  6
CONTINUOUS
  0
LAYER
  2
216
 70
64
 62
253
  6
CONTINUOUS
  0
LAYER
  2
217
 70
64
 62
253
  6
CONTINUOUS
  0
LAYER
  2
218
 70
64
 62
253
  6
CONTINUOUS
  0
LAYER
  2
219
 70
64
 62
253
  6
CONTINUOUS
  0
LAYER
  2
220
 70
64
 62
253
  6
CONTINUOUS
  0
LAYER
  2
221
 70
64
 62
253
  6
CONTINUOUS
  0
LAYER
  2
222
 70
64
 62
253
  6
CONTINUOUS
  0
LAYER
  2
223
 70
64
 62
253
  6
CONTINUOUS
  0
LAYER
  2
224
 70
64
 62
253
  6
CONTINUOUS
  0
LAYER
  2
225
 70
64
 62
253
  6
CONTINUOUS
  0
LAYER
  2
226
 70
64
 62
253
  6
CONTINUOUS
  0
LAYER
  2
227
 70
64
 62
253
  6
CONTINUOUS
  0
LAYER
  2
228
 70
64
 62
253
  6
CONTINUOUS
  0
LAYER
  2
229
 70
64
 62
253
  6
CONTINUOUS
  0
LAYER
  2
230
 70
64
 62
253
  6
CONTINUOUS
  0
LAYER
  2
248
 70
64
 62
253
  6
CONTINUOUS
  0
LAYER
  2
249
 70
64
 62
253
  6
CONTINUOUS
  0
LAYER
  2
250
 70
64
 62
253
  6
CONTINUOUS
  0
LAYER
  2
251
 70
64
 62
253
  6
CONTINUOUS
  0
LAYER
  2
254
 70
64
 62
253
  6
CONTINUOUS
  0
LAYER
  2
255
 70
64
 62
253
  6
CONTINUOUS
  0
ENDTAB
  0
ENDSEC
  0
SECTION
  2
BLOCKS
  0
BLOCK
  8
0
  2
RECT
 70
64
 10
0.0000
 20
0.0000
 30
0.0000
  3
RECT
  0
SOLID
  8
0
 10
-0.5000
 20
-0.5000
 30
0.0000
 11
0.5000
 21
-0.5000
 31
0.0000
 12
-0.5000
 22
0.5000
 32
0.0000
 13
0.5000
 23
0.5000
 33
0.0000
  0
ENDBLK
  8
0
  0
BLOCK
  8
0
  2
PIE
 70
64
 10
0.0000
 20
0.0000
 30
0.0000
  3
PIE
  0
POLYLINE
  8
0
 66
1
 10
0.0000
 20
0.0000
 30
0.0000
 40
0.5000
 41
0.5000
 70
0
  0
VERTEX
  8
0
 10
0.0000
 20
-0.2500
 30
0.0000
 42
1.0000
  0
VERTEX
  8
0
 10
0.0000
 20
0.2500
 30
0.0000
 42
1.0000
  0
VERTEX
  8
0
 10
0.0000
 20
-0.2500
 30
0.0000
  0
SEQEND
  8
0
  0
ENDBLK
  8
0
  0
BLOCK
  8
0
  2
OCTAGONP
 70
64
 10
0.0000
 20
0.0000
 30
0.0000
  3
OCTAGONP
  0
POLYLINE
  8
0
 66
1
 10
0.0000
 20
0.0000
 30
0.0000
 40
0.5000
 41
0.5000
 70
0
  0
VERTEX
  8
0
 10
-0.2500
 20
-0.1036
 30
0.0000
  0
VERTEX
  8
0
 10
-0.2500
 20
0.1036
 30
0.0000
  0
VERTEX
  8
0
 10
-0.1036
 20
0.2500
 30
0.0000
  0
VERTEX
  8
0
 10
0.1036
 20
0.2500
 30
0.0000
  0
VERTEX
  8
0
 10
0.2500
 20
0.1036
 30
0.0000
  0
VERTEX
  8
0
 10
0.2500
 20
-0.1036
 30
0.0000
  0
VERTEX
  8
0
 10
0.1036
 20
-0.2500
 30
0.0000
  0
VERTEX
  8
0
 10
-0.1036
 20
-0.2500
 30
0.0000
  0
VERTEX
  8
0
 10
-0.2500
 20
-0.1036
 30
0.0000
  0
VERTEX
  8
0
 10
-0.2500
 20
0.1036
 30
0.0000
  0
SEQEND
  8
0
  0
ENDBLK
  8
0
  0
BLOCK
  8
0
  2
SQUAREP
 70
64
 10
0.0000
 20
0.0000
 30
0.0000
  3
SQUAREP
  0
SOLID
  8
0
 10
-0.5000
 20
-0.5000
 30
0.0000
 11
0.5000
 21
-0.5000
 31
0.0000
 12
-0.5000
 22
0.5000
 32
0.0000
 13
0.5000
 23
0.5000
 33
0.0000
  0
ENDBLK
  8
0
  0
BLOCK
  8
0
  2
ROUNDP
 70
64
 10
0.0000
 20
0.0000
 30
0.0000
  3
ROUNDP
  0
POLYLINE
  8
0
 66
1
 10
0.0000
 20
0.0000
 30
0.0000
 40
0.5000
 41
0.5000
 70
0
  0
VERTEX
  8
0
 10
0.0000
 20
-0.2500
 30
0.0000
 42
1.0000
  0
VERTEX
  8
0
 10
0.0000
 20
0.2500
 30
0.0000
 42
1.0000
  0
VERTEX
  8
0
 10
0.0000
 20
-0.2500
 30
0.0000
  0
SEQEND
  8
0
  0
ENDBLK
  8
0
  0
BLOCK
  8
0
  2
ANNULUSP
 70
64
 10
0.0000
 20
0.0000
 30
0.0000
  3
ANNULUSP
  0
POLYLINE
  8
0
 66
1
 10
0.0000
 20
0.0000
 30
0.0000
 40
0.5000
 41
0.5000
 70
0
  0
VERTEX
  8
0
 10
0.0000
 20
-0.2500
 30
0.0000
 42
1.0000
  0
VERTEX
  8
0
 10
0.0000
 20
0.2500
 30
0.0000
 42
1.0000
  0
VERTEX
  8
0
 10
0.0000
 20
-0.2500
 30
0.0000
  0
SEQEND
  8
0
  0
ENDBLK
  8
0
  0
BLOCK
  8
0
  2
THERMALP
 70
64
 10
0.0000
 20
0.0000
 30
0.0000
  3
THERMALP
  0
POLYLINE
  8
0
 66
1
 10
0.0000
 20
0.0000
 30
0.0000
 40
0.1000
 41
0.1000
 70
0
  0
VERTEX
  8
0
 10
-0.2379
 20
0.4500
 30
0.0000
  0
VERTEX
  8
0
 10
0.2379
 20
0.4500
 30
0.0000
  0
SEQEND
  8
0
  0
POLYLINE
  8
0
 66
1
 10
0.0000
 20
0.0000
 30
0.0000
 40
0.0500
 41
0.0500
 70
0
  0
VERTEX
  8
0
 10
0.2379
 20
0.4250
 30
0.0000
 42
1.0000
  0
VERTEX
  8
0
 10
0.2379
 20
0.4750
 30
0.0000
  0
SEQEND
  8
0
  0
POLYLINE
  8
0
 66
1
 10
0.0000
 20
0.0000
 30
0.0000
 40
0.0500
 41
0.0500
 70
0
  0
VERTEX
  8
0
 10
-0.2379
 20
0.4750
 30
0.0000
 42
1.0000
  0
VERTEX
  8
0
 10
-0.2379
 20
0.4250
 30
0.0000
  0
SEQEND
  8
0
  0
POLYLINE
  8
0
 66
1
 10
0.0000
 20
0.0000
 30
0.0000
 40
0.1000
 41
0.1000
 70
0
  0
VERTEX
  8
0
 10
0.4500
 20
0.2379
 30
0.0000
  0
VERTEX
  8
0
 10
0.4500
 20
-0.2379
 30
0.0000
  0
SEQEND
  8
0
  0
POLYLINE
  8
0
 66
1
 10
0.0000
 20
0.0000
 30
0.0000
 40
0.0500
 41
0.0500
 70
0
  0
VERTEX
  8
0
 10
0.4250
 20
-0.2379
 30
0.0000
 42
1.0000
  0
VERTEX
  8
0
 10
0.4750
 20
-0.2379
 30
0.0000
  0
SEQEND
  8
0
  0
POLYLINE
  8
0
 66
1
 10
0.0000
 20
0.0000
 30
0.0000
 40
0.0500
 41
0.0500
 70
0
  0
VERTEX
  8
0
 10
0.4750
 20
0.2379
 30
0.0000
 42
1.0000
  0
VERTEX
  8
0
 10
0.4250
 20
0.2379
 30
0.0000
  0
SEQEND
  8
0
  0
POLYLINE
  8
0
 66
1
 10
0.0000
 20
0.0000
 30
0.0000
 40
0.1000
 41
0.1000
 70
0
  0
VERTEX
  8
0
 10
0.2379
 20
-0.4500
 30
0.0000
  0
VERTEX
  8
0
 10
-0.2379
 20
-0.4500
 30
0.0000
  0
SEQEND
  8
0
  0
POLYLINE
  8
0
 66
1
 10
0.0000
 20
0.0000
 30
0.0000
 40
0.0500
 41
0.0500
 70
0
  0
VERTEX
  8
0
 10
-0.2379
 20
-0.4250
 30
0.0000
 42
1.0000
  0
VERTEX
  8
0
 10
-0.2379
 20
-0.4750
 30
0.0000
  0
SEQEND
  8
0
  0
POLYLINE
  8
0
 66
1
 10
0.0000
 20
0.0000
 30
0.0000
 40
0.0500
 41
0.0500
 70
0
  0
VERTEX
  8
0
 10
0.2379
 20
-0.4750
 30
0.0000
 42
1.0000
  0
VERTEX
  8
0
 10
0.2379
 20
-0.4250
 30
0.0000
  0
SEQEND
  8
0
  0
POLYLINE
  8
0
 66
1
 10
0.0000
 20
0.0000
 30
0.0000
 40
0.1000
 41
0.1000
 70
0
  0
VERTEX
  8
0
 10
-0.4500
 20
-0.2379
 30
0.0000
  0
VERTEX
  8
0
 10
-0.4500
 20
0.2379
 30
0.0000
  0
SEQEND
  8
0
  0
POLYLINE
  8
0
 66
1
 10
0.0000
 20
0.0000
 30
0.0000
 40
0.0500
 41
0.0500
 70
0
  0
VERTEX
  8
0
 10
-0.4250
 20
0.2379
 30
0.0000
 42
1.0000
  0
VERTEX
  8
0
 10
-0.4750
 20
0.2379
 30
0.0000
  0
SEQEND
  8
0
  0
POLYLINE
  8
0
 66
1
 10
0.0000
 20
0.0000
 30
0.0000
 40
0.0500
 41
0.0500
 70
0
  0
VERTEX
  8
0
 10
-0.4750
 20
-0.2379
 30
0.0000
 42
1.0000
  0
VERTEX
  8
0
 10
-0.4250
 20
-0.2379
 30
0.0000
  0
SEQEND
  8
0
  0
ENDBLK
  8
0
  0
BLOCK
  8
0
  2
OCTAGONV
 70
64
 10
0.0000
 20
0.0000
 30
0.0000
  3
OCTAGONV
  0
POLYLINE
  8
0
 66
1
 10
0.0000
 20
0.0000
 30
0.0000
 40
0.5000
 41
0.5000
 70
0
  0
VERTEX
  8
0
 10
-0.2500
 20
-0.1036
 30
0.0000
  0
VERTEX
  8
0
 10
-0.2500
 20
0.1036
 30
0.0000
  0
VERTEX
  8
0
 10
-0.1036
 20
0.2500
 30
0.0000
  0
VERTEX
  8
0
 10
0.1036
 20
0.2500
 30
0.0000
  0
VERTEX
  8
0
 10
0.2500
 20
0.1036
 30
0.0000
  0
VERTEX
  8
0
 10
0.2500
 20
-0.1036
 30
0.0000
  0
VERTEX
  8
0
 10
0.1036
 20
-0.2500
 30
0.0000
  0
VERTEX
  8
0
 10
-0.1036
 20
-0.2500
 30
0.0000
  0
VERTEX
  8
0
 10
-0.2500
 20
-0.1036
 30
0.0000
  0
VERTEX
  8
0
 10
-0.2500
 20
0.1036
 30
0.0000
  0
SEQEND
  8
0
  0
ENDBLK
  8
0
  0
BLOCK
  8
0
  2
SQUAREV
 70
64
 10
0.0000
 20
0.0000
 30
0.0000
  3
SQUAREV
  0
SOLID
  8
0
 10
-0.5000
 20
-0.5000
 30
0.0000
 11
0.5000
 21
-0.5000
 31
0.0000
 12
-0.5000
 22
0.5000
 32
0.0000
 13
0.5000
 23
0.5000
 33
0.0000
  0
ENDBLK
  8
0
  0
BLOCK
  8
0
  2
ROUNDV
 70
64
 10
0.0000
 20
0.0000
 30
0.0000
  3
ROUNDV
  0
POLYLINE
  8
0
 66
1
 10
0.0000
 20
0.0000
 30
0.0000
 40
0.5000
 41
0.5000
 70
0
  0
VERTEX
  8
0
 10
0.0000
 20
-0.2500
 30
0.0000
 42
1.0000
  0
VERTEX
  8
0
 10
0.0000
 20
0.2500
 30
0.0000
 42
1.0000
  0
VERTEX
  8
0
 10
0.0000
 20
-0.2500
 30
0.0000
  0
SEQEND
  8
0
  0
ENDBLK
  8
0
  0
BLOCK
  8
0
  2
ANNULUSV
 70
64
 10
0.0000
 20
0.0000
 30
0.0000
  3
ANNULUSV
  0
POLYLINE
  8
0
 66
1
 10
0.0000
 20
0.0000
 30
0.0000
 40
0.5000
 41
0.5000
 70
0
  0
VERTEX
  8
0
 10
0.0000
 20
-0.2500
 30
0.0000
 42
1.0000
  0
VERTEX
  8
0
 10
0.0000
 20
0.2500
 30
0.0000
 42
1.0000
  0
VERTEX
  8
0
 10
0.0000
 20
-0.2500
 30
0.0000
  0
SEQEND
  8
0
  0
ENDBLK
  8
0
  0
BLOCK
  8
0
  2
THERMALV
 70
64
 10
0.0000
 20
0.0000
 30
0.0000
  3
THERMALV
  0
POLYLINE
  8
0
 66
1
 10
0.0000
 20
0.0000
 30
0.0000
 40
0.1000
 41
0.1000
 70
0
  0
VERTEX
  8
0
 10
-0.2379
 20
0.4500
 30
0.0000
  0
VERTEX
  8
0
 10
0.2379
 20
0.4500
 30
0.0000
  0
SEQEND
  8
0
  0
POLYLINE
  8
0
 66
1
 10
0.0000
 20
0.0000
 30
0.0000
 40
0.0500
 41
0.0500
 70
0
  0
VERTEX
  8
0
 10
0.2379
 20
0.4250
 30
0.0000
 42
1.0000
  0
VERTEX
  8
0
 10
0.2379
 20
0.4750
 30
0.0000
  0
SEQEND
  8
0
  0
POLYLINE
  8
0
 66
1
 10
0.0000
 20
0.0000
 30
0.0000
 40
0.0500
 41
0.0500
 70
0
  0
VERTEX
  8
0
 10
-0.2379
 20
0.4750
 30
0.0000
 42
1.0000
  0
VERTEX
  8
0
 10
-0.2379
 20
0.4250
 30
0.0000
  0
SEQEND
  8
0
  0
POLYLINE
  8
0
 66
1
 10
0.0000
 20
0.0000
 30
0.0000
 40
0.1000
 41
0.1000
 70
0
  0
VERTEX
  8
0
 10
0.4500
 20
0.2379
 30
0.0000
  0
VERTEX
  8
0
 10
0.4500
 20
-0.2379
 30
0.0000
  0
SEQEND
  8
0
  0
POLYLINE
  8
0
 66
1
 10
0.0000
 20
0.0000
 30
0.0000
 40
0.0500
 41
0.0500
 70
0
  0
VERTEX
  8
0
 10
0.4250
 20
-0.2379
 30
0.0000
 42
1.0000
  0
VERTEX
  8
0
 10
0.4750
 20
-0.2379
 30
0.0000
  0
SEQEND
  8
0
  0
POLYLINE
  8
0
 66
1
 10
0.0000
 20
0.0000
 30
0.0000
 40
0.0500
 41
0.0500
 70
0
  0
VERTEX
  8
0
 10
0.4750
 20
0.2379
 30
0.0000
 42
1.0000
  0
VERTEX
  8
0
 10
0.4250
 20
0.2379
 30
0.0000
  0
SEQEND
  8
0
  0
POLYLINE
  8
0
 66
1
 10
0.0000
 20
0.0000
 30
0.0000
 40
0.1000
 41
0.1000
 70
0
  0
VERTEX
  8
0
 10
0.2379
 20
-0.4500
 30
0.0000
  0
VERTEX
  8
0
 10
-0.2379
 20
-0.4500
 30
0.0000
  0
SEQEND
  8
0
  0
POLYLINE
  8
0
 66
1
 10
0.0000
 20
0.0000
 30
0.0000
 40
0.0500
 41
0.0500
 70
0
  0
VERTEX
  8
0
 10
-0.2379
 20
-0.4250
 30
0.0000
 42
1.0000
  0
VERTEX
  8
0
 10
-0.2379
 20
-0.4750
 30
0.0000
  0
SEQEND
  8
0
  0
POLYLINE
  8
0
 66
1
 10
0.0000
 20
0.0000
 30
0.0000
 40
0.0500
 41
0.0500
 70
0
  0
VERTEX
  8
0
 10
0.2379
 20
-0.4750
 30
0.0000
 42
1.0000
  0
VERTEX
  8
0
 10
0.2379
 20
-0.4250
 30
0.0000
  0
SEQEND
  8
0
  0
POLYLINE
  8
0
 66
1
 10
0.0000
 20
0.0000
 30
0.0000
 40
0.1000
 41
0.1000
 70
0
  0
VERTEX
  8
0
 10
-0.4500
 20
-0.2379
 30
0.0000
  0
VERTEX
  8
0
 10
-0.4500
 20
0.2379
 30
0.0000
  0
SEQEND
  8
0
  0
POLYLINE
  8
0
 66
1
 10
0.0000
 20
0.0000
 30
0.0000
 40
0.0500
 41
0.0500
 70
0
  0
VERTEX
  8
0
 10
-0.4250
 20
0.2379
 30
0.0000
 42
1.0000
  0
VERTEX
  8
0
 10
-0.4750
 20
0.2379
 30
0.0000
  0
SEQEND
  8
0
  0
POLYLINE
  8
0
 66
1
 10
0.0000
 20
0.0000
 30
0.0000
 40
0.0500
 41
0.0500
 70
0
  0
VERTEX
  8
0
 10
-0.4750
 20
-0.2379
 30
0.0000
 42
1.0000
  0
VERTEX
  8
0
 10
-0.4250
 20
-0.2379
 30
0.0000
  0
SEQEND
  8
0
  0
ENDBLK
  8
0
  0
BLOCK
  8
0
  2
LONGP100
 70
64
 10
0.0000
 20
0.0000
 30
0.0000
  3
LONGP100
  0
POLYLINE
  8
0
 66
1
 10
0.0000
 20
0.0000
 30
0.0000
 40
1.0000
 41
1.0000
 70
0
  0
VERTEX
  8
0
 10
-0.5000
 20
0.0000
 30
0.0000
  0
VERTEX
  8
0
 10
0.5000
 20
0.0000
 30
0.0000
  0
SEQEND
  8
0
  0
POLYLINE
  8
0
 66
1
 10
0.0000
 20
0.0000
 30
0.0000
 40
0.5000
 41
0.5000
 70
0
  0
VERTEX
  8
0
 10
0.5000
 20
-0.2500
 30
0.0000
 42
1.0000
  0
VERTEX
  8
0
 10
0.5000
 20
0.2500
 30
0.0000
  0
SEQEND
  8
0
  0
POLYLINE
  8
0
 66
1
 10
0.0000
 20
0.0000
 30
0.0000
 40
0.5000
 41
0.5000
 70
0
  0
VERTEX
  8
0
 10
-0.5000
 20
0.2500
 30
0.0000
 42
1.0000
  0
VERTEX
  8
0
 10
-0.5000
 20
-0.2500
 30
0.0000
  0
SEQEND
  8
0
  0
ENDBLK
  8
0
  0
ENDSEC
  0
SECTION
  2
ENTITIES
  0
LINE
  8
20
 10
0.0000
 20
33.0200
 30
0.0000
 11
21.2600
 21
33.0200
 31
0.0000
  0
LINE
  8
20
 10
21.2600
 20
33.0200
 30
0.0000
 11
21.2600
 21
80.0000
 31
0.0000
  0
LINE
  8
20
 10
21.2600
 20
80.0000
 30
0.0000
 11
0.0000
 21
80.0000
 31
0.0000
  0
LINE
  8
20
 10
0.0000
 20
80.0000
 30
0.0000
 11
0.0000
 21
33.0200
 31
0.0000
  0
POLYLINE
  8
104
 66
1
 10
0.0000
 20
0.0000
 30
0.0000
 40
0.1524
 41
0.1524
 70
0
  0
VERTEX
  8
104
 10
17.8562
 20
59.2187
 30
0.0000
  0
VERTEX
  8
104
 10
17.8562
 20
58.4962
 30
0.0000
  0
SEQEND
  8
0
  0
POLYLINE
  8
104
 66
1
 10
0.0000
 20
0.0000
 30
0.0000
 40
0.0762
 41
0.0762
 70
0
  0
VERTEX
  8
104
 10
17.8181
 20
58.4962
 30
0.0000
 42
1.0000
  0
VERTEX
  8
104
 10
17.8943
 20
58.4962
 30
0.0000
  0
SEQEND
  8
0
  0
POLYLINE
  8
104
 66
1
 10
0.0000
 20
0.0000
 30
0.0000
 40
0.0762
 41
0.0762
 70
0
  0
VERTEX
  8
104
 10
17.8943
 20
59.2187
 30
0.0000
 42
1.0000
  0
VERTEX
  8
104
 10
17.8181
 20
59.2187
 30
0.0000
  0
SEQEND
  8
0
  0
POLYLINE
  8
104
 66
1
 10
0.0000
 20
0.0000
 30
0.0000
 40
0.1524
 41
0.1524
 70
0
  0
VERTEX
  8
104
 10
17.8562
 20
58.4962
 30
0.0000
  0
VERTEX
  8
104
 10
19.4818
 20
58.4962
 30
0.0000
  0
SEQEND
  8
0
  0
POLYLINE
  8
104
 66
1
 10
0.0000
 20
0.0000
 30
0.0000
 40
0.0762
 41
0.0762
 70
0
  0
VERTEX
  8
104
 10
19.4818
 20
58.4581
 30
0.0000
 42
1.0000
  0
VERTEX
  8
104
 10
19.4818
 20
58.5343
 30
0.0000
  0
SEQEND
  8
0
  0
POLYLINE
  8
104
 66
1
 10
0.0000
 20
0.0000
 30
0.0000
 40
0.0762
 41
0.0762
 70
0
  0
VERTEX
  8
104
 10
17.8562
 20
58.5343
 30
0.0000
 42
1.0000
  0
VERTEX
  8
104
 10
17.8562
 20
58.4581
 30
0.0000
  0
SEQEND
  8
0
  0
POLYLINE
  8
104
 66
1
 10
0.0000
 20
0.0000
 30
0.0000
 40
0.1524
 41
0.1524
 70
0
  0
VERTEX
  8
104
 10
19.4818
 20
58.4962
 30
0.0000
  0
VERTEX
  8
104
 10
19.4818
 20
59.2187
 30
0.0000
  0
SEQEND
  8
0
  0
POLYLINE
  8
104
 66
1
 10
0.0000
 20
0.0000
 30
0.0000
 40
0.0762
 41
0.0762
 70
0
  0
VERTEX
  8
104
 10
19.5199
 20
59.2187
 30
0.0000
 42
1.0000
  0
VERTEX
  8
104
 10
19.4437
 20
59.2187
 30
0.0000
  0
SEQEND
  8
0
  0
POLYLINE
  8
104
 66
1
 10
0.0000
 20
0.0000
 30
0.0000
 40
0.0762
 41
0.0762
 70
0
  0
VERTEX
  8
104
 10
19.4437
 20
58.4962
 30
0.0000
 42
1.0000
  0
VERTEX
  8
104
 10
19.5199
 20
58.4962
 30
0.0000
  0
SEQEND
  8
0
  0
POLYLINE
  8
104
 66
1
 10
0.0000
 20
0.0000
 30
0.0000
 40
0.1524
 41
0.1524
 70
0
  0
VERTEX
  8
104
 10
18.7593
 20
58.4962
 30
0.0000
  0
VERTEX
  8
104
 10
18.7593
 20
59.0381
 30
0.0000
  0
SEQEND
  8
0
  0
POLYLINE
  8
104
 66
1
 10
0.0000
 20
0.0000
 30
0.0000
 40
0.0762
 41
0.0762
 70
0
  0
VERTEX
  8
104
 10
18.7974
 20
59.0381
 30
0.0000
 42
1.0000
  0
VERTEX
  8
104
 10
18.7212
 20
59.0381
 30
0.0000
  0
SEQEND
  8
0
  0
POLYLINE
  8
104
 66
1
 10
0.0000
 20
0.0000
 30
0.0000
 40
0.0762
 41
0.0762
 70
0
  0
VERTEX
  8
104
 10
18.7212
 20
58.4962
 30
0.0000
 42
1.0000
  0
VERTEX
  8
104
 10
18.7974
 20
58.4962
 30
0.0000
  0
SEQEND
  8
0
  0
POLYLINE
  8
104
 66
1
 10
0.0000
 20
0.0000
 30
0.0000
 40
0.1524
 41
0.1524
 70
0
  0
VERTEX
  8
104
 10
18.2174
 20
60.6468
 30
0.0000
 42
0.4142
  0
VERTEX
  8
104
 10
17.8562
 20
60.2856
 30
0.0000
  0
SEQEND
  8
0
  0
POLYLINE
  8
104
 66
1
 10
0.0000
 20
0.0000
 30
0.0000
 40
0.0762
 41
0.0762
 70
0
  0
VERTEX
  8
104
 10
18.2174
 20
60.6087
 30
0.0000
 42
1.0000
  0
VERTEX
  8
104
 10
18.2174
 20
60.6849
 30
0.0000
  0
SEQEND
  8
0
  0
POLYLINE
  8
104
 66
1
 10
0.0000
 20
0.0000
 30
0.0000
 40
0.0762
 41
0.0762
 70
0
  0
VERTEX
  8
104
 10
17.8181
 20
60.2856
 30
0.0000
 42
1.0000
  0
VERTEX
  8
104
 10
17.8943
 20
60.2856
 30
0.0000
  0
SEQEND
  8
0
  0
POLYLINE
  8
104
 66
1
 10
0.0000
 20
0.0000
 30
0.0000
 40
0.1524
 41
0.1524
 70
0
  0
VERTEX
  8
104
 10
17.8562
 20
60.2856
 30
0.0000
 42
0.2000
  0
VERTEX
  8
104
 10
18.0820
 20
59.7437
 30
0.0000
  0
SEQEND
  8
0
  0
POLYLINE
  8
104
 66
1
 10
0.0000
 20
0.0000
 30
0.0000
 40
0.0762
 41
0.0762
 70
0
  0
VERTEX
  8
104
 10
17.8943
 20
60.2856
 30
0.0000
 42
1.0000
  0
VERTEX
  8
104
 10
17.8181
 20
60.2856
 30
0.0000
  0
SEQEND
  8
0
  0
POLYLINE
  8
104
 66
1
 10
0.0000
 20
0.0000
 30
0.0000
 40
0.0762
 41
0.0762
 70
0
  0
VERTEX
  8
104
 10
18.0551
 20
59.7167
 30
0.0000
 42
1.0000
  0
VERTEX
  8
104
 10
18.1088
 20
59.7708
 30
0.0000
  0
SEQEND
  8
0
  0
POLYLINE
  8
104
 66
1
 10
0.0000
 20
0.0000
 30
0.0000
 40
0.1524
 41
0.1524
 70
0
  0
VERTEX
  8
104
 10
19.1206
 20
59.7889
 30
0.0000
 42
0.4142
  0
VERTEX
  8
104
 10
19.4818
 20
60.1501
 30
0.0000
  0
SEQEND
  8
0
  0
POLYLINE
  8
104
 66
1
 10
0.0000
 20
0.0000
 30
0.0000
 40
0.0762
 41
0.0762
 70
0
  0
VERTEX
  8
104
 10
19.1206
 20
59.8270
 30
0.0000
 42
1.0000
  0
VERTEX
  8
104
 10
19.1206
 20
59.7508
 30
0.0000
  0
SEQEND
  8
0
  0
POLYLINE
  8
104
 66
1
 10
0.0000
 20
0.0000
 30
0.0000
 40
0.0762
 41
0.0762
 70
0
  0
VERTEX
  8
104
 10
19.5199
 20
60.1501
 30
0.0000
 42
1.0000
  0
VERTEX
  8
104
 10
19.4437
 20
60.1501
 30
0.0000
  0
SEQEND
  8
0
  0
POLYLINE
  8
104
 66
1
 10
0.0000
 20
0.0000
 30
0.0000
 40
0.1524
 41
0.1524
 70
0
  0
VERTEX
  8
104
 10
19.4818
 20
60.1501
 30
0.0000
 42
0.1623
  0
VERTEX
  8
104
 10
19.3463
 20
60.5565
 30
0.0000
  0
SEQEND
  8
0
  0
POLYLINE
  8
104
 66
1
 10
0.0000
 20
0.0000
 30
0.0000
 40
0.0762
 41
0.0762
 70
0
  0
VERTEX
  8
104
 10
19.4437
 20
60.1501
 30
0.0000
 42
1.0000
  0
VERTEX
  8
104
 10
19.5199
 20
60.1501
 30
0.0000
  0
SEQEND
  8
0
  0
POLYLINE
  8
104
 66
1
 10
0.0000
 20
0.0000
 30
0.0000
 40
0.0762
 41
0.0762
 70
0
  0
VERTEX
  8
104
 10
19.3768
 20
60.5794
 30
0.0000
 42
1.0000
  0
VERTEX
  8
104
 10
19.3159
 20
60.5337
 30
0.0000
  0
SEQEND
  8
0
  0
POLYLINE
  8
104
 66
1
 10
0.0000
 20
0.0000
 30
0.0000
 40
0.1524
 41
0.1524
 70
0
  0
VERTEX
  8
104
 10
18.8045
 20
59.9695
 30
0.0000
 42
0.2656
  0
VERTEX
  8
104
 10
19.1206
 20
59.7889
 30
0.0000
  0
SEQEND
  8
0
  0
POLYLINE
  8
104
 66
1
 10
0.0000
 20
0.0000
 30
0.0000
 40
0.0762
 41
0.0762
 70
0
  0
VERTEX
  8
104
 10
18.8373
 20
59.9888
 30
0.0000
 42
1.0000
  0
VERTEX
  8
104
 10
18.7716
 20
59.9502
 30
0.0000
  0
SEQEND
  8
0
  0
POLYLINE
  8
104
 66
1
 10
0.0000
 20
0.0000
 30
0.0000
 40
0.0762
 41
0.0762
 70
0
  0
VERTEX
  8
104
 10
19.1206
 20
59.7508
 30
0.0000
 42
1.0000
  0
VERTEX
  8
104
 10
19.1206
 20
59.8270
 30
0.0000
  0
SEQEND
  8
0
  0
POLYLINE
  8
104
 66
1
 10
0.0000
 20
0.0000
 30
0.0000
 40
0.1524
 41
0.1524
 70
0
  0
VERTEX
  8
104
 10
18.5335
 20
60.4662
 30
0.0000
 42
0.2656
  0
VERTEX
  8
104
 10
18.2174
 20
60.6468
 30
0.0000
  0
SEQEND
  8
0
  0
POLYLINE
  8
104
 66
1
 10
0.0000
 20
0.0000
 30
0.0000
 40
0.0762
 41
0.0762
 70
0
  0
VERTEX
  8
104
 10
18.5007
 20
60.4469
 30
0.0000
 42
1.0000
  0
VERTEX
  8
104
 10
18.5664
 20
60.4855
 30
0.0000
  0
SEQEND
  8
0
  0
POLYLINE
  8
104
 66
1
 10
0.0000
 20
0.0000
 30
0.0000
 40
0.0762
 41
0.0762
 70
0
  0
VERTEX
  8
104
 10
18.2174
 20
60.6849
 30
0.0000
 42
1.0000
  0
VERTEX
  8
104
 10
18.2174
 20
60.6087
 30
0.0000
  0
SEQEND
  8
0
  0
POLYLINE
  8
104
 66
1
 10
0.0000
 20
0.0000
 30
0.0000
 40
0.1524
 41
0.1524
 70
0
  0
VERTEX
  8
104
 10
18.5335
 20
60.4662
 30
0.0000
  0
VERTEX
  8
104
 10
18.8045
 20
59.9695
 30
0.0000
  0
SEQEND
  8
0
  0
POLYLINE
  8
104
 66
1
 10
0.0000
 20
0.0000
 30
0.0000
 40
0.0762
 41
0.0762
 70
0
  0
VERTEX
  8
104
 10
18.7710
 20
59.9512
 30
0.0000
 42
1.0000
  0
VERTEX
  8
104
 10
18.8379
 20
59.9877
 30
0.0000
  0
SEQEND
  8
0
  0
POLYLINE
  8
104
 66
1
 10
0.0000
 20
0.0000
 30
0.0000
 40
0.0762
 41
0.0762
 70
0
  0
VERTEX
  8
104
 10
18.5670
 20
60.4845
 30
0.0000
 42
1.0000
  0
VERTEX
  8
104
 10
18.5001
 20
60.4480
 30
0.0000
  0
SEQEND
  8
0
  0
POLYLINE
  8
104
 66
1
 10
0.0000
 20
0.0000
 30
0.0000
 40
0.1524
 41
0.1524
 70
0
  0
VERTEX
  8
104
 10
17.8562
 20
61.3279
 30
0.0000
  0
VERTEX
  8
104
 10
19.4818
 20
61.3279
 30
0.0000
  0
SEQEND
  8
0
  0
POLYLINE
  8
104
 66
1
 10
0.0000
 20
0.0000
 30
0.0000
 40
0.0762
 41
0.0762
 70
0
  0
VERTEX
  8
104
 10
19.4818
 20
61.2898
 30
0.0000
 42
1.0000
  0
VERTEX
  8
104
 10
19.4818
 20
61.3660
 30
0.0000
  0
SEQEND
  8
0
  0
POLYLINE
  8
104
 66
1
 10
0.0000
 20
0.0000
 30
0.0000
 40
0.0762
 41
0.0762
 70
0
  0
VERTEX
  8
104
 10
17.8562
 20
61.3660
 30
0.0000
 42
1.0000
  0
VERTEX
  8
104
 10
17.8562
 20
61.2898
 30
0.0000
  0
SEQEND
  8
0
  0
POLYLINE
  8
104
 66
1
 10
0.0000
 20
0.0000
 30
0.0000
 40
0.1524
 41
0.1524
 70
0
  0
VERTEX
  8
104
 10
19.4818
 20
61.3279
 30
0.0000
  0
VERTEX
  8
104
 10
19.4818
 20
61.7795
 30
0.0000
  0
SEQEND
  8
0
  0
POLYLINE
  8
104
 66
1
 10
0.0000
 20
0.0000
 30
0.0000
 40
0.0762
 41
0.0762
 70
0
  0
VERTEX
  8
104
 10
19.5199
 20
61.7795
 30
0.0000
 42
1.0000
  0
VERTEX
  8
104
 10
19.4437
 20
61.7795
 30
0.0000
  0
SEQEND
  8
0
  0
POLYLINE
  8
104
 66
1
 10
0.0000
 20
0.0000
 30
0.0000
 40
0.0762
 41
0.0762
 70
0
  0
VERTEX
  8
104
 10
19.4437
 20
61.3279
 30
0.0000
 42
1.0000
  0
VERTEX
  8
104
 10
19.5199
 20
61.3279
 30
0.0000
  0
SEQEND
  8
0
  0
POLYLINE
  8
104
 66
1
 10
0.0000
 20
0.0000
 30
0.0000
 40
0.1524
 41
0.1524
 70
0
  0
VERTEX
  8
104
 10
19.4818
 20
61.7795
 30
0.0000
 42
1.0000
  0
VERTEX
  8
104
 10
18.5787
 20
61.7795
 30
0.0000
  0
SEQEND
  8
0
  0
POLYLINE
  8
104
 66
1
 10
0.0000
 20
0.0000
 30
0.0000
 40
0.0762
 41
0.0762
 70
0
  0
VERTEX
  8
104
 10
19.4437
 20
61.7795
 30
0.0000
 42
1.0000
  0
VERTEX
  8
104
 10
19.5199
 20
61.7795
 30
0.0000
  0
SEQEND
  8
0
  0
POLYLINE
  8
104
 66
1
 10
0.0000
 20
0.0000
 30
0.0000
 40
0.0762
 41
0.0762
 70
0
  0
VERTEX
  8
104
 10
18.5406
 20
61.7795
 30
0.0000
 42
1.0000
  0
VERTEX
  8
104
 10
18.6168
 20
61.7795
 30
0.0000
  0
SEQEND
  8
0
  0
POLYLINE
  8
104
 66
1
 10
0.0000
 20
0.0000
 30
0.0000
 40
0.1524
 41
0.1524
 70
0
  0
VERTEX
  8
104
 10
18.5787
 20
61.7795
 30
0.0000
  0
VERTEX
  8
104
 10
18.5787
 20
61.3279
 30
0.0000
  0
SEQEND
  8
0
  0
POLYLINE
  8
104
 66
1
 10
0.0000
 20
0.0000
 30
0.0000
 40
0.0762
 41
0.0762
 70
0
  0
VERTEX
  8
104
 10
18.5406
 20
61.3279
 30
0.0000
 42
1.0000
  0
VERTEX
  8
104
 10
18.6168
 20
61.3279
 30
0.0000
  0
SEQEND
  8
0
  0
POLYLINE
  8
104
 66
1
 10
0.0000
 20
0.0000
 30
0.0000
 40
0.0762
 41
0.0762
 70
0
  0
VERTEX
  8
104
 10
18.6168
 20
61.7795
 30
0.0000
 42
1.0000
  0
VERTEX
  8
104
 10
18.5406
 20
61.7795
 30
0.0000
  0
SEQEND
  8
0
  0
POLYLINE
  8
104
 66
1
 10
0.0000
 20
0.0000
 30
0.0000
 40
0.1524
 41
0.1524
 70
0
  0
VERTEX
  8
104
 10
18.7593
 20
62.8911
 30
0.0000
  0
VERTEX
  8
104
 10
18.7593
 20
63.3426
 30
0.0000
  0
SEQEND
  8
0
  0
POLYLINE
  8
104
 66
1
 10
0.0000
 20
0.0000
 30
0.0000
 40
0.0762
 41
0.0762
 70
0
  0
VERTEX
  8
104
 10
18.7974
 20
63.3426
 30
0.0000
 42
1.0000
  0
VERTEX
  8
104
 10
18.7212
 20
63.3426
 30
0.0000
  0
SEQEND
  8
0
  0
POLYLINE
  8
104
 66
1
 10
0.0000
 20
0.0000
 30
0.0000
 40
0.0762
 41
0.0762
 70
0
  0
VERTEX
  8
104
 10
18.7212
 20
62.8911
 30
0.0000
 42
1.0000
  0
VERTEX
  8
104
 10
18.7974
 20
62.8911
 30
0.0000
  0
SEQEND
  8
0
  0
POLYLINE
  8
104
 66
1
 10
0.0000
 20
0.0000
 30
0.0000
 40
0.1524
 41
0.1524
 70
0
  0
VERTEX
  8
104
 10
18.7593
 20
63.3426
 30
0.0000
 42
1.0000
  0
VERTEX
  8
104
 10
17.8562
 20
63.3426
 30
0.0000
  0
SEQEND
  8
0
  0
POLYLINE
  8
104
 66
1
 10
0.0000
 20
0.0000
 30
0.0000
 40
0.0762
 41
0.0762
 70
0
  0
VERTEX
  8
104
 10
18.7212
 20
63.3426
 30
0.0000
 42
1.0000
  0
VERTEX
  8
104
 10
18.7974
 20
63.3426
 30
0.0000
  0
SEQEND
  8
0
  0
POLYLINE
  8
104
 66
1
 10
0.0000
 20
0.0000
 30
0.0000
 40
0.0762
 41
0.0762
 70
0
  0
VERTEX
  8
104
 10
17.8181
 20
63.3426
 30
0.0000
 42
1.0000
  0
VERTEX
  8
104
 10
17.8943
 20
63.3426
 30
0.0000
  0
SEQEND
  8
0
  0
POLYLINE
  8
104
 66
1
 10
0.0000
 20
0.0000
 30
0.0000
 40
0.1524
 41
0.1524
 70
0
  0
VERTEX
  8
104
 10
17.8562
 20
63.3426
 30
0.0000
  0
VERTEX
  8
104
 10
17.8562
 20
62.8911
 30
0.0000
  0
SEQEND
  8
0
  0
POLYLINE
  8
104
 66
1
 10
0.0000
 20
0.0000
 30
0.0000
 40
0.0762
 41
0.0762
 70
0
  0
VERTEX
  8
104
 10
17.8181
 20
62.8911
 30
0.0000
 42
1.0000
  0
VERTEX
  8
104
 10
17.8943
 20
62.8911
 30
0.0000
  0
SEQEND
  8
0
  0
POLYLINE
  8
104
 66
1
 10
0.0000
 20
0.0000
 30
0.0000
 40
0.0762
 41
0.0762
 70
0
  0
VERTEX
  8
104
 10
17.8943
 20
63.3426
 30
0.0000
 42
1.0000
  0
VERTEX
  8
104
 10
17.8181
 20
63.3426
 30
0.0000
  0
SEQEND
  8
0
  0
POLYLINE
  8
104
 66
1
 10
0.0000
 20
0.0000
 30
0.0000
 40
0.1524
 41
0.1524
 70
0
  0
VERTEX
  8
104
 10
17.8562
 20
62.8911
 30
0.0000
  0
VERTEX
  8
104
 10
19.4818
 20
62.8911
 30
0.0000
  0
SEQEND
  8
0
  0
POLYLINE
  8
104
 66
1
 10
0.0000
 20
0.0000
 30
0.0000
 40
0.0762
 41
0.0762
 70
0
  0
VERTEX
  8
104
 10
19.4818
 20
62.8530
 30
0.0000
 42
1.0000
  0
VERTEX
  8
104
 10
19.4818
 20
62.9292
 30
0.0000
  0
SEQEND
  8
0
  0
POLYLINE
  8
104
 66
1
 10
0.0000
 20
0.0000
 30
0.0000
 40
0.0762
 41
0.0762
 70
0
  0
VERTEX
  8
104
 10
17.8562
 20
62.9292
 30
0.0000
 42
1.0000
  0
VERTEX
  8
104
 10
17.8562
 20
62.8530
 30
0.0000
  0
SEQEND
  8
0
  0
POLYLINE
  8
104
 66
1
 10
0.0000
 20
0.0000
 30
0.0000
 40
0.1524
 41
0.1524
 70
0
  0
VERTEX
  8
104
 10
19.4818
 20
62.8911
 30
0.0000
  0
VERTEX
  8
104
 10
19.4818
 20
63.3426
 30
0.0000
  0
SEQEND
  8
0
  0
POLYLINE
  8
104
 66
1
 10
0.0000
 20
0.0000
 30
0.0000
 40
0.0762
 41
0.0762
 70
0
  0
VERTEX
  8
104
 10
19.5199
 20
63.3426
 30
0.0000
 42
1.0000
  0
VERTEX
  8
104
 10
19.4437
 20
63.3426
 30
0.0000
  0
SEQEND
  8
0
  0
POLYLINE
  8
104
 66
1
 10
0.0000
 20
0.0000
 30
0.0000
 40
0.0762
 41
0.0762
 70
0
  0
VERTEX
  8
104
 10
19.4437
 20
62.8911
 30
0.0000
 42
1.0000
  0
VERTEX
  8
104
 10
19.5199
 20
62.8911
 30
0.0000
  0
SEQEND
  8
0
  0
POLYLINE
  8
104
 66
1
 10
0.0000
 20
0.0000
 30
0.0000
 40
0.1524
 41
0.1524
 70
0
  0
VERTEX
  8
104
 10
19.4818
 20
63.3426
 30
0.0000
 42
1.0000
  0
VERTEX
  8
104
 10
18.7593
 20
63.3426
 30
0.0000
  0
SEQEND
  8
0
  0
POLYLINE
  8
104
 66
1
 10
0.0000
 20
0.0000
 30
0.0000
 40
0.0762
 41
0.0762
 70
0
  0
VERTEX
  8
104
 10
19.4437
 20
63.3426
 30
0.0000
 42
1.0000
  0
VERTEX
  8
104
 10
19.5199
 20
63.3426
 30
0.0000
  0
SEQEND
  8
0
  0
POLYLINE
  8
104
 66
1
 10
0.0000
 20
0.0000
 30
0.0000
 40
0.0762
 41
0.0762
 70
0
  0
VERTEX
  8
104
 10
18.7212
 20
63.3426
 30
0.0000
 42
1.0000
  0
VERTEX
  8
104
 10
18.7974
 20
63.3426
 30
0.0000
  0
SEQEND
  8
0
  0
POLYLINE
  8
104
 66
1
 10
0.0000
 20
0.0000
 30
0.0000
 40
0.1524
 41
0.1524
 70
0
  0
VERTEX
  8
104
 10
19.4818
 20
64.4331
 30
0.0000
  0
VERTEX
  8
104
 10
18.3078
 20
64.4331
 30
0.0000
  0
SEQEND
  8
0
  0
POLYLINE
  8
104
 66
1
 10
0.0000
 20
0.0000
 30
0.0000
 40
0.0762
 41
0.0762
 70
0
  0
VERTEX
  8
104
 10
18.3078
 20
64.4712
 30
0.0000
 42
1.0000
  0
VERTEX
  8
104
 10
18.3078
 20
64.3950
 30
0.0000
  0
SEQEND
  8
0
  0
POLYLINE
  8
104
 66
1
 10
0.0000
 20
0.0000
 30
0.0000
 40
0.0762
 41
0.0762
 70
0
  0
VERTEX
  8
104
 10
19.4818
 20
64.3950
 30
0.0000
 42
1.0000
  0
VERTEX
  8
104
 10
19.4818
 20
64.4712
 30
0.0000
  0
SEQEND
  8
0
  0
POLYLINE
  8
104
 66
1
 10
0.0000
 20
0.0000
 30
0.0000
 40
0.1524
 41
0.1524
 70
0
  0
VERTEX
  8
104
 10
18.3078
 20
65.3362
 30
0.0000
 42
1.0000
  0
VERTEX
  8
104
 10
18.3078
 20
64.4331
 30
0.0000
  0
SEQEND
  8
0
  0
POLYLINE
  8
104
 66
1
 10
0.0000
 20
0.0000
 30
0.0000
 40
0.0762
 41
0.0762
 70
0
  0
VERTEX
  8
104
 10
18.3078
 20
65.2981
 30
0.0000
 42
1.0000
  0
VERTEX
  8
104
 10
18.3078
 20
65.3743
 30
0.0000
  0
SEQEND
  8
0
  0
POLYLINE
  8
104
 66
1
 10
0.0000
 20
0.0000
 30
0.0000
 40
0.0762
 41
0.0762
 70
0
  0
VERTEX
  8
104
 10
18.3078
 20
64.3950
 30
0.0000
 42
1.0000
  0
VERTEX
  8
104
 10
18.3078
 20
64.4712
 30
0.0000
  0
SEQEND
  8
0
  0
POLYLINE
  8
104
 66
1
 10
0.0000
 20
0.0000
 30
0.0000
 40
0.1524
 41
0.1524
 70
0
  0
VERTEX
  8
104
 10
18.3078
 20
65.3362
 30
0.0000
  0
VERTEX
  8
104
 10
19.4818
 20
65.3362
 30
0.0000
  0
SEQEND
  8
0
  0
POLYLINE
  8
104
 66
1
 10
0.0000
 20
0.0000
 30
0.0000
 40
0.0762
 41
0.0762
 70
0
  0
VERTEX
  8
104
 10
19.4818
 20
65.2981
 30
0.0000
 42
1.0000
  0
VERTEX
  8
104
 10
19.4818
 20
65.3743
 30
0.0000
  0
SEQEND
  8
0
  0
POLYLINE
  8
104
 66
1
 10
0.0000
 20
0.0000
 30
0.0000
 40
0.0762
 41
0.0762
 70
0
  0
VERTEX
  8
104
 10
18.3078
 20
65.3743
 30
0.0000
 42
1.0000
  0
VERTEX
  8
104
 10
18.3078
 20
65.2981
 30
0.0000
  0
SEQEND
  8
0
  0
POLYLINE
  8
104
 66
1
 10
0.0000
 20
0.0000
 30
0.0000
 40
0.1524
 41
0.1524
 70
0
  0
VERTEX
  8
104
 10
17.8562
 20
66.3957
 30
0.0000
  0
VERTEX
  8
104
 10
19.4818
 20
66.3957
 30
0.0000
  0
SEQEND
  8
0
  0
POLYLINE
  8
104
 66
1
 10
0.0000
 20
0.0000
 30
0.0000
 40
0.0762
 41
0.0762
 70
0
  0
VERTEX
  8
104
 10
19.4818
 20
66.3576
 30
0.0000
 42
1.0000
  0
VERTEX
  8
104
 10
19.4818
 20
66.4338
 30
0.0000
  0
SEQEND
  8
0
  0
POLYLINE
  8
104
 66
1
 10
0.0000
 20
0.0000
 30
0.0000
 40
0.0762
 41
0.0762
 70
0
  0
VERTEX
  8
104
 10
17.8562
 20
66.4338
 30
0.0000
 42
1.0000
  0
VERTEX
  8
104
 10
17.8562
 20
66.3576
 30
0.0000
  0
SEQEND
  8
0
  0
POLYLINE
  8
104
 66
1
 10
0.0000
 20
0.0000
 30
0.0000
 40
0.1524
 41
0.1524
 70
0
  0
VERTEX
  8
104
 10
19.4818
 20
65.9441
 30
0.0000
  0
VERTEX
  8
104
 10
19.4818
 20
66.8472
 30
0.0000
  0
SEQEND
  8
0
  0
POLYLINE
  8
104
 66
1
 10
0.0000
 20
0.0000
 30
0.0000
 40
0.0762
 41
0.0762
 70
0
  0
VERTEX
  8
104
 10
19.5199
 20
66.8472
 30
0.0000
 42
1.0000
  0
VERTEX
  8
104
 10
19.4437
 20
66.8472
 30
0.0000
  0
SEQEND
  8
0
  0
POLYLINE
  8
104
 66
1
 10
0.0000
 20
0.0000
 30
0.0000
 40
0.0762
 41
0.0762
 70
0
  0
VERTEX
  8
104
 10
19.4437
 20
65.9441
 30
0.0000
 42
1.0000
  0
VERTEX
  8
104
 10
19.5199
 20
65.9441
 30
0.0000
  0
SEQEND
  8
0
  0
POLYLINE
  8
104
 66
1
 10
0.0000
 20
0.0000
 30
0.0000
 40
0.1524
 41
0.1524
 70
0
  0
VERTEX
  8
104
 10
17.8562
 20
67.7504
 30
0.0000
  0
VERTEX
  8
104
 10
19.4818
 20
67.7504
 30
0.0000
  0
SEQEND
  8
0
  0
POLYLINE
  8
104
 66
1
 10
0.0000
 20
0.0000
 30
0.0000
 40
0.0762
 41
0.0762
 70
0
  0
VERTEX
  8
104
 10
19.4818
 20
67.7123
 30
0.0000
 42
1.0000
  0
VERTEX
  8
104
 10
19.4818
 20
67.7885
 30
0.0000
  0
SEQEND
  8
0
  0
POLYLINE
  8
104
 66
1
 10
0.0000
 20
0.0000
 30
0.0000
 40
0.0762
 41
0.0762
 70
0
  0
VERTEX
  8
104
 10
17.8562
 20
67.7885
 30
0.0000
 42
1.0000
  0
VERTEX
  8
104
 10
17.8562
 20
67.7123
 30
0.0000
  0
SEQEND
  8
0
  0
POLYLINE
  8
104
 66
1
 10
0.0000
 20
0.0000
 30
0.0000
 40
0.1524
 41
0.1524
 70
0
  0
VERTEX
  8
104
 10
19.4818
 20
67.2988
 30
0.0000
  0
VERTEX
  8
104
 10
19.4818
 20
68.2019
 30
0.0000
  0
SEQEND
  8
0
  0
POLYLINE
  8
104
 66
1
 10
0.0000
 20
0.0000
 30
0.0000
 40
0.0762
 41
0.0762
 70
0
  0
VERTEX
  8
104
 10
19.5199
 20
68.2019
 30
0.0000
 42
1.0000
  0
VERTEX
  8
104
 10
19.4437
 20
68.2019
 30
0.0000
  0
SEQEND
  8
0
  0
POLYLINE
  8
104
 66
1
 10
0.0000
 20
0.0000
 30
0.0000
 40
0.0762
 41
0.0762
 70
0
  0
VERTEX
  8
104
 10
19.4437
 20
67.2988
 30
0.0000
 42
1.0000
  0
VERTEX
  8
104
 10
19.5199
 20
67.2988
 30
0.0000
  0
SEQEND
  8
0
  0
POLYLINE
  8
104
 66
1
 10
0.0000
 20
0.0000
 30
0.0000
 40
0.1524
 41
0.1524
 70
0
  0
VERTEX
  8
104
 10
18.3078
 20
68.7577
 30
0.0000
  0
VERTEX
  8
104
 10
19.0302
 20
68.7577
 30
0.0000
  0
SEQEND
  8
0
  0
POLYLINE
  8
104
 66
1
 10
0.0000
 20
0.0000
 30
0.0000
 40
0.0762
 41
0.0762
 70
0
  0
VERTEX
  8
104
 10
19.0302
 20
68.7196
 30
0.0000
 42
1.0000
  0
VERTEX
  8
104
 10
19.0302
 20
68.7958
 30
0.0000
  0
SEQEND
  8
0
  0
POLYLINE
  8
104
 66
1
 10
0.0000
 20
0.0000
 30
0.0000
 40
0.0762
 41
0.0762
 70
0
  0
VERTEX
  8
104
 10
18.3078
 20
68.7958
 30
0.0000
 42
1.0000
  0
VERTEX
  8
104
 10
18.3078
 20
68.7196
 30
0.0000
  0
SEQEND
  8
0
  0
POLYLINE
  8
104
 66
1
 10
0.0000
 20
0.0000
 30
0.0000
 40
0.1524
 41
0.1524
 70
0
  0
VERTEX
  8
104
 10
19.0302
 20
68.7577
 30
0.0000
 42
1.0000
  0
VERTEX
  8
104
 10
19.0302
 20
69.6608
 30
0.0000
  0
SEQEND
  8
0
  0
POLYLINE
  8
104
 66
1
 10
0.0000
 20
0.0000
 30
0.0000
 40
0.0762
 41
0.0762
 70
0
  0
VERTEX
  8
104
 10
19.0302
 20
68.7958
 30
0.0000
 42
1.0000
  0
VERTEX
  8
104
 10
19.0302
 20
68.7196
 30
0.0000
  0
SEQEND
  8
0
  0
POLYLINE
  8
104
 66
1
 10
0.0000
 20
0.0000
 30
0.0000
 40
0.0762
 41
0.0762
 70
0
  0
VERTEX
  8
104
 10
19.0302
 20
69.6989
 30
0.0000
 42
1.0000
  0
VERTEX
  8
104
 10
19.0302
 20
69.6227
 30
0.0000
  0
SEQEND
  8
0
  0
POLYLINE
  8
104
 66
1
 10
0.0000
 20
0.0000
 30
0.0000
 40
0.1524
 41
0.1524
 70
0
  0
VERTEX
  8
104
 10
19.0302
 20
69.6608
 30
0.0000
  0
VERTEX
  8
104
 10
18.3078
 20
69.6608
 30
0.0000
  0
SEQEND
  8
0
  0
POLYLINE
  8
104
 66
1
 10
0.0000
 20
0.0000
 30
0.0000
 40
0.0762
 41
0.0762
 70
0
  0
VERTEX
  8
104
 10
18.3078
 20
69.6989
 30
0.0000
 42
1.0000
  0
VERTEX
  8
104
 10
18.3078
 20
69.6227
 30
0.0000
  0
SEQEND
  8
0
  0
POLYLINE
  8
104
 66
1
 10
0.0000
 20
0.0000
 30
0.0000
 40
0.0762
 41
0.0762
 70
0
  0
VERTEX
  8
104
 10
19.0302
 20
69.6227
 30
0.0000
 42
1.0000
  0
VERTEX
  8
104
 10
19.0302
 20
69.6989
 30
0.0000
  0
SEQEND
  8
0
  0
POLYLINE
  8
104
 66
1
 10
0.0000
 20
0.0000
 30
0.0000
 40
0.1524
 41
0.1524
 70
0
  0
VERTEX
  8
104
 10
18.3078
 20
69.6608
 30
0.0000
 42
1.0000
  0
VERTEX
  8
104
 10
18.3078
 20
68.7577
 30
0.0000
  0
SEQEND
  8
0
  0
POLYLINE
  8
104
 66
1
 10
0.0000
 20
0.0000
 30
0.0000
 40
0.0762
 41
0.0762
 70
0
  0
VERTEX
  8
104
 10
18.3078
 20
69.6227
 30
0.0000
 42
1.0000
  0
VERTEX
  8
104
 10
18.3078
 20
69.6989
 30
0.0000
  0
SEQEND
  8
0
  0
POLYLINE
  8
104
 66
1
 10
0.0000
 20
0.0000
 30
0.0000
 40
0.0762
 41
0.0762
 70
0
  0
VERTEX
  8
104
 10
18.3078
 20
68.7196
 30
0.0000
 42
1.0000
  0
VERTEX
  8
104
 10
18.3078
 20
68.7958
 30
0.0000
  0
SEQEND
  8
0
  0
POLYLINE
  8
104
 66
1
 10
0.0000
 20
0.0000
 30
0.0000
 40
0.1524
 41
0.1524
 70
0
  0
VERTEX
  8
104
 10
17.8562
 20
70.3730
 30
0.0000
  0
VERTEX
  8
104
 10
19.4818
 20
70.3730
 30
0.0000
  0
SEQEND
  8
0
  0
POLYLINE
  8
104
 66
1
 10
0.0000
 20
0.0000
 30
0.0000
 40
0.0762
 41
0.0762
 70
0
  0
VERTEX
  8
104
 10
19.4818
 20
70.3349
 30
0.0000
 42
1.0000
  0
VERTEX
  8
104
 10
19.4818
 20
70.4111
 30
0.0000
  0
SEQEND
  8
0
  0
POLYLINE
  8
104
 66
1
 10
0.0000
 20
0.0000
 30
0.0000
 40
0.0762
 41
0.0762
 70
0
  0
VERTEX
  8
104
 10
17.8562
 20
70.4111
 30
0.0000
 42
1.0000
  0
VERTEX
  8
104
 10
17.8562
 20
70.3349
 30
0.0000
  0
SEQEND
  8
0
  0
POLYLINE
  8
104
 66
1
 10
0.0000
 20
0.0000
 30
0.0000
 40
0.1524
 41
0.1524
 70
0
  0
VERTEX
  8
104
 10
19.4818
 20
70.3730
 30
0.0000
  0
VERTEX
  8
104
 10
17.8562
 20
71.2761
 30
0.0000
  0
SEQEND
  8
0
  0
POLYLINE
  8
104
 66
1
 10
0.0000
 20
0.0000
 30
0.0000
 40
0.0762
 41
0.0762
 70
0
  0
VERTEX
  8
104
 10
17.8747
 20
71.3094
 30
0.0000
 42
1.0000
  0
VERTEX
  8
104
 10
17.8377
 20
71.2428
 30
0.0000
  0
SEQEND
  8
0
  0
POLYLINE
  8
104
 66
1
 10
0.0000
 20
0.0000
 30
0.0000
 40
0.0762
 41
0.0762
 70
0
  0
VERTEX
  8
104
 10
19.4633
 20
70.3397
 30
0.0000
 42
1.0000
  0
VERTEX
  8
104
 10
19.5003
 20
70.4063
 30
0.0000
  0
SEQEND
  8
0
  0
POLYLINE
  8
104
 66
1
 10
0.0000
 20
0.0000
 30
0.0000
 40
0.1524
 41
0.1524
 70
0
  0
VERTEX
  8
104
 10
17.8562
 20
71.2761
 30
0.0000
  0
VERTEX
  8
104
 10
19.4818
 20
71.2761
 30
0.0000
  0
SEQEND
  8
0
  0
POLYLINE
  8
104
 66
1
 10
0.0000
 20
0.0000
 30
0.0000
 40
0.0762
 41
0.0762
 70
0
  0
VERTEX
  8
104
 10
19.4818
 20
71.2380
 30
0.0000
 42
1.0000
  0
VERTEX
  8
104
 10
19.4818
 20
71.3142
 30
0.0000
  0
SEQEND
  8
0
  0
POLYLINE
  8
104
 66
1
 10
0.0000
 20
0.0000
 30
0.0000
 40
0.0762
 41
0.0762
 70
0
  0
VERTEX
  8
104
 10
17.8562
 20
71.3142
 30
0.0000
 42
1.0000
  0
VERTEX
  8
104
 10
17.8562
 20
71.2380
 30
0.0000
  0
SEQEND
  8
0
  0
POLYLINE
  8
104
 66
1
 10
0.0000
 20
0.0000
 30
0.0000
 40
0.1524
 41
0.1524
 70
0
  0
VERTEX
  8
104
 10
1.3462
 20
53.4162
 30
0.0000
  0
VERTEX
  8
104
 10
2.9718
 20
53.4162
 30
0.0000
  0
SEQEND
  8
0
  0
POLYLINE
  8
104
 66
1
 10
0.0000
 20
0.0000
 30
0.0000
 40
0.0762
 41
0.0762
 70
0
  0
VERTEX
  8
104
 10
2.9718
 20
53.3781
 30
0.0000
 42
1.0000
  0
VERTEX
  8
104
 10
2.9718
 20
53.4543
 30
0.0000
  0
SEQEND
  8
0
  0
POLYLINE
  8
104
 66
1
 10
0.0000
 20
0.0000
 30
0.0000
 40
0.0762
 41
0.0762
 70
0
  0
VERTEX
  8
104
 10
1.3462
 20
53.4543
 30
0.0000
 42
1.0000
  0
VERTEX
  8
104
 10
1.3462
 20
53.3781
 30
0.0000
  0
SEQEND
  8
0
  0
POLYLINE
  8
104
 66
1
 10
0.0000
 20
0.0000
 30
0.0000
 40
0.1524
 41
0.1524
 70
0
  0
VERTEX
  8
104
 10
2.9718
 20
54.3193
 30
0.0000
  0
VERTEX
  8
104
 10
1.9784
 20
53.4162
 30
0.0000
  0
SEQEND
  8
0
  0
POLYLINE
  8
104
 66
1
 10
0.0000
 20
0.0000
 30
0.0000
 40
0.0762
 41
0.0762
 70
0
  0
VERTEX
  8
104
 10
1.9527
 20
53.4444
 30
0.0000
 42
1.0000
  0
VERTEX
  8
104
 10
2.0040
 20
53.3880
 30
0.0000
  0
SEQEND
  8
0
  0
POLYLINE
  8
104
 66
1
 10
0.0000
 20
0.0000
 30
0.0000
 40
0.0762
 41
0.0762
 70
0
  0
VERTEX
  8
104
 10
2.9974
 20
54.2911
 30
0.0000
 42
1.0000
  0
VERTEX
  8
104
 10
2.9462
 20
54.3475
 30
0.0000
  0
SEQEND
  8
0
  0
POLYLINE
  8
104
 66
1
 10
0.0000
 20
0.0000
 30
0.0000
 40
0.1524
 41
0.1524
 70
0
  0
VERTEX
  8
104
 10
1.3462
 20
54.3193
 30
0.0000
  0
VERTEX
  8
104
 10
2.3396
 20
53.7774
 30
0.0000
  0
SEQEND
  8
0
  0
POLYLINE
  8
104
 66
1
 10
0.0000
 20
0.0000
 30
0.0000
 40
0.0762
 41
0.0762
 70
0
  0
VERTEX
  8
104
 10
2.3214
 20
53.7440
 30
0.0000
 42
1.0000
  0
VERTEX
  8
104
 10
2.3579
 20
53.8109
 30
0.0000
  0
SEQEND
  8
0
  0
POLYLINE
  8
104
 66
1
 10
0.0000
 20
0.0000
 30
0.0000
 40
0.0762
 41
0.0762
 70
0
  0
VERTEX
  8
104
 10
1.3644
 20
54.3528
 30
0.0000
 42
1.0000
  0
VERTEX
  8
104
 10
1.3280
 20
54.2859
 30
0.0000
  0
SEQEND
  8
0
  0
POLYLINE
  8
104
 66
1
 10
0.0000
 20
0.0000
 30
0.0000
 40
0.1524
 41
0.1524
 70
0
  0
VERTEX
  8
104
 10
1.3462
 20
55.6147
 30
0.0000
  0
VERTEX
  8
104
 10
1.3462
 20
55.1632
 30
0.0000
  0
SEQEND
  8
0
  0
POLYLINE
  8
104
 66
1
 10
0.0000
 20
0.0000
 30
0.0000
 40
0.0762
 41
0.0762
 70
0
  0
VERTEX
  8
104
 10
1.3081
 20
55.1632
 30
0.0000
 42
1.0000
  0
VERTEX
  8
104
 10
1.3843
 20
55.1632
 30
0.0000
  0
SEQEND
  8
0
  0
POLYLINE
  8
104
 66
1
 10
0.0000
 20
0.0000
 30
0.0000
 40
0.0762
 41
0.0762
 70
0
  0
VERTEX
  8
104
 10
1.3843
 20
55.6147
 30
0.0000
 42
1.0000
  0
VERTEX
  8
104
 10
1.3081
 20
55.6147
 30
0.0000
  0
SEQEND
  8
0
  0
POLYLINE
  8
104
 66
1
 10
0.0000
 20
0.0000
 30
0.0000
 40
0.1524
 41
0.1524
 70
0
  0
VERTEX
  8
104
 10
1.3462
 20
55.1632
 30
0.0000
 42
0.4142
  0
VERTEX
  8
104
 10
1.6171
 20
54.8922
 30
0.0000
  0
SEQEND
  8
0
  0
POLYLINE
  8
104
 66
1
 10
0.0000
 20
0.0000
 30
0.0000
 40
0.0762
 41
0.0762
 70
0
  0
VERTEX
  8
104
 10
1.3843
 20
55.1632
 30
0.0000
 42
1.0000
  0
VERTEX
  8
104
 10
1.3081
 20
55.1632
 30
0.0000
  0
SEQEND
  8
0
  0
POLYLINE
  8
104
 66
1
 10
0.0000
 20
0.0000
 30
0.0000
 40
0.0762
 41
0.0762
 70
0
  0
VERTEX
  8
104
 10
1.6171
 20
54.8541
 30
0.0000
 42
1.0000
  0
VERTEX
  8
104
 10
1.6171
 20
54.9303
 30
0.0000
  0
SEQEND
  8
0
  0
POLYLINE
  8
104
 66
1
 10
0.0000
 20
0.0000
 30
0.0000
 40
0.1524
 41
0.1524
 70
0
  0
VERTEX
  8
104
 10
1.6171
 20
54.8922
 30
0.0000
  0
VERTEX
  8
104
 10
2.0687
 20
54.8922
 30
0.0000
  0
SEQEND
  8
0
  0
POLYLINE
  8
104
 66
1
 10
0.0000
 20
0.0000
 30
0.0000
 40
0.0762
 41
0.0762
 70
0
  0
VERTEX
  8
104
 10
2.0687
 20
54.8541
 30
0.0000
 42
1.0000
  0
VERTEX
  8
104
 10
2.0687
 20
54.9303
 30
0.0000
  0
SEQEND
  8
0
  0
POLYLINE
  8
104
 66
1
 10
0.0000
 20
0.0000
 30
0.0000
 40
0.0762
 41
0.0762
 70
0
  0
VERTEX
  8
104
 10
1.6171
 20
54.9303
 30
0.0000
 42
1.0000
  0
VERTEX
  8
104
 10
1.6171
 20
54.8541
 30
0.0000
  0
SEQEND
  8
0
  0
POLYLINE
  8
104
 66
1
 10
0.0000
 20
0.0000
 30
0.0000
 40
0.1524
 41
0.1524
 70
0
  0
VERTEX
  8
104
 10
2.0687
 20
54.8922
 30
0.0000
 42
1.0000
  0
VERTEX
  8
104
 10
2.0687
 20
55.6147
 30
0.0000
  0
SEQEND
  8
0
  0
POLYLINE
  8
104
 66
1
 10
0.0000
 20
0.0000
 30
0.0000
 40
0.0762
 41
0.0762
 70
0
  0
VERTEX
  8
104
 10
2.0687
 20
54.9303
 30
0.0000
 42
1.0000
  0
VERTEX
  8
104
 10
2.0687
 20
54.8541
 30
0.0000
  0
SEQEND
  8
0
  0
POLYLINE
  8
104
 66
1
 10
0.0000
 20
0.0000
 30
0.0000
 40
0.0762
 41
0.0762
 70
0
  0
VERTEX
  8
104
 10
2.0687
 20
55.6528
 30
0.0000
 42
1.0000
  0
VERTEX
  8
104
 10
2.0687
 20
55.5766
 30
0.0000
  0
SEQEND
  8
0
  0
POLYLINE
  8
104
 66
1
 10
0.0000
 20
0.0000
 30
0.0000
 40
0.1524
 41
0.1524
 70
0
  0
VERTEX
  8
104
 10
2.0687
 20
55.6147
 30
0.0000
  0
VERTEX
  8
104
 10
1.8881
 20
55.6147
 30
0.0000
  0
SEQEND
  8
0
  0
POLYLINE
  8
104
 66
1
 10
0.0000
 20
0.0000
 30
0.0000
 40
0.0762
 41
0.0762
 70
0
  0
VERTEX
  8
104
 10
1.8881
 20
55.6528
 30
0.0000
 42
1.0000
  0
VERTEX
  8
104
 10
1.8881
 20
55.5766
 30
0.0000
  0
SEQEND
  8
0
  0
POLYLINE
  8
104
 66
1
 10
0.0000
 20
0.0000
 30
0.0000
 40
0.0762
 41
0.0762
 70
0
  0
VERTEX
  8
104
 10
2.0687
 20
55.5766
 30
0.0000
 42
1.0000
  0
VERTEX
  8
104
 10
2.0687
 20
55.6528
 30
0.0000
  0
SEQEND
  8
0
  0
POLYLINE
  8
104
 66
1
 10
0.0000
 20
0.0000
 30
0.0000
 40
0.1524
 41
0.1524
 70
0
  0
VERTEX
  8
104
 10
1.8881
 20
55.6147
 30
0.0000
  0
VERTEX
  8
104
 10
1.8881
 20
54.8922
 30
0.0000
  0
SEQEND
  8
0
  0
POLYLINE
  8
104
 66
1
 10
0.0000
 20
0.0000
 30
0.0000
 40
0.0762
 41
0.0762
 70
0
  0
VERTEX
  8
104
 10
1.8500
 20
54.8922
 30
0.0000
 42
1.0000
  0
VERTEX
  8
104
 10
1.9262
 20
54.8922
 30
0.0000
  0
SEQEND
  8
0
  0
POLYLINE
  8
104
 66
1
 10
0.0000
 20
0.0000
 30
0.0000
 40
0.0762
 41
0.0762
 70
0
  0
VERTEX
  8
104
 10
1.9262
 20
55.6147
 30
0.0000
 42
1.0000
  0
VERTEX
  8
104
 10
1.8500
 20
55.6147
 30
0.0000
  0
SEQEND
  8
0
  0
POLYLINE
  8
104
 66
1
 10
0.0000
 20
0.0000
 30
0.0000
 40
0.1524
 41
0.1524
 70
0
  0
VERTEX
  8
104
 10
2.4299
 20
56.1948
 30
0.0000
  0
VERTEX
  8
104
 10
1.3462
 20
56.5561
 30
0.0000
  0
SEQEND
  8
0
  0
POLYLINE
  8
104
 66
1
 10
0.0000
 20
0.0000
 30
0.0000
 40
0.0762
 41
0.0762
 70
0
  0
VERTEX
  8
104
 10
1.3582
 20
56.5922
 30
0.0000
 42
1.0000
  0
VERTEX
  8
104
 10
1.3342
 20
56.5199
 30
0.0000
  0
SEQEND
  8
0
  0
POLYLINE
  8
104
 66
1
 10
0.0000
 20
0.0000
 30
0.0000
 40
0.0762
 41
0.0762
 70
0
  0
VERTEX
  8
104
 10
2.4179
 20
56.1587
 30
0.0000
 42
1.0000
  0
VERTEX
  8
104
 10
2.4420
 20
56.2310
 30
0.0000
  0
SEQEND
  8
0
  0
POLYLINE
  8
104
 66
1
 10
0.0000
 20
0.0000
 30
0.0000
 40
0.1524
 41
0.1524
 70
0
  0
VERTEX
  8
104
 10
1.3462
 20
56.5561
 30
0.0000
  0
VERTEX
  8
104
 10
2.4299
 20
56.9173
 30
0.0000
  0
SEQEND
  8
0
  0
POLYLINE
  8
104
 66
1
 10
0.0000
 20
0.0000
 30
0.0000
 40
0.0762
 41
0.0762
 70
0
  0
VERTEX
  8
104
 10
2.4420
 20
56.8812
 30
0.0000
 42
1.0000
  0
VERTEX
  8
104
 10
2.4179
 20
56.9535
 30
0.0000
  0
SEQEND
  8
0
  0
POLYLINE
  8
104
 66
1
 10
0.0000
 20
0.0000
 30
0.0000
 40
0.0762
 41
0.0762
 70
0
  0
VERTEX
  8
104
 10
1.3342
 20
56.5922
 30
0.0000
 42
1.0000
  0
VERTEX
  8
104
 10
1.3582
 20
56.5199
 30
0.0000
  0
SEQEND
  8
0
  0
POLYLINE
  8
104
 66
1
 10
0.0000
 20
0.0000
 30
0.0000
 40
0.1524
 41
0.1524
 70
0
  0
VERTEX
  8
104
 10
1.3462
 20
57.4939
 30
0.0000
  0
VERTEX
  8
104
 10
2.4299
 20
57.4939
 30
0.0000
  0
SEQEND
  8
0
  0
POLYLINE
  8
104
 66
1
 10
0.0000
 20
0.0000
 30
0.0000
 40
0.0762
 41
0.0762
 70
0
  0
VERTEX
  8
104
 10
2.4299
 20
57.4558
 30
0.0000
 42
1.0000
  0
VERTEX
  8
104
 10
2.4299
 20
57.5320
 30
0.0000
  0
SEQEND
  8
0
  0
POLYLINE
  8
104
 66
1
 10
0.0000
 20
0.0000
 30
0.0000
 40
0.0762
 41
0.0762
 70
0
  0
VERTEX
  8
104
 10
1.3462
 20
57.5320
 30
0.0000
 42
1.0000
  0
VERTEX
  8
104
 10
1.3462
 20
57.4558
 30
0.0000
  0
SEQEND
  8
0
  0
POLYLINE
  8
104
 66
1
 10
0.0000
 20
0.0000
 30
0.0000
 40
0.1524
 41
0.1524
 70
0
  0
VERTEX
  8
104
 10
2.8815
 20
57.4488
 30
0.0000
  0
VERTEX
  8
104
 10
2.9718
 20
57.4488
 30
0.0000
  0
SEQEND
  8
0
  0
POLYLINE
  8
104
 66
1
 10
0.0000
 20
0.0000
 30
0.0000
 40
0.0762
 41
0.0762
 70
0
  0
VERTEX
  8
104
 10
2.9718
 20
57.4107
 30
0.0000
 42
1.0000
  0
VERTEX
  8
104
 10
2.9718
 20
57.4869
 30
0.0000
  0
SEQEND
  8
0
  0
POLYLINE
  8
104
 66
1
 10
0.0000
 20
0.0000
 30
0.0000
 40
0.0762
 41
0.0762
 70
0
  0
VERTEX
  8
104
 10
2.8815
 20
57.4869
 30
0.0000
 42
1.0000
  0
VERTEX
  8
104
 10
2.8815
 20
57.4107
 30
0.0000
  0
SEQEND
  8
0
  0
POLYLINE
  8
104
 66
1
 10
0.0000
 20
0.0000
 30
0.0000
 40
0.1524
 41
0.1524
 70
0
  0
VERTEX
  8
104
 10
2.9718
 20
57.4488
 30
0.0000
  0
VERTEX
  8
104
 10
2.9718
 20
57.5391
 30
0.0000
  0
SEQEND
  8
0
  0
POLYLINE
  8
104
 66
1
 10
0.0000
 20
0.0000
 30
0.0000
 40
0.0762
 41
0.0762
 70
0
  0
VERTEX
  8
104
 10
3.0099
 20
57.5391
 30
0.0000
 42
1.0000
  0
VERTEX
  8
104
 10
2.9337
 20
57.5391
 30
0.0000
  0
SEQEND
  8
0
  0
POLYLINE
  8
104
 66
1
 10
0.0000
 20
0.0000
 30
0.0000
 40
0.0762
 41
0.0762
 70
0
  0
VERTEX
  8
104
 10
2.9337
 20
57.4488
 30
0.0000
 42
1.0000
  0
VERTEX
  8
104
 10
3.0099
 20
57.4488
 30
0.0000
  0
SEQEND
  8
0
  0
POLYLINE
  8
104
 66
1
 10
0.0000
 20
0.0000
 30
0.0000
 40
0.1524
 41
0.1524
 70
0
  0
VERTEX
  8
104
 10
2.9718
 20
57.5391
 30
0.0000
  0
VERTEX
  8
104
 10
2.8815
 20
57.5391
 30
0.0000
  0
SEQEND
  8
0
  0
POLYLINE
  8
104
 66
1
 10
0.0000
 20
0.0000
 30
0.0000
 40
0.0762
 41
0.0762
 70
0
  0
VERTEX
  8
104
 10
2.8815
 20
57.5772
 30
0.0000
 42
1.0000
  0
VERTEX
  8
104
 10
2.8815
 20
57.5010
 30
0.0000
  0
SEQEND
  8
0
  0
POLYLINE
  8
104
 66
1
 10
0.0000
 20
0.0000
 30
0.0000
 40
0.0762
 41
0.0762
 70
0
  0
VERTEX
  8
104
 10
2.9718
 20
57.5010
 30
0.0000
 42
1.0000
  0
VERTEX
  8
104
 10
2.9718
 20
57.5772
 30
0.0000
  0
SEQEND
  8
0
  0
POLYLINE
  8
104
 66
1
 10
0.0000
 20
0.0000
 30
0.0000
 40
0.1524
 41
0.1524
 70
0
  0
VERTEX
  8
104
 10
2.8815
 20
57.5391
 30
0.0000
  0
VERTEX
  8
104
 10
2.8815
 20
57.4488
 30
0.0000
  0
SEQEND
  8
0
  0
POLYLINE
  8
104
 66
1
 10
0.0000
 20
0.0000
 30
0.0000
 40
0.0762
 41
0.0762
 70
0
  0
VERTEX
  8
104
 10
2.8434
 20
57.4488
 30
0.0000
 42
1.0000
  0
VERTEX
  8
104
 10
2.9196
 20
57.4488
 30
0.0000
  0
SEQEND
  8
0
  0
POLYLINE
  8
104
 66
1
 10
0.0000
 20
0.0000
 30
0.0000
 40
0.0762
 41
0.0762
 70
0
  0
VERTEX
  8
104
 10
2.9196
 20
57.5391
 30
0.0000
 42
1.0000
  0
VERTEX
  8
104
 10
2.8434
 20
57.5391
 30
0.0000
  0
SEQEND
  8
0
  0
POLYLINE
  8
104
 66
1
 10
0.0000
 20
0.0000
 30
0.0000
 40
0.1524
 41
0.1524
 70
0
  0
VERTEX
  8
104
 10
1.3462
 20
58.1748
 30
0.0000
  0
VERTEX
  8
104
 10
2.4299
 20
58.1748
 30
0.0000
  0
SEQEND
  8
0
  0
POLYLINE
  8
104
 66
1
 10
0.0000
 20
0.0000
 30
0.0000
 40
0.0762
 41
0.0762
 70
0
  0
VERTEX
  8
104
 10
2.4299
 20
58.1367
 30
0.0000
 42
1.0000
  0
VERTEX
  8
104
 10
2.4299
 20
58.2129
 30
0.0000
  0
SEQEND
  8
0
  0
POLYLINE
  8
104
 66
1
 10
0.0000
 20
0.0000
 30
0.0000
 40
0.0762
 41
0.0762
 70
0
  0
VERTEX
  8
104
 10
1.3462
 20
58.2129
 30
0.0000
 42
1.0000
  0
VERTEX
  8
104
 10
1.3462
 20
58.1367
 30
0.0000
  0
SEQEND
  8
0
  0
POLYLINE
  8
104
 66
1
 10
0.0000
 20
0.0000
 30
0.0000
 40
0.1524
 41
0.1524
 70
0
  0
VERTEX
  8
104
 10
2.4299
 20
58.1748
 30
0.0000
  0
VERTEX
  8
104
 10
2.4299
 20
58.6263
 30
0.0000
  0
SEQEND
  8
0
  0
POLYLINE
  8
104
 66
1
 10
0.0000
 20
0.0000
 30
0.0000
 40
0.0762
 41
0.0762
 70
0
  0
VERTEX
  8
104
 10
2.4680
 20
58.6263
 30
0.0000
 42
1.0000
  0
VERTEX
  8
104
 10
2.3918
 20
58.6263
 30
0.0000
  0
SEQEND
  8
0
  0
POLYLINE
  8
104
 66
1
 10
0.0000
 20
0.0000
 30
0.0000
 40
0.0762
 41
0.0762
 70
0
  0
VERTEX
  8
104
 10
2.3918
 20
58.1748
 30
0.0000
 42
1.0000
  0
VERTEX
  8
104
 10
2.4680
 20
58.1748
 30
0.0000
  0
SEQEND
  8
0
  0
POLYLINE
  8
104
 66
1
 10
0.0000
 20
0.0000
 30
0.0000
 40
0.1524
 41
0.1524
 70
0
  0
VERTEX
  8
104
 10
2.4299
 20
58.6263
 30
0.0000
 42
0.4142
  0
VERTEX
  8
104
 10
2.1590
 20
58.8973
 30
0.0000
  0
SEQEND
  8
0
  0
POLYLINE
  8
104
 66
1
 10
0.0000
 20
0.0000
 30
0.0000
 40
0.0762
 41
0.0762
 70
0
  0
VERTEX
  8
104
 10
2.3918
 20
58.6263
 30
0.0000
 42
1.0000
  0
VERTEX
  8
104
 10
2.4680
 20
58.6263
 30
0.0000
  0
SEQEND
  8
0
  0
POLYLINE
  8
104
 66
1
 10
0.0000
 20
0.0000
 30
0.0000
 40
0.0762
 41
0.0762
 70
0
  0
VERTEX
  8
104
 10
2.1590
 20
58.9354
 30
0.0000
 42
1.0000
  0
VERTEX
  8
104
 10
2.1590
 20
58.8592
 30
0.0000
  0
SEQEND
  8
0
  0
POLYLINE
  8
104
 66
1
 10
0.0000
 20
0.0000
 30
0.0000
 40
0.1524
 41
0.1524
 70
0
  0
VERTEX
  8
104
 10
2.1590
 20
58.8973
 30
0.0000
  0
VERTEX
  8
104
 10
1.3462
 20
58.8973
 30
0.0000
  0
SEQEND
  8
0
  0
POLYLINE
  8
104
 66
1
 10
0.0000
 20
0.0000
 30
0.0000
 40
0.0762
 41
0.0762
 70
0
  0
VERTEX
  8
104
 10
1.3462
 20
58.9354
 30
0.0000
 42
1.0000
  0
VERTEX
  8
104
 10
1.3462
 20
58.8592
 30
0.0000
  0
SEQEND
  8
0
  0
POLYLINE
  8
104
 66
1
 10
0.0000
 20
0.0000
 30
0.0000
 40
0.0762
 41
0.0762
 70
0
  0
VERTEX
  8
104
 10
2.1590
 20
58.8592
 30
0.0000
 42
1.0000
  0
VERTEX
  8
104
 10
2.1590
 20
58.9354
 30
0.0000
  0
SEQEND
  8
0
  0
POLYLINE
  8
104
 66
1
 10
0.0000
 20
0.0000
 30
0.0000
 40
0.1524
 41
0.1524
 70
0
  0
VERTEX
  8
104
 10
2.4299
 20
60.3631
 30
0.0000
  0
VERTEX
  8
104
 10
1.3462
 20
60.7244
 30
0.0000
  0
SEQEND
  8
0
  0
POLYLINE
  8
104
 66
1
 10
0.0000
 20
0.0000
 30
0.0000
 40
0.0762
 41
0.0762
 70
0
  0
VERTEX
  8
104
 10
1.3582
 20
60.7605
 30
0.0000
 42
1.0000
  0
VERTEX
  8
104
 10
1.3342
 20
60.6882
 30
0.0000
  0
SEQEND
  8
0
  0
POLYLINE
  8
104
 66
1
 10
0.0000
 20
0.0000
 30
0.0000
 40
0.0762
 41
0.0762
 70
0
  0
VERTEX
  8
104
 10
2.4179
 20
60.3270
 30
0.0000
 42
1.0000
  0
VERTEX
  8
104
 10
2.4420
 20
60.3993
 30
0.0000
  0
SEQEND
  8
0
  0
POLYLINE
  8
104
 66
1
 10
0.0000
 20
0.0000
 30
0.0000
 40
0.1524
 41
0.1524
 70
0
  0
VERTEX
  8
104
 10
1.3462
 20
60.7244
 30
0.0000
  0
VERTEX
  8
104
 10
2.4299
 20
61.0856
 30
0.0000
  0
SEQEND
  8
0
  0
POLYLINE
  8
104
 66
1
 10
0.0000
 20
0.0000
 30
0.0000
 40
0.0762
 41
0.0762
 70
0
  0
VERTEX
  8
104
 10
2.4420
 20
61.0495
 30
0.0000
 42
1.0000
  0
VERTEX
  8
104
 10
2.4179
 20
61.1218
 30
0.0000
  0
SEQEND
  8
0
  0
POLYLINE
  8
104
 66
1
 10
0.0000
 20
0.0000
 30
0.0000
 40
0.0762
 41
0.0762
 70
0
  0
VERTEX
  8
104
 10
1.3342
 20
60.7605
 30
0.0000
 42
1.0000
  0
VERTEX
  8
104
 10
1.3582
 20
60.6882
 30
0.0000
  0
SEQEND
  8
0
  0
POLYLINE
  8
104
 66
1
 10
0.0000
 20
0.0000
 30
0.0000
 40
0.1524
 41
0.1524
 70
0
  0
VERTEX
  8
104
 10
1.9784
 20
62.3809
 30
0.0000
  0
VERTEX
  8
104
 10
1.9784
 20
61.9745
 30
0.0000
  0
SEQEND
  8
0
  0
POLYLINE
  8
104
 66
1
 10
0.0000
 20
0.0000
 30
0.0000
 40
0.0762
 41
0.0762
 70
0
  0
VERTEX
  8
104
 10
1.9403
 20
61.9745
 30
0.0000
 42
1.0000
  0
VERTEX
  8
104
 10
2.0165
 20
61.9745
 30
0.0000
  0
SEQEND
  8
0
  0
POLYLINE
  8
104
 66
1
 10
0.0000
 20
0.0000
 30
0.0000
 40
0.0762
 41
0.0762
 70
0
  0
VERTEX
  8
104
 10
2.0165
 20
62.3809
 30
0.0000
 42
1.0000
  0
VERTEX
  8
104
 10
1.9403
 20
62.3809
 30
0.0000
  0
SEQEND
  8
0
  0
POLYLINE
  8
104
 66
1
 10
0.0000
 20
0.0000
 30
0.0000
 40
0.1524
 41
0.1524
 70
0
  0
VERTEX
  8
104
 10
1.3462
 20
61.9745
 30
0.0000
 42
1.0000
  0
VERTEX
  8
104
 10
1.9784
 20
61.9745
 30
0.0000
  0
SEQEND
  8
0
  0
POLYLINE
  8
104
 66
1
 10
0.0000
 20
0.0000
 30
0.0000
 40
0.0762
 41
0.0762
 70
0
  0
VERTEX
  8
104
 10
1.3843
 20
61.9745
 30
0.0000
 42
1.0000
  0
VERTEX
  8
104
 10
1.3081
 20
61.9745
 30
0.0000
  0
SEQEND
  8
0
  0
POLYLINE
  8
104
 66
1
 10
0.0000
 20
0.0000
 30
0.0000
 40
0.0762
 41
0.0762
 70
0
  0
VERTEX
  8
104
 10
2.0165
 20
61.9745
 30
0.0000
 42
1.0000
  0
VERTEX
  8
104
 10
1.9403
 20
61.9745
 30
0.0000
  0
SEQEND
  8
0
  0
POLYLINE
  8
104
 66
1
 10
0.0000
 20
0.0000
 30
0.0000
 40
0.1524
 41
0.1524
 70
0
  0
VERTEX
  8
104
 10
1.3462
 20
61.9745
 30
0.0000
  0
VERTEX
  8
104
 10
1.3462
 20
62.3809
 30
0.0000
  0
SEQEND
  8
0
  0
POLYLINE
  8
104
 66
1
 10
0.0000
 20
0.0000
 30
0.0000
 40
0.0762
 41
0.0762
 70
0
  0
VERTEX
  8
104
 10
1.3843
 20
62.3809
 30
0.0000
 42
1.0000
  0
VERTEX
  8
104
 10
1.3081
 20
62.3809
 30
0.0000
  0
SEQEND
  8
0
  0
POLYLINE
  8
104
 66
1
 10
0.0000
 20
0.0000
 30
0.0000
 40
0.0762
 41
0.0762
 70
0
  0
VERTEX
  8
104
 10
1.3081
 20
61.9745
 30
0.0000
 42
1.0000
  0
VERTEX
  8
104
 10
1.3843
 20
61.9745
 30
0.0000
  0
SEQEND
  8
0
  0
POLYLINE
  8
104
 66
1
 10
0.0000
 20
0.0000
 30
0.0000
 40
0.1524
 41
0.1524
 70
0
  0
VERTEX
  8
104
 10
1.3462
 20
62.3809
 30
0.0000
  0
VERTEX
  8
104
 10
2.1590
 20
62.3809
 30
0.0000
  0
SEQEND
  8
0
  0
POLYLINE
  8
104
 66
1
 10
0.0000
 20
0.0000
 30
0.0000
 40
0.0762
 41
0.0762
 70
0
  0
VERTEX
  8
104
 10
2.1590
 20
62.3428
 30
0.0000
 42
1.0000
  0
VERTEX
  8
104
 10
2.1590
 20
62.4190
 30
0.0000
  0
SEQEND
  8
0
  0
POLYLINE
  8
104
 66
1
 10
0.0000
 20
0.0000
 30
0.0000
 40
0.0762
 41
0.0762
 70
0
  0
VERTEX
  8
104
 10
1.3462
 20
62.4190
 30
0.0000
 42
1.0000
  0
VERTEX
  8
104
 10
1.3462
 20
62.3428
 30
0.0000
  0
SEQEND
  8
0
  0
POLYLINE
  8
104
 66
1
 10
0.0000
 20
0.0000
 30
0.0000
 40
0.1524
 41
0.1524
 70
0
  0
VERTEX
  8
104
 10
2.4299
 20
62.1100
 30
0.0000
 42
0.4142
  0
VERTEX
  8
104
 10
2.1590
 20
62.3809
 30
0.0000
  0
SEQEND
  8
0
  0
POLYLINE
  8
104
 66
1
 10
0.0000
 20
0.0000
 30
0.0000
 40
0.0762
 41
0.0762
 70
0
  0
VERTEX
  8
104
 10
2.3918
 20
62.1100
 30
0.0000
 42
1.0000
  0
VERTEX
  8
104
 10
2.4680
 20
62.1100
 30
0.0000
  0
SEQEND
  8
0
  0
POLYLINE
  8
104
 66
1
 10
0.0000
 20
0.0000
 30
0.0000
 40
0.0762
 41
0.0762
 70
0
  0
VERTEX
  8
104
 10
2.1590
 20
62.4190
 30
0.0000
 42
1.0000
  0
VERTEX
  8
104
 10
2.1590
 20
62.3428
 30
0.0000
  0
SEQEND
  8
0
  0
POLYLINE
  8
104
 66
1
 10
0.0000
 20
0.0000
 30
0.0000
 40
0.1524
 41
0.1524
 70
0
  0
VERTEX
  8
104
 10
2.4299
 20
62.1100
 30
0.0000
  0
VERTEX
  8
104
 10
2.4299
 20
61.7487
 30
0.0000
  0
SEQEND
  8
0
  0
POLYLINE
  8
104
 66
1
 10
0.0000
 20
0.0000
 30
0.0000
 40
0.0762
 41
0.0762
 70
0
  0
VERTEX
  8
104
 10
2.3918
 20
61.7487
 30
0.0000
 42
1.0000
  0
VERTEX
  8
104
 10
2.4680
 20
61.7487
 30
0.0000
  0
SEQEND
  8
0
  0
POLYLINE
  8
104
 66
1
 10
0.0000
 20
0.0000
 30
0.0000
 40
0.0762
 41
0.0762
 70
0
  0
VERTEX
  8
104
 10
2.4680
 20
62.1100
 30
0.0000
 42
1.0000
  0
VERTEX
  8
104
 10
2.3918
 20
62.1100
 30
0.0000
  0
SEQEND
  8
0
  0
POLYLINE
  8
104
 66
1
 10
0.0000
 20
0.0000
 30
0.0000
 40
0.1524
 41
0.1524
 70
0
  0
VERTEX
  8
104
 10
1.3462
 20
63.1247
 30
0.0000
  0
VERTEX
  8
104
 10
2.4299
 20
63.1247
 30
0.0000
  0
SEQEND
  8
0
  0
POLYLINE
  8
104
 66
1
 10
0.0000
 20
0.0000
 30
0.0000
 40
0.0762
 41
0.0762
 70
0
  0
VERTEX
  8
104
 10
2.4299
 20
63.0866
 30
0.0000
 42
1.0000
  0
VERTEX
  8
104
 10
2.4299
 20
63.1628
 30
0.0000
  0
SEQEND
  8
0
  0
POLYLINE
  8
104
 66
1
 10
0.0000
 20
0.0000
 30
0.0000
 40
0.0762
 41
0.0762
 70
0
  0
VERTEX
  8
104
 10
1.3462
 20
63.1628
 30
0.0000
 42
1.0000
  0
VERTEX
  8
104
 10
1.3462
 20
63.0866
 30
0.0000
  0
SEQEND
  8
0
  0
POLYLINE
  8
104
 66
1
 10
0.0000
 20
0.0000
 30
0.0000
 40
0.1524
 41
0.1524
 70
0
  0
VERTEX
  8
104
 10
2.4299
 20
63.1247
 30
0.0000
  0
VERTEX
  8
104
 10
2.4299
 20
63.5762
 30
0.0000
  0
SEQEND
  8
0
  0
POLYLINE
  8
104
 66
1
 10
0.0000
 20
0.0000
 30
0.0000
 40
0.0762
 41
0.0762
 70
0
  0
VERTEX
  8
104
 10
2.4680
 20
63.5762
 30
0.0000
 42
1.0000
  0
VERTEX
  8
104
 10
2.3918
 20
63.5762
 30
0.0000
  0
SEQEND
  8
0
  0
POLYLINE
  8
104
 66
1
 10
0.0000
 20
0.0000
 30
0.0000
 40
0.0762
 41
0.0762
 70
0
  0
VERTEX
  8
104
 10
2.3918
 20
63.1247
 30
0.0000
 42
1.0000
  0
VERTEX
  8
104
 10
2.4680
 20
63.1247
 30
0.0000
  0
SEQEND
  8
0
  0
POLYLINE
  8
104
 66
1
 10
0.0000
 20
0.0000
 30
0.0000
 40
0.1524
 41
0.1524
 70
0
  0
VERTEX
  8
104
 10
2.4299
 20
63.5762
 30
0.0000
 42
0.4142
  0
VERTEX
  8
104
 10
2.1590
 20
63.8471
 30
0.0000
  0
SEQEND
  8
0
  0
POLYLINE
  8
104
 66
1
 10
0.0000
 20
0.0000
 30
0.0000
 40
0.0762
 41
0.0762
 70
0
  0
VERTEX
  8
104
 10
2.3918
 20
63.5762
 30
0.0000
 42
1.0000
  0
VERTEX
  8
104
 10
2.4680
 20
63.5762
 30
0.0000
  0
SEQEND
  8
0
  0
POLYLINE
  8
104
 66
1
 10
0.0000
 20
0.0000
 30
0.0000
 40
0.0762
 41
0.0762
 70
0
  0
VERTEX
  8
104
 10
2.1590
 20
63.8852
 30
0.0000
 42
1.0000
  0
VERTEX
  8
104
 10
2.1590
 20
63.8090
 30
0.0000
  0
SEQEND
  8
0
  0
POLYLINE
  8
104
 66
1
 10
0.0000
 20
0.0000
 30
0.0000
 40
0.1524
 41
0.1524
 70
0
  0
VERTEX
  8
104
 10
2.1590
 20
63.8471
 30
0.0000
  0
VERTEX
  8
104
 10
1.3462
 20
63.8471
 30
0.0000
  0
SEQEND
  8
0
  0
POLYLINE
  8
104
 66
1
 10
0.0000
 20
0.0000
 30
0.0000
 40
0.0762
 41
0.0762
 70
0
  0
VERTEX
  8
104
 10
1.3462
 20
63.8852
 30
0.0000
 42
1.0000
  0
VERTEX
  8
104
 10
1.3462
 20
63.8090
 30
0.0000
  0
SEQEND
  8
0
  0
POLYLINE
  8
104
 66
1
 10
0.0000
 20
0.0000
 30
0.0000
 40
0.0762
 41
0.0762
 70
0
  0
VERTEX
  8
104
 10
2.1590
 20
63.8090
 30
0.0000
 42
1.0000
  0
VERTEX
  8
104
 10
2.1590
 20
63.8852
 30
0.0000
  0
SEQEND
  8
0
  0
POLYLINE
  8
104
 66
1
 10
0.0000
 20
0.0000
 30
0.0000
 40
0.1524
 41
0.1524
 70
0
  0
VERTEX
  8
104
 10
2.9718
 20
66.0803
 30
0.0000
  0
VERTEX
  8
104
 10
1.3462
 20
66.0803
 30
0.0000
  0
SEQEND
  8
0
  0
POLYLINE
  8
104
 66
1
 10
0.0000
 20
0.0000
 30
0.0000
 40
0.0762
 41
0.0762
 70
0
  0
VERTEX
  8
104
 10
1.3462
 20
66.1184
 30
0.0000
 42
1.0000
  0
VERTEX
  8
104
 10
1.3462
 20
66.0422
 30
0.0000
  0
SEQEND
  8
0
  0
POLYLINE
  8
104
 66
1
 10
0.0000
 20
0.0000
 30
0.0000
 40
0.0762
 41
0.0762
 70
0
  0
VERTEX
  8
104
 10
2.9718
 20
66.0422
 30
0.0000
 42
1.0000
  0
VERTEX
  8
104
 10
2.9718
 20
66.1184
 30
0.0000
  0
SEQEND
  8
0
  0
POLYLINE
  8
104
 66
1
 10
0.0000
 20
0.0000
 30
0.0000
 40
0.1524
 41
0.1524
 70
0
  0
VERTEX
  8
104
 10
1.3462
 20
66.0803
 30
0.0000
  0
VERTEX
  8
104
 10
1.3462
 20
65.6287
 30
0.0000
  0
SEQEND
  8
0
  0
POLYLINE
  8
104
 66
1
 10
0.0000
 20
0.0000
 30
0.0000
 40
0.0762
 41
0.0762
 70
0
  0
VERTEX
  8
104
 10
1.3081
 20
65.6287
 30
0.0000
 42
1.0000
  0
VERTEX
  8
104
 10
1.3843
 20
65.6287
 30
0.0000
  0
SEQEND
  8
0
  0
POLYLINE
  8
104
 66
1
 10
0.0000
 20
0.0000
 30
0.0000
 40
0.0762
 41
0.0762
 70
0
  0
VERTEX
  8
104
 10
1.3843
 20
66.0803
 30
0.0000
 42
1.0000
  0
VERTEX
  8
104
 10
1.3081
 20
66.0803
 30
0.0000
  0
SEQEND
  8
0
  0
POLYLINE
  8
104
 66
1
 10
0.0000
 20
0.0000
 30
0.0000
 40
0.1524
 41
0.1524
 70
0
  0
VERTEX
  8
104
 10
1.3462
 20
65.6287
 30
0.0000
 42
0.4142
  0
VERTEX
  8
104
 10
1.6171
 20
65.3578
 30
0.0000
  0
SEQEND
  8
0
  0
POLYLINE
  8
104
 66
1
 10
0.0000
 20
0.0000
 30
0.0000
 40
0.0762
 41
0.0762
 70
0
  0
VERTEX
  8
104
 10
1.3843
 20
65.6287
 30
0.0000
 42
1.0000
  0
VERTEX
  8
104
 10
1.3081
 20
65.6287
 30
0.0000
  0
SEQEND
  8
0
  0
POLYLINE
  8
104
 66
1
 10
0.0000
 20
0.0000
 30
0.0000
 40
0.0762
 41
0.0762
 70
0
  0
VERTEX
  8
104
 10
1.6171
 20
65.3197
 30
0.0000
 42
1.0000
  0
VERTEX
  8
104
 10
1.6171
 20
65.3959
 30
0.0000
  0
SEQEND
  8
0
  0
POLYLINE
  8
104
 66
1
 10
0.0000
 20
0.0000
 30
0.0000
 40
0.1524
 41
0.1524
 70
0
  0
VERTEX
  8
104
 10
1.6171
 20
65.3578
 30
0.0000
  0
VERTEX
  8
104
 10
2.1590
 20
65.3578
 30
0.0000
  0
SEQEND
  8
0
  0
POLYLINE
  8
104
 66
1
 10
0.0000
 20
0.0000
 30
0.0000
 40
0.0762
 41
0.0762
 70
0
  0
VERTEX
  8
104
 10
2.1590
 20
65.3197
 30
0.0000
 42
1.0000
  0
VERTEX
  8
104
 10
2.1590
 20
65.3959
 30
0.0000
  0
SEQEND
  8
0
  0
POLYLINE
  8
104
 66
1
 10
0.0000
 20
0.0000
 30
0.0000
 40
0.0762
 41
0.0762
 70
0
  0
VERTEX
  8
104
 10
1.6171
 20
65.3959
 30
0.0000
 42
1.0000
  0
VERTEX
  8
104
 10
1.6171
 20
65.3197
 30
0.0000
  0
SEQEND
  8
0
  0
POLYLINE
  8
104
 66
1
 10
0.0000
 20
0.0000
 30
0.0000
 40
0.1524
 41
0.1524
 70
0
  0
VERTEX
  8
104
 10
2.1590
 20
65.3578
 30
0.0000
 42
0.4142
  0
VERTEX
  8
104
 10
2.4299
 20
65.6287
 30
0.0000
  0
SEQEND
  8
0
  0
POLYLINE
  8
104
 66
1
 10
0.0000
 20
0.0000
 30
0.0000
 40
0.0762
 41
0.0762
 70
0
  0
VERTEX
  8
104
 10
2.1590
 20
65.3959
 30
0.0000
 42
1.0000
  0
VERTEX
  8
104
 10
2.1590
 20
65.3197
 30
0.0000
  0
SEQEND
  8
0
  0
POLYLINE
  8
104
 66
1
 10
0.0000
 20
0.0000
 30
0.0000
 40
0.0762
 41
0.0762
 70
0
  0
VERTEX
  8
104
 10
2.4680
 20
65.6287
 30
0.0000
 42
1.0000
  0
VERTEX
  8
104
 10
2.3918
 20
65.6287
 30
0.0000
  0
SEQEND
  8
0
  0
POLYLINE
  8
104
 66
1
 10
0.0000
 20
0.0000
 30
0.0000
 40
0.1524
 41
0.1524
 70
0
  0
VERTEX
  8
104
 10
2.4299
 20
65.6287
 30
0.0000
  0
VERTEX
  8
104
 10
2.4299
 20
66.0803
 30
0.0000
  0
SEQEND
  8
0
  0
POLYLINE
  8
104
 66
1
 10
0.0000
 20
0.0000
 30
0.0000
 40
0.0762
 41
0.0762
 70
0
  0
VERTEX
  8
104
 10
2.4680
 20
66.0803
 30
0.0000
 42
1.0000
  0
VERTEX
  8
104
 10
2.3918
 20
66.0803
 30
0.0000
  0
SEQEND
  8
0
  0
POLYLINE
  8
104
 66
1
 10
0.0000
 20
0.0000
 30
0.0000
 40
0.0762
 41
0.0762
 70
0
  0
VERTEX
  8
104
 10
2.3918
 20
65.6287
 30
0.0000
 42
1.0000
  0
VERTEX
  8
104
 10
2.4680
 20
65.6287
 30
0.0000
  0
SEQEND
  8
0
  0
POLYLINE
  8
104
 66
1
 10
0.0000
 20
0.0000
 30
0.0000
 40
0.1524
 41
0.1524
 70
0
  0
VERTEX
  8
104
 10
1.3462
 20
67.4944
 30
0.0000
  0
VERTEX
  8
104
 10
1.3462
 20
67.0429
 30
0.0000
  0
SEQEND
  8
0
  0
POLYLINE
  8
104
 66
1
 10
0.0000
 20
0.0000
 30
0.0000
 40
0.0762
 41
0.0762
 70
0
  0
VERTEX
  8
104
 10
1.3081
 20
67.0429
 30
0.0000
 42
1.0000
  0
VERTEX
  8
104
 10
1.3843
 20
67.0429
 30
0.0000
  0
SEQEND
  8
0
  0
POLYLINE
  8
104
 66
1
 10
0.0000
 20
0.0000
 30
0.0000
 40
0.0762
 41
0.0762
 70
0
  0
VERTEX
  8
104
 10
1.3843
 20
67.4944
 30
0.0000
 42
1.0000
  0
VERTEX
  8
104
 10
1.3081
 20
67.4944
 30
0.0000
  0
SEQEND
  8
0
  0
POLYLINE
  8
104
 66
1
 10
0.0000
 20
0.0000
 30
0.0000
 40
0.1524
 41
0.1524
 70
0
  0
VERTEX
  8
104
 10
1.3462
 20
67.0429
 30
0.0000
 42
0.4142
  0
VERTEX
  8
104
 10
1.6171
 20
66.7719
 30
0.0000
  0
SEQEND
  8
0
  0
POLYLINE
  8
104
 66
1
 10
0.0000
 20
0.0000
 30
0.0000
 40
0.0762
 41
0.0762
 70
0
  0
VERTEX
  8
104
 10
1.3843
 20
67.0429
 30
0.0000
 42
1.0000
  0
VERTEX
  8
104
 10
1.3081
 20
67.0429
 30
0.0000
  0
SEQEND
  8
0
  0
POLYLINE
  8
104
 66
1
 10
0.0000
 20
0.0000
 30
0.0000
 40
0.0762
 41
0.0762
 70
0
  0
VERTEX
  8
104
 10
1.6171
 20
66.7338
 30
0.0000
 42
1.0000
  0
VERTEX
  8
104
 10
1.6171
 20
66.8100
 30
0.0000
  0
SEQEND
  8
0
  0
POLYLINE
  8
104
 66
1
 10
0.0000
 20
0.0000
 30
0.0000
 40
0.1524
 41
0.1524
 70
0
  0
VERTEX
  8
104
 10
1.6171
 20
66.7719
 30
0.0000
  0
VERTEX
  8
104
 10
2.0687
 20
66.7719
 30
0.0000
  0
SEQEND
  8
0
  0
POLYLINE
  8
104
 66
1
 10
0.0000
 20
0.0000
 30
0.0000
 40
0.0762
 41
0.0762
 70
0
  0
VERTEX
  8
104
 10
2.0687
 20
66.7338
 30
0.0000
 42
1.0000
  0
VERTEX
  8
104
 10
2.0687
 20
66.8100
 30
0.0000
  0
SEQEND
  8
0
  0
POLYLINE
  8
104
 66
1
 10
0.0000
 20
0.0000
 30
0.0000
 40
0.0762
 41
0.0762
 70
0
  0
VERTEX
  8
104
 10
1.6171
 20
66.8100
 30
0.0000
 42
1.0000
  0
VERTEX
  8
104
 10
1.6171
 20
66.7338
 30
0.0000
  0
SEQEND
  8
0
  0
POLYLINE
  8
104
 66
1
 10
0.0000
 20
0.0000
 30
0.0000
 40
0.1524
 41
0.1524
 70
0
  0
VERTEX
  8
104
 10
2.0687
 20
66.7719
 30
0.0000
 42
1.0000
  0
VERTEX
  8
104
 10
2.0687
 20
67.4944
 30
0.0000
  0
SEQEND
  8
0
  0
POLYLINE
  8
104
 66
1
 10
0.0000
 20
0.0000
 30
0.0000
 40
0.0762
 41
0.0762
 70
0
  0
VERTEX
  8
104
 10
2.0687
 20
66.8100
 30
0.0000
 42
1.0000
  0
VERTEX
  8
104
 10
2.0687
 20
66.7338
 30
0.0000
  0
SEQEND
  8
0
  0
POLYLINE
  8
104
 66
1
 10
0.0000
 20
0.0000
 30
0.0000
 40
0.0762
 41
0.0762
 70
0
  0
VERTEX
  8
104
 10
2.0687
 20
67.5325
 30
0.0000
 42
1.0000
  0
VERTEX
  8
104
 10
2.0687
 20
67.4563
 30
0.0000
  0
SEQEND
  8
0
  0
POLYLINE
  8
104
 66
1
 10
0.0000
 20
0.0000
 30
0.0000
 40
0.1524
 41
0.1524
 70
0
  0
VERTEX
  8
104
 10
2.0687
 20
67.4944
 30
0.0000
  0
VERTEX
  8
104
 10
1.8881
 20
67.4944
 30
0.0000
  0
SEQEND
  8
0
  0
POLYLINE
  8
104
 66
1
 10
0.0000
 20
0.0000
 30
0.0000
 40
0.0762
 41
0.0762
 70
0
  0
VERTEX
  8
104
 10
1.8881
 20
67.5325
 30
0.0000
 42
1.0000
  0
VERTEX
  8
104
 10
1.8881
 20
67.4563
 30
0.0000
  0
SEQEND
  8
0
  0
POLYLINE
  8
104
 66
1
 10
0.0000
 20
0.0000
 30
0.0000
 40
0.0762
 41
0.0762
 70
0
  0
VERTEX
  8
104
 10
2.0687
 20
67.4563
 30
0.0000
 42
1.0000
  0
VERTEX
  8
104
 10
2.0687
 20
67.5325
 30
0.0000
  0
SEQEND
  8
0
  0
POLYLINE
  8
104
 66
1
 10
0.0000
 20
0.0000
 30
0.0000
 40
0.1524
 41
0.1524
 70
0
  0
VERTEX
  8
104
 10
1.8881
 20
67.4944
 30
0.0000
  0
VERTEX
  8
104
 10
1.8881
 20
66.7719
 30
0.0000
  0
SEQEND
  8
0
  0
POLYLINE
  8
104
 66
1
 10
0.0000
 20
0.0000
 30
0.0000
 40
0.0762
 41
0.0762
 70
0
  0
VERTEX
  8
104
 10
1.8500
 20
66.7719
 30
0.0000
 42
1.0000
  0
VERTEX
  8
104
 10
1.9262
 20
66.7719
 30
0.0000
  0
SEQEND
  8
0
  0
POLYLINE
  8
104
 66
1
 10
0.0000
 20
0.0000
 30
0.0000
 40
0.0762
 41
0.0762
 70
0
  0
VERTEX
  8
104
 10
1.9262
 20
67.4944
 30
0.0000
 42
1.0000
  0
VERTEX
  8
104
 10
1.8500
 20
67.4944
 30
0.0000
  0
SEQEND
  8
0
  0
POLYLINE
  8
104
 66
1
 10
0.0000
 20
0.0000
 30
0.0000
 40
0.1524
 41
0.1524
 70
0
  0
VERTEX
  8
104
 10
1.3462
 20
68.1787
 30
0.0000
  0
VERTEX
  8
104
 10
2.4299
 20
68.1787
 30
0.0000
  0
SEQEND
  8
0
  0
POLYLINE
  8
104
 66
1
 10
0.0000
 20
0.0000
 30
0.0000
 40
0.0762
 41
0.0762
 70
0
  0
VERTEX
  8
104
 10
2.4299
 20
68.1406
 30
0.0000
 42
1.0000
  0
VERTEX
  8
104
 10
2.4299
 20
68.2168
 30
0.0000
  0
SEQEND
  8
0
  0
POLYLINE
  8
104
 66
1
 10
0.0000
 20
0.0000
 30
0.0000
 40
0.0762
 41
0.0762
 70
0
  0
VERTEX
  8
104
 10
1.3462
 20
68.2168
 30
0.0000
 42
1.0000
  0
VERTEX
  8
104
 10
1.3462
 20
68.1406
 30
0.0000
  0
SEQEND
  8
0
  0
POLYLINE
  8
104
 66
1
 10
0.0000
 20
0.0000
 30
0.0000
 40
0.1524
 41
0.1524
 70
0
  0
VERTEX
  8
104
 10
2.4299
 20
68.1787
 30
0.0000
  0
VERTEX
  8
104
 10
2.4299
 20
68.6303
 30
0.0000
  0
SEQEND
  8
0
  0
POLYLINE
  8
104
 66
1
 10
0.0000
 20
0.0000
 30
0.0000
 40
0.0762
 41
0.0762
 70
0
  0
VERTEX
  8
104
 10
2.4680
 20
68.6303
 30
0.0000
 42
1.0000
  0
VERTEX
  8
104
 10
2.3918
 20
68.6303
 30
0.0000
  0
SEQEND
  8
0
  0
POLYLINE
  8
104
 66
1
 10
0.0000
 20
0.0000
 30
0.0000
 40
0.0762
 41
0.0762
 70
0
  0
VERTEX
  8
104
 10
2.3918
 20
68.1787
 30
0.0000
 42
1.0000
  0
VERTEX
  8
104
 10
2.4680
 20
68.1787
 30
0.0000
  0
SEQEND
  8
0
  0
POLYLINE
  8
104
 66
1
 10
0.0000
 20
0.0000
 30
0.0000
 40
0.1524
 41
0.1524
 70
0
  0
VERTEX
  8
104
 10
2.4299
 20
68.6303
 30
0.0000
 42
0.4142
  0
VERTEX
  8
104
 10
2.1590
 20
68.9012
 30
0.0000
  0
SEQEND
  8
0
  0
POLYLINE
  8
104
 66
1
 10
0.0000
 20
0.0000
 30
0.0000
 40
0.0762
 41
0.0762
 70
0
  0
VERTEX
  8
104
 10
2.3918
 20
68.6303
 30
0.0000
 42
1.0000
  0
VERTEX
  8
104
 10
2.4680
 20
68.6303
 30
0.0000
  0
SEQEND
  8
0
  0
POLYLINE
  8
104
 66
1
 10
0.0000
 20
0.0000
 30
0.0000
 40
0.0762
 41
0.0762
 70
0
  0
VERTEX
  8
104
 10
2.1590
 20
68.9393
 30
0.0000
 42
1.0000
  0
VERTEX
  8
104
 10
2.1590
 20
68.8631
 30
0.0000
  0
SEQEND
  8
0
  0
POLYLINE
  8
104
 66
1
 10
0.0000
 20
0.0000
 30
0.0000
 40
0.1524
 41
0.1524
 70
0
  0
VERTEX
  8
104
 10
2.1590
 20
68.9012
 30
0.0000
  0
VERTEX
  8
104
 10
1.3462
 20
68.9012
 30
0.0000
  0
SEQEND
  8
0
  0
POLYLINE
  8
104
 66
1
 10
0.0000
 20
0.0000
 30
0.0000
 40
0.0762
 41
0.0762
 70
0
  0
VERTEX
  8
104
 10
1.3462
 20
68.9393
 30
0.0000
 42
1.0000
  0
VERTEX
  8
104
 10
1.3462
 20
68.8631
 30
0.0000
  0
SEQEND
  8
0
  0
POLYLINE
  8
104
 66
1
 10
0.0000
 20
0.0000
 30
0.0000
 40
0.0762
 41
0.0762
 70
0
  0
VERTEX
  8
104
 10
2.1590
 20
68.8631
 30
0.0000
 42
1.0000
  0
VERTEX
  8
104
 10
2.1590
 20
68.9393
 30
0.0000
  0
SEQEND
  8
0
  0
POLYLINE
  8
104
 66
1
 10
0.0000
 20
0.0000
 30
0.0000
 40
0.1524
 41
0.1524
 70
0
  0
VERTEX
  8
104
 10
2.2493
 20
70.5063
 30
0.0000
  0
VERTEX
  8
104
 10
2.2493
 20
70.9579
 30
0.0000
  0
SEQEND
  8
0
  0
POLYLINE
  8
104
 66
1
 10
0.0000
 20
0.0000
 30
0.0000
 40
0.0762
 41
0.0762
 70
0
  0
VERTEX
  8
104
 10
2.2874
 20
70.9579
 30
0.0000
 42
1.0000
  0
VERTEX
  8
104
 10
2.2112
 20
70.9579
 30
0.0000
  0
SEQEND
  8
0
  0
POLYLINE
  8
104
 66
1
 10
0.0000
 20
0.0000
 30
0.0000
 40
0.0762
 41
0.0762
 70
0
  0
VERTEX
  8
104
 10
2.2112
 20
70.5063
 30
0.0000
 42
1.0000
  0
VERTEX
  8
104
 10
2.2874
 20
70.5063
 30
0.0000
  0
SEQEND
  8
0
  0
POLYLINE
  8
104
 66
1
 10
0.0000
 20
0.0000
 30
0.0000
 40
0.1524
 41
0.1524
 70
0
  0
VERTEX
  8
104
 10
2.2493
 20
70.9579
 30
0.0000
 42
1.0000
  0
VERTEX
  8
104
 10
1.3462
 20
70.9579
 30
0.0000
  0
SEQEND
  8
0
  0
POLYLINE
  8
104
 66
1
 10
0.0000
 20
0.0000
 30
0.0000
 40
0.0762
 41
0.0762
 70
0
  0
VERTEX
  8
104
 10
2.2112
 20
70.9579
 30
0.0000
 42
1.0000
  0
VERTEX
  8
104
 10
2.2874
 20
70.9579
 30
0.0000
  0
SEQEND
  8
0
  0
POLYLINE
  8
104
 66
1
 10
0.0000
 20
0.0000
 30
0.0000
 40
0.0762
 41
0.0762
 70
0
  0
VERTEX
  8
104
 10
1.3081
 20
70.9579
 30
0.0000
 42
1.0000
  0
VERTEX
  8
104
 10
1.3843
 20
70.9579
 30
0.0000
  0
SEQEND
  8
0
  0
POLYLINE
  8
104
 66
1
 10
0.0000
 20
0.0000
 30
0.0000
 40
0.1524
 41
0.1524
 70
0
  0
VERTEX
  8
104
 10
1.3462
 20
70.9579
 30
0.0000
  0
VERTEX
  8
104
 10
1.3462
 20
70.5063
 30
0.0000
  0
SEQEND
  8
0
  0
POLYLINE
  8
104
 66
1
 10
0.0000
 20
0.0000
 30
0.0000
 40
0.0762
 41
0.0762
 70
0
  0
VERTEX
  8
104
 10
1.3081
 20
70.5063
 30
0.0000
 42
1.0000
  0
VERTEX
  8
104
 10
1.3843
 20
70.5063
 30
0.0000
  0
SEQEND
  8
0
  0
POLYLINE
  8
104
 66
1
 10
0.0000
 20
0.0000
 30
0.0000
 40
0.0762
 41
0.0762
 70
0
  0
VERTEX
  8
104
 10
1.3843
 20
70.9579
 30
0.0000
 42
1.0000
  0
VERTEX
  8
104
 10
1.3081
 20
70.9579
 30
0.0000
  0
SEQEND
  8
0
  0
POLYLINE
  8
104
 66
1
 10
0.0000
 20
0.0000
 30
0.0000
 40
0.1524
 41
0.1524
 70
0
  0
VERTEX
  8
104
 10
1.3462
 20
70.5063
 30
0.0000
  0
VERTEX
  8
104
 10
2.9718
 20
70.5063
 30
0.0000
  0
SEQEND
  8
0
  0
POLYLINE
  8
104
 66
1
 10
0.0000
 20
0.0000
 30
0.0000
 40
0.0762
 41
0.0762
 70
0
  0
VERTEX
  8
104
 10
2.9718
 20
70.4682
 30
0.0000
 42
1.0000
  0
VERTEX
  8
104
 10
2.9718
 20
70.5444
 30
0.0000
  0
SEQEND
  8
0
  0
POLYLINE
  8
104
 66
1
 10
0.0000
 20
0.0000
 30
0.0000
 40
0.0762
 41
0.0762
 70
0
  0
VERTEX
  8
104
 10
1.3462
 20
70.5444
 30
0.0000
 42
1.0000
  0
VERTEX
  8
104
 10
1.3462
 20
70.4682
 30
0.0000
  0
SEQEND
  8
0
  0
POLYLINE
  8
104
 66
1
 10
0.0000
 20
0.0000
 30
0.0000
 40
0.1524
 41
0.1524
 70
0
  0
VERTEX
  8
104
 10
2.9718
 20
70.5063
 30
0.0000
  0
VERTEX
  8
104
 10
2.9718
 20
70.9579
 30
0.0000
  0
SEQEND
  8
0
  0
POLYLINE
  8
104
 66
1
 10
0.0000
 20
0.0000
 30
0.0000
 40
0.0762
 41
0.0762
 70
0
  0
VERTEX
  8
104
 10
3.0099
 20
70.9579
 30
0.0000
 42
1.0000
  0
VERTEX
  8
104
 10
2.9337
 20
70.9579
 30
0.0000
  0
SEQEND
  8
0
  0
POLYLINE
  8
104
 66
1
 10
0.0000
 20
0.0000
 30
0.0000
 40
0.0762
 41
0.0762
 70
0
  0
VERTEX
  8
104
 10
2.9337
 20
70.5063
 30
0.0000
 42
1.0000
  0
VERTEX
  8
104
 10
3.0099
 20
70.5063
 30
0.0000
  0
SEQEND
  8
0
  0
POLYLINE
  8
104
 66
1
 10
0.0000
 20
0.0000
 30
0.0000
 40
0.1524
 41
0.1524
 70
0
  0
VERTEX
  8
104
 10
2.9718
 20
70.9579
 30
0.0000
 42
1.0000
  0
VERTEX
  8
104
 10
2.2493
 20
70.9579
 30
0.0000
  0
SEQEND
  8
0
  0
POLYLINE
  8
104
 66
1
 10
0.0000
 20
0.0000
 30
0.0000
 40
0.0762
 41
0.0762
 70
0
  0
VERTEX
  8
104
 10
2.9337
 20
70.9579
 30
0.0000
 42
1.0000
  0
VERTEX
  8
104
 10
3.0099
 20
70.9579
 30
0.0000
  0
SEQEND
  8
0
  0
POLYLINE
  8
104
 66
1
 10
0.0000
 20
0.0000
 30
0.0000
 40
0.0762
 41
0.0762
 70
0
  0
VERTEX
  8
104
 10
2.2112
 20
70.9579
 30
0.0000
 42
1.0000
  0
VERTEX
  8
104
 10
2.2874
 20
70.9579
 30
0.0000
  0
SEQEND
  8
0
  0
POLYLINE
  8
104
 66
1
 10
0.0000
 20
0.0000
 30
0.0000
 40
0.1524
 41
0.1524
 70
0
  0
VERTEX
  8
104
 10
1.3462
 20
72.0429
 30
0.0000
  0
VERTEX
  8
104
 10
2.4299
 20
72.0429
 30
0.0000
  0
SEQEND
  8
0
  0
POLYLINE
  8
104
 66
1
 10
0.0000
 20
0.0000
 30
0.0000
 40
0.0762
 41
0.0762
 70
0
  0
VERTEX
  8
104
 10
2.4299
 20
72.0048
 30
0.0000
 42
1.0000
  0
VERTEX
  8
104
 10
2.4299
 20
72.0810
 30
0.0000
  0
SEQEND
  8
0
  0
POLYLINE
  8
104
 66
1
 10
0.0000
 20
0.0000
 30
0.0000
 40
0.0762
 41
0.0762
 70
0
  0
VERTEX
  8
104
 10
1.3462
 20
72.0810
 30
0.0000
 42
1.0000
  0
VERTEX
  8
104
 10
1.3462
 20
72.0048
 30
0.0000
  0
SEQEND
  8
0
  0
POLYLINE
  8
104
 66
1
 10
0.0000
 20
0.0000
 30
0.0000
 40
0.1524
 41
0.1524
 70
0
  0
VERTEX
  8
104
 10
2.4299
 20
72.0429
 30
0.0000
  0
VERTEX
  8
104
 10
2.4299
 20
72.5848
 30
0.0000
  0
SEQEND
  8
0
  0
POLYLINE
  8
104
 66
1
 10
0.0000
 20
0.0000
 30
0.0000
 40
0.0762
 41
0.0762
 70
0
  0
VERTEX
  8
104
 10
2.4680
 20
72.5848
 30
0.0000
 42
1.0000
  0
VERTEX
  8
104
 10
2.3918
 20
72.5848
 30
0.0000
  0
SEQEND
  8
0
  0
POLYLINE
  8
104
 66
1
 10
0.0000
 20
0.0000
 30
0.0000
 40
0.0762
 41
0.0762
 70
0
  0
VERTEX
  8
104
 10
2.3918
 20
72.0429
 30
0.0000
 42
1.0000
  0
VERTEX
  8
104
 10
2.4680
 20
72.0429
 30
0.0000
  0
SEQEND
  8
0
  0
POLYLINE
  8
104
 66
1
 10
0.0000
 20
0.0000
 30
0.0000
 40
0.1524
 41
0.1524
 70
0
  0
VERTEX
  8
104
 10
2.4299
 20
72.5848
 30
0.0000
  0
VERTEX
  8
104
 10
2.2493
 20
72.5848
 30
0.0000
  0
SEQEND
  8
0
  0
POLYLINE
  8
104
 66
1
 10
0.0000
 20
0.0000
 30
0.0000
 40
0.0762
 41
0.0762
 70
0
  0
VERTEX
  8
104
 10
2.2493
 20
72.6229
 30
0.0000
 42
1.0000
  0
VERTEX
  8
104
 10
2.2493
 20
72.5467
 30
0.0000
  0
SEQEND
  8
0
  0
POLYLINE
  8
104
 66
1
 10
0.0000
 20
0.0000
 30
0.0000
 40
0.0762
 41
0.0762
 70
0
  0
VERTEX
  8
104
 10
2.4299
 20
72.5467
 30
0.0000
 42
1.0000
  0
VERTEX
  8
104
 10
2.4299
 20
72.6229
 30
0.0000
  0
SEQEND
  8
0
  0
POLYLINE
  8
104
 66
1
 10
0.0000
 20
0.0000
 30
0.0000
 40
0.1524
 41
0.1524
 70
0
  0
VERTEX
  8
104
 10
1.7074
 20
73.0765
 30
0.0000
  0
VERTEX
  8
104
 10
2.0687
 20
73.0765
 30
0.0000
  0
SEQEND
  8
0
  0
POLYLINE
  8
104
 66
1
 10
0.0000
 20
0.0000
 30
0.0000
 40
0.0762
 41
0.0762
 70
0
  0
VERTEX
  8
104
 10
2.0687
 20
73.0384
 30
0.0000
 42
1.0000
  0
VERTEX
  8
104
 10
2.0687
 20
73.1146
 30
0.0000
  0
SEQEND
  8
0
  0
POLYLINE
  8
104
 66
1
 10
0.0000
 20
0.0000
 30
0.0000
 40
0.0762
 41
0.0762
 70
0
  0
VERTEX
  8
104
 10
1.7074
 20
73.1146
 30
0.0000
 42
1.0000
  0
VERTEX
  8
104
 10
1.7074
 20
73.0384
 30
0.0000
  0
SEQEND
  8
0
  0
POLYLINE
  8
104
 66
1
 10
0.0000
 20
0.0000
 30
0.0000
 40
0.1524
 41
0.1524
 70
0
  0
VERTEX
  8
104
 10
2.0687
 20
73.0765
 30
0.0000
 42
1.0000
  0
VERTEX
  8
104
 10
2.0687
 20
73.7990
 30
0.0000
  0
SEQEND
  8
0
  0
POLYLINE
  8
104
 66
1
 10
0.0000
 20
0.0000
 30
0.0000
 40
0.0762
 41
0.0762
 70
0
  0
VERTEX
  8
104
 10
2.0687
 20
73.1146
 30
0.0000
 42
1.0000
  0
VERTEX
  8
104
 10
2.0687
 20
73.0384
 30
0.0000
  0
SEQEND
  8
0
  0
POLYLINE
  8
104
 66
1
 10
0.0000
 20
0.0000
 30
0.0000
 40
0.0762
 41
0.0762
 70
0
  0
VERTEX
  8
104
 10
2.0687
 20
73.8371
 30
0.0000
 42
1.0000
  0
VERTEX
  8
104
 10
2.0687
 20
73.7609
 30
0.0000
  0
SEQEND
  8
0
  0
POLYLINE
  8
104
 66
1
 10
0.0000
 20
0.0000
 30
0.0000
 40
0.1524
 41
0.1524
 70
0
  0
VERTEX
  8
104
 10
2.0687
 20
73.7990
 30
0.0000
  0
VERTEX
  8
104
 10
1.7074
 20
73.7990
 30
0.0000
  0
SEQEND
  8
0
  0
POLYLINE
  8
104
 66
1
 10
0.0000
 20
0.0000
 30
0.0000
 40
0.0762
 41
0.0762
 70
0
  0
VERTEX
  8
104
 10
1.7074
 20
73.8371
 30
0.0000
 42
1.0000
  0
VERTEX
  8
104
 10
1.7074
 20
73.7609
 30
0.0000
  0
SEQEND
  8
0
  0
POLYLINE
  8
104
 66
1
 10
0.0000
 20
0.0000
 30
0.0000
 40
0.0762
 41
0.0762
 70
0
  0
VERTEX
  8
104
 10
2.0687
 20
73.7609
 30
0.0000
 42
1.0000
  0
VERTEX
  8
104
 10
2.0687
 20
73.8371
 30
0.0000
  0
SEQEND
  8
0
  0
POLYLINE
  8
104
 66
1
 10
0.0000
 20
0.0000
 30
0.0000
 40
0.1524
 41
0.1524
 70
0
  0
VERTEX
  8
104
 10
1.7074
 20
73.7990
 30
0.0000
 42
1.0000
  0
VERTEX
  8
104
 10
1.7074
 20
73.0765
 30
0.0000
  0
SEQEND
  8
0
  0
POLYLINE
  8
104
 66
1
 10
0.0000
 20
0.0000
 30
0.0000
 40
0.0762
 41
0.0762
 70
0
  0
VERTEX
  8
104
 10
1.7074
 20
73.7609
 30
0.0000
 42
1.0000
  0
VERTEX
  8
104
 10
1.7074
 20
73.8371
 30
0.0000
  0
SEQEND
  8
0
  0
POLYLINE
  8
104
 66
1
 10
0.0000
 20
0.0000
 30
0.0000
 40
0.0762
 41
0.0762
 70
0
  0
VERTEX
  8
104
 10
1.7074
 20
73.0384
 30
0.0000
 42
1.0000
  0
VERTEX
  8
104
 10
1.7074
 20
73.1146
 30
0.0000
  0
SEQEND
  8
0
  0
POLYLINE
  8
104
 66
1
 10
0.0000
 20
0.0000
 30
0.0000
 40
0.1524
 41
0.1524
 70
0
  0
VERTEX
  8
104
 10
1.3462
 20
75.1537
 30
0.0000
  0
VERTEX
  8
104
 10
1.3462
 20
74.7022
 30
0.0000
  0
SEQEND
  8
0
  0
POLYLINE
  8
104
 66
1
 10
0.0000
 20
0.0000
 30
0.0000
 40
0.0762
 41
0.0762
 70
0
  0
VERTEX
  8
104
 10
1.3081
 20
74.7022
 30
0.0000
 42
1.0000
  0
VERTEX
  8
104
 10
1.3843
 20
74.7022
 30
0.0000
  0
SEQEND
  8
0
  0
POLYLINE
  8
104
 66
1
 10
0.0000
 20
0.0000
 30
0.0000
 40
0.0762
 41
0.0762
 70
0
  0
VERTEX
  8
104
 10
1.3843
 20
75.1537
 30
0.0000
 42
1.0000
  0
VERTEX
  8
104
 10
1.3081
 20
75.1537
 30
0.0000
  0
SEQEND
  8
0
  0
POLYLINE
  8
104
 66
1
 10
0.0000
 20
0.0000
 30
0.0000
 40
0.1524
 41
0.1524
 70
0
  0
VERTEX
  8
104
 10
1.3462
 20
74.7022
 30
0.0000
 42
0.4142
  0
VERTEX
  8
104
 10
1.6171
 20
74.4312
 30
0.0000
  0
SEQEND
  8
0
  0
POLYLINE
  8
104
 66
1
 10
0.0000
 20
0.0000
 30
0.0000
 40
0.0762
 41
0.0762
 70
0
  0
VERTEX
  8
104
 10
1.3843
 20
74.7022
 30
0.0000
 42
1.0000
  0
VERTEX
  8
104
 10
1.3081
 20
74.7022
 30
0.0000
  0
SEQEND
  8
0
  0
POLYLINE
  8
104
 66
1
 10
0.0000
 20
0.0000
 30
0.0000
 40
0.0762
 41
0.0762
 70
0
  0
VERTEX
  8
104
 10
1.6171
 20
74.3931
 30
0.0000
 42
1.0000
  0
VERTEX
  8
104
 10
1.6171
 20
74.4693
 30
0.0000
  0
SEQEND
  8
0
  0
POLYLINE
  8
104
 66
1
 10
0.0000
 20
0.0000
 30
0.0000
 40
0.1524
 41
0.1524
 70
0
  0
VERTEX
  8
104
 10
1.6171
 20
74.4312
 30
0.0000
  0
VERTEX
  8
104
 10
2.0687
 20
74.4312
 30
0.0000
  0
SEQEND
  8
0
  0
POLYLINE
  8
104
 66
1
 10
0.0000
 20
0.0000
 30
0.0000
 40
0.0762
 41
0.0762
 70
0
  0
VERTEX
  8
104
 10
2.0687
 20
74.3931
 30
0.0000
 42
1.0000
  0
VERTEX
  8
104
 10
2.0687
 20
74.4693
 30
0.0000
  0
SEQEND
  8
0
  0
POLYLINE
  8
104
 66
1
 10
0.0000
 20
0.0000
 30
0.0000
 40
0.0762
 41
0.0762
 70
0
  0
VERTEX
  8
104
 10
1.6171
 20
74.4693
 30
0.0000
 42
1.0000
  0
VERTEX
  8
104
 10
1.6171
 20
74.3931
 30
0.0000
  0
SEQEND
  8
0
  0
POLYLINE
  8
104
 66
1
 10
0.0000
 20
0.0000
 30
0.0000
 40
0.1524
 41
0.1524
 70
0
  0
VERTEX
  8
104
 10
2.0687
 20
74.4312
 30
0.0000
 42
1.0000
  0
VERTEX
  8
104
 10
2.0687
 20
75.1537
 30
0.0000
  0
SEQEND
  8
0
  0
POLYLINE
  8
104
 66
1
 10
0.0000
 20
0.0000
 30
0.0000
 40
0.0762
 41
0.0762
 70
0
  0
VERTEX
  8
104
 10
2.0687
 20
74.4693
 30
0.0000
 42
1.0000
  0
VERTEX
  8
104
 10
2.0687
 20
74.3931
 30
0.0000
  0
SEQEND
  8
0
  0
POLYLINE
  8
104
 66
1
 10
0.0000
 20
0.0000
 30
0.0000
 40
0.0762
 41
0.0762
 70
0
  0
VERTEX
  8
104
 10
2.0687
 20
75.1918
 30
0.0000
 42
1.0000
  0
VERTEX
  8
104
 10
2.0687
 20
75.1156
 30
0.0000
  0
SEQEND
  8
0
  0
POLYLINE
  8
104
 66
1
 10
0.0000
 20
0.0000
 30
0.0000
 40
0.1524
 41
0.1524
 70
0
  0
VERTEX
  8
104
 10
2.0687
 20
75.1537
 30
0.0000
  0
VERTEX
  8
104
 10
1.8881
 20
75.1537
 30
0.0000
  0
SEQEND
  8
0
  0
POLYLINE
  8
104
 66
1
 10
0.0000
 20
0.0000
 30
0.0000
 40
0.0762
 41
0.0762
 70
0
  0
VERTEX
  8
104
 10
1.8881
 20
75.1918
 30
0.0000
 42
1.0000
  0
VERTEX
  8
104
 10
1.8881
 20
75.1156
 30
0.0000
  0
SEQEND
  8
0
  0
POLYLINE
  8
104
 66
1
 10
0.0000
 20
0.0000
 30
0.0000
 40
0.0762
 41
0.0762
 70
0
  0
VERTEX
  8
104
 10
2.0687
 20
75.1156
 30
0.0000
 42
1.0000
  0
VERTEX
  8
104
 10
2.0687
 20
75.1918
 30
0.0000
  0
SEQEND
  8
0
  0
POLYLINE
  8
104
 66
1
 10
0.0000
 20
0.0000
 30
0.0000
 40
0.1524
 41
0.1524
 70
0
  0
VERTEX
  8
104
 10
1.8881
 20
75.1537
 30
0.0000
  0
VERTEX
  8
104
 10
1.8881
 20
74.4312
 30
0.0000
  0
SEQEND
  8
0
  0
POLYLINE
  8
104
 66
1
 10
0.0000
 20
0.0000
 30
0.0000
 40
0.0762
 41
0.0762
 70
0
  0
VERTEX
  8
104
 10
1.8500
 20
74.4312
 30
0.0000
 42
1.0000
  0
VERTEX
  8
104
 10
1.9262
 20
74.4312
 30
0.0000
  0
SEQEND
  8
0
  0
POLYLINE
  8
104
 66
1
 10
0.0000
 20
0.0000
 30
0.0000
 40
0.0762
 41
0.0762
 70
0
  0
VERTEX
  8
104
 10
1.9262
 20
75.1537
 30
0.0000
 42
1.0000
  0
VERTEX
  8
104
 10
1.8500
 20
75.1537
 30
0.0000
  0
SEQEND
  8
0
  0
POLYLINE
  8
104
 66
1
 10
0.0000
 20
0.0000
 30
0.0000
 40
0.1524
 41
0.1524
 70
0
  0
VERTEX
  8
104
 10
1.3462
 20
75.8549
 30
0.0000
  0
VERTEX
  8
104
 10
2.9718
 20
75.8549
 30
0.0000
  0
SEQEND
  8
0
  0
POLYLINE
  8
104
 66
1
 10
0.0000
 20
0.0000
 30
0.0000
 40
0.0762
 41
0.0762
 70
0
  0
VERTEX
  8
104
 10
2.9718
 20
75.8168
 30
0.0000
 42
1.0000
  0
VERTEX
  8
104
 10
2.9718
 20
75.8930
 30
0.0000
  0
SEQEND
  8
0
  0
POLYLINE
  8
104
 66
1
 10
0.0000
 20
0.0000
 30
0.0000
 40
0.0762
 41
0.0762
 70
0
  0
VERTEX
  8
104
 10
1.3462
 20
75.8930
 30
0.0000
 42
1.0000
  0
VERTEX
  8
104
 10
1.3462
 20
75.8168
 30
0.0000
  0
SEQEND
  8
0
  0
POLYLINE
  8
104
 66
1
 10
0.0000
 20
0.0000
 30
0.0000
 40
0.1524
 41
0.1524
 70
0
  0
VERTEX
  8
104
 10
2.4299
 20
76.5774
 30
0.0000
  0
VERTEX
  8
104
 10
1.8881
 20
75.8549
 30
0.0000
  0
SEQEND
  8
0
  0
POLYLINE
  8
104
 66
1
 10
0.0000
 20
0.0000
 30
0.0000
 40
0.0762
 41
0.0762
 70
0
  0
VERTEX
  8
104
 10
1.8576
 20
75.8778
 30
0.0000
 42
1.0000
  0
VERTEX
  8
104
 10
1.9185
 20
75.8321
 30
0.0000
  0
SEQEND
  8
0
  0
POLYLINE
  8
104
 66
1
 10
0.0000
 20
0.0000
 30
0.0000
 40
0.0762
 41
0.0762
 70
0
  0
VERTEX
  8
104
 10
2.4604
 20
76.5545
 30
0.0000
 42
1.0000
  0
VERTEX
  8
104
 10
2.3995
 20
76.6003
 30
0.0000
  0
SEQEND
  8
0
  0
POLYLINE
  8
104
 66
1
 10
0.0000
 20
0.0000
 30
0.0000
 40
0.1524
 41
0.1524
 70
0
  0
VERTEX
  8
104
 10
1.3462
 20
76.5774
 30
0.0000
  0
VERTEX
  8
104
 10
2.1138
 20
76.1710
 30
0.0000
  0
SEQEND
  8
0
  0
POLYLINE
  8
104
 66
1
 10
0.0000
 20
0.0000
 30
0.0000
 40
0.0762
 41
0.0762
 70
0
  0
VERTEX
  8
104
 10
2.0960
 20
76.1373
 30
0.0000
 42
1.0000
  0
VERTEX
  8
104
 10
2.1317
 20
76.2047
 30
0.0000
  0
SEQEND
  8
0
  0
POLYLINE
  8
104
 66
1
 10
0.0000
 20
0.0000
 30
0.0000
 40
0.0762
 41
0.0762
 70
0
  0
VERTEX
  8
104
 10
1.3640
 20
76.6111
 30
0.0000
 42
1.0000
  0
VERTEX
  8
104
 10
1.3284
 20
76.5437
 30
0.0000
  0
SEQEND
  8
0
  0
POINT
  8
23
 10
2.5400
 20
48.2600
 30
0.0000
  0
INSERT
  8
17
  2
ROUNDP
 10
2.5400
 20
48.2600
 30
0.0000
 41
1.7780
 42
1.7780
 43
1.0000
 50
0.0000
  0
INSERT
  8
17
  2
ROUNDP
 10
2.5400
 20
48.2600
 30
0.0000
 41
1.7780
 42
1.7780
 43
1.0000
 50
0.0000
  0
POINT
  8
24
 10
10.1600
 20
39.3700
 30
0.0000
  0
POLYLINE
  8
22
 66
1
 10
0.0000
 20
0.0000
 30
0.0000
 40
0.1524
 41
0.1524
 70
0
  0
VERTEX
  8
22
 10
10.9220
 20
36.0680
 30
0.0000
  0
VERTEX
  8
22
 10
10.9220
 20
36.3220
 30
0.0000
  0
SEQEND
  8
0
  0
POLYLINE
  8
22
 66
1
 10
0.0000
 20
0.0000
 30
0.0000
 40
0.0762
 41
0.0762
 70
0
  0
VERTEX
  8
22
 10
10.9601
 20
36.3220
 30
0.0000
 42
1.0000
  0
VERTEX
  8
22
 10
10.8839
 20
36.3220
 30
0.0000
  0
SEQEND
  8
0
  0
POLYLINE
  8
22
 66
1
 10
0.0000
 20
0.0000
 30
0.0000
 40
0.0762
 41
0.0762
 70
0
  0
VERTEX
  8
22
 10
10.8839
 20
36.0680
 30
0.0000
 42
1.0000
  0
VERTEX
  8
22
 10
10.9601
 20
36.0680
 30
0.0000
  0
SEQEND
  8
0
  0
POLYLINE
  8
22
 66
1
 10
0.0000
 20
0.0000
 30
0.0000
 40
0.1524
 41
0.1524
 70
0
  0
VERTEX
  8
22
 10
10.9220
 20
36.0680
 30
0.0000
  0
VERTEX
  8
22
 10
9.3980
 20
36.0680
 30
0.0000
  0
SEQEND
  8
0
  0
POLYLINE
  8
22
 66
1
 10
0.0000
 20
0.0000
 30
0.0000
 40
0.0762
 41
0.0762
 70
0
  0
VERTEX
  8
22
 10
9.3980
 20
36.1061
 30
0.0000
 42
1.0000
  0
VERTEX
  8
22
 10
9.3980
 20
36.0299
 30
0.0000
  0
SEQEND
  8
0
  0
POLYLINE
  8
22
 66
1
 10
0.0000
 20
0.0000
 30
0.0000
 40
0.0762
 41
0.0762
 70
0
  0
VERTEX
  8
22
 10
10.9220
 20
36.0299
 30
0.0000
 42
1.0000
  0
VERTEX
  8
22
 10
10.9220
 20
36.1061
 30
0.0000
  0
SEQEND
  8
0
  0
POLYLINE
  8
22
 66
1
 10
0.0000
 20
0.0000
 30
0.0000
 40
0.1524
 41
0.1524
 70
0
  0
VERTEX
  8
22
 10
9.3980
 20
36.3220
 30
0.0000
  0
VERTEX
  8
22
 10
9.3980
 20
36.0680
 30
0.0000
  0
SEQEND
  8
0
  0
POLYLINE
  8
22
 66
1
 10
0.0000
 20
0.0000
 30
0.0000
 40
0.0762
 41
0.0762
 70
0
  0
VERTEX
  8
22
 10
9.3599
 20
36.0680
 30
0.0000
 42
1.0000
  0
VERTEX
  8
22
 10
9.4361
 20
36.0680
 30
0.0000
  0
SEQEND
  8
0
  0
POLYLINE
  8
22
 66
1
 10
0.0000
 20
0.0000
 30
0.0000
 40
0.0762
 41
0.0762
 70
0
  0
VERTEX
  8
22
 10
9.4361
 20
36.3220
 30
0.0000
 42
1.0000
  0
VERTEX
  8
22
 10
9.3599
 20
36.3220
 30
0.0000
  0
SEQEND
  8
0
  0
POLYLINE
  8
52
 66
1
 10
0.0000
 20
0.0000
 30
0.0000
 40
0.1524
 41
0.1524
 70
0
  0
VERTEX
  8
52
 10
9.1440
 20
36.3220
 30
0.0000
  0
VERTEX
  8
52
 10
7.6200
 20
36.3220
 30
0.0000
  0
SEQEND
  8
0
  0
POLYLINE
  8
52
 66
1
 10
0.0000
 20
0.0000
 30
0.0000
 40
0.0762
 41
0.0762
 70
0
  0
VERTEX
  8
52
 10
7.6200
 20
36.3601
 30
0.0000
 42
1.0000
  0
VERTEX
  8
52
 10
7.6200
 20
36.2839
 30
0.0000
  0
SEQEND
  8
0
  0
POLYLINE
  8
52
 66
1
 10
0.0000
 20
0.0000
 30
0.0000
 40
0.0762
 41
0.0762
 70
0
  0
VERTEX
  8
52
 10
9.1440
 20
36.2839
 30
0.0000
 42
1.0000
  0
VERTEX
  8
52
 10
9.1440
 20
36.3601
 30
0.0000
  0
SEQEND
  8
0
  0
POLYLINE
  8
22
 66
1
 10
0.0000
 20
0.0000
 30
0.0000
 40
0.1524
 41
0.1524
 70
0
  0
VERTEX
  8
22
 10
9.3980
 20
42.6720
 30
0.0000
  0
VERTEX
  8
22
 10
9.3980
 20
42.4180
 30
0.0000
  0
SEQEND
  8
0
  0
POLYLINE
  8
22
 66
1
 10
0.0000
 20
0.0000
 30
0.0000
 40
0.0762
 41
0.0762
 70
0
  0
VERTEX
  8
22
 10
9.3599
 20
42.4180
 30
0.0000
 42
1.0000
  0
VERTEX
  8
22
 10
9.4361
 20
42.4180
 30
0.0000
  0
SEQEND
  8
0
  0
POLYLINE
  8
22
 66
1
 10
0.0000
 20
0.0000
 30
0.0000
 40
0.0762
 41
0.0762
 70
0
  0
VERTEX
  8
22
 10
9.4361
 20
42.6720
 30
0.0000
 42
1.0000
  0
VERTEX
  8
22
 10
9.3599
 20
42.6720
 30
0.0000
  0
SEQEND
  8
0
  0
POLYLINE
  8
22
 66
1
 10
0.0000
 20
0.0000
 30
0.0000
 40
0.1524
 41
0.1524
 70
0
  0
VERTEX
  8
22
 10
9.3980
 20
42.6720
 30
0.0000
  0
VERTEX
  8
22
 10
10.9220
 20
42.6720
 30
0.0000
  0
SEQEND
  8
0
  0
POLYLINE
  8
22
 66
1
 10
0.0000
 20
0.0000
 30
0.0000
 40
0.0762
 41
0.0762
 70
0
  0
VERTEX
  8
22
 10
10.9220
 20
42.6339
 30
0.0000
 42
1.0000
  0
VERTEX
  8
22
 10
10.9220
 20
42.7101
 30
0.0000
  0
SEQEND
  8
0
  0
POLYLINE
  8
22
 66
1
 10
0.0000
 20
0.0000
 30
0.0000
 40
0.0762
 41
0.0762
 70
0
  0
VERTEX
  8
22
 10
9.3980
 20
42.7101
 30
0.0000
 42
1.0000
  0
VERTEX
  8
22
 10
9.3980
 20
42.6339
 30
0.0000
  0
SEQEND
  8
0
  0
POLYLINE
  8
22
 66
1
 10
0.0000
 20
0.0000
 30
0.0000
 40
0.1524
 41
0.1524
 70
0
  0
VERTEX
  8
22
 10
10.9220
 20
42.4180
 30
0.0000
  0
VERTEX
  8
22
 10
10.9220
 20
42.6720
 30
0.0000
  0
SEQEND
  8
0
  0
POLYLINE
  8
22
 66
1
 10
0.0000
 20
0.0000
 30
0.0000
 40
0.0762
 41
0.0762
 70
0
  0
VERTEX
  8
22
 10
10.9601
 20
42.6720
 30
0.0000
 42
1.0000
  0
VERTEX
  8
22
 10
10.8839
 20
42.6720
 30
0.0000
  0
SEQEND
  8
0
  0
POLYLINE
  8
22
 66
1
 10
0.0000
 20
0.0000
 30
0.0000
 40
0.0762
 41
0.0762
 70
0
  0
VERTEX
  8
22
 10
10.8839
 20
42.4180
 30
0.0000
 42
1.0000
  0
VERTEX
  8
22
 10
10.9601
 20
42.4180
 30
0.0000
  0
SEQEND
  8
0
  0
POLYLINE
  8
52
 66
1
 10
0.0000
 20
0.0000
 30
0.0000
 40
0.1524
 41
0.1524
 70
0
  0
VERTEX
  8
52
 10
7.6200
 20
36.3220
 30
0.0000
  0
VERTEX
  8
52
 10
7.1120
 20
36.8300
 30
0.0000
  0
SEQEND
  8
0
  0
POLYLINE
  8
52
 66
1
 10
0.0000
 20
0.0000
 30
0.0000
 40
0.0762
 41
0.0762
 70
0
  0
VERTEX
  8
52
 10
7.1389
 20
36.8569
 30
0.0000
 42
1.0000
  0
VERTEX
  8
52
 10
7.0851
 20
36.8031
 30
0.0000
  0
SEQEND
  8
0
  0
POLYLINE
  8
52
 66
1
 10
0.0000
 20
0.0000
 30
0.0000
 40
0.0762
 41
0.0762
 70
0
  0
VERTEX
  8
52
 10
7.5931
 20
36.2951
 30
0.0000
 42
1.0000
  0
VERTEX
  8
52
 10
7.6469
 20
36.3489
 30
0.0000
  0
SEQEND
  8
0
  0
POLYLINE
  8
52
 66
1
 10
0.0000
 20
0.0000
 30
0.0000
 40
0.1524
 41
0.1524
 70
0
  0
VERTEX
  8
52
 10
13.2080
 20
36.8300
 30
0.0000
  0
VERTEX
  8
52
 10
12.7000
 20
36.3220
 30
0.0000
  0
SEQEND
  8
0
  0
POLYLINE
  8
52
 66
1
 10
0.0000
 20
0.0000
 30
0.0000
 40
0.0762
 41
0.0762
 70
0
  0
VERTEX
  8
52
 10
12.6731
 20
36.3489
 30
0.0000
 42
1.0000
  0
VERTEX
  8
52
 10
12.7269
 20
36.2951
 30
0.0000
  0
SEQEND
  8
0
  0
POLYLINE
  8
52
 66
1
 10
0.0000
 20
0.0000
 30
0.0000
 40
0.0762
 41
0.0762
 70
0
  0
VERTEX
  8
52
 10
13.2349
 20
36.8031
 30
0.0000
 42
1.0000
  0
VERTEX
  8
52
 10
13.1811
 20
36.8569
 30
0.0000
  0
SEQEND
  8
0
  0
POLYLINE
  8
52
 66
1
 10
0.0000
 20
0.0000
 30
0.0000
 40
0.1524
 41
0.1524
 70
0
  0
VERTEX
  8
52
 10
12.7000
 20
36.3220
 30
0.0000
  0
VERTEX
  8
52
 10
11.1760
 20
36.3220
 30
0.0000
  0
SEQEND
  8
0
  0
POLYLINE
  8
52
 66
1
 10
0.0000
 20
0.0000
 30
0.0000
 40
0.0762
 41
0.0762
 70
0
  0
VERTEX
  8
52
 10
11.1760
 20
36.3601
 30
0.0000
 42
1.0000
  0
VERTEX
  8
52
 10
11.1760
 20
36.2839
 30
0.0000
  0
SEQEND
  8
0
  0
POLYLINE
  8
52
 66
1
 10
0.0000
 20
0.0000
 30
0.0000
 40
0.0762
 41
0.0762
 70
0
  0
VERTEX
  8
52
 10
12.7000
 20
36.2839
 30
0.0000
 42
1.0000
  0
VERTEX
  8
52
 10
12.7000
 20
36.3601
 30
0.0000
  0
SEQEND
  8
0
  0
POLYLINE
  8
52
 66
1
 10
0.0000
 20
0.0000
 30
0.0000
 40
0.1524
 41
0.1524
 70
0
  0
VERTEX
  8
52
 10
7.1120
 20
41.9100
 30
0.0000
  0
VERTEX
  8
52
 10
7.6200
 20
42.4180
 30
0.0000
  0
SEQEND
  8
0
  0
POLYLINE
  8
52
 66
1
 10
0.0000
 20
0.0000
 30
0.0000
 40
0.0762
 41
0.0762
 70
0
  0
VERTEX
  8
52
 10
7.6469
 20
42.3911
 30
0.0000
 42
1.0000
  0
VERTEX
  8
52
 10
7.5931
 20
42.4449
 30
0.0000
  0
SEQEND
  8
0
  0
POLYLINE
  8
52
 66
1
 10
0.0000
 20
0.0000
 30
0.0000
 40
0.0762
 41
0.0762
 70
0
  0
VERTEX
  8
52
 10
7.0851
 20
41.9369
 30
0.0000
 42
1.0000
  0
VERTEX
  8
52
 10
7.1389
 20
41.8831
 30
0.0000
  0
SEQEND
  8
0
  0
POLYLINE
  8
52
 66
1
 10
0.0000
 20
0.0000
 30
0.0000
 40
0.1524
 41
0.1524
 70
0
  0
VERTEX
  8
52
 10
7.6200
 20
42.4180
 30
0.0000
  0
VERTEX
  8
52
 10
9.1440
 20
42.4180
 30
0.0000
  0
SEQEND
  8
0
  0
POLYLINE
  8
52
 66
1
 10
0.0000
 20
0.0000
 30
0.0000
 40
0.0762
 41
0.0762
 70
0
  0
VERTEX
  8
52
 10
9.1440
 20
42.3799
 30
0.0000
 42
1.0000
  0
VERTEX
  8
52
 10
9.1440
 20
42.4561
 30
0.0000
  0
SEQEND
  8
0
  0
POLYLINE
  8
52
 66
1
 10
0.0000
 20
0.0000
 30
0.0000
 40
0.0762
 41
0.0762
 70
0
  0
VERTEX
  8
52
 10
7.6200
 20
42.4561
 30
0.0000
 42
1.0000
  0
VERTEX
  8
52
 10
7.6200
 20
42.3799
 30
0.0000
  0
SEQEND
  8
0
  0
POLYLINE
  8
52
 66
1
 10
0.0000
 20
0.0000
 30
0.0000
 40
0.1524
 41
0.1524
 70
0
  0
VERTEX
  8
52
 10
13.2080
 20
41.9100
 30
0.0000
  0
VERTEX
  8
52
 10
12.7000
 20
42.4180
 30
0.0000
  0
SEQEND
  8
0
  0
POLYLINE
  8
52
 66
1
 10
0.0000
 20
0.0000
 30
0.0000
 40
0.0762
 41
0.0762
 70
0
  0
VERTEX
  8
52
 10
12.7269
 20
42.4449
 30
0.0000
 42
1.0000
  0
VERTEX
  8
52
 10
12.6731
 20
42.3911
 30
0.0000
  0
SEQEND
  8
0
  0
POLYLINE
  8
52
 66
1
 10
0.0000
 20
0.0000
 30
0.0000
 40
0.0762
 41
0.0762
 70
0
  0
VERTEX
  8
52
 10
13.1811
 20
41.8831
 30
0.0000
 42
1.0000
  0
VERTEX
  8
52
 10
13.2349
 20
41.9369
 30
0.0000
  0
SEQEND
  8
0
  0
POLYLINE
  8
52
 66
1
 10
0.0000
 20
0.0000
 30
0.0000
 40
0.1524
 41
0.1524
 70
0
  0
VERTEX
  8
52
 10
12.7000
 20
42.4180
 30
0.0000
  0
VERTEX
  8
52
 10
11.1760
 20
42.4180
 30
0.0000
  0
SEQEND
  8
0
  0
POLYLINE
  8
52
 66
1
 10
0.0000
 20
0.0000
 30
0.0000
 40
0.0762
 41
0.0762
 70
0
  0
VERTEX
  8
52
 10
11.1760
 20
42.4561
 30
0.0000
 42
1.0000
  0
VERTEX
  8
52
 10
11.1760
 20
42.3799
 30
0.0000
  0
SEQEND
  8
0
  0
POLYLINE
  8
52
 66
1
 10
0.0000
 20
0.0000
 30
0.0000
 40
0.0762
 41
0.0762
 70
0
  0
VERTEX
  8
52
 10
12.7000
 20
42.3799
 30
0.0000
 42
1.0000
  0
VERTEX
  8
52
 10
12.7000
 20
42.4561
 30
0.0000
  0
SEQEND
  8
0
  0
POLYLINE
  8
52
 66
1
 10
0.0000
 20
0.0000
 30
0.0000
 40
0.0508
 41
0.0508
 70
0
  0
VERTEX
  8
52
 10
8.8900
 20
40.6400
 30
0.0000
  0
VERTEX
  8
52
 10
11.4300
 20
40.6400
 30
0.0000
  0
SEQEND
  8
0
  0
POLYLINE
  8
52
 66
1
 10
0.0000
 20
0.0000
 30
0.0000
 40
0.0254
 41
0.0254
 70
0
  0
VERTEX
  8
52
 10
11.4300
 20
40.6273
 30
0.0000
 42
1.0000
  0
VERTEX
  8
52
 10
11.4300
 20
40.6527
 30
0.0000
  0
SEQEND
  8
0
  0
POLYLINE
  8
52
 66
1
 10
0.0000
 20
0.0000
 30
0.0000
 40
0.0254
 41
0.0254
 70
0
  0
VERTEX
  8
52
 10
8.8900
 20
40.6527
 30
0.0000
 42
1.0000
  0
VERTEX
  8
52
 10
8.8900
 20
40.6273
 30
0.0000
  0
SEQEND
  8
0
  0
POLYLINE
  8
52
 66
1
 10
0.0000
 20
0.0000
 30
0.0000
 40
0.0508
 41
0.0508
 70
0
  0
VERTEX
  8
52
 10
11.4300
 20
38.1000
 30
0.0000
  0
VERTEX
  8
52
 10
11.4300
 20
40.6400
 30
0.0000
  0
SEQEND
  8
0
  0
POLYLINE
  8
52
 66
1
 10
0.0000
 20
0.0000
 30
0.0000
 40
0.0254
 41
0.0254
 70
0
  0
VERTEX
  8
52
 10
11.4427
 20
40.6400
 30
0.0000
 42
1.0000
  0
VERTEX
  8
52
 10
11.4173
 20
40.6400
 30
0.0000
  0
SEQEND
  8
0
  0
POLYLINE
  8
52
 66
1
 10
0.0000
 20
0.0000
 30
0.0000
 40
0.0254
 41
0.0254
 70
0
  0
VERTEX
  8
52
 10
11.4173
 20
38.1000
 30
0.0000
 42
1.0000
  0
VERTEX
  8
52
 10
11.4427
 20
38.1000
 30
0.0000
  0
SEQEND
  8
0
  0
POLYLINE
  8
52
 66
1
 10
0.0000
 20
0.0000
 30
0.0000
 40
0.0508
 41
0.0508
 70
0
  0
VERTEX
  8
52
 10
11.4300
 20
38.1000
 30
0.0000
  0
VERTEX
  8
52
 10
8.8900
 20
38.1000
 30
0.0000
  0
SEQEND
  8
0
  0
POLYLINE
  8
52
 66
1
 10
0.0000
 20
0.0000
 30
0.0000
 40
0.0254
 41
0.0254
 70
0
  0
VERTEX
  8
52
 10
8.8900
 20
38.1127
 30
0.0000
 42
1.0000
  0
VERTEX
  8
52
 10
8.8900
 20
38.0873
 30
0.0000
  0
SEQEND
  8
0
  0
POLYLINE
  8
52
 66
1
 10
0.0000
 20
0.0000
 30
0.0000
 40
0.0254
 41
0.0254
 70
0
  0
VERTEX
  8
52
 10
11.4300
 20
38.0873
 30
0.0000
 42
1.0000
  0
VERTEX
  8
52
 10
11.4300
 20
38.1127
 30
0.0000
  0
SEQEND
  8
0
  0
POLYLINE
  8
52
 66
1
 10
0.0000
 20
0.0000
 30
0.0000
 40
0.0508
 41
0.0508
 70
0
  0
VERTEX
  8
52
 10
8.8900
 20
40.6400
 30
0.0000
  0
VERTEX
  8
52
 10
8.8900
 20
38.1000
 30
0.0000
  0
SEQEND
  8
0
  0
POLYLINE
  8
52
 66
1
 10
0.0000
 20
0.0000
 30
0.0000
 40
0.0254
 41
0.0254
 70
0
  0
VERTEX
  8
52
 10
8.8773
 20
38.1000
 30
0.0000
 42
1.0000
  0
VERTEX
  8
52
 10
8.9027
 20
38.1000
 30
0.0000
  0
SEQEND
  8
0
  0
POLYLINE
  8
52
 66
1
 10
0.0000
 20
0.0000
 30
0.0000
 40
0.0254
 41
0.0254
 70
0
  0
VERTEX
  8
52
 10
8.9027
 20
40.6400
 30
0.0000
 42
1.0000
  0
VERTEX
  8
52
 10
8.8773
 20
40.6400
 30
0.0000
  0
SEQEND
  8
0
  0
POLYLINE
  8
22
 66
1
 10
0.0000
 20
0.0000
 30
0.0000
 40
0.0508
 41
0.0508
 70
0
  0
VERTEX
  8
22
 10
7.1120
 20
40.6400
 30
0.0000
  0
VERTEX
  8
22
 10
7.3660
 20
40.6400
 30
0.0000
  0
SEQEND
  8
0
  0
POLYLINE
  8
22
 66
1
 10
0.0000
 20
0.0000
 30
0.0000
 40
0.0254
 41
0.0254
 70
0
  0
VERTEX
  8
22
 10
7.3660
 20
40.6273
 30
0.0000
 42
1.0000
  0
VERTEX
  8
22
 10
7.3660
 20
40.6527
 30
0.0000
  0
SEQEND
  8
0
  0
POLYLINE
  8
22
 66
1
 10
0.0000
 20
0.0000
 30
0.0000
 40
0.0254
 41
0.0254
 70
0
  0
VERTEX
  8
22
 10
7.1120
 20
40.6527
 30
0.0000
 42
1.0000
  0
VERTEX
  8
22
 10
7.1120
 20
40.6273
 30
0.0000
  0
SEQEND
  8
0
  0
POLYLINE
  8
22
 66
1
 10
0.0000
 20
0.0000
 30
0.0000
 40
0.0508
 41
0.0508
 70
0
  0
VERTEX
  8
22
 10
7.3660
 20
38.1000
 30
0.0000
  0
VERTEX
  8
22
 10
7.3660
 20
40.6400
 30
0.0000
  0
SEQEND
  8
0
  0
POLYLINE
  8
22
 66
1
 10
0.0000
 20
0.0000
 30
0.0000
 40
0.0254
 41
0.0254
 70
0
  0
VERTEX
  8
22
 10
7.3787
 20
40.6400
 30
0.0000
 42
1.0000
  0
VERTEX
  8
22
 10
7.3533
 20
40.6400
 30
0.0000
  0
SEQEND
  8
0
  0
POLYLINE
  8
22
 66
1
 10
0.0000
 20
0.0000
 30
0.0000
 40
0.0254
 41
0.0254
 70
0
  0
VERTEX
  8
22
 10
7.3533
 20
38.1000
 30
0.0000
 42
1.0000
  0
VERTEX
  8
22
 10
7.3787
 20
38.1000
 30
0.0000
  0
SEQEND
  8
0
  0
POLYLINE
  8
22
 66
1
 10
0.0000
 20
0.0000
 30
0.0000
 40
0.0508
 41
0.0508
 70
0
  0
VERTEX
  8
22
 10
7.3660
 20
38.1000
 30
0.0000
  0
VERTEX
  8
22
 10
7.1120
 20
38.1000
 30
0.0000
  0
SEQEND
  8
0
  0
POLYLINE
  8
22
 66
1
 10
0.0000
 20
0.0000
 30
0.0000
 40
0.0254
 41
0.0254
 70
0
  0
VERTEX
  8
22
 10
7.1120
 20
38.1127
 30
0.0000
 42
1.0000
  0
VERTEX
  8
22
 10
7.1120
 20
38.0873
 30
0.0000
  0
SEQEND
  8
0
  0
POLYLINE
  8
22
 66
1
 10
0.0000
 20
0.0000
 30
0.0000
 40
0.0254
 41
0.0254
 70
0
  0
VERTEX
  8
22
 10
7.3660
 20
38.0873
 30
0.0000
 42
1.0000
  0
VERTEX
  8
22
 10
7.3660
 20
38.1127
 30
0.0000
  0
SEQEND
  8
0
  0
POLYLINE
  8
22
 66
1
 10
0.0000
 20
0.0000
 30
0.0000
 40
0.0508
 41
0.0508
 70
0
  0
VERTEX
  8
22
 10
12.9540
 20
38.2270
 30
0.0000
  0
VERTEX
  8
22
 10
12.9540
 20
40.6400
 30
0.0000
  0
SEQEND
  8
0
  0
POLYLINE
  8
22
 66
1
 10
0.0000
 20
0.0000
 30
0.0000
 40
0.0254
 41
0.0254
 70
0
  0
VERTEX
  8
22
 10
12.9667
 20
40.6400
 30
0.0000
 42
1.0000
  0
VERTEX
  8
22
 10
12.9413
 20
40.6400
 30
0.0000
  0
SEQEND
  8
0
  0
POLYLINE
  8
22
 66
1
 10
0.0000
 20
0.0000
 30
0.0000
 40
0.0254
 41
0.0254
 70
0
  0
VERTEX
  8
22
 10
12.9413
 20
38.2270
 30
0.0000
 42
1.0000
  0
VERTEX
  8
22
 10
12.9667
 20
38.2270
 30
0.0000
  0
SEQEND
  8
0
  0
POLYLINE
  8
22
 66
1
 10
0.0000
 20
0.0000
 30
0.0000
 40
0.0508
 41
0.0508
 70
0
  0
VERTEX
  8
22
 10
12.9540
 20
38.2270
 30
0.0000
  0
VERTEX
  8
22
 10
13.2080
 20
38.2270
 30
0.0000
  0
SEQEND
  8
0
  0
POLYLINE
  8
22
 66
1
 10
0.0000
 20
0.0000
 30
0.0000
 40
0.0254
 41
0.0254
 70
0
  0
VERTEX
  8
22
 10
13.2080
 20
38.2143
 30
0.0000
 42
1.0000
  0
VERTEX
  8
22
 10
13.2080
 20
38.2397
 30
0.0000
  0
SEQEND
  8
0
  0
POLYLINE
  8
22
 66
1
 10
0.0000
 20
0.0000
 30
0.0000
 40
0.0254
 41
0.0254
 70
0
  0
VERTEX
  8
22
 10
12.9540
 20
38.2397
 30
0.0000
 42
1.0000
  0
VERTEX
  8
22
 10
12.9540
 20
38.2143
 30
0.0000
  0
SEQEND
  8
0
  0
POLYLINE
  8
22
 66
1
 10
0.0000
 20
0.0000
 30
0.0000
 40
0.0508
 41
0.0508
 70
0
  0
VERTEX
  8
22
 10
12.9540
 20
40.6400
 30
0.0000
  0
VERTEX
  8
22
 10
13.2080
 20
40.6400
 30
0.0000
  0
SEQEND
  8
0
  0
POLYLINE
  8
22
 66
1
 10
0.0000
 20
0.0000
 30
0.0000
 40
0.0254
 41
0.0254
 70
0
  0
VERTEX
  8
22
 10
13.2080
 20
40.6273
 30
0.0000
 42
1.0000
  0
VERTEX
  8
22
 10
13.2080
 20
40.6527
 30
0.0000
  0
SEQEND
  8
0
  0
POLYLINE
  8
22
 66
1
 10
0.0000
 20
0.0000
 30
0.0000
 40
0.0254
 41
0.0254
 70
0
  0
VERTEX
  8
22
 10
12.9540
 20
40.6527
 30
0.0000
 42
1.0000
  0
VERTEX
  8
22
 10
12.9540
 20
40.6273
 30
0.0000
  0
SEQEND
  8
0
  0
POLYLINE
  8
52
 66
1
 10
0.0000
 20
0.0000
 30
0.0000
 40
0.1524
 41
0.1524
 70
0
  0
VERTEX
  8
52
 10
13.2080
 20
36.8300
 30
0.0000
  0
VERTEX
  8
52
 10
13.2080
 20
37.2110
 30
0.0000
  0
SEQEND
  8
0
  0
POLYLINE
  8
52
 66
1
 10
0.0000
 20
0.0000
 30
0.0000
 40
0.0762
 41
0.0762
 70
0
  0
VERTEX
  8
52
 10
13.2461
 20
37.2110
 30
0.0000
 42
1.0000
  0
VERTEX
  8
52
 10
13.1699
 20
37.2110
 30
0.0000
  0
SEQEND
  8
0
  0
POLYLINE
  8
52
 66
1
 10
0.0000
 20
0.0000
 30
0.0000
 40
0.0762
 41
0.0762
 70
0
  0
VERTEX
  8
52
 10
13.1699
 20
36.8300
 30
0.0000
 42
1.0000
  0
VERTEX
  8
52
 10
13.2461
 20
36.8300
 30
0.0000
  0
SEQEND
  8
0
  0
POLYLINE
  8
52
 66
1
 10
0.0000
 20
0.0000
 30
0.0000
 40
0.1524
 41
0.1524
 70
0
  0
VERTEX
  8
52
 10
13.2080
 20
41.9100
 30
0.0000
  0
VERTEX
  8
52
 10
13.2080
 20
41.5290
 30
0.0000
  0
SEQEND
  8
0
  0
POLYLINE
  8
52
 66
1
 10
0.0000
 20
0.0000
 30
0.0000
 40
0.0762
 41
0.0762
 70
0
  0
VERTEX
  8
52
 10
13.1699
 20
41.5290
 30
0.0000
 42
1.0000
  0
VERTEX
  8
52
 10
13.2461
 20
41.5290
 30
0.0000
  0
SEQEND
  8
0
  0
POLYLINE
  8
52
 66
1
 10
0.0000
 20
0.0000
 30
0.0000
 40
0.0762
 41
0.0762
 70
0
  0
VERTEX
  8
52
 10
13.2461
 20
41.9100
 30
0.0000
 42
1.0000
  0
VERTEX
  8
52
 10
13.1699
 20
41.9100
 30
0.0000
  0
SEQEND
  8
0
  0
POLYLINE
  8
22
 66
1
 10
0.0000
 20
0.0000
 30
0.0000
 40
0.1524
 41
0.1524
 70
0
  0
VERTEX
  8
22
 10
13.2080
 20
41.5290
 30
0.0000
  0
VERTEX
  8
22
 10
13.2080
 20
40.6400
 30
0.0000
  0
SEQEND
  8
0
  0
POLYLINE
  8
22
 66
1
 10
0.0000
 20
0.0000
 30
0.0000
 40
0.0762
 41
0.0762
 70
0
  0
VERTEX
  8
22
 10
13.1699
 20
40.6400
 30
0.0000
 42
1.0000
  0
VERTEX
  8
22
 10
13.2461
 20
40.6400
 30
0.0000
  0
SEQEND
  8
0
  0
POLYLINE
  8
22
 66
1
 10
0.0000
 20
0.0000
 30
0.0000
 40
0.0762
 41
0.0762
 70
0
  0
VERTEX
  8
22
 10
13.2461
 20
41.5290
 30
0.0000
 42
1.0000
  0
VERTEX
  8
22
 10
13.1699
 20
41.5290
 30
0.0000
  0
SEQEND
  8
0
  0
POLYLINE
  8
52
 66
1
 10
0.0000
 20
0.0000
 30
0.0000
 40
0.1524
 41
0.1524
 70
0
  0
VERTEX
  8
52
 10
7.1120
 20
41.9100
 30
0.0000
  0
VERTEX
  8
52
 10
7.1120
 20
41.5290
 30
0.0000
  0
SEQEND
  8
0
  0
POLYLINE
  8
52
 66
1
 10
0.0000
 20
0.0000
 30
0.0000
 40
0.0762
 41
0.0762
 70
0
  0
VERTEX
  8
52
 10
7.0739
 20
41.5290
 30
0.0000
 42
1.0000
  0
VERTEX
  8
52
 10
7.1501
 20
41.5290
 30
0.0000
  0
SEQEND
  8
0
  0
POLYLINE
  8
52
 66
1
 10
0.0000
 20
0.0000
 30
0.0000
 40
0.0762
 41
0.0762
 70
0
  0
VERTEX
  8
52
 10
7.1501
 20
41.9100
 30
0.0000
 42
1.0000
  0
VERTEX
  8
52
 10
7.0739
 20
41.9100
 30
0.0000
  0
SEQEND
  8
0
  0
POLYLINE
  8
52
 66
1
 10
0.0000
 20
0.0000
 30
0.0000
 40
0.1524
 41
0.1524
 70
0
  0
VERTEX
  8
52
 10
7.1120
 20
36.8300
 30
0.0000
  0
VERTEX
  8
52
 10
7.1120
 20
37.2110
 30
0.0000
  0
SEQEND
  8
0
  0
POLYLINE
  8
52
 66
1
 10
0.0000
 20
0.0000
 30
0.0000
 40
0.0762
 41
0.0762
 70
0
  0
VERTEX
  8
52
 10
7.1501
 20
37.2110
 30
0.0000
 42
1.0000
  0
VERTEX
  8
52
 10
7.0739
 20
37.2110
 30
0.0000
  0
SEQEND
  8
0
  0
POLYLINE
  8
52
 66
1
 10
0.0000
 20
0.0000
 30
0.0000
 40
0.0762
 41
0.0762
 70
0
  0
VERTEX
  8
52
 10
7.0739
 20
36.8300
 30
0.0000
 42
1.0000
  0
VERTEX
  8
52
 10
7.1501
 20
36.8300
 30
0.0000
  0
SEQEND
  8
0
  0
POLYLINE
  8
22
 66
1
 10
0.0000
 20
0.0000
 30
0.0000
 40
0.1524
 41
0.1524
 70
0
  0
VERTEX
  8
22
 10
7.1120
 20
37.2110
 30
0.0000
  0
VERTEX
  8
22
 10
7.1120
 20
38.1000
 30
0.0000
  0
SEQEND
  8
0
  0
POLYLINE
  8
22
 66
1
 10
0.0000
 20
0.0000
 30
0.0000
 40
0.0762
 41
0.0762
 70
0
  0
VERTEX
  8
22
 10
7.1501
 20
38.1000
 30
0.0000
 42
1.0000
  0
VERTEX
  8
22
 10
7.0739
 20
38.1000
 30
0.0000
  0
SEQEND
  8
0
  0
POLYLINE
  8
22
 66
1
 10
0.0000
 20
0.0000
 30
0.0000
 40
0.0762
 41
0.0762
 70
0
  0
VERTEX
  8
22
 10
7.0739
 20
37.2110
 30
0.0000
 42
1.0000
  0
VERTEX
  8
22
 10
7.1501
 20
37.2110
 30
0.0000
  0
SEQEND
  8
0
  0
POLYLINE
  8
22
 66
1
 10
0.0000
 20
0.0000
 30
0.0000
 40
0.1524
 41
0.1524
 70
0
  0
VERTEX
  8
22
 10
7.1120
 20
38.1000
 30
0.0000
  0
VERTEX
  8
22
 10
7.1120
 20
40.6400
 30
0.0000
  0
SEQEND
  8
0
  0
POLYLINE
  8
22
 66
1
 10
0.0000
 20
0.0000
 30
0.0000
 40
0.0762
 41
0.0762
 70
0
  0
VERTEX
  8
22
 10
7.1501
 20
40.6400
 30
0.0000
 42
1.0000
  0
VERTEX
  8
22
 10
7.0739
 20
40.6400
 30
0.0000
  0
SEQEND
  8
0
  0
POLYLINE
  8
22
 66
1
 10
0.0000
 20
0.0000
 30
0.0000
 40
0.0762
 41
0.0762
 70
0
  0
VERTEX
  8
22
 10
7.0739
 20
38.1000
 30
0.0000
 42
1.0000
  0
VERTEX
  8
22
 10
7.1501
 20
38.1000
 30
0.0000
  0
SEQEND
  8
0
  0
POLYLINE
  8
22
 66
1
 10
0.0000
 20
0.0000
 30
0.0000
 40
0.1524
 41
0.1524
 70
0
  0
VERTEX
  8
22
 10
7.1120
 20
40.6400
 30
0.0000
  0
VERTEX
  8
22
 10
7.1120
 20
41.5290
 30
0.0000
  0
SEQEND
  8
0
  0
POLYLINE
  8
22
 66
1
 10
0.0000
 20
0.0000
 30
0.0000
 40
0.0762
 41
0.0762
 70
0
  0
VERTEX
  8
22
 10
7.1501
 20
41.5290
 30
0.0000
 42
1.0000
  0
VERTEX
  8
22
 10
7.0739
 20
41.5290
 30
0.0000
  0
SEQEND
  8
0
  0
POLYLINE
  8
22
 66
1
 10
0.0000
 20
0.0000
 30
0.0000
 40
0.0762
 41
0.0762
 70
0
  0
VERTEX
  8
22
 10
7.0739
 20
40.6400
 30
0.0000
 42
1.0000
  0
VERTEX
  8
22
 10
7.1501
 20
40.6400
 30
0.0000
  0
SEQEND
  8
0
  0
POLYLINE
  8
22
 66
1
 10
0.0000
 20
0.0000
 30
0.0000
 40
0.1524
 41
0.1524
 70
0
  0
VERTEX
  8
22
 10
13.2080
 20
40.6400
 30
0.0000
  0
VERTEX
  8
22
 10
13.2080
 20
38.2270
 30
0.0000
  0
SEQEND
  8
0
  0
POLYLINE
  8
22
 66
1
 10
0.0000
 20
0.0000
 30
0.0000
 40
0.0762
 41
0.0762
 70
0
  0
VERTEX
  8
22
 10
13.1699
 20
38.2270
 30
0.0000
 42
1.0000
  0
VERTEX
  8
22
 10
13.2461
 20
38.2270
 30
0.0000
  0
SEQEND
  8
0
  0
POLYLINE
  8
22
 66
1
 10
0.0000
 20
0.0000
 30
0.0000
 40
0.0762
 41
0.0762
 70
0
  0
VERTEX
  8
22
 10
13.2461
 20
40.6400
 30
0.0000
 42
1.0000
  0
VERTEX
  8
22
 10
13.1699
 20
40.6400
 30
0.0000
  0
SEQEND
  8
0
  0
POLYLINE
  8
22
 66
1
 10
0.0000
 20
0.0000
 30
0.0000
 40
0.1524
 41
0.1524
 70
0
  0
VERTEX
  8
22
 10
13.2080
 20
38.2270
 30
0.0000
  0
VERTEX
  8
22
 10
13.2080
 20
37.2110
 30
0.0000
  0
SEQEND
  8
0
  0
POLYLINE
  8
22
 66
1
 10
0.0000
 20
0.0000
 30
0.0000
 40
0.0762
 41
0.0762
 70
0
  0
VERTEX
  8
22
 10
13.1699
 20
37.2110
 30
0.0000
 42
1.0000
  0
VERTEX
  8
22
 10
13.2461
 20
37.2110
 30
0.0000
  0
SEQEND
  8
0
  0
POLYLINE
  8
22
 66
1
 10
0.0000
 20
0.0000
 30
0.0000
 40
0.0762
 41
0.0762
 70
0
  0
VERTEX
  8
22
 10
13.2461
 20
38.2270
 30
0.0000
 42
1.0000
  0
VERTEX
  8
22
 10
13.1699
 20
38.2270
 30
0.0000
  0
SEQEND
  8
0
  0
POLYLINE
  8
22
 66
1
 10
0.0000
 20
0.0000
 30
0.0000
 40
0.1524
 41
0.1524
 70
0
  0
VERTEX
  8
22
 10
10.9220
 20
36.3220
 30
0.0000
  0
VERTEX
  8
22
 10
11.1760
 20
36.3220
 30
0.0000
  0
SEQEND
  8
0
  0
POLYLINE
  8
22
 66
1
 10
0.0000
 20
0.0000
 30
0.0000
 40
0.0762
 41
0.0762
 70
0
  0
VERTEX
  8
22
 10
11.1760
 20
36.2839
 30
0.0000
 42
1.0000
  0
VERTEX
  8
22
 10
11.1760
 20
36.3601
 30
0.0000
  0
SEQEND
  8
0
  0
POLYLINE
  8
22
 66
1
 10
0.0000
 20
0.0000
 30
0.0000
 40
0.0762
 41
0.0762
 70
0
  0
VERTEX
  8
22
 10
10.9220
 20
36.3601
 30
0.0000
 42
1.0000
  0
VERTEX
  8
22
 10
10.9220
 20
36.2839
 30
0.0000
  0
SEQEND
  8
0
  0
POLYLINE
  8
22
 66
1
 10
0.0000
 20
0.0000
 30
0.0000
 40
0.1524
 41
0.1524
 70
0
  0
VERTEX
  8
22
 10
9.3980
 20
36.3220
 30
0.0000
  0
VERTEX
  8
22
 10
9.1440
 20
36.3220
 30
0.0000
  0
SEQEND
  8
0
  0
POLYLINE
  8
22
 66
1
 10
0.0000
 20
0.0000
 30
0.0000
 40
0.0762
 41
0.0762
 70
0
  0
VERTEX
  8
22
 10
9.1440
 20
36.3601
 30
0.0000
 42
1.0000
  0
VERTEX
  8
22
 10
9.1440
 20
36.2839
 30
0.0000
  0
SEQEND
  8
0
  0
POLYLINE
  8
22
 66
1
 10
0.0000
 20
0.0000
 30
0.0000
 40
0.0762
 41
0.0762
 70
0
  0
VERTEX
  8
22
 10
9.3980
 20
36.2839
 30
0.0000
 42
1.0000
  0
VERTEX
  8
22
 10
9.3980
 20
36.3601
 30
0.0000
  0
SEQEND
  8
0
  0
POLYLINE
  8
22
 66
1
 10
0.0000
 20
0.0000
 30
0.0000
 40
0.1524
 41
0.1524
 70
0
  0
VERTEX
  8
22
 10
10.9220
 20
42.4180
 30
0.0000
  0
VERTEX
  8
22
 10
11.1760
 20
42.4180
 30
0.0000
  0
SEQEND
  8
0
  0
POLYLINE
  8
22
 66
1
 10
0.0000
 20
0.0000
 30
0.0000
 40
0.0762
 41
0.0762
 70
0
  0
VERTEX
  8
22
 10
11.1760
 20
42.3799
 30
0.0000
 42
1.0000
  0
VERTEX
  8
22
 10
11.1760
 20
42.4561
 30
0.0000
  0
SEQEND
  8
0
  0
POLYLINE
  8
22
 66
1
 10
0.0000
 20
0.0000
 30
0.0000
 40
0.0762
 41
0.0762
 70
0
  0
VERTEX
  8
22
 10
10.9220
 20
42.4561
 30
0.0000
 42
1.0000
  0
VERTEX
  8
22
 10
10.9220
 20
42.3799
 30
0.0000
  0
SEQEND
  8
0
  0
POLYLINE
  8
22
 66
1
 10
0.0000
 20
0.0000
 30
0.0000
 40
0.1524
 41
0.1524
 70
0
  0
VERTEX
  8
22
 10
9.3980
 20
42.4180
 30
0.0000
  0
VERTEX
  8
22
 10
9.1440
 20
42.4180
 30
0.0000
  0
SEQEND
  8
0
  0
POLYLINE
  8
22
 66
1
 10
0.0000
 20
0.0000
 30
0.0000
 40
0.0762
 41
0.0762
 70
0
  0
VERTEX
  8
22
 10
9.1440
 20
42.4561
 30
0.0000
 42
1.0000
  0
VERTEX
  8
22
 10
9.1440
 20
42.3799
 30
0.0000
  0
SEQEND
  8
0
  0
POLYLINE
  8
22
 66
1
 10
0.0000
 20
0.0000
 30
0.0000
 40
0.0762
 41
0.0762
 70
0
  0
VERTEX
  8
22
 10
9.3980
 20
42.3799
 30
0.0000
 42
1.0000
  0
VERTEX
  8
22
 10
9.3980
 20
42.4561
 30
0.0000
  0
SEQEND
  8
0
  0
POLYLINE
  8
52
 66
1
 10
0.0000
 20
0.0000
 30
0.0000
 40
0.1524
 41
0.1524
 70
0
  0
VERTEX
  8
52
 10
12.3190
 20
40.6400
 30
0.0000
  0
VERTEX
  8
52
 10
12.3190
 20
38.1000
 30
0.0000
  0
SEQEND
  8
0
  0
POLYLINE
  8
52
 66
1
 10
0.0000
 20
0.0000
 30
0.0000
 40
0.0762
 41
0.0762
 70
0
  0
VERTEX
  8
52
 10
12.2809
 20
38.1000
 30
0.0000
 42
1.0000
  0
VERTEX
  8
52
 10
12.3571
 20
38.1000
 30
0.0000
  0
SEQEND
  8
0
  0
POLYLINE
  8
52
 66
1
 10
0.0000
 20
0.0000
 30
0.0000
 40
0.0762
 41
0.0762
 70
0
  0
VERTEX
  8
52
 10
12.3571
 20
40.6400
 30
0.0000
 42
1.0000
  0
VERTEX
  8
52
 10
12.2809
 20
40.6400
 30
0.0000
  0
SEQEND
  8
0
  0
POLYLINE
  8
52
 66
1
 10
0.0000
 20
0.0000
 30
0.0000
 40
0.1524
 41
0.1524
 70
0
  0
VERTEX
  8
52
 10
7.8740
 20
38.1000
 30
0.0000
  0
VERTEX
  8
52
 10
7.8740
 20
40.6400
 30
0.0000
  0
SEQEND
  8
0
  0
POLYLINE
  8
52
 66
1
 10
0.0000
 20
0.0000
 30
0.0000
 40
0.0762
 41
0.0762
 70
0
  0
VERTEX
  8
52
 10
7.9121
 20
40.6400
 30
0.0000
 42
1.0000
  0
VERTEX
  8
52
 10
7.8359
 20
40.6400
 30
0.0000
  0
SEQEND
  8
0
  0
POLYLINE
  8
52
 66
1
 10
0.0000
 20
0.0000
 30
0.0000
 40
0.0762
 41
0.0762
 70
0
  0
VERTEX
  8
52
 10
7.8359
 20
38.1000
 30
0.0000
 42
1.0000
  0
VERTEX
  8
52
 10
7.9121
 20
38.1000
 30
0.0000
  0
SEQEND
  8
0
  0
POLYLINE
  8
52
 66
1
 10
0.0000
 20
0.0000
 30
0.0000
 40
0.1524
 41
0.1524
 70
0
  0
VERTEX
  8
52
 10
8.8900
 20
41.7830
 30
0.0000
  0
VERTEX
  8
52
 10
9.6520
 20
41.7830
 30
0.0000
  0
SEQEND
  8
0
  0
POLYLINE
  8
52
 66
1
 10
0.0000
 20
0.0000
 30
0.0000
 40
0.0762
 41
0.0762
 70
0
  0
VERTEX
  8
52
 10
9.6520
 20
41.7449
 30
0.0000
 42
1.0000
  0
VERTEX
  8
52
 10
9.6520
 20
41.8211
 30
0.0000
  0
SEQEND
  8
0
  0
POLYLINE
  8
52
 66
1
 10
0.0000
 20
0.0000
 30
0.0000
 40
0.0762
 41
0.0762
 70
0
  0
VERTEX
  8
52
 10
8.8900
 20
41.8211
 30
0.0000
 42
1.0000
  0
VERTEX
  8
52
 10
8.8900
 20
41.7449
 30
0.0000
  0
SEQEND
  8
0
  0
POLYLINE
  8
52
 66
1
 10
0.0000
 20
0.0000
 30
0.0000
 40
0.1524
 41
0.1524
 70
0
  0
VERTEX
  8
52
 10
10.6680
 20
41.7830
 30
0.0000
  0
VERTEX
  8
52
 10
11.4300
 20
41.7830
 30
0.0000
  0
SEQEND
  8
0
  0
POLYLINE
  8
52
 66
1
 10
0.0000
 20
0.0000
 30
0.0000
 40
0.0762
 41
0.0762
 70
0
  0
VERTEX
  8
52
 10
11.4300
 20
41.7449
 30
0.0000
 42
1.0000
  0
VERTEX
  8
52
 10
11.4300
 20
41.8211
 30
0.0000
  0
SEQEND
  8
0
  0
POLYLINE
  8
52
 66
1
 10
0.0000
 20
0.0000
 30
0.0000
 40
0.0762
 41
0.0762
 70
0
  0
VERTEX
  8
52
 10
10.6680
 20
41.8211
 30
0.0000
 42
1.0000
  0
VERTEX
  8
52
 10
10.6680
 20
41.7449
 30
0.0000
  0
SEQEND
  8
0
  0
POLYLINE
  8
52
 66
1
 10
0.0000
 20
0.0000
 30
0.0000
 40
0.1524
 41
0.1524
 70
0
  0
VERTEX
  8
52
 10
9.6520
 20
41.7830
 30
0.0000
  0
VERTEX
  8
52
 10
10.5410
 20
41.5290
 30
0.0000
  0
SEQEND
  8
0
  0
POLYLINE
  8
52
 66
1
 10
0.0000
 20
0.0000
 30
0.0000
 40
0.0762
 41
0.0762
 70
0
  0
VERTEX
  8
52
 10
10.5305
 20
41.4924
 30
0.0000
 42
1.0000
  0
VERTEX
  8
52
 10
10.5515
 20
41.5656
 30
0.0000
  0
SEQEND
  8
0
  0
POLYLINE
  8
52
 66
1
 10
0.0000
 20
0.0000
 30
0.0000
 40
0.0762
 41
0.0762
 70
0
  0
VERTEX
  8
52
 10
9.6625
 20
41.8196
 30
0.0000
 42
1.0000
  0
VERTEX
  8
52
 10
9.6415
 20
41.7464
 30
0.0000
  0
SEQEND
  8
0
  0
POLYLINE
  8
26
 66
1
 10
0.0000
 20
0.0000
 30
0.0000
 40
0.1270
 41
0.1270
 70
0
  0
VERTEX
  8
26
 10
5.5245
 20
41.2496
 30
0.0000
 42
0.4142
  0
VERTEX
  8
26
 10
5.2705
 20
40.9956
 30
0.0000
  0
SEQEND
  8
0
  0
POLYLINE
  8
26
 66
1
 10
0.0000
 20
0.0000
 30
0.0000
 40
0.0635
 41
0.0635
 70
0
  0
VERTEX
  8
26
 10
5.5245
 20
41.2178
 30
0.0000
 42
1.0000
  0
VERTEX
  8
26
 10
5.5245
 20
41.2814
 30
0.0000
  0
SEQEND
  8
0
  0
POLYLINE
  8
26
 66
1
 10
0.0000
 20
0.0000
 30
0.0000
 40
0.0635
 41
0.0635
 70
0
  0
VERTEX
  8
26
 10
5.2388
 20
40.9956
 30
0.0000
 42
1.0000
  0
VERTEX
  8
26
 10
5.3022
 20
40.9956
 30
0.0000
  0
SEQEND
  8
0
  0
POLYLINE
  8
26
 66
1
 10
0.0000
 20
0.0000
 30
0.0000
 40
0.1270
 41
0.1270
 70
0
  0
VERTEX
  8
26
 10
5.2705
 20
40.9956
 30
0.0000
 42
0.2000
  0
VERTEX
  8
26
 10
5.4293
 20
40.6146
 30
0.0000
  0
SEQEND
  8
0
  0
POLYLINE
  8
26
 66
1
 10
0.0000
 20
0.0000
 30
0.0000
 40
0.0635
 41
0.0635
 70
0
  0
VERTEX
  8
26
 10
5.3022
 20
40.9956
 30
0.0000
 42
1.0000
  0
VERTEX
  8
26
 10
5.2388
 20
40.9956
 30
0.0000
  0
SEQEND
  8
0
  0
POLYLINE
  8
26
 66
1
 10
0.0000
 20
0.0000
 30
0.0000
 40
0.0635
 41
0.0635
 70
0
  0
VERTEX
  8
26
 10
5.4069
 20
40.5921
 30
0.0000
 42
1.0000
  0
VERTEX
  8
26
 10
5.4516
 20
40.6371
 30
0.0000
  0
SEQEND
  8
0
  0
POLYLINE
  8
26
 66
1
 10
0.0000
 20
0.0000
 30
0.0000
 40
0.1270
 41
0.1270
 70
0
  0
VERTEX
  8
26
 10
6.1595
 20
40.6464
 30
0.0000
 42
0.4142
  0
VERTEX
  8
26
 10
6.4135
 20
40.9004
 30
0.0000
  0
SEQEND
  8
0
  0
POLYLINE
  8
26
 66
1
 10
0.0000
 20
0.0000
 30
0.0000
 40
0.0635
 41
0.0635
 70
0
  0
VERTEX
  8
26
 10
6.1595
 20
40.6781
 30
0.0000
 42
1.0000
  0
VERTEX
  8
26
 10
6.1595
 20
40.6146
 30
0.0000
  0
SEQEND
  8
0
  0
POLYLINE
  8
26
 66
1
 10
0.0000
 20
0.0000
 30
0.0000
 40
0.0635
 41
0.0635
 70
0
  0
VERTEX
  8
26
 10
6.4452
 20
40.9004
 30
0.0000
 42
1.0000
  0
VERTEX
  8
26
 10
6.3818
 20
40.9004
 30
0.0000
  0
SEQEND
  8
0
  0
POLYLINE
  8
26
 66
1
 10
0.0000
 20
0.0000
 30
0.0000
 40
0.1270
 41
0.1270
 70
0
  0
VERTEX
  8
26
 10
6.4135
 20
40.9004
 30
0.0000
 42
0.1623
  0
VERTEX
  8
26
 10
6.3182
 20
41.1861
 30
0.0000
  0
SEQEND
  8
0
  0
POLYLINE
  8
26
 66
1
 10
0.0000
 20
0.0000
 30
0.0000
 40
0.0635
 41
0.0635
 70
0
  0
VERTEX
  8
26
 10
6.3818
 20
40.9004
 30
0.0000
 42
1.0000
  0
VERTEX
  8
26
 10
6.4452
 20
40.9003
 30
0.0000
  0
SEQEND
  8
0
  0
POLYLINE
  8
26
 66
1
 10
0.0000
 20
0.0000
 30
0.0000
 40
0.0635
 41
0.0635
 70
0
  0
VERTEX
  8
26
 10
6.3436
 20
41.2052
 30
0.0000
 42
1.0000
  0
VERTEX
  8
26
 10
6.2929
 20
41.1670
 30
0.0000
  0
SEQEND
  8
0
  0
POLYLINE
  8
26
 66
1
 10
0.0000
 20
0.0000
 30
0.0000
 40
0.1270
 41
0.1270
 70
0
  0
VERTEX
  8
26
 10
5.9373
 20
40.7734
 30
0.0000
 42
0.2656
  0
VERTEX
  8
26
 10
6.1595
 20
40.6464
 30
0.0000
  0
SEQEND
  8
0
  0
POLYLINE
  8
26
 66
1
 10
0.0000
 20
0.0000
 30
0.0000
 40
0.0635
 41
0.0635
 70
0
  0
VERTEX
  8
26
 10
5.9646
 20
40.7895
 30
0.0000
 42
1.0000
  0
VERTEX
  8
26
 10
5.9099
 20
40.7572
 30
0.0000
  0
SEQEND
  8
0
  0
POLYLINE
  8
26
 66
1
 10
0.0000
 20
0.0000
 30
0.0000
 40
0.0635
 41
0.0635
 70
0
  0
VERTEX
  8
26
 10
6.1595
 20
40.6146
 30
0.0000
 42
1.0000
  0
VERTEX
  8
26
 10
6.1595
 20
40.6781
 30
0.0000
  0
SEQEND
  8
0
  0
POLYLINE
  8
26
 66
1
 10
0.0000
 20
0.0000
 30
0.0000
 40
0.1270
 41
0.1270
 70
0
  0
VERTEX
  8
26
 10
5.7468
 20
41.1226
 30
0.0000
 42
0.2656
  0
VERTEX
  8
26
 10
5.5245
 20
41.2496
 30
0.0000
  0
SEQEND
  8
0
  0
POLYLINE
  8
26
 66
1
 10
0.0000
 20
0.0000
 30
0.0000
 40
0.0635
 41
0.0635
 70
0
  0
VERTEX
  8
26
 10
5.7194
 20
41.1065
 30
0.0000
 42
1.0000
  0
VERTEX
  8
26
 10
5.7741
 20
41.1387
 30
0.0000
  0
SEQEND
  8
0
  0
POLYLINE
  8
26
 66
1
 10
0.0000
 20
0.0000
 30
0.0000
 40
0.0635
 41
0.0635
 70
0
  0
VERTEX
  8
26
 10
5.5245
 20
41.2814
 30
0.0000
 42
1.0000
  0
VERTEX
  8
26
 10
5.5245
 20
41.2178
 30
0.0000
  0
SEQEND
  8
0
  0
POLYLINE
  8
26
 66
1
 10
0.0000
 20
0.0000
 30
0.0000
 40
0.1270
 41
0.1270
 70
0
  0
VERTEX
  8
26
 10
5.7468
 20
41.1226
 30
0.0000
  0
VERTEX
  8
26
 10
5.9373
 20
40.7734
 30
0.0000
  0
SEQEND
  8
0
  0
POLYLINE
  8
26
 66
1
 10
0.0000
 20
0.0000
 30
0.0000
 40
0.0635
 41
0.0635
 70
0
  0
VERTEX
  8
26
 10
5.9094
 20
40.7581
 30
0.0000
 42
1.0000
  0
VERTEX
  8
26
 10
5.9651
 20
40.7886
 30
0.0000
  0
SEQEND
  8
0
  0
POLYLINE
  8
26
 66
1
 10
0.0000
 20
0.0000
 30
0.0000
 40
0.0635
 41
0.0635
 70
0
  0
VERTEX
  8
26
 10
5.7746
 20
41.1378
 30
0.0000
 42
1.0000
  0
VERTEX
  8
26
 10
5.7189
 20
41.1074
 30
0.0000
  0
SEQEND
  8
0
  0
POLYLINE
  8
26
 66
1
 10
0.0000
 20
0.0000
 30
0.0000
 40
0.1270
 41
0.1270
 70
0
  0
VERTEX
  8
26
 10
6.1595
 20
41.7195
 30
0.0000
  0
VERTEX
  8
26
 10
6.4135
 20
42.0370
 30
0.0000
  0
SEQEND
  8
0
  0
POLYLINE
  8
26
 66
1
 10
0.0000
 20
0.0000
 30
0.0000
 40
0.0635
 41
0.0635
 70
0
  0
VERTEX
  8
26
 10
6.4383
 20
42.0172
 30
0.0000
 42
1.0000
  0
VERTEX
  8
26
 10
6.3887
 20
42.0568
 30
0.0000
  0
SEQEND
  8
0
  0
POLYLINE
  8
26
 66
1
 10
0.0000
 20
0.0000
 30
0.0000
 40
0.0635
 41
0.0635
 70
0
  0
VERTEX
  8
26
 10
6.1347
 20
41.7393
 30
0.0000
 42
1.0000
  0
VERTEX
  8
26
 10
6.1843
 20
41.6997
 30
0.0000
  0
SEQEND
  8
0
  0
POLYLINE
  8
26
 66
1
 10
0.0000
 20
0.0000
 30
0.0000
 40
0.1270
 41
0.1270
 70
0
  0
VERTEX
  8
26
 10
6.4135
 20
42.0370
 30
0.0000
  0
VERTEX
  8
26
 10
5.2705
 20
42.0370
 30
0.0000
  0
SEQEND
  8
0
  0
POLYLINE
  8
26
 66
1
 10
0.0000
 20
0.0000
 30
0.0000
 40
0.0635
 41
0.0635
 70
0
  0
VERTEX
  8
26
 10
5.2705
 20
42.0688
 30
0.0000
 42
1.0000
  0
VERTEX
  8
26
 10
5.2705
 20
42.0052
 30
0.0000
  0
SEQEND
  8
0
  0
POLYLINE
  8
26
 66
1
 10
0.0000
 20
0.0000
 30
0.0000
 40
0.0635
 41
0.0635
 70
0
  0
VERTEX
  8
26
 10
6.4135
 20
42.0052
 30
0.0000
 42
1.0000
  0
VERTEX
  8
26
 10
6.4135
 20
42.0688
 30
0.0000
  0
SEQEND
  8
0
  0
POLYLINE
  8
26
 66
1
 10
0.0000
 20
0.0000
 30
0.0000
 40
0.1270
 41
0.1270
 70
0
  0
VERTEX
  8
26
 10
5.2705
 20
41.7195
 30
0.0000
  0
VERTEX
  8
26
 10
5.2705
 20
42.3545
 30
0.0000
  0
SEQEND
  8
0
  0
POLYLINE
  8
26
 66
1
 10
0.0000
 20
0.0000
 30
0.0000
 40
0.0635
 41
0.0635
 70
0
  0
VERTEX
  8
26
 10
5.3022
 20
42.3545
 30
0.0000
 42
1.0000
  0
VERTEX
  8
26
 10
5.2388
 20
42.3545
 30
0.0000
  0
SEQEND
  8
0
  0
POLYLINE
  8
26
 66
1
 10
0.0000
 20
0.0000
 30
0.0000
 40
0.0635
 41
0.0635
 70
0
  0
VERTEX
  8
26
 10
5.2388
 20
41.7195
 30
0.0000
 42
1.0000
  0
VERTEX
  8
26
 10
5.3022
 20
41.7195
 30
0.0000
  0
SEQEND
  8
0
  0
POLYLINE
  8
52
 66
1
 10
0.0000
 20
0.0000
 30
0.0000
 40
0.1270
 41
0.1270
 70
0
  0
VERTEX
  8
52
 10
8.1915
 20
42.9895
 30
0.0000
  0
VERTEX
  8
52
 10
8.4455
 20
43.3070
 30
0.0000
  0
SEQEND
  8
0
  0
POLYLINE
  8
52
 66
1
 10
0.0000
 20
0.0000
 30
0.0000
 40
0.0635
 41
0.0635
 70
0
  0
VERTEX
  8
52
 10
8.4703
 20
43.2872
 30
0.0000
 42
1.0000
  0
VERTEX
  8
52
 10
8.4207
 20
43.3268
 30
0.0000
  0
SEQEND
  8
0
  0
POLYLINE
  8
52
 66
1
 10
0.0000
 20
0.0000
 30
0.0000
 40
0.0635
 41
0.0635
 70
0
  0
VERTEX
  8
52
 10
8.1667
 20
43.0093
 30
0.0000
 42
1.0000
  0
VERTEX
  8
52
 10
8.2163
 20
42.9697
 30
0.0000
  0
SEQEND
  8
0
  0
POLYLINE
  8
52
 66
1
 10
0.0000
 20
0.0000
 30
0.0000
 40
0.1270
 41
0.1270
 70
0
  0
VERTEX
  8
52
 10
8.4455
 20
43.3070
 30
0.0000
  0
VERTEX
  8
52
 10
7.3025
 20
43.3070
 30
0.0000
  0
SEQEND
  8
0
  0
POLYLINE
  8
52
 66
1
 10
0.0000
 20
0.0000
 30
0.0000
 40
0.0635
 41
0.0635
 70
0
  0
VERTEX
  8
52
 10
7.3025
 20
43.3388
 30
0.0000
 42
1.0000
  0
VERTEX
  8
52
 10
7.3025
 20
43.2752
 30
0.0000
  0
SEQEND
  8
0
  0
POLYLINE
  8
52
 66
1
 10
0.0000
 20
0.0000
 30
0.0000
 40
0.0635
 41
0.0635
 70
0
  0
VERTEX
  8
52
 10
8.4455
 20
43.2752
 30
0.0000
 42
1.0000
  0
VERTEX
  8
52
 10
8.4455
 20
43.3388
 30
0.0000
  0
SEQEND
  8
0
  0
POLYLINE
  8
52
 66
1
 10
0.0000
 20
0.0000
 30
0.0000
 40
0.1270
 41
0.1270
 70
0
  0
VERTEX
  8
52
 10
7.3025
 20
42.9895
 30
0.0000
  0
VERTEX
  8
52
 10
7.3025
 20
43.6245
 30
0.0000
  0
SEQEND
  8
0
  0
POLYLINE
  8
52
 66
1
 10
0.0000
 20
0.0000
 30
0.0000
 40
0.0635
 41
0.0635
 70
0
  0
VERTEX
  8
52
 10
7.3342
 20
43.6245
 30
0.0000
 42
1.0000
  0
VERTEX
  8
52
 10
7.2708
 20
43.6245
 30
0.0000
  0
SEQEND
  8
0
  0
POLYLINE
  8
52
 66
1
 10
0.0000
 20
0.0000
 30
0.0000
 40
0.0635
 41
0.0635
 70
0
  0
VERTEX
  8
52
 10
7.2708
 20
42.9895
 30
0.0000
 42
1.0000
  0
VERTEX
  8
52
 10
7.3342
 20
42.9895
 30
0.0000
  0
SEQEND
  8
0
  0
POLYLINE
  8
52
 66
1
 10
0.0000
 20
0.0000
 30
0.0000
 40
0.1270
 41
0.1270
 70
0
  0
VERTEX
  8
52
 10
8.5725
 20
35.4648
 30
0.0000
 42
0.4142
  0
VERTEX
  8
52
 10
8.2867
 20
35.7505
 30
0.0000
  0
SEQEND
  8
0
  0
POLYLINE
  8
52
 66
1
 10
0.0000
 20
0.0000
 30
0.0000
 40
0.0635
 41
0.0635
 70
0
  0
VERTEX
  8
52
 10
8.5407
 20
35.4648
 30
0.0000
 42
1.0000
  0
VERTEX
  8
52
 10
8.6043
 20
35.4648
 30
0.0000
  0
SEQEND
  8
0
  0
POLYLINE
  8
52
 66
1
 10
0.0000
 20
0.0000
 30
0.0000
 40
0.0635
 41
0.0635
 70
0
  0
VERTEX
  8
52
 10
8.2867
 20
35.7823
 30
0.0000
 42
1.0000
  0
VERTEX
  8
52
 10
8.2867
 20
35.7188
 30
0.0000
  0
SEQEND
  8
0
  0
POLYLINE
  8
52
 66
1
 10
0.0000
 20
0.0000
 30
0.0000
 40
0.1270
 41
0.1270
 70
0
  0
VERTEX
  8
52
 10
8.3185
 20
35.1155
 30
0.0000
 42
0.3252
  0
VERTEX
  8
52
 10
8.5725
 20
35.4648
 30
0.0000
  0
SEQEND
  8
0
  0
POLYLINE
  8
52
 66
1
 10
0.0000
 20
0.0000
 30
0.0000
 40
0.0635
 41
0.0635
 70
0
  0
VERTEX
  8
52
 10
8.3087
 20
35.1457
 30
0.0000
 42
1.0000
  0
VERTEX
  8
52
 10
8.3283
 20
35.0853
 30
0.0000
  0
SEQEND
  8
0
  0
POLYLINE
  8
52
 66
1
 10
0.0000
 20
0.0000
 30
0.0000
 40
0.0635
 41
0.0635
 70
0
  0
VERTEX
  8
52
 10
8.6043
 20
35.4648
 30
0.0000
 42
1.0000
  0
VERTEX
  8
52
 10
8.5407
 20
35.4647
 30
0.0000
  0
SEQEND
  8
0
  0
POLYLINE
  8
52
 66
1
 10
0.0000
 20
0.0000
 30
0.0000
 40
0.1270
 41
0.1270
 70
0
  0
VERTEX
  8
52
 10
8.2867
 20
35.7505
 30
0.0000
 42
0.2053
  0
VERTEX
  8
52
 10
8.0645
 20
35.6553
 30
0.0000
  0
SEQEND
  8
0
  0
POLYLINE
  8
52
 66
1
 10
0.0000
 20
0.0000
 30
0.0000
 40
0.0635
 41
0.0635
 70
0
  0
VERTEX
  8
52
 10
8.2867
 20
35.7188
 30
0.0000
 42
1.0000
  0
VERTEX
  8
52
 10
8.2868
 20
35.7822
 30
0.0000
  0
SEQEND
  8
0
  0
POLYLINE
  8
52
 66
1
 10
0.0000
 20
0.0000
 30
0.0000
 40
0.0635
 41
0.0635
 70
0
  0
VERTEX
  8
52
 10
8.0415
 20
35.6771
 30
0.0000
 42
1.0000
  0
VERTEX
  8
52
 10
8.0875
 20
35.6334
 30
0.0000
  0
SEQEND
  8
0
  0
POLYLINE
  8
52
 66
1
 10
0.0000
 20
0.0000
 30
0.0000
 40
0.1270
 41
0.1270
 70
0
  0
VERTEX
  8
52
 10
8.0645
 20
35.6553
 30
0.0000
  0
VERTEX
  8
52
 10
7.4295
 20
35.1155
 30
0.0000
  0
SEQEND
  8
0
  0
POLYLINE
  8
52
 66
1
 10
0.0000
 20
0.0000
 30
0.0000
 40
0.0635
 41
0.0635
 70
0
  0
VERTEX
  8
52
 10
7.4089
 20
35.1397
 30
0.0000
 42
1.0000
  0
VERTEX
  8
52
 10
7.4501
 20
35.0913
 30
0.0000
  0
SEQEND
  8
0
  0
POLYLINE
  8
52
 66
1
 10
0.0000
 20
0.0000
 30
0.0000
 40
0.0635
 41
0.0635
 70
0
  0
VERTEX
  8
52
 10
8.0851
 20
35.6311
 30
0.0000
 42
1.0000
  0
VERTEX
  8
52
 10
8.0439
 20
35.6794
 30
0.0000
  0
SEQEND
  8
0
  0
POLYLINE
  8
52
 66
1
 10
0.0000
 20
0.0000
 30
0.0000
 40
0.1270
 41
0.1270
 70
0
  0
VERTEX
  8
52
 10
7.4295
 20
35.1155
 30
0.0000
  0
VERTEX
  8
52
 10
7.4295
 20
35.7505
 30
0.0000
  0
SEQEND
  8
0
  0
POLYLINE
  8
52
 66
1
 10
0.0000
 20
0.0000
 30
0.0000
 40
0.0635
 41
0.0635
 70
0
  0
VERTEX
  8
52
 10
7.4612
 20
35.7505
 30
0.0000
 42
1.0000
  0
VERTEX
  8
52
 10
7.3978
 20
35.7505
 30
0.0000
  0
SEQEND
  8
0
  0
POLYLINE
  8
52
 66
1
 10
0.0000
 20
0.0000
 30
0.0000
 40
0.0635
 41
0.0635
 70
0
  0
VERTEX
  8
52
 10
7.3978
 20
35.1155
 30
0.0000
 42
1.0000
  0
VERTEX
  8
52
 10
7.4612
 20
35.1155
 30
0.0000
  0
SEQEND
  8
0
  0
POLYLINE
  8
52
 66
1
 10
0.0000
 20
0.0000
 30
0.0000
 40
0.1270
 41
0.1270
 70
0
  0
VERTEX
  8
52
 10
11.7475
 20
43.2435
 30
0.0000
  0
VERTEX
  8
52
 10
11.7475
 20
43.5610
 30
0.0000
  0
SEQEND
  8
0
  0
POLYLINE
  8
52
 66
1
 10
0.0000
 20
0.0000
 30
0.0000
 40
0.0635
 41
0.0635
 70
0
  0
VERTEX
  8
52
 10
11.7793
 20
43.5610
 30
0.0000
 42
1.0000
  0
VERTEX
  8
52
 10
11.7157
 20
43.5610
 30
0.0000
  0
SEQEND
  8
0
  0
POLYLINE
  8
52
 66
1
 10
0.0000
 20
0.0000
 30
0.0000
 40
0.0635
 41
0.0635
 70
0
  0
VERTEX
  8
52
 10
11.7157
 20
43.2435
 30
0.0000
 42
1.0000
  0
VERTEX
  8
52
 10
11.7793
 20
43.2435
 30
0.0000
  0
SEQEND
  8
0
  0
POLYLINE
  8
52
 66
1
 10
0.0000
 20
0.0000
 30
0.0000
 40
0.1270
 41
0.1270
 70
0
  0
VERTEX
  8
52
 10
12.3825
 20
43.5610
 30
0.0000
 42
1.0000
  0
VERTEX
  8
52
 10
11.7475
 20
43.5610
 30
0.0000
  0
SEQEND
  8
0
  0
POLYLINE
  8
52
 66
1
 10
0.0000
 20
0.0000
 30
0.0000
 40
0.0635
 41
0.0635
 70
0
  0
VERTEX
  8
52
 10
12.3507
 20
43.5610
 30
0.0000
 42
1.0000
  0
VERTEX
  8
52
 10
12.4143
 20
43.5610
 30
0.0000
  0
SEQEND
  8
0
  0
POLYLINE
  8
52
 66
1
 10
0.0000
 20
0.0000
 30
0.0000
 40
0.0635
 41
0.0635
 70
0
  0
VERTEX
  8
52
 10
11.7157
 20
43.5610
 30
0.0000
 42
1.0000
  0
VERTEX
  8
52
 10
11.7793
 20
43.5610
 30
0.0000
  0
SEQEND
  8
0
  0
POLYLINE
  8
52
 66
1
 10
0.0000
 20
0.0000
 30
0.0000
 40
0.1270
 41
0.1270
 70
0
  0
VERTEX
  8
52
 10
12.8905
 20
43.2435
 30
0.0000
  0
VERTEX
  8
52
 10
12.8905
 20
43.6245
 30
0.0000
  0
SEQEND
  8
0
  0
POLYLINE
  8
52
 66
1
 10
0.0000
 20
0.0000
 30
0.0000
 40
0.0635
 41
0.0635
 70
0
  0
VERTEX
  8
52
 10
12.9223
 20
43.6245
 30
0.0000
 42
1.0000
  0
VERTEX
  8
52
 10
12.8588
 20
43.6245
 30
0.0000
  0
SEQEND
  8
0
  0
POLYLINE
  8
52
 66
1
 10
0.0000
 20
0.0000
 30
0.0000
 40
0.0635
 41
0.0635
 70
0
  0
VERTEX
  8
52
 10
12.8588
 20
43.2435
 30
0.0000
 42
1.0000
  0
VERTEX
  8
52
 10
12.9223
 20
43.2435
 30
0.0000
  0
SEQEND
  8
0
  0
POLYLINE
  8
52
 66
1
 10
0.0000
 20
0.0000
 30
0.0000
 40
0.1270
 41
0.1270
 70
0
  0
VERTEX
  8
52
 10
12.8905
 20
43.6245
 30
0.0000
 42
1.0000
  0
VERTEX
  8
52
 10
12.3825
 20
43.6245
 30
0.0000
  0
SEQEND
  8
0
  0
POLYLINE
  8
52
 66
1
 10
0.0000
 20
0.0000
 30
0.0000
 40
0.0635
 41
0.0635
 70
0
  0
VERTEX
  8
52
 10
12.8588
 20
43.6245
 30
0.0000
 42
1.0000
  0
VERTEX
  8
52
 10
12.9223
 20
43.6245
 30
0.0000
  0
SEQEND
  8
0
  0
POLYLINE
  8
52
 66
1
 10
0.0000
 20
0.0000
 30
0.0000
 40
0.0635
 41
0.0635
 70
0
  0
VERTEX
  8
52
 10
12.3507
 20
43.6245
 30
0.0000
 42
1.0000
  0
VERTEX
  8
52
 10
12.4143
 20
43.6245
 30
0.0000
  0
SEQEND
  8
0
  0
POLYLINE
  8
52
 66
1
 10
0.0000
 20
0.0000
 30
0.0000
 40
0.1270
 41
0.1270
 70
0
  0
VERTEX
  8
52
 10
12.3825
 20
43.6245
 30
0.0000
  0
VERTEX
  8
52
 10
12.3825
 20
43.3705
 30
0.0000
  0
SEQEND
  8
0
  0
POLYLINE
  8
52
 66
1
 10
0.0000
 20
0.0000
 30
0.0000
 40
0.0635
 41
0.0635
 70
0
  0
VERTEX
  8
52
 10
12.3507
 20
43.3705
 30
0.0000
 42
1.0000
  0
VERTEX
  8
52
 10
12.4143
 20
43.3705
 30
0.0000
  0
SEQEND
  8
0
  0
POLYLINE
  8
52
 66
1
 10
0.0000
 20
0.0000
 30
0.0000
 40
0.0635
 41
0.0635
 70
0
  0
VERTEX
  8
52
 10
12.4143
 20
43.6245
 30
0.0000
 42
1.0000
  0
VERTEX
  8
52
 10
12.3507
 20
43.6245
 30
0.0000
  0
SEQEND
  8
0
  0
POLYLINE
  8
52
 66
1
 10
0.0000
 20
0.0000
 30
0.0000
 40
0.1270
 41
0.1270
 70
0
  0
VERTEX
  8
52
 10
12.8905
 20
35.3695
 30
0.0000
  0
VERTEX
  8
52
 10
12.0015
 20
35.1155
 30
0.0000
  0
SEQEND
  8
0
  0
POLYLINE
  8
52
 66
1
 10
0.0000
 20
0.0000
 30
0.0000
 40
0.0635
 41
0.0635
 70
0
  0
VERTEX
  8
52
 10
11.9928
 20
35.1460
 30
0.0000
 42
1.0000
  0
VERTEX
  8
52
 10
12.0102
 20
35.0850
 30
0.0000
  0
SEQEND
  8
0
  0
POLYLINE
  8
52
 66
1
 10
0.0000
 20
0.0000
 30
0.0000
 40
0.0635
 41
0.0635
 70
0
  0
VERTEX
  8
52
 10
12.8992
 20
35.3390
 30
0.0000
 42
1.0000
  0
VERTEX
  8
52
 10
12.8818
 20
35.4000
 30
0.0000
  0
SEQEND
  8
0
  0
POLYLINE
  8
52
 66
1
 10
0.0000
 20
0.0000
 30
0.0000
 40
0.1270
 41
0.1270
 70
0
  0
VERTEX
  8
52
 10
12.0015
 20
35.1155
 30
0.0000
  0
VERTEX
  8
52
 10
12.0015
 20
35.7505
 30
0.0000
  0
SEQEND
  8
0
  0
POLYLINE
  8
52
 66
1
 10
0.0000
 20
0.0000
 30
0.0000
 40
0.0635
 41
0.0635
 70
0
  0
VERTEX
  8
52
 10
12.0333
 20
35.7505
 30
0.0000
 42
1.0000
  0
VERTEX
  8
52
 10
11.9697
 20
35.7505
 30
0.0000
  0
SEQEND
  8
0
  0
POLYLINE
  8
52
 66
1
 10
0.0000
 20
0.0000
 30
0.0000
 40
0.0635
 41
0.0635
 70
0
  0
VERTEX
  8
52
 10
11.9697
 20
35.1155
 30
0.0000
 42
1.0000
  0
VERTEX
  8
52
 10
12.0333
 20
35.1155
 30
0.0000
  0
SEQEND
  8
0
  0
POLYLINE
  8
52
 66
1
 10
0.0000
 20
0.0000
 30
0.0000
 40
0.1270
 41
0.1270
 70
0
  0
VERTEX
  8
52
 10
12.2555
 20
35.5600
 30
0.0000
  0
VERTEX
  8
52
 10
11.7475
 20
35.5600
 30
0.0000
  0
SEQEND
  8
0
  0
POLYLINE
  8
52
 66
1
 10
0.0000
 20
0.0000
 30
0.0000
 40
0.0635
 41
0.0635
 70
0
  0
VERTEX
  8
52
 10
11.7475
 20
35.5918
 30
0.0000
 42
1.0000
  0
VERTEX
  8
52
 10
11.7475
 20
35.5282
 30
0.0000
  0
SEQEND
  8
0
  0
POLYLINE
  8
52
 66
1
 10
0.0000
 20
0.0000
 30
0.0000
 40
0.0635
 41
0.0635
 70
0
  0
VERTEX
  8
52
 10
12.2555
 20
35.5282
 30
0.0000
 42
1.0000
  0
VERTEX
  8
52
 10
12.2555
 20
35.5918
 30
0.0000
  0
SEQEND
  8
0
  0
POLYLINE
  8
22
 66
1
 10
0.0000
 20
0.0000
 30
0.0000
 40
0.1524
 41
0.1524
 70
0
  0
VERTEX
  8
22
 10
10.1600
 20
37.5920
 30
0.0000
 42
1.0000
  0
VERTEX
  8
22
 10
10.1600
 20
41.1480
 30
0.0000
 42
1.0000
  0
VERTEX
  8
22
 10
10.1600
 20
37.5920
 30
0.0000
  0
SEQEND
  8
0
  0
POLYLINE
  8
52
 66
1
 10
0.0000
 20
0.0000
 30
0.0000
 40
0.1524
 41
0.1524
 70
0
  0
VERTEX
  8
52
 10
12.3190
 20
41.0210
 30
0.0000
 42
1.0000
  0
VERTEX
  8
52
 10
12.3190
 20
42.0370
 30
0.0000
 42
1.0000
  0
VERTEX
  8
52
 10
12.3190
 20
41.0210
 30
0.0000
  0
SEQEND
  8
0
  0
POLYLINE
  8
52
 66
1
 10
0.0000
 20
0.0000
 30
0.0000
 40
0.1524
 41
0.1524
 70
0
  0
VERTEX
  8
52
 10
12.1920
 20
36.7030
 30
0.0000
 42
1.0000
  0
VERTEX
  8
52
 10
12.1920
 20
37.7190
 30
0.0000
 42
1.0000
  0
VERTEX
  8
52
 10
12.1920
 20
36.7030
 30
0.0000
  0
SEQEND
  8
0
  0
POLYLINE
  8
52
 66
1
 10
0.0000
 20
0.0000
 30
0.0000
 40
0.1524
 41
0.1524
 70
0
  0
VERTEX
  8
52
 10
8.0010
 20
36.7030
 30
0.0000
 42
1.0000
  0
VERTEX
  8
52
 10
8.0010
 20
37.7190
 30
0.0000
 42
1.0000
  0
VERTEX
  8
52
 10
8.0010
 20
36.7030
 30
0.0000
  0
SEQEND
  8
0
  0
POLYLINE
  8
52
 66
1
 10
0.0000
 20
0.0000
 30
0.0000
 40
0.1524
 41
0.1524
 70
0
  0
VERTEX
  8
52
 10
8.0010
 20
41.0210
 30
0.0000
 42
1.0000
  0
VERTEX
  8
52
 10
8.0010
 20
42.0370
 30
0.0000
 42
1.0000
  0
VERTEX
  8
52
 10
8.0010
 20
41.0210
 30
0.0000
  0
SEQEND
  8
0
  0
POLYLINE
  8
52
 66
1
 10
0.0000
 20
0.0000
 30
0.0000
 40
0.0508
 41
0.0508
 70
0
  0
VERTEX
  8
52
 10
10.1600
 20
38.7350
 30
0.0000
 42
1.0000
  0
VERTEX
  8
52
 10
10.1600
 20
40.0050
 30
0.0000
 42
1.0000
  0
VERTEX
  8
52
 10
10.1600
 20
38.7350
 30
0.0000
  0
SEQEND
  8
0
  0
POLYLINE
  8
22
 66
1
 10
0.0000
 20
0.0000
 30
0.0000
 40
0.1524
 41
0.1524
 70
0
  0
VERTEX
  8
22
 10
10.1600
 20
39.1160
 30
0.0000
 42
1.0000
  0
VERTEX
  8
22
 10
10.1600
 20
39.6240
 30
0.0000
 42
1.0000
  0
VERTEX
  8
22
 10
10.1600
 20
39.1160
 30
0.0000
  0
SEQEND
  8
0
  0
INSERT
  8
17
  2
LONGP100
 10
7.8994
 20
42.6212
 30
0.0000
 41
1.5240
 42
1.5240
 43
1.0000
 50
270.0000
  0
INSERT
  8
17
  2
LONGP100
 10
7.8994
 20
42.6212
 30
0.0000
 41
1.5240
 42
1.5240
 43
1.0000
 50
270.0000
  0
INSERT
  8
17
  2
LONGP100
 10
7.8994
 20
36.1188
 30
0.0000
 41
1.5240
 42
1.5240
 43
1.0000
 50
270.0000
  0
INSERT
  8
17
  2
LONGP100
 10
7.8994
 20
36.1188
 30
0.0000
 41
1.5240
 42
1.5240
 43
1.0000
 50
270.0000
  0
INSERT
  8
17
  2
LONGP100
 10
12.4206
 20
42.6212
 30
0.0000
 41
1.5240
 42
1.5240
 43
1.0000
 50
270.0000
  0
INSERT
  8
17
  2
LONGP100
 10
12.4206
 20
42.6212
 30
0.0000
 41
1.5240
 42
1.5240
 43
1.0000
 50
270.0000
  0
INSERT
  8
17
  2
LONGP100
 10
12.4206
 20
36.1188
 30
0.0000
 41
1.5240
 42
1.5240
 43
1.0000
 50
270.0000
  0
INSERT
  8
17
  2
LONGP100
 10
12.4206
 20
36.1188
 30
0.0000
 41
1.5240
 42
1.5240
 43
1.0000
 50
270.0000
  0
POINT
  8
24
 10
11.4300
 20
48.2600
 30
0.0000
  0
POLYLINE
  8
22
 66
1
 10
0.0000
 20
0.0000
 30
0.0000
 40
0.1270
 41
0.1270
 70
0
  0
VERTEX
  8
22
 10
8.5090
 20
46.1650
 30
0.0000
  0
VERTEX
  8
22
 10
8.5090
 20
50.3550
 30
0.0000
  0
SEQEND
  8
0
  0
POLYLINE
  8
22
 66
1
 10
0.0000
 20
0.0000
 30
0.0000
 40
0.0635
 41
0.0635
 70
0
  0
VERTEX
  8
22
 10
8.5408
 20
50.3550
 30
0.0000
 42
1.0000
  0
VERTEX
  8
22
 10
8.4772
 20
50.3550
 30
0.0000
  0
SEQEND
  8
0
  0
POLYLINE
  8
22
 66
1
 10
0.0000
 20
0.0000
 30
0.0000
 40
0.0635
 41
0.0635
 70
0
  0
VERTEX
  8
22
 10
8.4772
 20
46.1650
 30
0.0000
 42
1.0000
  0
VERTEX
  8
22
 10
8.5408
 20
46.1650
 30
0.0000
  0
SEQEND
  8
0
  0
POLYLINE
  8
22
 66
1
 10
0.0000
 20
0.0000
 30
0.0000
 40
0.1270
 41
0.1270
 70
0
  0
VERTEX
  8
22
 10
11.2959
 20
45.8470
 30
0.0000
 42
0.6345
  0
VERTEX
  8
22
 10
11.2959
 20
50.6730
 30
0.0000
  0
SEQEND
  8
0
  0
POLYLINE
  8
22
 66
1
 10
0.0000
 20
0.0000
 30
0.0000
 40
0.0635
 41
0.0635
 70
0
  0
VERTEX
  8
22
 10
11.2824
 20
45.8757
 30
0.0000
 42
1.0000
  0
VERTEX
  8
22
 10
11.3094
 20
45.8183
 30
0.0000
  0
SEQEND
  8
0
  0
POLYLINE
  8
22
 66
1
 10
0.0000
 20
0.0000
 30
0.0000
 40
0.0635
 41
0.0635
 70
0
  0
VERTEX
  8
22
 10
11.3094
 20
50.7017
 30
0.0000
 42
1.0000
  0
VERTEX
  8
22
 10
11.2824
 20
50.6443
 30
0.0000
  0
SEQEND
  8
0
  0
POLYLINE
  8
52
 66
1
 10
0.0000
 20
0.0000
 30
0.0000
 40
0.1270
 41
0.1270
 70
0
  0
VERTEX
  8
52
 10
10.0330
 20
49.3960
 30
0.0000
  0
VERTEX
  8
52
 10
10.0330
 20
47.1240
 30
0.0000
  0
SEQEND
  8
0
  0
POLYLINE
  8
52
 66
1
 10
0.0000
 20
0.0000
 30
0.0000
 40
0.0635
 41
0.0635
 70
0
  0
VERTEX
  8
52
 10
10.0013
 20
47.1240
 30
0.0000
 42
1.0000
  0
VERTEX
  8
52
 10
10.0648
 20
47.1240
 30
0.0000
  0
SEQEND
  8
0
  0
POLYLINE
  8
52
 66
1
 10
0.0000
 20
0.0000
 30
0.0000
 40
0.0635
 41
0.0635
 70
0
  0
VERTEX
  8
52
 10
10.0648
 20
49.3960
 30
0.0000
 42
1.0000
  0
VERTEX
  8
52
 10
10.0013
 20
49.3960
 30
0.0000
  0
SEQEND
  8
0
  0
POLYLINE
  8
52
 66
1
 10
0.0000
 20
0.0000
 30
0.0000
 40
0.1270
 41
0.1270
 70
0
  0
VERTEX
  8
52
 10
10.0330
 20
45.5960
 30
0.0000
 42
0.1225
  0
VERTEX
  8
52
 10
11.2959
 20
45.8470
 30
0.0000
  0
SEQEND
  8
0
  0
POLYLINE
  8
52
 66
1
 10
0.0000
 20
0.0000
 30
0.0000
 40
0.0635
 41
0.0635
 70
0
  0
VERTEX
  8
52
 10
10.0345
 20
45.6277
 30
0.0000
 42
1.0000
  0
VERTEX
  8
52
 10
10.0315
 20
45.5643
 30
0.0000
  0
SEQEND
  8
0
  0
POLYLINE
  8
52
 66
1
 10
0.0000
 20
0.0000
 30
0.0000
 40
0.0635
 41
0.0635
 70
0
  0
VERTEX
  8
52
 10
11.3094
 20
45.8183
 30
0.0000
 42
1.0000
  0
VERTEX
  8
52
 10
11.2824
 20
45.8757
 30
0.0000
  0
SEQEND
  8
0
  0
POLYLINE
  8
52
 66
1
 10
0.0000
 20
0.0000
 30
0.0000
 40
0.1270
 41
0.1270
 70
0
  0
VERTEX
  8
52
 10
9.0241
 20
45.8470
 30
0.0000
 42
0.0984
  0
VERTEX
  8
52
 10
10.0330
 20
45.5960
 30
0.0000
  0
SEQEND
  8
0
  0
POLYLINE
  8
52
 66
1
 10
0.0000
 20
0.0000
 30
0.0000
 40
0.0635
 41
0.0635
 70
0
  0
VERTEX
  8
52
 10
9.0376
 20
45.8757
 30
0.0000
 42
1.0000
  0
VERTEX
  8
52
 10
9.0106
 20
45.8183
 30
0.0000
  0
SEQEND
  8
0
  0
POLYLINE
  8
52
 66
1
 10
0.0000
 20
0.0000
 30
0.0000
 40
0.0635
 41
0.0635
 70
0
  0
VERTEX
  8
52
 10
10.0315
 20
45.5643
 30
0.0000
 42
1.0000
  0
VERTEX
  8
52
 10
10.0345
 20
45.6277
 30
0.0000
  0
SEQEND
  8
0
  0
POLYLINE
  8
52
 66
1
 10
0.0000
 20
0.0000
 30
0.0000
 40
0.1270
 41
0.1270
 70
0
  0
VERTEX
  8
52
 10
10.0330
 20
46.8560
 30
0.0000
  0
VERTEX
  8
52
 10
10.0330
 20
45.5960
 30
0.0000
  0
SEQEND
  8
0
  0
POLYLINE
  8
52
 66
1
 10
0.0000
 20
0.0000
 30
0.0000
 40
0.0635
 41
0.0635
 70
0
  0
VERTEX
  8
52
 10
10.0013
 20
45.5960
 30
0.0000
 42
1.0000
  0
VERTEX
  8
52
 10
10.0648
 20
45.5960
 30
0.0000
  0
SEQEND
  8
0
  0
POLYLINE
  8
52
 66
1
 10
0.0000
 20
0.0000
 30
0.0000
 40
0.0635
 41
0.0635
 70
0
  0
VERTEX
  8
52
 10
10.0648
 20
46.8560
 30
0.0000
 42
1.0000
  0
VERTEX
  8
52
 10
10.0013
 20
46.8560
 30
0.0000
  0
SEQEND
  8
0
  0
POLYLINE
  8
22
 66
1
 10
0.0000
 20
0.0000
 30
0.0000
 40
0.1270
 41
0.1270
 70
0
  0
VERTEX
  8
22
 10
8.5090
 20
46.1650
 30
0.0000
 42
0.0570
  0
VERTEX
  8
22
 10
9.0241
 20
45.8465
 30
0.0000
  0
SEQEND
  8
0
  0
POLYLINE
  8
22
 66
1
 10
0.0000
 20
0.0000
 30
0.0000
 40
0.0635
 41
0.0635
 70
0
  0
VERTEX
  8
22
 10
8.5287
 20
46.1899
 30
0.0000
 42
1.0000
  0
VERTEX
  8
22
 10
8.4893
 20
46.1401
 30
0.0000
  0
SEQEND
  8
0
  0
POLYLINE
  8
22
 66
1
 10
0.0000
 20
0.0000
 30
0.0000
 40
0.0635
 41
0.0635
 70
0
  0
VERTEX
  8
22
 10
9.0106
 20
45.8178
 30
0.0000
 42
1.0000
  0
VERTEX
  8
22
 10
9.0376
 20
45.8752
 30
0.0000
  0
SEQEND
  8
0
  0
POLYLINE
  8
22
 66
1
 10
0.0000
 20
0.0000
 30
0.0000
 40
0.1270
 41
0.1270
 70
0
  0
VERTEX
  8
22
 10
10.0330
 20
47.1240
 30
0.0000
  0
VERTEX
  8
22
 10
10.0330
 20
46.8560
 30
0.0000
  0
SEQEND
  8
0
  0
POLYLINE
  8
22
 66
1
 10
0.0000
 20
0.0000
 30
0.0000
 40
0.0635
 41
0.0635
 70
0
  0
VERTEX
  8
22
 10
10.0013
 20
46.8560
 30
0.0000
 42
1.0000
  0
VERTEX
  8
22
 10
10.0648
 20
46.8560
 30
0.0000
  0
SEQEND
  8
0
  0
POLYLINE
  8
22
 66
1
 10
0.0000
 20
0.0000
 30
0.0000
 40
0.0635
 41
0.0635
 70
0
  0
VERTEX
  8
22
 10
10.0648
 20
47.1240
 30
0.0000
 42
1.0000
  0
VERTEX
  8
22
 10
10.0013
 20
47.1240
 30
0.0000
  0
SEQEND
  8
0
  0
POLYLINE
  8
52
 66
1
 10
0.0000
 20
0.0000
 30
0.0000
 40
0.1270
 41
0.1270
 70
0
  0
VERTEX
  8
52
 10
10.0330
 20
50.9240
 30
0.0000
 42
0.0984
  0
VERTEX
  8
52
 10
9.0241
 20
50.6730
 30
0.0000
  0
SEQEND
  8
0
  0
POLYLINE
  8
52
 66
1
 10
0.0000
 20
0.0000
 30
0.0000
 40
0.0635
 41
0.0635
 70
0
  0
VERTEX
  8
52
 10
10.0345
 20
50.8923
 30
0.0000
 42
1.0000
  0
VERTEX
  8
52
 10
10.0315
 20
50.9557
 30
0.0000
  0
SEQEND
  8
0
  0
POLYLINE
  8
52
 66
1
 10
0.0000
 20
0.0000
 30
0.0000
 40
0.0635
 41
0.0635
 70
0
  0
VERTEX
  8
52
 10
9.0106
 20
50.7017
 30
0.0000
 42
1.0000
  0
VERTEX
  8
52
 10
9.0376
 20
50.6443
 30
0.0000
  0
SEQEND
  8
0
  0
POLYLINE
  8
52
 66
1
 10
0.0000
 20
0.0000
 30
0.0000
 40
0.1270
 41
0.1270
 70
0
  0
VERTEX
  8
52
 10
11.2959
 20
50.6730
 30
0.0000
 42
0.1225
  0
VERTEX
  8
52
 10
10.0330
 20
50.9240
 30
0.0000
  0
SEQEND
  8
0
  0
POLYLINE
  8
52
 66
1
 10
0.0000
 20
0.0000
 30
0.0000
 40
0.0635
 41
0.0635
 70
0
  0
VERTEX
  8
52
 10
11.2824
 20
50.6443
 30
0.0000
 42
1.0000
  0
VERTEX
  8
52
 10
11.3094
 20
50.7017
 30
0.0000
  0
SEQEND
  8
0
  0
POLYLINE
  8
52
 66
1
 10
0.0000
 20
0.0000
 30
0.0000
 40
0.0635
 41
0.0635
 70
0
  0
VERTEX
  8
52
 10
10.0315
 20
50.9557
 30
0.0000
 42
1.0000
  0
VERTEX
  8
52
 10
10.0345
 20
50.8923
 30
0.0000
  0
SEQEND
  8
0
  0
POLYLINE
  8
52
 66
1
 10
0.0000
 20
0.0000
 30
0.0000
 40
0.1270
 41
0.1270
 70
0
  0
VERTEX
  8
52
 10
10.0330
 20
50.9240
 30
0.0000
  0
VERTEX
  8
52
 10
10.0330
 20
49.6640
 30
0.0000
  0
SEQEND
  8
0
  0
POLYLINE
  8
52
 66
1
 10
0.0000
 20
0.0000
 30
0.0000
 40
0.0635
 41
0.0635
 70
0
  0
VERTEX
  8
52
 10
10.0013
 20
49.6640
 30
0.0000
 42
1.0000
  0
VERTEX
  8
52
 10
10.0648
 20
49.6640
 30
0.0000
  0
SEQEND
  8
0
  0
POLYLINE
  8
52
 66
1
 10
0.0000
 20
0.0000
 30
0.0000
 40
0.0635
 41
0.0635
 70
0
  0
VERTEX
  8
52
 10
10.0648
 20
50.9240
 30
0.0000
 42
1.0000
  0
VERTEX
  8
52
 10
10.0013
 20
50.9240
 30
0.0000
  0
SEQEND
  8
0
  0
POLYLINE
  8
22
 66
1
 10
0.0000
 20
0.0000
 30
0.0000
 40
0.1270
 41
0.1270
 70
0
  0
VERTEX
  8
22
 10
10.0330
 20
49.6640
 30
0.0000
  0
VERTEX
  8
22
 10
10.0330
 20
49.3960
 30
0.0000
  0
SEQEND
  8
0
  0
POLYLINE
  8
22
 66
1
 10
0.0000
 20
0.0000
 30
0.0000
 40
0.0635
 41
0.0635
 70
0
  0
VERTEX
  8
22
 10
10.0013
 20
49.3960
 30
0.0000
 42
1.0000
  0
VERTEX
  8
22
 10
10.0648
 20
49.3960
 30
0.0000
  0
SEQEND
  8
0
  0
POLYLINE
  8
22
 66
1
 10
0.0000
 20
0.0000
 30
0.0000
 40
0.0635
 41
0.0635
 70
0
  0
VERTEX
  8
22
 10
10.0648
 20
49.6640
 30
0.0000
 42
1.0000
  0
VERTEX
  8
22
 10
10.0013
 20
49.6640
 30
0.0000
  0
SEQEND
  8
0
  0
POLYLINE
  8
22
 66
1
 10
0.0000
 20
0.0000
 30
0.0000
 40
0.1270
 41
0.1270
 70
0
  0
VERTEX
  8
22
 10
9.0482
 20
50.6847
 30
0.0000
 42
0.0595
  0
VERTEX
  8
22
 10
8.5090
 20
50.3550
 30
0.0000
  0
SEQEND
  8
0
  0
POLYLINE
  8
22
 66
1
 10
0.0000
 20
0.0000
 30
0.0000
 40
0.0635
 41
0.0635
 70
0
  0
VERTEX
  8
22
 10
9.0614
 20
50.6558
 30
0.0000
 42
1.0000
  0
VERTEX
  8
22
 10
9.0350
 20
50.7136
 30
0.0000
  0
SEQEND
  8
0
  0
POLYLINE
  8
22
 66
1
 10
0.0000
 20
0.0000
 30
0.0000
 40
0.0635
 41
0.0635
 70
0
  0
VERTEX
  8
22
 10
8.4893
 20
50.3799
 30
0.0000
 42
1.0000
  0
VERTEX
  8
22
 10
8.5287
 20
50.3301
 30
0.0000
  0
SEQEND
  8
0
  0
POLYLINE
  8
26
 66
1
 10
0.0000
 20
0.0000
 30
0.0000
 40
0.1270
 41
0.1270
 70
0
  0
VERTEX
  8
26
 10
13.2715
 20
46.1010
 30
0.0000
  0
VERTEX
  8
26
 10
14.4145
 20
46.1010
 30
0.0000
  0
SEQEND
  8
0
  0
POLYLINE
  8
26
 66
1
 10
0.0000
 20
0.0000
 30
0.0000
 40
0.0635
 41
0.0635
 70
0
  0
VERTEX
  8
26
 10
14.4145
 20
46.0692
 30
0.0000
 42
1.0000
  0
VERTEX
  8
26
 10
14.4145
 20
46.1328
 30
0.0000
  0
SEQEND
  8
0
  0
POLYLINE
  8
26
 66
1
 10
0.0000
 20
0.0000
 30
0.0000
 40
0.0635
 41
0.0635
 70
0
  0
VERTEX
  8
26
 10
13.2715
 20
46.1328
 30
0.0000
 42
1.0000
  0
VERTEX
  8
26
 10
13.2715
 20
46.0692
 30
0.0000
  0
SEQEND
  8
0
  0
POLYLINE
  8
26
 66
1
 10
0.0000
 20
0.0000
 30
0.0000
 40
0.1270
 41
0.1270
 70
0
  0
VERTEX
  8
26
 10
14.4145
 20
45.7835
 30
0.0000
  0
VERTEX
  8
26
 10
14.4145
 20
46.4185
 30
0.0000
  0
SEQEND
  8
0
  0
POLYLINE
  8
26
 66
1
 10
0.0000
 20
0.0000
 30
0.0000
 40
0.0635
 41
0.0635
 70
0
  0
VERTEX
  8
26
 10
14.4463
 20
46.4185
 30
0.0000
 42
1.0000
  0
VERTEX
  8
26
 10
14.3827
 20
46.4185
 30
0.0000
  0
SEQEND
  8
0
  0
POLYLINE
  8
26
 66
1
 10
0.0000
 20
0.0000
 30
0.0000
 40
0.0635
 41
0.0635
 70
0
  0
VERTEX
  8
26
 10
14.3827
 20
45.7835
 30
0.0000
 42
1.0000
  0
VERTEX
  8
26
 10
14.4463
 20
45.7835
 30
0.0000
  0
SEQEND
  8
0
  0
POLYLINE
  8
26
 66
1
 10
0.0000
 20
0.0000
 30
0.0000
 40
0.1270
 41
0.1270
 70
0
  0
VERTEX
  8
26
 10
14.1605
 20
46.8503
 30
0.0000
  0
VERTEX
  8
26
 10
14.4145
 20
47.1678
 30
0.0000
  0
SEQEND
  8
0
  0
POLYLINE
  8
26
 66
1
 10
0.0000
 20
0.0000
 30
0.0000
 40
0.0635
 41
0.0635
 70
0
  0
VERTEX
  8
26
 10
14.4393
 20
47.1480
 30
0.0000
 42
1.0000
  0
VERTEX
  8
26
 10
14.3897
 20
47.1876
 30
0.0000
  0
SEQEND
  8
0
  0
POLYLINE
  8
26
 66
1
 10
0.0000
 20
0.0000
 30
0.0000
 40
0.0635
 41
0.0635
 70
0
  0
VERTEX
  8
26
 10
14.1357
 20
46.8701
 30
0.0000
 42
1.0000
  0
VERTEX
  8
26
 10
14.1853
 20
46.8305
 30
0.0000
  0
SEQEND
  8
0
  0
POLYLINE
  8
26
 66
1
 10
0.0000
 20
0.0000
 30
0.0000
 40
0.1270
 41
0.1270
 70
0
  0
VERTEX
  8
26
 10
14.4145
 20
47.1678
 30
0.0000
  0
VERTEX
  8
26
 10
13.2715
 20
47.1678
 30
0.0000
  0
SEQEND
  8
0
  0
POLYLINE
  8
26
 66
1
 10
0.0000
 20
0.0000
 30
0.0000
 40
0.0635
 41
0.0635
 70
0
  0
VERTEX
  8
26
 10
13.2715
 20
47.1996
 30
0.0000
 42
1.0000
  0
VERTEX
  8
26
 10
13.2715
 20
47.1360
 30
0.0000
  0
SEQEND
  8
0
  0
POLYLINE
  8
26
 66
1
 10
0.0000
 20
0.0000
 30
0.0000
 40
0.0635
 41
0.0635
 70
0
  0
VERTEX
  8
26
 10
14.4145
 20
47.1360
 30
0.0000
 42
1.0000
  0
VERTEX
  8
26
 10
14.4145
 20
47.1996
 30
0.0000
  0
SEQEND
  8
0
  0
POLYLINE
  8
26
 66
1
 10
0.0000
 20
0.0000
 30
0.0000
 40
0.1270
 41
0.1270
 70
0
  0
VERTEX
  8
26
 10
13.2715
 20
46.8503
 30
0.0000
  0
VERTEX
  8
26
 10
13.2715
 20
47.4853
 30
0.0000
  0
SEQEND
  8
0
  0
POLYLINE
  8
26
 66
1
 10
0.0000
 20
0.0000
 30
0.0000
 40
0.0635
 41
0.0635
 70
0
  0
VERTEX
  8
26
 10
13.3033
 20
47.4853
 30
0.0000
 42
1.0000
  0
VERTEX
  8
26
 10
13.2398
 20
47.4853
 30
0.0000
  0
SEQEND
  8
0
  0
POLYLINE
  8
26
 66
1
 10
0.0000
 20
0.0000
 30
0.0000
 40
0.0635
 41
0.0635
 70
0
  0
VERTEX
  8
26
 10
13.2398
 20
46.8503
 30
0.0000
 42
1.0000
  0
VERTEX
  8
26
 10
13.3033
 20
46.8503
 30
0.0000
  0
SEQEND
  8
0
  0
INSERT
  8
17
  2
LONGP100
 10
10.1600
 20
48.2600
 30
0.0000
 41
1.3208
 42
1.3208
 43
1.0000
 50
0.0000
  0
INSERT
  8
17
  2
LONGP100
 10
10.1600
 20
48.2600
 30
0.0000
 41
1.3208
 42
1.3208
 43
1.0000
 50
0.0000
  0
INSERT
  8
17
  2
LONGP100
 10
10.1600
 20
50.8000
 30
0.0000
 41
1.3208
 42
1.3208
 43
1.0000
 50
0.0000
  0
INSERT
  8
17
  2
LONGP100
 10
10.1600
 20
50.8000
 30
0.0000
 41
1.3208
 42
1.3208
 43
1.0000
 50
0.0000
  0
INSERT
  8
17
  2
LONGP100
 10
10.1600
 20
45.7200
 30
0.0000
 41
1.3208
 42
1.3208
 43
1.0000
 50
0.0000
  0
INSERT
  8
17
  2
LONGP100
 10
10.1600
 20
45.7200
 30
0.0000
 41
1.3208
 42
1.3208
 43
1.0000
 50
0.0000
  0
POINT
  8
23
 10
10.1600
 20
62.2300
 30
0.0000
  0
POLYLINE
  8
21
 66
1
 10
0.0000
 20
0.0000
 30
0.0000
 40
0.1270
 41
0.1270
 70
0
  0
VERTEX
  8
21
 10
3.1600
 20
77.2300
 30
0.0000
  0
VERTEX
  8
21
 10
3.1600
 20
69.6100
 30
0.0000
  0
SEQEND
  8
0
  0
POLYLINE
  8
21
 66
1
 10
0.0000
 20
0.0000
 30
0.0000
 40
0.0635
 41
0.0635
 70
0
  0
VERTEX
  8
21
 10
3.1282
 20
69.6100
 30
0.0000
 42
1.0000
  0
VERTEX
  8
21
 10
3.1918
 20
69.6100
 30
0.0000
  0
SEQEND
  8
0
  0
POLYLINE
  8
21
 66
1
 10
0.0000
 20
0.0000
 30
0.0000
 40
0.0635
 41
0.0635
 70
0
  0
VERTEX
  8
21
 10
3.1918
 20
77.2300
 30
0.0000
 42
1.0000
  0
VERTEX
  8
21
 10
3.1282
 20
77.2300
 30
0.0000
  0
SEQEND
  8
0
  0
POLYLINE
  8
21
 66
1
 10
0.0000
 20
0.0000
 30
0.0000
 40
0.1270
 41
0.1270
 70
0
  0
VERTEX
  8
21
 10
3.1600
 20
69.6100
 30
0.0000
  0
VERTEX
  8
21
 10
3.1600
 20
52.4650
 30
0.0000
  0
SEQEND
  8
0
  0
POLYLINE
  8
21
 66
1
 10
0.0000
 20
0.0000
 30
0.0000
 40
0.0635
 41
0.0635
 70
0
  0
VERTEX
  8
21
 10
3.1282
 20
52.4650
 30
0.0000
 42
1.0000
  0
VERTEX
  8
21
 10
3.1918
 20
52.4650
 30
0.0000
  0
SEQEND
  8
0
  0
POLYLINE
  8
21
 66
1
 10
0.0000
 20
0.0000
 30
0.0000
 40
0.0635
 41
0.0635
 70
0
  0
VERTEX
  8
21
 10
3.1918
 20
69.6100
 30
0.0000
 42
1.0000
  0
VERTEX
  8
21
 10
3.1282
 20
69.6100
 30
0.0000
  0
SEQEND
  8
0
  0
POLYLINE
  8
21
 66
1
 10
0.0000
 20
0.0000
 30
0.0000
 40
0.1270
 41
0.1270
 70
0
  0
VERTEX
  8
21
 10
3.1600
 20
52.4650
 30
0.0000
  0
VERTEX
  8
21
 10
17.4475
 20
52.4650
 30
0.0000
  0
SEQEND
  8
0
  0
POLYLINE
  8
21
 66
1
 10
0.0000
 20
0.0000
 30
0.0000
 40
0.0635
 41
0.0635
 70
0
  0
VERTEX
  8
21
 10
17.4475
 20
52.4333
 30
0.0000
 42
1.0000
  0
VERTEX
  8
21
 10
17.4475
 20
52.4968
 30
0.0000
  0
SEQEND
  8
0
  0
POLYLINE
  8
21
 66
1
 10
0.0000
 20
0.0000
 30
0.0000
 40
0.0635
 41
0.0635
 70
0
  0
VERTEX
  8
21
 10
3.1600
 20
52.4968
 30
0.0000
 42
1.0000
  0
VERTEX
  8
21
 10
3.1600
 20
52.4333
 30
0.0000
  0
SEQEND
  8
0
  0
POLYLINE
  8
21
 66
1
 10
0.0000
 20
0.0000
 30
0.0000
 40
0.1270
 41
0.1270
 70
0
  0
VERTEX
  8
21
 10
17.4475
 20
52.4650
 30
0.0000
  0
VERTEX
  8
21
 10
17.4475
 20
69.6100
 30
0.0000
  0
SEQEND
  8
0
  0
POLYLINE
  8
21
 66
1
 10
0.0000
 20
0.0000
 30
0.0000
 40
0.0635
 41
0.0635
 70
0
  0
VERTEX
  8
21
 10
17.4793
 20
69.6100
 30
0.0000
 42
1.0000
  0
VERTEX
  8
21
 10
17.4158
 20
69.6100
 30
0.0000
  0
SEQEND
  8
0
  0
POLYLINE
  8
21
 66
1
 10
0.0000
 20
0.0000
 30
0.0000
 40
0.0635
 41
0.0635
 70
0
  0
VERTEX
  8
21
 10
17.4158
 20
52.4650
 30
0.0000
 42
1.0000
  0
VERTEX
  8
21
 10
17.4793
 20
52.4650
 30
0.0000
  0
SEQEND
  8
0
  0
POLYLINE
  8
21
 66
1
 10
0.0000
 20
0.0000
 30
0.0000
 40
0.1270
 41
0.1270
 70
0
  0
VERTEX
  8
21
 10
17.4475
 20
69.6100
 30
0.0000
  0
VERTEX
  8
21
 10
17.4475
 20
77.2300
 30
0.0000
  0
SEQEND
  8
0
  0
POLYLINE
  8
21
 66
1
 10
0.0000
 20
0.0000
 30
0.0000
 40
0.0635
 41
0.0635
 70
0
  0
VERTEX
  8
21
 10
17.4793
 20
77.2300
 30
0.0000
 42
1.0000
  0
VERTEX
  8
21
 10
17.4158
 20
77.2300
 30
0.0000
  0
SEQEND
  8
0
  0
POLYLINE
  8
21
 66
1
 10
0.0000
 20
0.0000
 30
0.0000
 40
0.0635
 41
0.0635
 70
0
  0
VERTEX
  8
21
 10
17.4158
 20
69.6100
 30
0.0000
 42
1.0000
  0
VERTEX
  8
21
 10
17.4793
 20
69.6100
 30
0.0000
  0
SEQEND
  8
0
  0
POLYLINE
  8
21
 66
1
 10
0.0000
 20
0.0000
 30
0.0000
 40
0.1270
 41
0.1270
 70
0
  0
VERTEX
  8
21
 10
17.4475
 20
77.2300
 30
0.0000
  0
VERTEX
  8
21
 10
3.1600
 20
77.2300
 30
0.0000
  0
SEQEND
  8
0
  0
POLYLINE
  8
21
 66
1
 10
0.0000
 20
0.0000
 30
0.0000
 40
0.0635
 41
0.0635
 70
0
  0
VERTEX
  8
21
 10
3.1600
 20
77.2618
 30
0.0000
 42
1.0000
  0
VERTEX
  8
21
 10
3.1600
 20
77.1983
 30
0.0000
  0
SEQEND
  8
0
  0
POLYLINE
  8
21
 66
1
 10
0.0000
 20
0.0000
 30
0.0000
 40
0.0635
 41
0.0635
 70
0
  0
VERTEX
  8
21
 10
17.4475
 20
77.1983
 30
0.0000
 42
1.0000
  0
VERTEX
  8
21
 10
17.4475
 20
77.2618
 30
0.0000
  0
SEQEND
  8
0
  0
POLYLINE
  8
21
 66
1
 10
0.0000
 20
0.0000
 30
0.0000
 40
0.1270
 41
0.1270
 70
0
  0
VERTEX
  8
21
 10
3.1600
 20
69.6100
 30
0.0000
  0
VERTEX
  8
21
 10
17.4475
 20
69.6100
 30
0.0000
  0
SEQEND
  8
0
  0
POLYLINE
  8
21
 66
1
 10
0.0000
 20
0.0000
 30
0.0000
 40
0.0635
 41
0.0635
 70
0
  0
VERTEX
  8
21
 10
17.4475
 20
69.5782
 30
0.0000
 42
1.0000
  0
VERTEX
  8
21
 10
17.4475
 20
69.6418
 30
0.0000
  0
SEQEND
  8
0
  0
POLYLINE
  8
21
 66
1
 10
0.0000
 20
0.0000
 30
0.0000
 40
0.0635
 41
0.0635
 70
0
  0
VERTEX
  8
21
 10
3.1600
 20
69.6418
 30
0.0000
 42
1.0000
  0
VERTEX
  8
21
 10
3.1600
 20
69.5782
 30
0.0000
  0
SEQEND
  8
0
  0
POLYLINE
  8
21
 66
1
 10
0.0000
 20
0.0000
 30
0.0000
 40
0.2032
 41
0.2032
 70
0
  0
VERTEX
  8
21
 10
5.5702
 20
72.2516
 30
0.0000
  0
VERTEX
  8
21
 10
4.5316
 20
72.2516
 30
0.0000
  0
SEQEND
  8
0
  0
POLYLINE
  8
21
 66
1
 10
0.0000
 20
0.0000
 30
0.0000
 40
0.1016
 41
0.1016
 70
0
  0
VERTEX
  8
21
 10
4.5316
 20
72.3024
 30
0.0000
 42
1.0000
  0
VERTEX
  8
21
 10
4.5316
 20
72.2008
 30
0.0000
  0
SEQEND
  8
0
  0
POLYLINE
  8
21
 66
1
 10
0.0000
 20
0.0000
 30
0.0000
 40
0.1016
 41
0.1016
 70
0
  0
VERTEX
  8
21
 10
5.5702
 20
72.2008
 30
0.0000
 42
1.0000
  0
VERTEX
  8
21
 10
5.5702
 20
72.3024
 30
0.0000
  0
SEQEND
  8
0
  0
POLYLINE
  8
21
 66
1
 10
0.0000
 20
0.0000
 30
0.0000
 40
0.2032
 41
0.2032
 70
0
  0
VERTEX
  8
21
 10
4.5316
 20
72.2516
 30
0.0000
  0
VERTEX
  8
21
 10
4.5316
 20
74.5884
 30
0.0000
  0
SEQEND
  8
0
  0
POLYLINE
  8
21
 66
1
 10
0.0000
 20
0.0000
 30
0.0000
 40
0.1016
 41
0.1016
 70
0
  0
VERTEX
  8
21
 10
4.5824
 20
74.5884
 30
0.0000
 42
1.0000
  0
VERTEX
  8
21
 10
4.4808
 20
74.5884
 30
0.0000
  0
SEQEND
  8
0
  0
POLYLINE
  8
21
 66
1
 10
0.0000
 20
0.0000
 30
0.0000
 40
0.1016
 41
0.1016
 70
0
  0
VERTEX
  8
21
 10
4.4808
 20
72.2516
 30
0.0000
 42
1.0000
  0
VERTEX
  8
21
 10
4.5824
 20
72.2516
 30
0.0000
  0
SEQEND
  8
0
  0
POLYLINE
  8
21
 66
1
 10
0.0000
 20
0.0000
 30
0.0000
 40
0.2032
 41
0.2032
 70
0
  0
VERTEX
  8
21
 10
4.5316
 20
74.5884
 30
0.0000
  0
VERTEX
  8
21
 10
5.5702
 20
74.5884
 30
0.0000
  0
SEQEND
  8
0
  0
POLYLINE
  8
21
 66
1
 10
0.0000
 20
0.0000
 30
0.0000
 40
0.1016
 41
0.1016
 70
0
  0
VERTEX
  8
21
 10
5.5702
 20
74.5376
 30
0.0000
 42
1.0000
  0
VERTEX
  8
21
 10
5.5702
 20
74.6392
 30
0.0000
  0
SEQEND
  8
0
  0
POLYLINE
  8
21
 66
1
 10
0.0000
 20
0.0000
 30
0.0000
 40
0.1016
 41
0.1016
 70
0
  0
VERTEX
  8
21
 10
4.5316
 20
74.6392
 30
0.0000
 42
1.0000
  0
VERTEX
  8
21
 10
4.5316
 20
74.5376
 30
0.0000
  0
SEQEND
  8
0
  0
POLYLINE
  8
21
 66
1
 10
0.0000
 20
0.0000
 30
0.0000
 40
0.2032
 41
0.2032
 70
0
  0
VERTEX
  8
21
 10
4.5316
 20
73.5498
 30
0.0000
  0
VERTEX
  8
21
 10
5.3105
 20
73.5498
 30
0.0000
  0
SEQEND
  8
0
  0
POLYLINE
  8
21
 66
1
 10
0.0000
 20
0.0000
 30
0.0000
 40
0.1016
 41
0.1016
 70
0
  0
VERTEX
  8
21
 10
5.3105
 20
73.4990
 30
0.0000
 42
1.0000
  0
VERTEX
  8
21
 10
5.3105
 20
73.6006
 30
0.0000
  0
SEQEND
  8
0
  0
POLYLINE
  8
21
 66
1
 10
0.0000
 20
0.0000
 30
0.0000
 40
0.1016
 41
0.1016
 70
0
  0
VERTEX
  8
21
 10
4.5316
 20
73.6006
 30
0.0000
 42
1.0000
  0
VERTEX
  8
21
 10
4.5316
 20
73.4990
 30
0.0000
  0
SEQEND
  8
0
  0
POLYLINE
  8
21
 66
1
 10
0.0000
 20
0.0000
 30
0.0000
 40
0.2032
 41
0.2032
 70
0
  0
VERTEX
  8
21
 10
6.9784
 20
72.2516
 30
0.0000
 42
0.4142
  0
VERTEX
  8
21
 10
7.4977
 20
72.7709
 30
0.0000
  0
SEQEND
  8
0
  0
POLYLINE
  8
21
 66
1
 10
0.0000
 20
0.0000
 30
0.0000
 40
0.1016
 41
0.1016
 70
0
  0
VERTEX
  8
21
 10
6.9784
 20
72.3024
 30
0.0000
 42
1.0000
  0
VERTEX
  8
21
 10
6.9784
 20
72.2008
 30
0.0000
  0
SEQEND
  8
0
  0
POLYLINE
  8
21
 66
1
 10
0.0000
 20
0.0000
 30
0.0000
 40
0.1016
 41
0.1016
 70
0
  0
VERTEX
  8
21
 10
7.5485
 20
72.7709
 30
0.0000
 42
1.0000
  0
VERTEX
  8
21
 10
7.4469
 20
72.7709
 30
0.0000
  0
SEQEND
  8
0
  0
POLYLINE
  8
21
 66
1
 10
0.0000
 20
0.0000
 30
0.0000
 40
0.2032
 41
0.2032
 70
0
  0
VERTEX
  8
21
 10
6.1995
 20
72.5762
 30
0.0000
 42
0.2000
  0
VERTEX
  8
21
 10
6.9784
 20
72.2516
 30
0.0000
  0
SEQEND
  8
0
  0
POLYLINE
  8
21
 66
1
 10
0.0000
 20
0.0000
 30
0.0000
 40
0.1016
 41
0.1016
 70
0
  0
VERTEX
  8
21
 10
6.2355
 20
72.6119
 30
0.0000
 42
1.0000
  0
VERTEX
  8
21
 10
6.1634
 20
72.5404
 30
0.0000
  0
SEQEND
  8
0
  0
POLYLINE
  8
21
 66
1
 10
0.0000
 20
0.0000
 30
0.0000
 40
0.1016
 41
0.1016
 70
0
  0
VERTEX
  8
21
 10
6.9784
 20
72.2008
 30
0.0000
 42
1.0000
  0
VERTEX
  8
21
 10
6.9784
 20
72.3024
 30
0.0000
  0
SEQEND
  8
0
  0
POLYLINE
  8
21
 66
1
 10
0.0000
 20
0.0000
 30
0.0000
 40
0.2032
 41
0.2032
 70
0
  0
VERTEX
  8
21
 10
6.7837
 20
74.5884
 30
0.0000
 42
0.4142
  0
VERTEX
  8
21
 10
6.2644
 20
74.0691
 30
0.0000
  0
SEQEND
  8
0
  0
POLYLINE
  8
21
 66
1
 10
0.0000
 20
0.0000
 30
0.0000
 40
0.1016
 41
0.1016
 70
0
  0
VERTEX
  8
21
 10
6.7837
 20
74.5376
 30
0.0000
 42
1.0000
  0
VERTEX
  8
21
 10
6.7837
 20
74.6392
 30
0.0000
  0
SEQEND
  8
0
  0
POLYLINE
  8
21
 66
1
 10
0.0000
 20
0.0000
 30
0.0000
 40
0.1016
 41
0.1016
 70
0
  0
VERTEX
  8
21
 10
6.2136
 20
74.0691
 30
0.0000
 42
1.0000
  0
VERTEX
  8
21
 10
6.3152
 20
74.0691
 30
0.0000
  0
SEQEND
  8
0
  0
POLYLINE
  8
21
 66
1
 10
0.0000
 20
0.0000
 30
0.0000
 40
0.2032
 41
0.2032
 70
0
  0
VERTEX
  8
21
 10
7.3679
 20
74.3937
 30
0.0000
 42
0.1623
  0
VERTEX
  8
21
 10
6.7837
 20
74.5884
 30
0.0000
  0
SEQEND
  8
0
  0
POLYLINE
  8
21
 66
1
 10
0.0000
 20
0.0000
 30
0.0000
 40
0.1016
 41
0.1016
 70
0
  0
VERTEX
  8
21
 10
7.3374
 20
74.3530
 30
0.0000
 42
1.0000
  0
VERTEX
  8
21
 10
7.3983
 20
74.4343
 30
0.0000
  0
SEQEND
  8
0
  0
POLYLINE
  8
21
 66
1
 10
0.0000
 20
0.0000
 30
0.0000
 40
0.1016
 41
0.1016
 70
0
  0
VERTEX
  8
21
 10
6.7837
 20
74.6392
 30
0.0000
 42
1.0000
  0
VERTEX
  8
21
 10
6.7837
 20
74.5376
 30
0.0000
  0
SEQEND
  8
0
  0
POLYLINE
  8
21
 66
1
 10
0.0000
 20
0.0000
 30
0.0000
 40
0.2032
 41
0.2032
 70
0
  0
VERTEX
  8
21
 10
6.2644
 20
74.0691
 30
0.0000
 42
0.2656
  0
VERTEX
  8
21
 10
6.5240
 20
73.6147
 30
0.0000
  0
SEQEND
  8
0
  0
POLYLINE
  8
21
 66
1
 10
0.0000
 20
0.0000
 30
0.0000
 40
0.1016
 41
0.1016
 70
0
  0
VERTEX
  8
21
 10
6.3152
 20
74.0691
 30
0.0000
 42
1.0000
  0
VERTEX
  8
21
 10
6.2136
 20
74.0691
 30
0.0000
  0
SEQEND
  8
0
  0
POLYLINE
  8
21
 66
1
 10
0.0000
 20
0.0000
 30
0.0000
 40
0.1016
 41
0.1016
 70
0
  0
VERTEX
  8
21
 10
6.4982
 20
73.5710
 30
0.0000
 42
1.0000
  0
VERTEX
  8
21
 10
6.5498
 20
73.6585
 30
0.0000
  0
SEQEND
  8
0
  0
POLYLINE
  8
21
 66
1
 10
0.0000
 20
0.0000
 30
0.0000
 40
0.2032
 41
0.2032
 70
0
  0
VERTEX
  8
21
 10
7.4977
 20
72.7709
 30
0.0000
 42
0.2656
  0
VERTEX
  8
21
 10
7.2380
 20
73.2253
 30
0.0000
  0
SEQEND
  8
0
  0
POLYLINE
  8
21
 66
1
 10
0.0000
 20
0.0000
 30
0.0000
 40
0.1016
 41
0.1016
 70
0
  0
VERTEX
  8
21
 10
7.4469
 20
72.7709
 30
0.0000
 42
1.0000
  0
VERTEX
  8
21
 10
7.5485
 20
72.7709
 30
0.0000
  0
SEQEND
  8
0
  0
POLYLINE
  8
21
 66
1
 10
0.0000
 20
0.0000
 30
0.0000
 40
0.1016
 41
0.1016
 70
0
  0
VERTEX
  8
21
 10
7.2638
 20
73.2690
 30
0.0000
 42
1.0000
  0
VERTEX
  8
21
 10
7.2123
 20
73.1815
 30
0.0000
  0
SEQEND
  8
0
  0
POLYLINE
  8
21
 66
1
 10
0.0000
 20
0.0000
 30
0.0000
 40
0.2032
 41
0.2032
 70
0
  0
VERTEX
  8
21
 10
7.2380
 20
73.2253
 30
0.0000
  0
VERTEX
  8
21
 10
6.5240
 20
73.6147
 30
0.0000
  0
SEQEND
  8
0
  0
POLYLINE
  8
21
 66
1
 10
0.0000
 20
0.0000
 30
0.0000
 40
0.1016
 41
0.1016
 70
0
  0
VERTEX
  8
21
 10
6.5483
 20
73.6593
 30
0.0000
 42
1.0000
  0
VERTEX
  8
21
 10
6.4997
 20
73.5701
 30
0.0000
  0
SEQEND
  8
0
  0
POLYLINE
  8
21
 66
1
 10
0.0000
 20
0.0000
 30
0.0000
 40
0.1016
 41
0.1016
 70
0
  0
VERTEX
  8
21
 10
7.2137
 20
73.1807
 30
0.0000
 42
1.0000
  0
VERTEX
  8
21
 10
7.2624
 20
73.2699
 30
0.0000
  0
SEQEND
  8
0
  0
POLYLINE
  8
21
 66
1
 10
0.0000
 20
0.0000
 30
0.0000
 40
0.2032
 41
0.2032
 70
0
  0
VERTEX
  8
21
 10
8.3021
 20
72.2516
 30
0.0000
  0
VERTEX
  8
21
 10
8.3021
 20
74.5884
 30
0.0000
  0
SEQEND
  8
0
  0
POLYLINE
  8
21
 66
1
 10
0.0000
 20
0.0000
 30
0.0000
 40
0.1016
 41
0.1016
 70
0
  0
VERTEX
  8
21
 10
8.3529
 20
74.5884
 30
0.0000
 42
1.0000
  0
VERTEX
  8
21
 10
8.2513
 20
74.5884
 30
0.0000
  0
SEQEND
  8
0
  0
POLYLINE
  8
21
 66
1
 10
0.0000
 20
0.0000
 30
0.0000
 40
0.1016
 41
0.1016
 70
0
  0
VERTEX
  8
21
 10
8.2513
 20
72.2516
 30
0.0000
 42
1.0000
  0
VERTEX
  8
21
 10
8.3529
 20
72.2516
 30
0.0000
  0
SEQEND
  8
0
  0
POLYLINE
  8
21
 66
1
 10
0.0000
 20
0.0000
 30
0.0000
 40
0.2032
 41
0.2032
 70
0
  0
VERTEX
  8
21
 10
8.3021
 20
74.5884
 30
0.0000
  0
VERTEX
  8
21
 10
8.9512
 20
74.5884
 30
0.0000
  0
SEQEND
  8
0
  0
POLYLINE
  8
21
 66
1
 10
0.0000
 20
0.0000
 30
0.0000
 40
0.1016
 41
0.1016
 70
0
  0
VERTEX
  8
21
 10
8.9512
 20
74.5376
 30
0.0000
 42
1.0000
  0
VERTEX
  8
21
 10
8.9512
 20
74.6392
 30
0.0000
  0
SEQEND
  8
0
  0
POLYLINE
  8
21
 66
1
 10
0.0000
 20
0.0000
 30
0.0000
 40
0.1016
 41
0.1016
 70
0
  0
VERTEX
  8
21
 10
8.3021
 20
74.6392
 30
0.0000
 42
1.0000
  0
VERTEX
  8
21
 10
8.3021
 20
74.5376
 30
0.0000
  0
SEQEND
  8
0
  0
POLYLINE
  8
21
 66
1
 10
0.0000
 20
0.0000
 30
0.0000
 40
0.2032
 41
0.2032
 70
0
  0
VERTEX
  8
21
 10
8.9512
 20
73.2902
 30
0.0000
 42
1.0000
  0
VERTEX
  8
21
 10
8.9512
 20
74.5884
 30
0.0000
  0
SEQEND
  8
0
  0
POLYLINE
  8
21
 66
1
 10
0.0000
 20
0.0000
 30
0.0000
 40
0.1016
 41
0.1016
 70
0
  0
VERTEX
  8
21
 10
8.9512
 20
73.3410
 30
0.0000
 42
1.0000
  0
VERTEX
  8
21
 10
8.9512
 20
73.2394
 30
0.0000
  0
SEQEND
  8
0
  0
POLYLINE
  8
21
 66
1
 10
0.0000
 20
0.0000
 30
0.0000
 40
0.1016
 41
0.1016
 70
0
  0
VERTEX
  8
21
 10
8.9512
 20
74.6392
 30
0.0000
 42
1.0000
  0
VERTEX
  8
21
 10
8.9512
 20
74.5376
 30
0.0000
  0
SEQEND
  8
0
  0
POLYLINE
  8
21
 66
1
 10
0.0000
 20
0.0000
 30
0.0000
 40
0.2032
 41
0.2032
 70
0
  0
VERTEX
  8
21
 10
8.9512
 20
73.2902
 30
0.0000
  0
VERTEX
  8
21
 10
8.3021
 20
73.2902
 30
0.0000
  0
SEQEND
  8
0
  0
POLYLINE
  8
21
 66
1
 10
0.0000
 20
0.0000
 30
0.0000
 40
0.1016
 41
0.1016
 70
0
  0
VERTEX
  8
21
 10
8.3021
 20
73.3410
 30
0.0000
 42
1.0000
  0
VERTEX
  8
21
 10
8.3021
 20
73.2394
 30
0.0000
  0
SEQEND
  8
0
  0
POLYLINE
  8
21
 66
1
 10
0.0000
 20
0.0000
 30
0.0000
 40
0.1016
 41
0.1016
 70
0
  0
VERTEX
  8
21
 10
8.9512
 20
73.2394
 30
0.0000
 42
1.0000
  0
VERTEX
  8
21
 10
8.9512
 20
73.3410
 30
0.0000
  0
SEQEND
  8
0
  0
POLYLINE
  8
21
 66
1
 10
0.0000
 20
0.0000
 30
0.0000
 40
0.2032
 41
0.2032
 70
0
  0
VERTEX
  8
21
 10
10.3150
 20
73.1604
 30
0.0000
  0
VERTEX
  8
21
 10
11.8729
 20
73.1604
 30
0.0000
  0
SEQEND
  8
0
  0
POLYLINE
  8
21
 66
1
 10
0.0000
 20
0.0000
 30
0.0000
 40
0.1016
 41
0.1016
 70
0
  0
VERTEX
  8
21
 10
11.8729
 20
73.1096
 30
0.0000
 42
1.0000
  0
VERTEX
  8
21
 10
11.8729
 20
73.2112
 30
0.0000
  0
SEQEND
  8
0
  0
POLYLINE
  8
21
 66
1
 10
0.0000
 20
0.0000
 30
0.0000
 40
0.1016
 41
0.1016
 70
0
  0
VERTEX
  8
21
 10
10.3150
 20
73.2112
 30
0.0000
 42
1.0000
  0
VERTEX
  8
21
 10
10.3150
 20
73.1096
 30
0.0000
  0
SEQEND
  8
0
  0
POLYLINE
  8
21
 66
1
 10
0.0000
 20
0.0000
 30
0.0000
 40
0.2032
 41
0.2032
 70
0
  0
VERTEX
  8
21
 10
12.8666
 20
74.2638
 30
0.0000
 42
0.1139
  0
VERTEX
  8
21
 10
12.6719
 20
73.4200
 30
0.0000
  0
SEQEND
  8
0
  0
POLYLINE
  8
21
 66
1
 10
0.0000
 20
0.0000
 30
0.0000
 40
0.1016
 41
0.1016
 70
0
  0
VERTEX
  8
21
 10
12.9123
 20
74.2416
 30
0.0000
 42
1.0000
  0
VERTEX
  8
21
 10
12.8209
 20
74.2861
 30
0.0000
  0
SEQEND
  8
0
  0
POLYLINE
  8
21
 66
1
 10
0.0000
 20
0.0000
 30
0.0000
 40
0.1016
 41
0.1016
 70
0
  0
VERTEX
  8
21
 10
12.6211
 20
73.4200
 30
0.0000
 42
1.0000
  0
VERTEX
  8
21
 10
12.7227
 20
73.4200
 30
0.0000
  0
SEQEND
  8
0
  0
POLYLINE
  8
21
 66
1
 10
0.0000
 20
0.0000
 30
0.0000
 40
0.2032
 41
0.2032
 70
0
  0
VERTEX
  8
21
 10
13.3210
 20
74.5884
 30
0.0000
 42
0.3205
  0
VERTEX
  8
21
 10
12.8666
 20
74.2638
 30
0.0000
  0
SEQEND
  8
0
  0
POLYLINE
  8
21
 66
1
 10
0.0000
 20
0.0000
 30
0.0000
 40
0.1016
 41
0.1016
 70
0
  0
VERTEX
  8
21
 10
13.3210
 20
74.5376
 30
0.0000
 42
1.0000
  0
VERTEX
  8
21
 10
13.3210
 20
74.6392
 30
0.0000
  0
SEQEND
  8
0
  0
POLYLINE
  8
21
 66
1
 10
0.0000
 20
0.0000
 30
0.0000
 40
0.1016
 41
0.1016
 70
0
  0
VERTEX
  8
21
 10
12.8186
 20
74.2803
 30
0.0000
 42
1.0000
  0
VERTEX
  8
21
 10
12.9147
 20
74.2474
 30
0.0000
  0
SEQEND
  8
0
  0
POLYLINE
  8
21
 66
1
 10
0.0000
 20
0.0000
 30
0.0000
 40
0.2032
 41
0.2032
 70
0
  0
VERTEX
  8
21
 10
13.7754
 20
74.2638
 30
0.0000
 42
0.3205
  0
VERTEX
  8
21
 10
13.3210
 20
74.5884
 30
0.0000
  0
SEQEND
  8
0
  0
POLYLINE
  8
21
 66
1
 10
0.0000
 20
0.0000
 30
0.0000
 40
0.1016
 41
0.1016
 70
0
  0
VERTEX
  8
21
 10
13.7273
 20
74.2474
 30
0.0000
 42
1.0000
  0
VERTEX
  8
21
 10
13.8234
 20
74.2803
 30
0.0000
  0
SEQEND
  8
0
  0
POLYLINE
  8
21
 66
1
 10
0.0000
 20
0.0000
 30
0.0000
 40
0.1016
 41
0.1016
 70
0
  0
VERTEX
  8
21
 10
13.3210
 20
74.6392
 30
0.0000
 42
1.0000
  0
VERTEX
  8
21
 10
13.3210
 20
74.5376
 30
0.0000
  0
SEQEND
  8
0
  0
POLYLINE
  8
21
 66
1
 10
0.0000
 20
0.0000
 30
0.0000
 40
0.2032
 41
0.2032
 70
0
  0
VERTEX
  8
21
 10
13.9701
 20
73.4200
 30
0.0000
 42
0.1139
  0
VERTEX
  8
21
 10
13.7754
 20
74.2638
 30
0.0000
  0
SEQEND
  8
0
  0
POLYLINE
  8
21
 66
1
 10
0.0000
 20
0.0000
 30
0.0000
 40
0.1016
 41
0.1016
 70
0
  0
VERTEX
  8
21
 10
13.9193
 20
73.4200
 30
0.0000
 42
1.0000
  0
VERTEX
  8
21
 10
14.0209
 20
73.4200
 30
0.0000
  0
SEQEND
  8
0
  0
POLYLINE
  8
21
 66
1
 10
0.0000
 20
0.0000
 30
0.0000
 40
0.1016
 41
0.1016
 70
0
  0
VERTEX
  8
21
 10
13.8210
 20
74.2861
 30
0.0000
 42
1.0000
  0
VERTEX
  8
21
 10
13.7297
 20
74.2416
 30
0.0000
  0
SEQEND
  8
0
  0
POLYLINE
  8
21
 66
1
 10
0.0000
 20
0.0000
 30
0.0000
 40
0.2032
 41
0.2032
 70
0
  0
VERTEX
  8
21
 10
12.6719
 20
73.4200
 30
0.0000
 42
0.1139
  0
VERTEX
  8
21
 10
12.8666
 20
72.5762
 30
0.0000
  0
SEQEND
  8
0
  0
POLYLINE
  8
21
 66
1
 10
0.0000
 20
0.0000
 30
0.0000
 40
0.1016
 41
0.1016
 70
0
  0
VERTEX
  8
21
 10
12.7227
 20
73.4200
 30
0.0000
 42
1.0000
  0
VERTEX
  8
21
 10
12.6211
 20
73.4200
 30
0.0000
  0
SEQEND
  8
0
  0
POLYLINE
  8
21
 66
1
 10
0.0000
 20
0.0000
 30
0.0000
 40
0.1016
 41
0.1016
 70
0
  0
VERTEX
  8
21
 10
12.8209
 20
72.5539
 30
0.0000
 42
1.0000
  0
VERTEX
  8
21
 10
12.9123
 20
72.5984
 30
0.0000
  0
SEQEND
  8
0
  0
POLYLINE
  8
21
 66
1
 10
0.0000
 20
0.0000
 30
0.0000
 40
0.2032
 41
0.2032
 70
0
  0
VERTEX
  8
21
 10
12.8666
 20
72.5762
 30
0.0000
 42
0.3205
  0
VERTEX
  8
21
 10
13.3210
 20
72.2516
 30
0.0000
  0
SEQEND
  8
0
  0
POLYLINE
  8
21
 66
1
 10
0.0000
 20
0.0000
 30
0.0000
 40
0.1016
 41
0.1016
 70
0
  0
VERTEX
  8
21
 10
12.9147
 20
72.5926
 30
0.0000
 42
1.0000
  0
VERTEX
  8
21
 10
12.8186
 20
72.5597
 30
0.0000
  0
SEQEND
  8
0
  0
POLYLINE
  8
21
 66
1
 10
0.0000
 20
0.0000
 30
0.0000
 40
0.1016
 41
0.1016
 70
0
  0
VERTEX
  8
21
 10
13.3210
 20
72.2008
 30
0.0000
 42
1.0000
  0
VERTEX
  8
21
 10
13.3210
 20
72.3024
 30
0.0000
  0
SEQEND
  8
0
  0
POLYLINE
  8
21
 66
1
 10
0.0000
 20
0.0000
 30
0.0000
 40
0.2032
 41
0.2032
 70
0
  0
VERTEX
  8
21
 10
13.7754
 20
72.5762
 30
0.0000
 42
0.1139
  0
VERTEX
  8
21
 10
13.9701
 20
73.4200
 30
0.0000
  0
SEQEND
  8
0
  0
POLYLINE
  8
21
 66
1
 10
0.0000
 20
0.0000
 30
0.0000
 40
0.1016
 41
0.1016
 70
0
  0
VERTEX
  8
21
 10
13.7297
 20
72.5984
 30
0.0000
 42
1.0000
  0
VERTEX
  8
21
 10
13.8210
 20
72.5539
 30
0.0000
  0
SEQEND
  8
0
  0
POLYLINE
  8
21
 66
1
 10
0.0000
 20
0.0000
 30
0.0000
 40
0.1016
 41
0.1016
 70
0
  0
VERTEX
  8
21
 10
14.0209
 20
73.4200
 30
0.0000
 42
1.0000
  0
VERTEX
  8
21
 10
13.9193
 20
73.4200
 30
0.0000
  0
SEQEND
  8
0
  0
POLYLINE
  8
21
 66
1
 10
0.0000
 20
0.0000
 30
0.0000
 40
0.2032
 41
0.2032
 70
0
  0
VERTEX
  8
21
 10
13.3210
 20
72.2516
 30
0.0000
 42
0.3205
  0
VERTEX
  8
21
 10
13.7754
 20
72.5762
 30
0.0000
  0
SEQEND
  8
0
  0
POLYLINE
  8
21
 66
1
 10
0.0000
 20
0.0000
 30
0.0000
 40
0.1016
 41
0.1016
 70
0
  0
VERTEX
  8
21
 10
13.3210
 20
72.3024
 30
0.0000
 42
1.0000
  0
VERTEX
  8
21
 10
13.3210
 20
72.2008
 30
0.0000
  0
SEQEND
  8
0
  0
POLYLINE
  8
21
 66
1
 10
0.0000
 20
0.0000
 30
0.0000
 40
0.1016
 41
0.1016
 70
0
  0
VERTEX
  8
21
 10
13.8234
 20
72.5597
 30
0.0000
 42
1.0000
  0
VERTEX
  8
21
 10
13.7273
 20
72.5926
 30
0.0000
  0
SEQEND
  8
0
  0
POLYLINE
  8
21
 66
1
 10
0.0000
 20
0.0000
 30
0.0000
 40
0.2032
 41
0.2032
 70
0
  0
VERTEX
  8
21
 10
12.8017
 20
72.7709
 30
0.0000
  0
VERTEX
  8
21
 10
13.8403
 20
74.0691
 30
0.0000
  0
SEQEND
  8
0
  0
POLYLINE
  8
21
 66
1
 10
0.0000
 20
0.0000
 30
0.0000
 40
0.1016
 41
0.1016
 70
0
  0
VERTEX
  8
21
 10
13.8799
 20
74.0374
 30
0.0000
 42
1.0000
  0
VERTEX
  8
21
 10
13.8006
 20
74.1008
 30
0.0000
  0
SEQEND
  8
0
  0
POLYLINE
  8
21
 66
1
 10
0.0000
 20
0.0000
 30
0.0000
 40
0.1016
 41
0.1016
 70
0
  0
VERTEX
  8
21
 10
12.7620
 20
72.8026
 30
0.0000
 42
1.0000
  0
VERTEX
  8
21
 10
12.8414
 20
72.7392
 30
0.0000
  0
SEQEND
  8
0
  0
POLYLINE
  8
21
 66
1
 10
0.0000
 20
0.0000
 30
0.0000
 40
0.2032
 41
0.2032
 70
0
  0
VERTEX
  8
21
 10
14.7598
 20
74.0691
 30
0.0000
  0
VERTEX
  8
21
 10
15.4089
 20
74.5884
 30
0.0000
  0
SEQEND
  8
0
  0
POLYLINE
  8
21
 66
1
 10
0.0000
 20
0.0000
 30
0.0000
 40
0.1016
 41
0.1016
 70
0
  0
VERTEX
  8
21
 10
15.4406
 20
74.5487
 30
0.0000
 42
1.0000
  0
VERTEX
  8
21
 10
15.3771
 20
74.6281
 30
0.0000
  0
SEQEND
  8
0
  0
POLYLINE
  8
21
 66
1
 10
0.0000
 20
0.0000
 30
0.0000
 40
0.1016
 41
0.1016
 70
0
  0
VERTEX
  8
21
 10
14.7280
 20
74.1088
 30
0.0000
 42
1.0000
  0
VERTEX
  8
21
 10
14.7915
 20
74.0294
 30
0.0000
  0
SEQEND
  8
0
  0
POLYLINE
  8
21
 66
1
 10
0.0000
 20
0.0000
 30
0.0000
 40
0.2032
 41
0.2032
 70
0
  0
VERTEX
  8
21
 10
15.4089
 20
74.5884
 30
0.0000
  0
VERTEX
  8
21
 10
15.4089
 20
72.2516
 30
0.0000
  0
SEQEND
  8
0
  0
POLYLINE
  8
21
 66
1
 10
0.0000
 20
0.0000
 30
0.0000
 40
0.1016
 41
0.1016
 70
0
  0
VERTEX
  8
21
 10
15.3581
 20
72.2516
 30
0.0000
 42
1.0000
  0
VERTEX
  8
21
 10
15.4597
 20
72.2516
 30
0.0000
  0
SEQEND
  8
0
  0
POLYLINE
  8
21
 66
1
 10
0.0000
 20
0.0000
 30
0.0000
 40
0.1016
 41
0.1016
 70
0
  0
VERTEX
  8
21
 10
15.4597
 20
74.5884
 30
0.0000
 42
1.0000
  0
VERTEX
  8
21
 10
15.3581
 20
74.5884
 30
0.0000
  0
SEQEND
  8
0
  0
POLYLINE
  8
21
 66
1
 10
0.0000
 20
0.0000
 30
0.0000
 40
0.2032
 41
0.2032
 70
0
  0
VERTEX
  8
21
 10
14.7598
 20
72.2516
 30
0.0000
  0
VERTEX
  8
21
 10
16.0580
 20
72.2516
 30
0.0000
  0
SEQEND
  8
0
  0
POLYLINE
  8
21
 66
1
 10
0.0000
 20
0.0000
 30
0.0000
 40
0.1016
 41
0.1016
 70
0
  0
VERTEX
  8
21
 10
16.0580
 20
72.2008
 30
0.0000
 42
1.0000
  0
VERTEX
  8
21
 10
16.0580
 20
72.3024
 30
0.0000
  0
SEQEND
  8
0
  0
POLYLINE
  8
21
 66
1
 10
0.0000
 20
0.0000
 30
0.0000
 40
0.1016
 41
0.1016
 70
0
  0
VERTEX
  8
21
 10
14.7598
 20
72.3024
 30
0.0000
 42
1.0000
  0
VERTEX
  8
21
 10
14.7598
 20
72.2008
 30
0.0000
  0
SEQEND
  8
0
  0
POLYLINE
  8
27
 66
1
 10
0.0000
 20
0.0000
 30
0.0000
 40
0.1016
 41
0.1016
 70
0
  0
VERTEX
  8
27
 10
3.7301
 20
51.2808
 30
0.0000
  0
VERTEX
  8
27
 10
3.2108
 20
51.2808
 30
0.0000
  0
SEQEND
  8
0
  0
POLYLINE
  8
27
 66
1
 10
0.0000
 20
0.0000
 30
0.0000
 40
0.0508
 41
0.0508
 70
0
  0
VERTEX
  8
27
 10
3.2108
 20
51.3062
 30
0.0000
 42
1.0000
  0
VERTEX
  8
27
 10
3.2108
 20
51.2554
 30
0.0000
  0
SEQEND
  8
0
  0
POLYLINE
  8
27
 66
1
 10
0.0000
 20
0.0000
 30
0.0000
 40
0.0508
 41
0.0508
 70
0
  0
VERTEX
  8
27
 10
3.7301
 20
51.2554
 30
0.0000
 42
1.0000
  0
VERTEX
  8
27
 10
3.7301
 20
51.3062
 30
0.0000
  0
SEQEND
  8
0
  0
POLYLINE
  8
27
 66
1
 10
0.0000
 20
0.0000
 30
0.0000
 40
0.1016
 41
0.1016
 70
0
  0
VERTEX
  8
27
 10
3.2108
 20
51.2808
 30
0.0000
  0
VERTEX
  8
27
 10
3.2108
 20
52.4492
 30
0.0000
  0
SEQEND
  8
0
  0
POLYLINE
  8
27
 66
1
 10
0.0000
 20
0.0000
 30
0.0000
 40
0.0508
 41
0.0508
 70
0
  0
VERTEX
  8
27
 10
3.2362
 20
52.4492
 30
0.0000
 42
1.0000
  0
VERTEX
  8
27
 10
3.1854
 20
52.4492
 30
0.0000
  0
SEQEND
  8
0
  0
POLYLINE
  8
27
 66
1
 10
0.0000
 20
0.0000
 30
0.0000
 40
0.0508
 41
0.0508
 70
0
  0
VERTEX
  8
27
 10
3.1854
 20
51.2808
 30
0.0000
 42
1.0000
  0
VERTEX
  8
27
 10
3.2362
 20
51.2808
 30
0.0000
  0
SEQEND
  8
0
  0
POLYLINE
  8
27
 66
1
 10
0.0000
 20
0.0000
 30
0.0000
 40
0.1016
 41
0.1016
 70
0
  0
VERTEX
  8
27
 10
3.2108
 20
52.4492
 30
0.0000
  0
VERTEX
  8
27
 10
3.7301
 20
52.4492
 30
0.0000
  0
SEQEND
  8
0
  0
POLYLINE
  8
27
 66
1
 10
0.0000
 20
0.0000
 30
0.0000
 40
0.0508
 41
0.0508
 70
0
  0
VERTEX
  8
27
 10
3.7301
 20
52.4238
 30
0.0000
 42
1.0000
  0
VERTEX
  8
27
 10
3.7301
 20
52.4746
 30
0.0000
  0
SEQEND
  8
0
  0
POLYLINE
  8
27
 66
1
 10
0.0000
 20
0.0000
 30
0.0000
 40
0.0508
 41
0.0508
 70
0
  0
VERTEX
  8
27
 10
3.2108
 20
52.4746
 30
0.0000
 42
1.0000
  0
VERTEX
  8
27
 10
3.2108
 20
52.4238
 30
0.0000
  0
SEQEND
  8
0
  0
POLYLINE
  8
27
 66
1
 10
0.0000
 20
0.0000
 30
0.0000
 40
0.1016
 41
0.1016
 70
0
  0
VERTEX
  8
27
 10
3.2108
 20
51.9299
 30
0.0000
  0
VERTEX
  8
27
 10
3.6003
 20
51.9299
 30
0.0000
  0
SEQEND
  8
0
  0
POLYLINE
  8
27
 66
1
 10
0.0000
 20
0.0000
 30
0.0000
 40
0.0508
 41
0.0508
 70
0
  0
VERTEX
  8
27
 10
3.6003
 20
51.9045
 30
0.0000
 42
1.0000
  0
VERTEX
  8
27
 10
3.6003
 20
51.9553
 30
0.0000
  0
SEQEND
  8
0
  0
POLYLINE
  8
27
 66
1
 10
0.0000
 20
0.0000
 30
0.0000
 40
0.0508
 41
0.0508
 70
0
  0
VERTEX
  8
27
 10
3.2108
 20
51.9553
 30
0.0000
 42
1.0000
  0
VERTEX
  8
27
 10
3.2108
 20
51.9045
 30
0.0000
  0
SEQEND
  8
0
  0
POLYLINE
  8
27
 66
1
 10
0.0000
 20
0.0000
 30
0.0000
 40
0.1016
 41
0.1016
 70
0
  0
VERTEX
  8
27
 10
4.5124
 20
51.2808
 30
0.0000
 42
0.4142
  0
VERTEX
  8
27
 10
4.7721
 20
51.5404
 30
0.0000
  0
SEQEND
  8
0
  0
POLYLINE
  8
27
 66
1
 10
0.0000
 20
0.0000
 30
0.0000
 40
0.0508
 41
0.0508
 70
0
  0
VERTEX
  8
27
 10
4.5124
 20
51.3062
 30
0.0000
 42
1.0000
  0
VERTEX
  8
27
 10
4.5124
 20
51.2554
 30
0.0000
  0
SEQEND
  8
0
  0
POLYLINE
  8
27
 66
1
 10
0.0000
 20
0.0000
 30
0.0000
 40
0.0508
 41
0.0508
 70
0
  0
VERTEX
  8
27
 10
4.7975
 20
51.5404
 30
0.0000
 42
1.0000
  0
VERTEX
  8
27
 10
4.7466
 20
51.5404
 30
0.0000
  0
SEQEND
  8
0
  0
POLYLINE
  8
27
 66
1
 10
0.0000
 20
0.0000
 30
0.0000
 40
0.1016
 41
0.1016
 70
0
  0
VERTEX
  8
27
 10
4.1229
 20
51.4431
 30
0.0000
 42
0.2000
  0
VERTEX
  8
27
 10
4.5124
 20
51.2808
 30
0.0000
  0
SEQEND
  8
0
  0
POLYLINE
  8
27
 66
1
 10
0.0000
 20
0.0000
 30
0.0000
 40
0.0508
 41
0.0508
 70
0
  0
VERTEX
  8
27
 10
4.1410
 20
51.4610
 30
0.0000
 42
1.0000
  0
VERTEX
  8
27
 10
4.1049
 20
51.4252
 30
0.0000
  0
SEQEND
  8
0
  0
POLYLINE
  8
27
 66
1
 10
0.0000
 20
0.0000
 30
0.0000
 40
0.0508
 41
0.0508
 70
0
  0
VERTEX
  8
27
 10
4.5124
 20
51.2554
 30
0.0000
 42
1.0000
  0
VERTEX
  8
27
 10
4.5124
 20
51.3062
 30
0.0000
  0
SEQEND
  8
0
  0
POLYLINE
  8
27
 66
1
 10
0.0000
 20
0.0000
 30
0.0000
 40
0.1016
 41
0.1016
 70
0
  0
VERTEX
  8
27
 10
4.4150
 20
52.4492
 30
0.0000
 42
0.4142
  0
VERTEX
  8
27
 10
4.1554
 20
52.1896
 30
0.0000
  0
SEQEND
  8
0
  0
POLYLINE
  8
27
 66
1
 10
0.0000
 20
0.0000
 30
0.0000
 40
0.0508
 41
0.0508
 70
0
  0
VERTEX
  8
27
 10
4.4150
 20
52.4238
 30
0.0000
 42
1.0000
  0
VERTEX
  8
27
 10
4.4150
 20
52.4746
 30
0.0000
  0
SEQEND
  8
0
  0
POLYLINE
  8
27
 66
1
 10
0.0000
 20
0.0000
 30
0.0000
 40
0.0508
 41
0.0508
 70
0
  0
VERTEX
  8
27
 10
4.1300
 20
52.1896
 30
0.0000
 42
1.0000
  0
VERTEX
  8
27
 10
4.1808
 20
52.1896
 30
0.0000
  0
SEQEND
  8
0
  0
POLYLINE
  8
27
 66
1
 10
0.0000
 20
0.0000
 30
0.0000
 40
0.1016
 41
0.1016
 70
0
  0
VERTEX
  8
27
 10
4.7071
 20
52.3518
 30
0.0000
 42
0.1623
  0
VERTEX
  8
27
 10
4.4150
 20
52.4492
 30
0.0000
  0
SEQEND
  8
0
  0
POLYLINE
  8
27
 66
1
 10
0.0000
 20
0.0000
 30
0.0000
 40
0.0508
 41
0.0508
 70
0
  0
VERTEX
  8
27
 10
4.6919
 20
52.3315
 30
0.0000
 42
1.0000
  0
VERTEX
  8
27
 10
4.7224
 20
52.3722
 30
0.0000
  0
SEQEND
  8
0
  0
POLYLINE
  8
27
 66
1
 10
0.0000
 20
0.0000
 30
0.0000
 40
0.0508
 41
0.0508
 70
0
  0
VERTEX
  8
27
 10
4.4150
 20
52.4746
 30
0.0000
 42
1.0000
  0
VERTEX
  8
27
 10
4.4150
 20
52.4238
 30
0.0000
  0
SEQEND
  8
0
  0
POLYLINE
  8
27
 66
1
 10
0.0000
 20
0.0000
 30
0.0000
 40
0.1016
 41
0.1016
 70
0
  0
VERTEX
  8
27
 10
4.1554
 20
52.1896
 30
0.0000
 42
0.2656
  0
VERTEX
  8
27
 10
4.2852
 20
51.9624
 30
0.0000
  0
SEQEND
  8
0
  0
POLYLINE
  8
27
 66
1
 10
0.0000
 20
0.0000
 30
0.0000
 40
0.0508
 41
0.0508
 70
0
  0
VERTEX
  8
27
 10
4.1808
 20
52.1896
 30
0.0000
 42
1.0000
  0
VERTEX
  8
27
 10
4.1300
 20
52.1896
 30
0.0000
  0
SEQEND
  8
0
  0
POLYLINE
  8
27
 66
1
 10
0.0000
 20
0.0000
 30
0.0000
 40
0.0508
 41
0.0508
 70
0
  0
VERTEX
  8
27
 10
4.2723
 20
51.9405
 30
0.0000
 42
1.0000
  0
VERTEX
  8
27
 10
4.2981
 20
51.9842
 30
0.0000
  0
SEQEND
  8
0
  0
POLYLINE
  8
27
 66
1
 10
0.0000
 20
0.0000
 30
0.0000
 40
0.1016
 41
0.1016
 70
0
  0
VERTEX
  8
27
 10
4.7721
 20
51.5404
 30
0.0000
 42
0.2656
  0
VERTEX
  8
27
 10
4.6422
 20
51.7676
 30
0.0000
  0
SEQEND
  8
0
  0
POLYLINE
  8
27
 66
1
 10
0.0000
 20
0.0000
 30
0.0000
 40
0.0508
 41
0.0508
 70
0
  0
VERTEX
  8
27
 10
4.7467
 20
51.5404
 30
0.0000
 42
1.0000
  0
VERTEX
  8
27
 10
4.7974
 20
51.5404
 30
0.0000
  0
SEQEND
  8
0
  0
POLYLINE
  8
27
 66
1
 10
0.0000
 20
0.0000
 30
0.0000
 40
0.0508
 41
0.0508
 70
0
  0
VERTEX
  8
27
 10
4.6551
 20
51.7895
 30
0.0000
 42
1.0000
  0
VERTEX
  8
27
 10
4.6293
 20
51.7457
 30
0.0000
  0
SEQEND
  8
0
  0
POLYLINE
  8
27
 66
1
 10
0.0000
 20
0.0000
 30
0.0000
 40
0.1016
 41
0.1016
 70
0
  0
VERTEX
  8
27
 10
4.6422
 20
51.7676
 30
0.0000
  0
VERTEX
  8
27
 10
4.2852
 20
51.9624
 30
0.0000
  0
SEQEND
  8
0
  0
POLYLINE
  8
27
 66
1
 10
0.0000
 20
0.0000
 30
0.0000
 40
0.0508
 41
0.0508
 70
0
  0
VERTEX
  8
27
 10
4.2974
 20
51.9847
 30
0.0000
 42
1.0000
  0
VERTEX
  8
27
 10
4.2731
 20
51.9401
 30
0.0000
  0
SEQEND
  8
0
  0
POLYLINE
  8
27
 66
1
 10
0.0000
 20
0.0000
 30
0.0000
 40
0.0508
 41
0.0508
 70
0
  0
VERTEX
  8
27
 10
4.6301
 20
51.7453
 30
0.0000
 42
1.0000
  0
VERTEX
  8
27
 10
4.6544
 20
51.7899
 30
0.0000
  0
SEQEND
  8
0
  0
POLYLINE
  8
27
 66
1
 10
0.0000
 20
0.0000
 30
0.0000
 40
0.1016
 41
0.1016
 70
0
  0
VERTEX
  8
27
 10
5.2829
 20
51.2808
 30
0.0000
  0
VERTEX
  8
27
 10
5.2829
 20
52.4492
 30
0.0000
  0
SEQEND
  8
0
  0
POLYLINE
  8
27
 66
1
 10
0.0000
 20
0.0000
 30
0.0000
 40
0.0508
 41
0.0508
 70
0
  0
VERTEX
  8
27
 10
5.3083
 20
52.4492
 30
0.0000
 42
1.0000
  0
VERTEX
  8
27
 10
5.2575
 20
52.4492
 30
0.0000
  0
SEQEND
  8
0
  0
POLYLINE
  8
27
 66
1
 10
0.0000
 20
0.0000
 30
0.0000
 40
0.0508
 41
0.0508
 70
0
  0
VERTEX
  8
27
 10
5.2575
 20
51.2808
 30
0.0000
 42
1.0000
  0
VERTEX
  8
27
 10
5.3083
 20
51.2808
 30
0.0000
  0
SEQEND
  8
0
  0
POLYLINE
  8
27
 66
1
 10
0.0000
 20
0.0000
 30
0.0000
 40
0.1016
 41
0.1016
 70
0
  0
VERTEX
  8
27
 10
5.2829
 20
52.4492
 30
0.0000
  0
VERTEX
  8
27
 10
5.6074
 20
52.4492
 30
0.0000
  0
SEQEND
  8
0
  0
POLYLINE
  8
27
 66
1
 10
0.0000
 20
0.0000
 30
0.0000
 40
0.0508
 41
0.0508
 70
0
  0
VERTEX
  8
27
 10
5.6074
 20
52.4238
 30
0.0000
 42
1.0000
  0
VERTEX
  8
27
 10
5.6074
 20
52.4746
 30
0.0000
  0
SEQEND
  8
0
  0
POLYLINE
  8
27
 66
1
 10
0.0000
 20
0.0000
 30
0.0000
 40
0.0508
 41
0.0508
 70
0
  0
VERTEX
  8
27
 10
5.2829
 20
52.4746
 30
0.0000
 42
1.0000
  0
VERTEX
  8
27
 10
5.2829
 20
52.4238
 30
0.0000
  0
SEQEND
  8
0
  0
POLYLINE
  8
27
 66
1
 10
0.0000
 20
0.0000
 30
0.0000
 40
0.1016
 41
0.1016
 70
0
  0
VERTEX
  8
27
 10
5.6074
 20
51.8001
 30
0.0000
 42
1.0000
  0
VERTEX
  8
27
 10
5.6074
 20
52.4492
 30
0.0000
  0
SEQEND
  8
0
  0
POLYLINE
  8
27
 66
1
 10
0.0000
 20
0.0000
 30
0.0000
 40
0.0508
 41
0.0508
 70
0
  0
VERTEX
  8
27
 10
5.6074
 20
51.8255
 30
0.0000
 42
1.0000
  0
VERTEX
  8
27
 10
5.6074
 20
51.7747
 30
0.0000
  0
SEQEND
  8
0
  0
POLYLINE
  8
27
 66
1
 10
0.0000
 20
0.0000
 30
0.0000
 40
0.0508
 41
0.0508
 70
0
  0
VERTEX
  8
27
 10
5.6074
 20
52.4746
 30
0.0000
 42
1.0000
  0
VERTEX
  8
27
 10
5.6074
 20
52.4238
 30
0.0000
  0
SEQEND
  8
0
  0
POLYLINE
  8
27
 66
1
 10
0.0000
 20
0.0000
 30
0.0000
 40
0.1016
 41
0.1016
 70
0
  0
VERTEX
  8
27
 10
5.6074
 20
51.8001
 30
0.0000
  0
VERTEX
  8
27
 10
5.2829
 20
51.8001
 30
0.0000
  0
SEQEND
  8
0
  0
POLYLINE
  8
27
 66
1
 10
0.0000
 20
0.0000
 30
0.0000
 40
0.0508
 41
0.0508
 70
0
  0
VERTEX
  8
27
 10
5.2829
 20
51.8255
 30
0.0000
 42
1.0000
  0
VERTEX
  8
27
 10
5.2829
 20
51.7747
 30
0.0000
  0
SEQEND
  8
0
  0
POLYLINE
  8
27
 66
1
 10
0.0000
 20
0.0000
 30
0.0000
 40
0.0508
 41
0.0508
 70
0
  0
VERTEX
  8
27
 10
5.6074
 20
51.7747
 30
0.0000
 42
1.0000
  0
VERTEX
  8
27
 10
5.6074
 20
51.8255
 30
0.0000
  0
SEQEND
  8
0
  0
POLYLINE
  8
27
 66
1
 10
0.0000
 20
0.0000
 30
0.0000
 40
0.1016
 41
0.1016
 70
0
  0
VERTEX
  8
27
 10
6.4682
 20
52.2869
 30
0.0000
 42
0.1139
  0
VERTEX
  8
27
 10
6.3708
 20
51.8650
 30
0.0000
  0
SEQEND
  8
0
  0
POLYLINE
  8
27
 66
1
 10
0.0000
 20
0.0000
 30
0.0000
 40
0.0508
 41
0.0508
 70
0
  0
VERTEX
  8
27
 10
6.4910
 20
52.2758
 30
0.0000
 42
1.0000
  0
VERTEX
  8
27
 10
6.4454
 20
52.2981
 30
0.0000
  0
SEQEND
  8
0
  0
POLYLINE
  8
27
 66
1
 10
0.0000
 20
0.0000
 30
0.0000
 40
0.0508
 41
0.0508
 70
0
  0
VERTEX
  8
27
 10
6.3454
 20
51.8650
 30
0.0000
 42
1.0000
  0
VERTEX
  8
27
 10
6.3962
 20
51.8650
 30
0.0000
  0
SEQEND
  8
0
  0
POLYLINE
  8
27
 66
1
 10
0.0000
 20
0.0000
 30
0.0000
 40
0.1016
 41
0.1016
 70
0
  0
VERTEX
  8
27
 10
6.6954
 20
52.4492
 30
0.0000
 42
0.3205
  0
VERTEX
  8
27
 10
6.4682
 20
52.2869
 30
0.0000
  0
SEQEND
  8
0
  0
POLYLINE
  8
27
 66
1
 10
0.0000
 20
0.0000
 30
0.0000
 40
0.0508
 41
0.0508
 70
0
  0
VERTEX
  8
27
 10
6.6954
 20
52.4238
 30
0.0000
 42
1.0000
  0
VERTEX
  8
27
 10
6.6954
 20
52.4746
 30
0.0000
  0
SEQEND
  8
0
  0
POLYLINE
  8
27
 66
1
 10
0.0000
 20
0.0000
 30
0.0000
 40
0.0508
 41
0.0508
 70
0
  0
VERTEX
  8
27
 10
6.4442
 20
52.2952
 30
0.0000
 42
1.0000
  0
VERTEX
  8
27
 10
6.4922
 20
52.2787
 30
0.0000
  0
SEQEND
  8
0
  0
POLYLINE
  8
27
 66
1
 10
0.0000
 20
0.0000
 30
0.0000
 40
0.1016
 41
0.1016
 70
0
  0
VERTEX
  8
27
 10
6.9226
 20
52.2869
 30
0.0000
 42
0.3205
  0
VERTEX
  8
27
 10
6.6954
 20
52.4492
 30
0.0000
  0
SEQEND
  8
0
  0
POLYLINE
  8
27
 66
1
 10
0.0000
 20
0.0000
 30
0.0000
 40
0.0508
 41
0.0508
 70
0
  0
VERTEX
  8
27
 10
6.8986
 20
52.2787
 30
0.0000
 42
1.0000
  0
VERTEX
  8
27
 10
6.9466
 20
52.2952
 30
0.0000
  0
SEQEND
  8
0
  0
POLYLINE
  8
27
 66
1
 10
0.0000
 20
0.0000
 30
0.0000
 40
0.0508
 41
0.0508
 70
0
  0
VERTEX
  8
27
 10
6.6954
 20
52.4746
 30
0.0000
 42
1.0000
  0
VERTEX
  8
27
 10
6.6954
 20
52.4238
 30
0.0000
  0
SEQEND
  8
0
  0
POLYLINE
  8
27
 66
1
 10
0.0000
 20
0.0000
 30
0.0000
 40
0.1016
 41
0.1016
 70
0
  0
VERTEX
  8
27
 10
7.0199
 20
51.8650
 30
0.0000
 42
0.1139
  0
VERTEX
  8
27
 10
6.9226
 20
52.2869
 30
0.0000
  0
SEQEND
  8
0
  0
POLYLINE
  8
27
 66
1
 10
0.0000
 20
0.0000
 30
0.0000
 40
0.0508
 41
0.0508
 70
0
  0
VERTEX
  8
27
 10
6.9945
 20
51.8650
 30
0.0000
 42
1.0000
  0
VERTEX
  8
27
 10
7.0453
 20
51.8650
 30
0.0000
  0
SEQEND
  8
0
  0
POLYLINE
  8
27
 66
1
 10
0.0000
 20
0.0000
 30
0.0000
 40
0.0508
 41
0.0508
 70
0
  0
VERTEX
  8
27
 10
6.9454
 20
52.2981
 30
0.0000
 42
1.0000
  0
VERTEX
  8
27
 10
6.8997
 20
52.2758
 30
0.0000
  0
SEQEND
  8
0
  0
POLYLINE
  8
27
 66
1
 10
0.0000
 20
0.0000
 30
0.0000
 40
0.1016
 41
0.1016
 70
0
  0
VERTEX
  8
27
 10
6.3708
 20
51.8650
 30
0.0000
 42
0.1139
  0
VERTEX
  8
27
 10
6.4682
 20
51.4431
 30
0.0000
  0
SEQEND
  8
0
  0
POLYLINE
  8
27
 66
1
 10
0.0000
 20
0.0000
 30
0.0000
 40
0.0508
 41
0.0508
 70
0
  0
VERTEX
  8
27
 10
6.3962
 20
51.8650
 30
0.0000
 42
1.0000
  0
VERTEX
  8
27
 10
6.3454
 20
51.8650
 30
0.0000
  0
SEQEND
  8
0
  0
POLYLINE
  8
27
 66
1
 10
0.0000
 20
0.0000
 30
0.0000
 40
0.0508
 41
0.0508
 70
0
  0
VERTEX
  8
27
 10
6.4454
 20
51.4319
 30
0.0000
 42
1.0000
  0
VERTEX
  8
27
 10
6.4910
 20
51.4542
 30
0.0000
  0
SEQEND
  8
0
  0
POLYLINE
  8
27
 66
1
 10
0.0000
 20
0.0000
 30
0.0000
 40
0.1016
 41
0.1016
 70
0
  0
VERTEX
  8
27
 10
6.4682
 20
51.4431
 30
0.0000
 42
0.3205
  0
VERTEX
  8
27
 10
6.6954
 20
51.2808
 30
0.0000
  0
SEQEND
  8
0
  0
POLYLINE
  8
27
 66
1
 10
0.0000
 20
0.0000
 30
0.0000
 40
0.0508
 41
0.0508
 70
0
  0
VERTEX
  8
27
 10
6.4922
 20
51.4513
 30
0.0000
 42
1.0000
  0
VERTEX
  8
27
 10
6.4442
 20
51.4348
 30
0.0000
  0
SEQEND
  8
0
  0
POLYLINE
  8
27
 66
1
 10
0.0000
 20
0.0000
 30
0.0000
 40
0.0508
 41
0.0508
 70
0
  0
VERTEX
  8
27
 10
6.6954
 20
51.2554
 30
0.0000
 42
1.0000
  0
VERTEX
  8
27
 10
6.6954
 20
51.3062
 30
0.0000
  0
SEQEND
  8
0
  0
POLYLINE
  8
27
 66
1
 10
0.0000
 20
0.0000
 30
0.0000
 40
0.1016
 41
0.1016
 70
0
  0
VERTEX
  8
27
 10
6.9226
 20
51.4431
 30
0.0000
 42
0.1139
  0
VERTEX
  8
27
 10
7.0199
 20
51.8650
 30
0.0000
  0
SEQEND
  8
0
  0
POLYLINE
  8
27
 66
1
 10
0.0000
 20
0.0000
 30
0.0000
 40
0.0508
 41
0.0508
 70
0
  0
VERTEX
  8
27
 10
6.8997
 20
51.4542
 30
0.0000
 42
1.0000
  0
VERTEX
  8
27
 10
6.9454
 20
51.4319
 30
0.0000
  0
SEQEND
  8
0
  0
POLYLINE
  8
27
 66
1
 10
0.0000
 20
0.0000
 30
0.0000
 40
0.0508
 41
0.0508
 70
0
  0
VERTEX
  8
27
 10
7.0453
 20
51.8650
 30
0.0000
 42
1.0000
  0
VERTEX
  8
27
 10
6.9945
 20
51.8650
 30
0.0000
  0
SEQEND
  8
0
  0
POLYLINE
  8
27
 66
1
 10
0.0000
 20
0.0000
 30
0.0000
 40
0.1016
 41
0.1016
 70
0
  0
VERTEX
  8
27
 10
6.6954
 20
51.2808
 30
0.0000
 42
0.3205
  0
VERTEX
  8
27
 10
6.9226
 20
51.4431
 30
0.0000
  0
SEQEND
  8
0
  0
POLYLINE
  8
27
 66
1
 10
0.0000
 20
0.0000
 30
0.0000
 40
0.0508
 41
0.0508
 70
0
  0
VERTEX
  8
27
 10
6.6954
 20
51.3062
 30
0.0000
 42
1.0000
  0
VERTEX
  8
27
 10
6.6954
 20
51.2554
 30
0.0000
  0
SEQEND
  8
0
  0
POLYLINE
  8
27
 66
1
 10
0.0000
 20
0.0000
 30
0.0000
 40
0.0508
 41
0.0508
 70
0
  0
VERTEX
  8
27
 10
6.9466
 20
51.4348
 30
0.0000
 42
1.0000
  0
VERTEX
  8
27
 10
6.8985
 20
51.4513
 30
0.0000
  0
SEQEND
  8
0
  0
POLYLINE
  8
27
 66
1
 10
0.0000
 20
0.0000
 30
0.0000
 40
0.1016
 41
0.1016
 70
0
  0
VERTEX
  8
27
 10
6.4357
 20
51.5404
 30
0.0000
  0
VERTEX
  8
27
 10
6.9550
 20
52.1896
 30
0.0000
  0
SEQEND
  8
0
  0
POLYLINE
  8
27
 66
1
 10
0.0000
 20
0.0000
 30
0.0000
 40
0.0508
 41
0.0508
 70
0
  0
VERTEX
  8
27
 10
6.9749
 20
52.1737
 30
0.0000
 42
1.0000
  0
VERTEX
  8
27
 10
6.9352
 20
52.2054
 30
0.0000
  0
SEQEND
  8
0
  0
POLYLINE
  8
27
 66
1
 10
0.0000
 20
0.0000
 30
0.0000
 40
0.0508
 41
0.0508
 70
0
  0
VERTEX
  8
27
 10
6.4159
 20
51.5563
 30
0.0000
 42
1.0000
  0
VERTEX
  8
27
 10
6.4556
 20
51.5246
 30
0.0000
  0
SEQEND
  8
0
  0
POLYLINE
  8
27
 66
1
 10
0.0000
 20
0.0000
 30
0.0000
 40
0.1016
 41
0.1016
 70
0
  0
VERTEX
  8
27
 10
7.5138
 20
52.1896
 30
0.0000
  0
VERTEX
  8
27
 10
7.8384
 20
52.4492
 30
0.0000
  0
SEQEND
  8
0
  0
POLYLINE
  8
27
 66
1
 10
0.0000
 20
0.0000
 30
0.0000
 40
0.0508
 41
0.0508
 70
0
  0
VERTEX
  8
27
 10
7.8543
 20
52.4294
 30
0.0000
 42
1.0000
  0
VERTEX
  8
27
 10
7.8225
 20
52.4690
 30
0.0000
  0
SEQEND
  8
0
  0
POLYLINE
  8
27
 66
1
 10
0.0000
 20
0.0000
 30
0.0000
 40
0.0508
 41
0.0508
 70
0
  0
VERTEX
  8
27
 10
7.4980
 20
52.2094
 30
0.0000
 42
1.0000
  0
VERTEX
  8
27
 10
7.5297
 20
52.1697
 30
0.0000
  0
SEQEND
  8
0
  0
POLYLINE
  8
27
 66
1
 10
0.0000
 20
0.0000
 30
0.0000
 40
0.1016
 41
0.1016
 70
0
  0
VERTEX
  8
27
 10
7.8384
 20
52.4492
 30
0.0000
  0
VERTEX
  8
27
 10
7.8384
 20
51.2808
 30
0.0000
  0
SEQEND
  8
0
  0
POLYLINE
  8
27
 66
1
 10
0.0000
 20
0.0000
 30
0.0000
 40
0.0508
 41
0.0508
 70
0
  0
VERTEX
  8
27
 10
7.8130
 20
51.2808
 30
0.0000
 42
1.0000
  0
VERTEX
  8
27
 10
7.8638
 20
51.2808
 30
0.0000
  0
SEQEND
  8
0
  0
POLYLINE
  8
27
 66
1
 10
0.0000
 20
0.0000
 30
0.0000
 40
0.0508
 41
0.0508
 70
0
  0
VERTEX
  8
27
 10
7.8638
 20
52.4492
 30
0.0000
 42
1.0000
  0
VERTEX
  8
27
 10
7.8130
 20
52.4492
 30
0.0000
  0
SEQEND
  8
0
  0
POLYLINE
  8
27
 66
1
 10
0.0000
 20
0.0000
 30
0.0000
 40
0.1016
 41
0.1016
 70
0
  0
VERTEX
  8
27
 10
7.5138
 20
51.2808
 30
0.0000
  0
VERTEX
  8
27
 10
8.1629
 20
51.2808
 30
0.0000
  0
SEQEND
  8
0
  0
POLYLINE
  8
27
 66
1
 10
0.0000
 20
0.0000
 30
0.0000
 40
0.0508
 41
0.0508
 70
0
  0
VERTEX
  8
27
 10
8.1629
 20
51.2554
 30
0.0000
 42
1.0000
  0
VERTEX
  8
27
 10
8.1629
 20
51.3062
 30
0.0000
  0
SEQEND
  8
0
  0
POLYLINE
  8
27
 66
1
 10
0.0000
 20
0.0000
 30
0.0000
 40
0.0508
 41
0.0508
 70
0
  0
VERTEX
  8
27
 10
7.5138
 20
51.3062
 30
0.0000
 42
1.0000
  0
VERTEX
  8
27
 10
7.5138
 20
51.2554
 30
0.0000
  0
SEQEND
  8
0
  0
INSERT
  8
17
  2
ROUNDP
 10
8.8750
 20
54.0525
 30
0.0000
 41
1.3080
 42
1.3080
 43
1.0000
 50
270.0000
  0
INSERT
  8
17
  2
ROUNDP
 10
8.8750
 20
54.0525
 30
0.0000
 41
1.3080
 42
1.3080
 43
1.0000
 50
270.0000
  0
INSERT
  8
17
  2
SQUAREP
 10
6.3350
 20
56.5925
 30
0.0000
 41
1.3080
 42
1.3080
 43
1.0000
 50
270.0000
  0
INSERT
  8
17
  2
SQUAREP
 10
6.3350
 20
56.5925
 30
0.0000
 41
1.3080
 42
1.3080
 43
1.0000
 50
270.0000
  0
INSERT
  8
17
  2
ROUNDP
 10
11.4150
 20
56.5925
 30
0.0000
 41
1.3080
 42
1.3080
 43
1.0000
 50
270.0000
  0
INSERT
  8
17
  2
ROUNDP
 10
11.4150
 20
56.5925
 30
0.0000
 41
1.3080
 42
1.3080
 43
1.0000
 50
270.0000
  0
INSERT
  8
17
  2
ROUNDP
 10
8.8750
 20
56.5925
 30
0.0000
 41
1.3080
 42
1.3080
 43
1.0000
 50
270.0000
  0
INSERT
  8
17
  2
ROUNDP
 10
8.8750
 20
56.5925
 30
0.0000
 41
1.3080
 42
1.3080
 43
1.0000
 50
270.0000
  0
INSERT
  8
17
  2
ROUNDP
 10
11.4150
 20
54.0525
 30
0.0000
 41
1.3080
 42
1.3080
 43
1.0000
 50
270.0000
  0
INSERT
  8
17
  2
ROUNDP
 10
11.4150
 20
54.0525
 30
0.0000
 41
1.3080
 42
1.3080
 43
1.0000
 50
270.0000
  0
INSERT
  8
17
  2
SQUAREP
 10
13.9550
 20
56.5925
 30
0.0000
 41
1.3080
 42
1.3080
 43
1.0000
 50
270.0000
  0
INSERT
  8
17
  2
SQUAREP
 10
13.9550
 20
56.5925
 30
0.0000
 41
1.3080
 42
1.3080
 43
1.0000
 50
270.0000
  0
INSERT
  8
17
  2
ROUNDP
 10
6.3350
 20
54.0525
 30
0.0000
 41
1.3080
 42
1.3080
 43
1.0000
 50
270.0000
  0
INSERT
  8
17
  2
ROUNDP
 10
6.3350
 20
54.0525
 30
0.0000
 41
1.3080
 42
1.3080
 43
1.0000
 50
270.0000
  0
INSERT
  8
17
  2
ROUNDP
 10
13.9550
 20
54.0525
 30
0.0000
 41
1.3080
 42
1.3080
 43
1.0000
 50
270.0000
  0
INSERT
  8
17
  2
ROUNDP
 10
13.9550
 20
54.0525
 30
0.0000
 41
1.3080
 42
1.3080
 43
1.0000
 50
270.0000
  0
POLYLINE
  8
1
 66
1
 10
0.0000
 20
0.0000
 30
0.0000
 40
0.1524
 41
0.1524
 70
0
  0
VERTEX
  8
1
 10
2.5400
 20
48.2600
 30
0.0000
  0
VERTEX
  8
1
 10
10.1600
 20
48.2600
 30
0.0000
  0
SEQEND
  8
0
  0
POLYLINE
  8
1
 66
1
 10
0.0000
 20
0.0000
 30
0.0000
 40
0.0762
 41
0.0762
 70
0
  0
VERTEX
  8
1
 10
10.1600
 20
48.2219
 30
0.0000
 42
1.0000
  0
VERTEX
  8
1
 10
10.1600
 20
48.2981
 30
0.0000
  0
SEQEND
  8
0
  0
POLYLINE
  8
1
 66
1
 10
0.0000
 20
0.0000
 30
0.0000
 40
0.0762
 41
0.0762
 70
0
  0
VERTEX
  8
1
 10
2.5400
 20
48.2981
 30
0.0000
 42
1.0000
  0
VERTEX
  8
1
 10
2.5400
 20
48.2219
 30
0.0000
  0
SEQEND
  8
0
  0
POLYLINE
  8
1
 66
1
 10
0.0000
 20
0.0000
 30
0.0000
 40
0.1524
 41
0.1524
 70
0
  0
VERTEX
  8
1
 10
10.1600
 20
50.8000
 30
0.0000
 42
0.4142
  0
VERTEX
  8
1
 10
11.4150
 20
52.0550
 30
0.0000
  0
SEQEND
  8
0
  0
POLYLINE
  8
1
 66
1
 10
0.0000
 20
0.0000
 30
0.0000
 40
0.0762
 41
0.0762
 70
0
  0
VERTEX
  8
1
 10
10.1600
 20
50.8381
 30
0.0000
 42
1.0000
  0
VERTEX
  8
1
 10
10.1600
 20
50.7619
 30
0.0000
  0
SEQEND
  8
0
  0
POLYLINE
  8
1
 66
1
 10
0.0000
 20
0.0000
 30
0.0000
 40
0.0762
 41
0.0762
 70
0
  0
VERTEX
  8
1
 10
11.4531
 20
52.0550
 30
0.0000
 42
1.0000
  0
VERTEX
  8
1
 10
11.3769
 20
52.0550
 30
0.0000
  0
SEQEND
  8
0
  0
POLYLINE
  8
1
 66
1
 10
0.0000
 20
0.0000
 30
0.0000
 40
0.1524
 41
0.1524
 70
0
  0
VERTEX
  8
1
 10
11.4150
 20
52.0550
 30
0.0000
  0
VERTEX
  8
1
 10
11.4150
 20
54.0525
 30
0.0000
  0
SEQEND
  8
0
  0
POLYLINE
  8
1
 66
1
 10
0.0000
 20
0.0000
 30
0.0000
 40
0.0762
 41
0.0762
 70
0
  0
VERTEX
  8
1
 10
11.4531
 20
54.0525
 30
0.0000
 42
1.0000
  0
VERTEX
  8
1
 10
11.3769
 20
54.0525
 30
0.0000
  0
SEQEND
  8
0
  0
POLYLINE
  8
1
 66
1
 10
0.0000
 20
0.0000
 30
0.0000
 40
0.0762
 41
0.0762
 70
0
  0
VERTEX
  8
1
 10
11.3769
 20
52.0550
 30
0.0000
 42
1.0000
  0
VERTEX
  8
1
 10
11.4531
 20
52.0550
 30
0.0000
  0
SEQEND
  8
0
  0
POLYLINE
  8
16
 66
1
 10
0.0000
 20
0.0000
 30
0.0000
 40
0.1524
 41
0.1524
 70
0
  0
VERTEX
  8
16
 10
7.8994
 20
43.1800
 30
0.0000
  0
VERTEX
  8
16
 10
7.8994
 20
42.6212
 30
0.0000
  0
SEQEND
  8
0
  0
POLYLINE
  8
16
 66
1
 10
0.0000
 20
0.0000
 30
0.0000
 40
0.0762
 41
0.0762
 70
0
  0
VERTEX
  8
16
 10
7.8613
 20
42.6212
 30
0.0000
 42
1.0000
  0
VERTEX
  8
16
 10
7.9375
 20
42.6212
 30
0.0000
  0
SEQEND
  8
0
  0
POLYLINE
  8
16
 66
1
 10
0.0000
 20
0.0000
 30
0.0000
 40
0.0762
 41
0.0762
 70
0
  0
VERTEX
  8
16
 10
7.9375
 20
43.1800
 30
0.0000
 42
1.0000
  0
VERTEX
  8
16
 10
7.8613
 20
43.1800
 30
0.0000
  0
SEQEND
  8
0
  0
POLYLINE
  8
16
 66
1
 10
0.0000
 20
0.0000
 30
0.0000
 40
0.1524
 41
0.1524
 70
0
  0
VERTEX
  8
16
 10
10.1600
 20
45.7200
 30
0.0000
  0
VERTEX
  8
16
 10
7.8994
 20
43.4594
 30
0.0000
  0
SEQEND
  8
0
  0
POLYLINE
  8
16
 66
1
 10
0.0000
 20
0.0000
 30
0.0000
 40
0.0762
 41
0.0762
 70
0
  0
VERTEX
  8
16
 10
7.8725
 20
43.4863
 30
0.0000
 42
1.0000
  0
VERTEX
  8
16
 10
7.9263
 20
43.4325
 30
0.0000
  0
SEQEND
  8
0
  0
POLYLINE
  8
16
 66
1
 10
0.0000
 20
0.0000
 30
0.0000
 40
0.0762
 41
0.0762
 70
0
  0
VERTEX
  8
16
 10
10.1869
 20
45.6931
 30
0.0000
 42
1.0000
  0
VERTEX
  8
16
 10
10.1331
 20
45.7469
 30
0.0000
  0
SEQEND
  8
0
  0
POLYLINE
  8
16
 66
1
 10
0.0000
 20
0.0000
 30
0.0000
 40
0.1524
 41
0.1524
 70
0
  0
VERTEX
  8
16
 10
7.8994
 20
43.4594
 30
0.0000
  0
VERTEX
  8
16
 10
7.8994
 20
43.1800
 30
0.0000
  0
SEQEND
  8
0
  0
POLYLINE
  8
16
 66
1
 10
0.0000
 20
0.0000
 30
0.0000
 40
0.0762
 41
0.0762
 70
0
  0
VERTEX
  8
16
 10
7.8613
 20
43.1800
 30
0.0000
 42
1.0000
  0
VERTEX
  8
16
 10
7.9375
 20
43.1800
 30
0.0000
  0
SEQEND
  8
0
  0
POLYLINE
  8
16
 66
1
 10
0.0000
 20
0.0000
 30
0.0000
 40
0.0762
 41
0.0762
 70
0
  0
VERTEX
  8
16
 10
7.9375
 20
43.4594
 30
0.0000
 42
1.0000
  0
VERTEX
  8
16
 10
7.8613
 20
43.4594
 30
0.0000
  0
SEQEND
  8
0
  0
POLYLINE
  8
16
 66
1
 10
0.0000
 20
0.0000
 30
0.0000
 40
0.1524
 41
0.1524
 70
0
  0
VERTEX
  8
16
 10
12.4206
 20
42.6212
 30
0.0000
  0
VERTEX
  8
16
 10
12.4206
 20
50.5069
 30
0.0000
  0
SEQEND
  8
0
  0
POLYLINE
  8
16
 66
1
 10
0.0000
 20
0.0000
 30
0.0000
 40
0.0762
 41
0.0762
 70
0
  0
VERTEX
  8
16
 10
12.4587
 20
50.5069
 30
0.0000
 42
1.0000
  0
VERTEX
  8
16
 10
12.3825
 20
50.5069
 30
0.0000
  0
SEQEND
  8
0
  0
POLYLINE
  8
16
 66
1
 10
0.0000
 20
0.0000
 30
0.0000
 40
0.0762
 41
0.0762
 70
0
  0
VERTEX
  8
16
 10
12.3825
 20
42.6212
 30
0.0000
 42
1.0000
  0
VERTEX
  8
16
 10
12.4587
 20
42.6212
 30
0.0000
  0
SEQEND
  8
0
  0
POLYLINE
  8
16
 66
1
 10
0.0000
 20
0.0000
 30
0.0000
 40
0.1524
 41
0.1524
 70
0
  0
VERTEX
  8
16
 10
8.5094
 20
53.1699
 30
0.0000
  0
VERTEX
  8
16
 10
7.9924
 20
53.6869
 30
0.0000
  0
SEQEND
  8
0
  0
POLYLINE
  8
16
 66
1
 10
0.0000
 20
0.0000
 30
0.0000
 40
0.0762
 41
0.0762
 70
0
  0
VERTEX
  8
16
 10
8.0193
 20
53.7139
 30
0.0000
 42
1.0000
  0
VERTEX
  8
16
 10
7.9655
 20
53.6600
 30
0.0000
  0
SEQEND
  8
0
  0
POLYLINE
  8
16
 66
1
 10
0.0000
 20
0.0000
 30
0.0000
 40
0.0762
 41
0.0762
 70
0
  0
VERTEX
  8
16
 10
8.4825
 20
53.1430
 30
0.0000
 42
1.0000
  0
VERTEX
  8
16
 10
8.5364
 20
53.1968
 30
0.0000
  0
SEQEND
  8
0
  0
POLYLINE
  8
16
 66
1
 10
0.0000
 20
0.0000
 30
0.0000
 40
0.1524
 41
0.1524
 70
0
  0
VERTEX
  8
16
 10
12.4206
 20
50.5069
 30
0.0000
  0
VERTEX
  8
16
 10
9.7576
 20
53.1699
 30
0.0000
  0
SEQEND
  8
0
  0
POLYLINE
  8
16
 66
1
 10
0.0000
 20
0.0000
 30
0.0000
 40
0.0762
 41
0.0762
 70
0
  0
VERTEX
  8
16
 10
9.7845
 20
53.1968
 30
0.0000
 42
1.0000
  0
VERTEX
  8
16
 10
9.7307
 20
53.1430
 30
0.0000
  0
SEQEND
  8
0
  0
POLYLINE
  8
16
 66
1
 10
0.0000
 20
0.0000
 30
0.0000
 40
0.0762
 41
0.0762
 70
0
  0
VERTEX
  8
16
 10
12.3937
 20
50.4800
 30
0.0000
 42
1.0000
  0
VERTEX
  8
16
 10
12.4475
 20
50.5338
 30
0.0000
  0
SEQEND
  8
0
  0
POLYLINE
  8
16
 66
1
 10
0.0000
 20
0.0000
 30
0.0000
 40
0.1524
 41
0.1524
 70
0
  0
VERTEX
  8
16
 10
7.9924
 20
54.9351
 30
0.0000
  0
VERTEX
  8
16
 10
6.3350
 20
56.5925
 30
0.0000
  0
SEQEND
  8
0
  0
POLYLINE
  8
16
 66
1
 10
0.0000
 20
0.0000
 30
0.0000
 40
0.0762
 41
0.0762
 70
0
  0
VERTEX
  8
16
 10
6.3619
 20
56.6194
 30
0.0000
 42
1.0000
  0
VERTEX
  8
16
 10
6.3081
 20
56.5656
 30
0.0000
  0
SEQEND
  8
0
  0
POLYLINE
  8
16
 66
1
 10
0.0000
 20
0.0000
 30
0.0000
 40
0.0762
 41
0.0762
 70
0
  0
VERTEX
  8
16
 10
7.9655
 20
54.9082
 30
0.0000
 42
1.0000
  0
VERTEX
  8
16
 10
8.0193
 20
54.9620
 30
0.0000
  0
SEQEND
  8
0
  0
POLYLINE
  8
16
 66
1
 10
0.0000
 20
0.0000
 30
0.0000
 40
0.1524
 41
0.1524
 70
0
  0
VERTEX
  8
16
 10
9.7576
 20
53.1699
 30
0.0000
  0
VERTEX
  8
16
 10
8.5094
 20
53.1699
 30
0.0000
  0
SEQEND
  8
0
  0
POLYLINE
  8
16
 66
1
 10
0.0000
 20
0.0000
 30
0.0000
 40
0.0762
 41
0.0762
 70
0
  0
VERTEX
  8
16
 10
8.5094
 20
53.2080
 30
0.0000
 42
1.0000
  0
VERTEX
  8
16
 10
8.5094
 20
53.1318
 30
0.0000
  0
SEQEND
  8
0
  0
POLYLINE
  8
16
 66
1
 10
0.0000
 20
0.0000
 30
0.0000
 40
0.0762
 41
0.0762
 70
0
  0
VERTEX
  8
16
 10
9.7576
 20
53.1318
 30
0.0000
 42
1.0000
  0
VERTEX
  8
16
 10
9.7576
 20
53.2080
 30
0.0000
  0
SEQEND
  8
0
  0
POLYLINE
  8
16
 66
1
 10
0.0000
 20
0.0000
 30
0.0000
 40
0.1524
 41
0.1524
 70
0
  0
VERTEX
  8
16
 10
7.9924
 20
53.6869
 30
0.0000
  0
VERTEX
  8
16
 10
7.9924
 20
54.9351
 30
0.0000
  0
SEQEND
  8
0
  0
POLYLINE
  8
16
 66
1
 10
0.0000
 20
0.0000
 30
0.0000
 40
0.0762
 41
0.0762
 70
0
  0
VERTEX
  8
16
 10
8.0305
 20
54.9351
 30
0.0000
 42
1.0000
  0
VERTEX
  8
16
 10
7.9543
 20
54.9351
 30
0.0000
  0
SEQEND
  8
0
  0
POLYLINE
  8
16
 66
1
 10
0.0000
 20
0.0000
 30
0.0000
 40
0.0762
 41
0.0762
 70
0
  0
VERTEX
  8
16
 10
7.9543
 20
53.6869
 30
0.0000
 42
1.0000
  0
VERTEX
  8
16
 10
8.0305
 20
53.6869
 30
0.0000
  0
SEQEND
  8
0
  0
ENDSEC
  0
EOF
