G04 EAGLE Gerber X2 export*
%TF.Part,Single*%
%TF.FileFunction,Profile,NP*%
%TF.FilePolarity,Positive*%
%TF.GenerationSoftware,Autodesk,EAGLE,8.6.0*%
%TF.CreationDate,2018-01-31T11:55:17Z*%
G75*
%MOMM*%
%FSLAX34Y34*%
%LPD*%
%AMOC8*
5,1,8,0,0,1.08239X$1,22.5*%
G01*
%ADD10C,0.254000*%


D10*
X-12700Y317500D02*
X225300Y317500D01*
X225300Y812700D01*
X-12700Y812700D01*
X-12700Y317500D01*
X39000Y429700D02*
X38989Y429459D01*
X38998Y429219D01*
X39029Y428980D01*
X39080Y428744D01*
X39152Y428514D01*
X39243Y428292D01*
X39354Y428077D01*
X39483Y427874D01*
X39629Y427682D01*
X39791Y427504D01*
X39968Y427341D01*
X40159Y427193D01*
X40361Y427063D01*
X40575Y426951D01*
X40797Y426858D01*
X41026Y426785D01*
X41261Y426732D01*
X41500Y426700D01*
X47500Y426700D01*
X47739Y426732D01*
X47974Y426785D01*
X48203Y426858D01*
X48425Y426951D01*
X48639Y427063D01*
X48842Y427193D01*
X49032Y427341D01*
X49209Y427504D01*
X49371Y427682D01*
X49517Y427874D01*
X49646Y428077D01*
X49757Y428292D01*
X49848Y428514D01*
X49920Y428744D01*
X49971Y428980D01*
X50002Y429219D01*
X50011Y429459D01*
X50000Y429700D01*
X50011Y429941D01*
X50002Y430181D01*
X49971Y430420D01*
X49920Y430656D01*
X49848Y430886D01*
X49757Y431109D01*
X49646Y431323D01*
X49517Y431526D01*
X49371Y431718D01*
X49209Y431896D01*
X49032Y432059D01*
X48842Y432207D01*
X48639Y432337D01*
X48425Y432449D01*
X48203Y432542D01*
X47974Y432615D01*
X47739Y432668D01*
X47500Y432700D01*
X41500Y432700D01*
X41261Y432668D01*
X41026Y432615D01*
X40797Y432542D01*
X40575Y432449D01*
X40361Y432337D01*
X40159Y432207D01*
X39968Y432059D01*
X39791Y431896D01*
X39629Y431718D01*
X39483Y431526D01*
X39354Y431323D01*
X39243Y431109D01*
X39152Y430886D01*
X39080Y430656D01*
X39029Y430420D01*
X38998Y430181D01*
X38989Y429941D01*
X39000Y429700D01*
X39000Y357700D02*
X38989Y357459D01*
X38998Y357219D01*
X39029Y356980D01*
X39080Y356744D01*
X39152Y356514D01*
X39243Y356292D01*
X39354Y356077D01*
X39483Y355874D01*
X39629Y355682D01*
X39791Y355504D01*
X39968Y355341D01*
X40159Y355193D01*
X40361Y355063D01*
X40575Y354951D01*
X40797Y354858D01*
X41026Y354785D01*
X41261Y354732D01*
X41500Y354700D01*
X47500Y354700D01*
X47739Y354732D01*
X47974Y354785D01*
X48203Y354858D01*
X48425Y354951D01*
X48639Y355063D01*
X48842Y355193D01*
X49032Y355341D01*
X49209Y355504D01*
X49371Y355682D01*
X49517Y355874D01*
X49646Y356077D01*
X49757Y356292D01*
X49848Y356514D01*
X49920Y356744D01*
X49971Y356980D01*
X50002Y357219D01*
X50011Y357459D01*
X50000Y357700D01*
X50011Y357941D01*
X50002Y358181D01*
X49971Y358420D01*
X49920Y358656D01*
X49848Y358886D01*
X49757Y359109D01*
X49646Y359323D01*
X49517Y359526D01*
X49371Y359718D01*
X49209Y359896D01*
X49032Y360059D01*
X48842Y360207D01*
X48639Y360337D01*
X48425Y360449D01*
X48203Y360542D01*
X47974Y360615D01*
X47739Y360668D01*
X47500Y360700D01*
X41500Y360700D01*
X41261Y360668D01*
X41026Y360615D01*
X40797Y360542D01*
X40575Y360449D01*
X40361Y360337D01*
X40159Y360207D01*
X39968Y360059D01*
X39791Y359896D01*
X39629Y359718D01*
X39483Y359526D01*
X39354Y359323D01*
X39243Y359109D01*
X39152Y358886D01*
X39080Y358656D01*
X39029Y358420D01*
X38998Y358181D01*
X38989Y357941D01*
X39000Y357700D01*
X63271Y377700D02*
X62816Y377640D01*
X62373Y377521D01*
X61949Y377346D01*
X61551Y377116D01*
X61187Y376837D01*
X60863Y376513D01*
X60584Y376149D01*
X60354Y375751D01*
X60179Y375327D01*
X60060Y374884D01*
X60000Y374429D01*
X60000Y373971D01*
X60060Y373516D01*
X60179Y373073D01*
X60354Y372649D01*
X60584Y372251D01*
X60863Y371887D01*
X61187Y371563D01*
X61551Y371284D01*
X61949Y371054D01*
X62373Y370879D01*
X62816Y370760D01*
X63271Y370700D01*
X63729Y370700D01*
X64184Y370760D01*
X64627Y370879D01*
X65051Y371054D01*
X65449Y371284D01*
X65813Y371563D01*
X66137Y371887D01*
X66416Y372251D01*
X66646Y372649D01*
X66821Y373073D01*
X66940Y373516D01*
X67000Y373971D01*
X67000Y374429D01*
X66940Y374884D01*
X66821Y375327D01*
X66646Y375751D01*
X66416Y376149D01*
X66137Y376513D01*
X65813Y376837D01*
X65449Y377116D01*
X65051Y377346D01*
X64627Y377521D01*
X64184Y377640D01*
X63729Y377700D01*
X63271Y377700D01*
X63271Y416700D02*
X62816Y416640D01*
X62373Y416521D01*
X61949Y416346D01*
X61551Y416116D01*
X61187Y415837D01*
X60863Y415513D01*
X60584Y415149D01*
X60354Y414751D01*
X60179Y414327D01*
X60060Y413884D01*
X60000Y413429D01*
X60000Y412971D01*
X60060Y412516D01*
X60179Y412073D01*
X60354Y411649D01*
X60584Y411251D01*
X60863Y410887D01*
X61187Y410563D01*
X61551Y410284D01*
X61949Y410054D01*
X62373Y409879D01*
X62816Y409760D01*
X63271Y409700D01*
X63729Y409700D01*
X64184Y409760D01*
X64627Y409879D01*
X65051Y410054D01*
X65449Y410284D01*
X65813Y410563D01*
X66137Y410887D01*
X66416Y411251D01*
X66646Y411649D01*
X66821Y412073D01*
X66940Y412516D01*
X67000Y412971D01*
X67000Y413429D01*
X66940Y413884D01*
X66821Y414327D01*
X66646Y414751D01*
X66416Y415149D01*
X66137Y415513D01*
X65813Y415837D01*
X65449Y416116D01*
X65051Y416346D01*
X64627Y416521D01*
X64184Y416640D01*
X63729Y416700D01*
X63271Y416700D01*
M02*
