G04 EAGLE Gerber X2 export*
%TF.Part,Single*%
%TF.FileFunction,Legend,Bot,1*%
%TF.FilePolarity,Positive*%
%TF.GenerationSoftware,Autodesk,EAGLE,8.6.0*%
%TF.CreationDate,2018-01-31T11:55:17Z*%
G75*
%MOMM*%
%FSLAX34Y34*%
%LPD*%
%AMOC8*
5,1,8,0,0,1.08239X$1,22.5*%
G01*
%ADD10C,0.152400*%


D10*
X38862Y566787D02*
X38862Y559562D01*
X55118Y559562D01*
X55118Y566787D01*
X47893Y564981D02*
X47893Y559562D01*
X38862Y577456D02*
X38864Y577574D01*
X38870Y577692D01*
X38879Y577810D01*
X38893Y577927D01*
X38910Y578044D01*
X38931Y578161D01*
X38956Y578276D01*
X38985Y578391D01*
X39018Y578505D01*
X39054Y578617D01*
X39094Y578728D01*
X39137Y578838D01*
X39184Y578947D01*
X39234Y579054D01*
X39289Y579159D01*
X39346Y579262D01*
X39407Y579363D01*
X39471Y579463D01*
X39538Y579560D01*
X39608Y579655D01*
X39682Y579747D01*
X39758Y579838D01*
X39838Y579925D01*
X39920Y580010D01*
X40005Y580092D01*
X40092Y580172D01*
X40183Y580248D01*
X40275Y580322D01*
X40370Y580392D01*
X40467Y580459D01*
X40567Y580523D01*
X40668Y580584D01*
X40771Y580641D01*
X40876Y580696D01*
X40983Y580746D01*
X41092Y580793D01*
X41202Y580836D01*
X41313Y580876D01*
X41425Y580912D01*
X41539Y580945D01*
X41654Y580974D01*
X41769Y580999D01*
X41886Y581020D01*
X42003Y581037D01*
X42120Y581051D01*
X42238Y581060D01*
X42356Y581066D01*
X42474Y581068D01*
X38862Y577456D02*
X38864Y577273D01*
X38871Y577091D01*
X38882Y576909D01*
X38897Y576727D01*
X38917Y576545D01*
X38940Y576364D01*
X38969Y576184D01*
X39001Y576004D01*
X39038Y575825D01*
X39079Y575648D01*
X39125Y575471D01*
X39174Y575295D01*
X39228Y575121D01*
X39286Y574947D01*
X39348Y574776D01*
X39414Y574606D01*
X39485Y574437D01*
X39559Y574270D01*
X39637Y574105D01*
X39719Y573942D01*
X39805Y573781D01*
X39895Y573622D01*
X39989Y573465D01*
X40086Y573311D01*
X40187Y573159D01*
X40292Y573009D01*
X40400Y572862D01*
X40511Y572718D01*
X40626Y572576D01*
X40745Y572437D01*
X40867Y572301D01*
X40992Y572168D01*
X41120Y572038D01*
X51506Y572489D02*
X51624Y572491D01*
X51742Y572497D01*
X51860Y572506D01*
X51977Y572520D01*
X52094Y572537D01*
X52211Y572558D01*
X52326Y572583D01*
X52441Y572612D01*
X52555Y572645D01*
X52667Y572681D01*
X52778Y572721D01*
X52888Y572764D01*
X52997Y572811D01*
X53104Y572861D01*
X53209Y572916D01*
X53312Y572973D01*
X53413Y573034D01*
X53513Y573098D01*
X53610Y573165D01*
X53705Y573235D01*
X53797Y573309D01*
X53888Y573385D01*
X53975Y573465D01*
X54060Y573547D01*
X54142Y573632D01*
X54222Y573719D01*
X54298Y573810D01*
X54372Y573902D01*
X54442Y573997D01*
X54509Y574094D01*
X54573Y574194D01*
X54634Y574295D01*
X54692Y574398D01*
X54746Y574503D01*
X54796Y574610D01*
X54843Y574719D01*
X54887Y574829D01*
X54926Y574940D01*
X54962Y575053D01*
X54995Y575166D01*
X55024Y575281D01*
X55049Y575396D01*
X55070Y575513D01*
X55087Y575630D01*
X55101Y575747D01*
X55110Y575865D01*
X55116Y575983D01*
X55118Y576101D01*
X55116Y576262D01*
X55110Y576424D01*
X55101Y576585D01*
X55087Y576746D01*
X55070Y576906D01*
X55049Y577066D01*
X55024Y577226D01*
X54995Y577385D01*
X54963Y577543D01*
X54927Y577700D01*
X54887Y577856D01*
X54843Y578012D01*
X54795Y578166D01*
X54744Y578319D01*
X54690Y578471D01*
X54631Y578622D01*
X54570Y578771D01*
X54504Y578918D01*
X54435Y579064D01*
X54363Y579209D01*
X54287Y579351D01*
X54208Y579492D01*
X54126Y579631D01*
X54040Y579767D01*
X53951Y579902D01*
X53859Y580035D01*
X53763Y580165D01*
X48345Y574295D02*
X48407Y574194D01*
X48472Y574094D01*
X48541Y573997D01*
X48613Y573902D01*
X48687Y573809D01*
X48765Y573719D01*
X48846Y573631D01*
X48929Y573546D01*
X49015Y573464D01*
X49104Y573385D01*
X49195Y573308D01*
X49289Y573235D01*
X49385Y573164D01*
X49483Y573097D01*
X49583Y573033D01*
X49686Y572972D01*
X49790Y572915D01*
X49896Y572861D01*
X50004Y572811D01*
X50113Y572764D01*
X50224Y572720D01*
X50336Y572680D01*
X50450Y572644D01*
X50564Y572612D01*
X50680Y572583D01*
X50796Y572558D01*
X50913Y572537D01*
X51031Y572520D01*
X51149Y572506D01*
X51268Y572497D01*
X51387Y572491D01*
X51506Y572489D01*
X45635Y579262D02*
X45573Y579363D01*
X45508Y579463D01*
X45439Y579560D01*
X45367Y579655D01*
X45293Y579748D01*
X45215Y579838D01*
X45134Y579926D01*
X45051Y580011D01*
X44965Y580093D01*
X44876Y580172D01*
X44785Y580249D01*
X44691Y580322D01*
X44595Y580393D01*
X44497Y580460D01*
X44397Y580524D01*
X44294Y580585D01*
X44190Y580642D01*
X44084Y580696D01*
X43976Y580746D01*
X43867Y580793D01*
X43756Y580837D01*
X43644Y580877D01*
X43530Y580913D01*
X43416Y580945D01*
X43300Y580974D01*
X43184Y580999D01*
X43067Y581020D01*
X42949Y581037D01*
X42831Y581051D01*
X42712Y581060D01*
X42593Y581066D01*
X42474Y581068D01*
X45635Y579262D02*
X48345Y574295D01*
X55118Y587879D02*
X38862Y587879D01*
X55118Y587879D02*
X55118Y592395D01*
X55116Y592528D01*
X55110Y592660D01*
X55100Y592792D01*
X55087Y592924D01*
X55069Y593056D01*
X55048Y593186D01*
X55023Y593317D01*
X54994Y593446D01*
X54961Y593574D01*
X54925Y593702D01*
X54885Y593828D01*
X54841Y593953D01*
X54793Y594077D01*
X54742Y594199D01*
X54687Y594320D01*
X54629Y594439D01*
X54567Y594557D01*
X54502Y594672D01*
X54433Y594786D01*
X54362Y594897D01*
X54286Y595006D01*
X54208Y595113D01*
X54127Y595218D01*
X54042Y595320D01*
X53955Y595420D01*
X53865Y595517D01*
X53772Y595612D01*
X53676Y595703D01*
X53578Y595792D01*
X53477Y595878D01*
X53373Y595961D01*
X53267Y596041D01*
X53159Y596117D01*
X53049Y596191D01*
X52936Y596261D01*
X52822Y596328D01*
X52705Y596391D01*
X52587Y596451D01*
X52467Y596508D01*
X52345Y596561D01*
X52222Y596610D01*
X52098Y596656D01*
X51972Y596698D01*
X51845Y596736D01*
X51717Y596771D01*
X51588Y596802D01*
X51459Y596829D01*
X51328Y596852D01*
X51197Y596872D01*
X51065Y596887D01*
X50933Y596899D01*
X50801Y596907D01*
X50668Y596911D01*
X50536Y596911D01*
X50403Y596907D01*
X50271Y596899D01*
X50139Y596887D01*
X50007Y596872D01*
X49876Y596852D01*
X49745Y596829D01*
X49616Y596802D01*
X49487Y596771D01*
X49359Y596736D01*
X49232Y596698D01*
X49106Y596656D01*
X48982Y596610D01*
X48859Y596561D01*
X48737Y596508D01*
X48617Y596451D01*
X48499Y596391D01*
X48382Y596328D01*
X48268Y596261D01*
X48155Y596191D01*
X48045Y596117D01*
X47937Y596041D01*
X47831Y595961D01*
X47727Y595878D01*
X47626Y595792D01*
X47528Y595703D01*
X47432Y595612D01*
X47339Y595517D01*
X47249Y595420D01*
X47162Y595320D01*
X47077Y595218D01*
X46996Y595113D01*
X46918Y595006D01*
X46842Y594897D01*
X46771Y594786D01*
X46702Y594672D01*
X46637Y594557D01*
X46575Y594439D01*
X46517Y594320D01*
X46462Y594199D01*
X46411Y594077D01*
X46363Y593953D01*
X46319Y593828D01*
X46279Y593702D01*
X46243Y593574D01*
X46210Y593446D01*
X46181Y593317D01*
X46156Y593186D01*
X46135Y593056D01*
X46117Y592924D01*
X46104Y592792D01*
X46094Y592660D01*
X46088Y592528D01*
X46086Y592395D01*
X46087Y592395D02*
X46087Y587879D01*
X47893Y603511D02*
X47893Y608026D01*
X47894Y608026D02*
X47892Y608159D01*
X47886Y608291D01*
X47876Y608423D01*
X47863Y608555D01*
X47845Y608687D01*
X47824Y608817D01*
X47799Y608948D01*
X47770Y609077D01*
X47737Y609205D01*
X47701Y609333D01*
X47661Y609459D01*
X47617Y609584D01*
X47569Y609708D01*
X47518Y609830D01*
X47463Y609951D01*
X47405Y610070D01*
X47343Y610188D01*
X47278Y610303D01*
X47209Y610417D01*
X47138Y610528D01*
X47062Y610637D01*
X46984Y610744D01*
X46903Y610849D01*
X46818Y610951D01*
X46731Y611051D01*
X46641Y611148D01*
X46548Y611243D01*
X46452Y611334D01*
X46354Y611423D01*
X46253Y611509D01*
X46149Y611592D01*
X46043Y611672D01*
X45935Y611748D01*
X45825Y611822D01*
X45712Y611892D01*
X45598Y611959D01*
X45481Y612022D01*
X45363Y612082D01*
X45243Y612139D01*
X45121Y612192D01*
X44998Y612241D01*
X44874Y612287D01*
X44748Y612329D01*
X44621Y612367D01*
X44493Y612402D01*
X44364Y612433D01*
X44235Y612460D01*
X44104Y612483D01*
X43973Y612503D01*
X43841Y612518D01*
X43709Y612530D01*
X43577Y612538D01*
X43444Y612542D01*
X43312Y612542D01*
X43179Y612538D01*
X43047Y612530D01*
X42915Y612518D01*
X42783Y612503D01*
X42652Y612483D01*
X42521Y612460D01*
X42392Y612433D01*
X42263Y612402D01*
X42135Y612367D01*
X42008Y612329D01*
X41882Y612287D01*
X41758Y612241D01*
X41635Y612192D01*
X41513Y612139D01*
X41393Y612082D01*
X41275Y612022D01*
X41158Y611959D01*
X41044Y611892D01*
X40931Y611822D01*
X40821Y611748D01*
X40713Y611672D01*
X40607Y611592D01*
X40503Y611509D01*
X40402Y611423D01*
X40304Y611334D01*
X40208Y611243D01*
X40115Y611148D01*
X40025Y611051D01*
X39938Y610951D01*
X39853Y610849D01*
X39772Y610744D01*
X39694Y610637D01*
X39618Y610528D01*
X39547Y610417D01*
X39478Y610303D01*
X39413Y610188D01*
X39351Y610070D01*
X39293Y609951D01*
X39238Y609830D01*
X39187Y609708D01*
X39139Y609584D01*
X39095Y609459D01*
X39055Y609333D01*
X39019Y609205D01*
X38986Y609077D01*
X38957Y608948D01*
X38932Y608817D01*
X38911Y608687D01*
X38893Y608555D01*
X38880Y608423D01*
X38870Y608291D01*
X38864Y608159D01*
X38862Y608026D01*
X38862Y603511D01*
X55118Y603511D01*
X55118Y608026D01*
X55116Y608145D01*
X55110Y608265D01*
X55100Y608384D01*
X55086Y608502D01*
X55069Y608621D01*
X55047Y608738D01*
X55022Y608855D01*
X54992Y608970D01*
X54959Y609085D01*
X54922Y609199D01*
X54882Y609311D01*
X54837Y609422D01*
X54789Y609531D01*
X54738Y609639D01*
X54683Y609745D01*
X54624Y609849D01*
X54562Y609951D01*
X54497Y610051D01*
X54428Y610149D01*
X54356Y610245D01*
X54281Y610338D01*
X54204Y610428D01*
X54123Y610516D01*
X54039Y610601D01*
X53952Y610683D01*
X53863Y610763D01*
X53771Y610839D01*
X53677Y610913D01*
X53580Y610983D01*
X53482Y611050D01*
X53381Y611114D01*
X53277Y611174D01*
X53172Y611231D01*
X53065Y611284D01*
X52957Y611334D01*
X52847Y611380D01*
X52735Y611422D01*
X52622Y611461D01*
X52508Y611496D01*
X52393Y611527D01*
X52276Y611555D01*
X52159Y611578D01*
X52042Y611598D01*
X51923Y611614D01*
X51804Y611626D01*
X51685Y611634D01*
X51566Y611638D01*
X51446Y611638D01*
X51327Y611634D01*
X51208Y611626D01*
X51089Y611614D01*
X50970Y611598D01*
X50853Y611578D01*
X50736Y611555D01*
X50619Y611527D01*
X50504Y611496D01*
X50390Y611461D01*
X50277Y611422D01*
X50165Y611380D01*
X50055Y611334D01*
X49947Y611284D01*
X49840Y611231D01*
X49735Y611174D01*
X49631Y611114D01*
X49530Y611050D01*
X49432Y610983D01*
X49335Y610913D01*
X49241Y610839D01*
X49149Y610763D01*
X49060Y610683D01*
X48973Y610601D01*
X48889Y610516D01*
X48808Y610428D01*
X48731Y610338D01*
X48656Y610245D01*
X48584Y610149D01*
X48515Y610051D01*
X48450Y609951D01*
X48388Y609849D01*
X48329Y609745D01*
X48274Y609639D01*
X48223Y609531D01*
X48175Y609422D01*
X48130Y609311D01*
X48090Y609199D01*
X48053Y609085D01*
X48020Y608970D01*
X47990Y608855D01*
X47965Y608738D01*
X47943Y608621D01*
X47926Y608502D01*
X47912Y608384D01*
X47902Y608265D01*
X47896Y608145D01*
X47894Y608026D01*
X43378Y618931D02*
X55118Y618931D01*
X43378Y618930D02*
X43245Y618932D01*
X43113Y618938D01*
X42981Y618948D01*
X42849Y618961D01*
X42717Y618979D01*
X42587Y619000D01*
X42456Y619025D01*
X42327Y619054D01*
X42199Y619087D01*
X42071Y619123D01*
X41945Y619163D01*
X41820Y619207D01*
X41696Y619255D01*
X41574Y619306D01*
X41453Y619361D01*
X41334Y619419D01*
X41216Y619481D01*
X41101Y619546D01*
X40987Y619615D01*
X40876Y619686D01*
X40767Y619762D01*
X40660Y619840D01*
X40555Y619921D01*
X40453Y620006D01*
X40353Y620093D01*
X40256Y620183D01*
X40161Y620276D01*
X40070Y620372D01*
X39981Y620470D01*
X39895Y620571D01*
X39812Y620675D01*
X39732Y620781D01*
X39656Y620889D01*
X39582Y620999D01*
X39512Y621112D01*
X39445Y621226D01*
X39382Y621343D01*
X39322Y621461D01*
X39265Y621581D01*
X39212Y621703D01*
X39163Y621826D01*
X39117Y621950D01*
X39075Y622076D01*
X39037Y622203D01*
X39002Y622331D01*
X38971Y622460D01*
X38944Y622589D01*
X38921Y622720D01*
X38901Y622851D01*
X38886Y622983D01*
X38874Y623115D01*
X38866Y623247D01*
X38862Y623380D01*
X38862Y623512D01*
X38866Y623645D01*
X38874Y623777D01*
X38886Y623909D01*
X38901Y624041D01*
X38921Y624172D01*
X38944Y624303D01*
X38971Y624432D01*
X39002Y624561D01*
X39037Y624689D01*
X39075Y624816D01*
X39117Y624942D01*
X39163Y625066D01*
X39212Y625189D01*
X39265Y625311D01*
X39322Y625431D01*
X39382Y625549D01*
X39445Y625666D01*
X39512Y625780D01*
X39582Y625893D01*
X39656Y626003D01*
X39732Y626111D01*
X39812Y626217D01*
X39895Y626321D01*
X39981Y626422D01*
X40070Y626520D01*
X40161Y626616D01*
X40256Y626709D01*
X40353Y626799D01*
X40453Y626886D01*
X40555Y626971D01*
X40660Y627052D01*
X40767Y627130D01*
X40876Y627206D01*
X40987Y627277D01*
X41101Y627346D01*
X41216Y627411D01*
X41334Y627473D01*
X41453Y627531D01*
X41574Y627586D01*
X41696Y627637D01*
X41820Y627685D01*
X41945Y627729D01*
X42071Y627769D01*
X42199Y627805D01*
X42327Y627838D01*
X42456Y627867D01*
X42587Y627892D01*
X42717Y627913D01*
X42849Y627931D01*
X42981Y627944D01*
X43113Y627954D01*
X43245Y627960D01*
X43378Y627962D01*
X55118Y627962D01*
X55118Y638557D02*
X38862Y638557D01*
X55118Y634041D02*
X55118Y643072D01*
X55118Y652104D02*
X38862Y652104D01*
X55118Y647588D02*
X55118Y656619D01*
X50602Y662177D02*
X43378Y662177D01*
X50602Y662177D02*
X50735Y662179D01*
X50867Y662185D01*
X50999Y662195D01*
X51131Y662208D01*
X51263Y662226D01*
X51393Y662247D01*
X51524Y662272D01*
X51653Y662301D01*
X51781Y662334D01*
X51909Y662370D01*
X52035Y662410D01*
X52160Y662454D01*
X52284Y662502D01*
X52406Y662553D01*
X52527Y662608D01*
X52646Y662666D01*
X52764Y662728D01*
X52879Y662793D01*
X52993Y662862D01*
X53104Y662933D01*
X53213Y663009D01*
X53320Y663087D01*
X53425Y663168D01*
X53527Y663253D01*
X53627Y663340D01*
X53724Y663430D01*
X53819Y663523D01*
X53910Y663619D01*
X53999Y663717D01*
X54085Y663818D01*
X54168Y663922D01*
X54248Y664028D01*
X54324Y664136D01*
X54398Y664246D01*
X54468Y664359D01*
X54535Y664473D01*
X54598Y664590D01*
X54658Y664708D01*
X54715Y664828D01*
X54768Y664950D01*
X54817Y665073D01*
X54863Y665197D01*
X54905Y665323D01*
X54943Y665450D01*
X54978Y665578D01*
X55009Y665707D01*
X55036Y665836D01*
X55059Y665967D01*
X55079Y666098D01*
X55094Y666230D01*
X55106Y666362D01*
X55114Y666494D01*
X55118Y666627D01*
X55118Y666759D01*
X55114Y666892D01*
X55106Y667024D01*
X55094Y667156D01*
X55079Y667288D01*
X55059Y667419D01*
X55036Y667550D01*
X55009Y667679D01*
X54978Y667808D01*
X54943Y667936D01*
X54905Y668063D01*
X54863Y668189D01*
X54817Y668313D01*
X54768Y668436D01*
X54715Y668558D01*
X54658Y668678D01*
X54598Y668796D01*
X54535Y668913D01*
X54468Y669027D01*
X54398Y669140D01*
X54324Y669250D01*
X54248Y669358D01*
X54168Y669464D01*
X54085Y669568D01*
X53999Y669669D01*
X53910Y669767D01*
X53819Y669863D01*
X53724Y669956D01*
X53627Y670046D01*
X53527Y670133D01*
X53425Y670218D01*
X53320Y670299D01*
X53213Y670377D01*
X53104Y670453D01*
X52993Y670524D01*
X52879Y670593D01*
X52764Y670658D01*
X52646Y670720D01*
X52527Y670778D01*
X52406Y670833D01*
X52284Y670884D01*
X52160Y670932D01*
X52035Y670976D01*
X51909Y671016D01*
X51781Y671052D01*
X51653Y671085D01*
X51524Y671114D01*
X51393Y671139D01*
X51263Y671160D01*
X51131Y671178D01*
X50999Y671191D01*
X50867Y671201D01*
X50735Y671207D01*
X50602Y671209D01*
X43378Y671209D01*
X43245Y671207D01*
X43113Y671201D01*
X42981Y671191D01*
X42849Y671178D01*
X42717Y671160D01*
X42587Y671139D01*
X42456Y671114D01*
X42327Y671085D01*
X42199Y671052D01*
X42071Y671016D01*
X41945Y670976D01*
X41820Y670932D01*
X41696Y670884D01*
X41574Y670833D01*
X41453Y670778D01*
X41334Y670720D01*
X41216Y670658D01*
X41101Y670593D01*
X40987Y670524D01*
X40876Y670453D01*
X40767Y670377D01*
X40660Y670299D01*
X40555Y670218D01*
X40453Y670133D01*
X40353Y670046D01*
X40256Y669956D01*
X40161Y669863D01*
X40070Y669767D01*
X39981Y669669D01*
X39895Y669568D01*
X39812Y669464D01*
X39732Y669358D01*
X39656Y669250D01*
X39582Y669140D01*
X39512Y669027D01*
X39445Y668913D01*
X39382Y668796D01*
X39322Y668678D01*
X39265Y668558D01*
X39212Y668436D01*
X39163Y668313D01*
X39117Y668189D01*
X39075Y668063D01*
X39037Y667936D01*
X39002Y667808D01*
X38971Y667679D01*
X38944Y667550D01*
X38921Y667419D01*
X38901Y667288D01*
X38886Y667156D01*
X38874Y667024D01*
X38866Y666892D01*
X38862Y666759D01*
X38862Y666627D01*
X38866Y666494D01*
X38874Y666362D01*
X38886Y666230D01*
X38901Y666098D01*
X38921Y665967D01*
X38944Y665836D01*
X38971Y665707D01*
X39002Y665578D01*
X39037Y665450D01*
X39075Y665323D01*
X39117Y665197D01*
X39163Y665073D01*
X39212Y664950D01*
X39265Y664828D01*
X39322Y664708D01*
X39382Y664590D01*
X39445Y664473D01*
X39512Y664359D01*
X39582Y664246D01*
X39656Y664136D01*
X39732Y664028D01*
X39812Y663922D01*
X39895Y663818D01*
X39981Y663717D01*
X40070Y663619D01*
X40161Y663523D01*
X40256Y663430D01*
X40353Y663340D01*
X40453Y663253D01*
X40555Y663168D01*
X40660Y663087D01*
X40767Y663009D01*
X40876Y662933D01*
X40987Y662862D01*
X41101Y662793D01*
X41216Y662728D01*
X41334Y662666D01*
X41453Y662608D01*
X41574Y662553D01*
X41696Y662502D01*
X41820Y662454D01*
X41945Y662410D01*
X42071Y662370D01*
X42199Y662334D01*
X42327Y662301D01*
X42456Y662272D01*
X42587Y662247D01*
X42717Y662226D01*
X42849Y662208D01*
X42981Y662195D01*
X43113Y662185D01*
X43245Y662179D01*
X43378Y662177D01*
X38862Y678330D02*
X55118Y678330D01*
X38862Y687361D01*
X55118Y687361D01*
X29718Y559562D02*
X13462Y559562D01*
X19784Y559562D02*
X29718Y568593D01*
X23396Y563174D02*
X13462Y568593D01*
X13462Y577032D02*
X13462Y581547D01*
X13462Y577032D02*
X13464Y576931D01*
X13470Y576830D01*
X13479Y576729D01*
X13492Y576628D01*
X13509Y576528D01*
X13530Y576429D01*
X13554Y576331D01*
X13582Y576234D01*
X13614Y576137D01*
X13649Y576042D01*
X13688Y575949D01*
X13730Y575857D01*
X13776Y575766D01*
X13825Y575678D01*
X13877Y575591D01*
X13933Y575506D01*
X13991Y575423D01*
X14053Y575343D01*
X14118Y575265D01*
X14185Y575189D01*
X14255Y575116D01*
X14328Y575046D01*
X14404Y574979D01*
X14482Y574914D01*
X14562Y574852D01*
X14645Y574794D01*
X14730Y574738D01*
X14817Y574686D01*
X14905Y574637D01*
X14996Y574591D01*
X15088Y574549D01*
X15181Y574510D01*
X15276Y574475D01*
X15373Y574443D01*
X15470Y574415D01*
X15568Y574391D01*
X15667Y574370D01*
X15767Y574353D01*
X15868Y574340D01*
X15969Y574331D01*
X16070Y574325D01*
X16171Y574323D01*
X16171Y574322D02*
X20687Y574322D01*
X20687Y574323D02*
X20806Y574325D01*
X20926Y574331D01*
X21045Y574341D01*
X21163Y574355D01*
X21282Y574372D01*
X21399Y574394D01*
X21516Y574419D01*
X21631Y574449D01*
X21746Y574482D01*
X21860Y574519D01*
X21972Y574559D01*
X22083Y574604D01*
X22192Y574652D01*
X22300Y574703D01*
X22406Y574758D01*
X22510Y574817D01*
X22612Y574879D01*
X22712Y574944D01*
X22810Y575013D01*
X22906Y575085D01*
X22999Y575160D01*
X23089Y575237D01*
X23177Y575318D01*
X23262Y575402D01*
X23344Y575489D01*
X23424Y575578D01*
X23500Y575670D01*
X23574Y575764D01*
X23644Y575861D01*
X23711Y575959D01*
X23775Y576060D01*
X23835Y576164D01*
X23892Y576269D01*
X23945Y576376D01*
X23995Y576484D01*
X24041Y576594D01*
X24083Y576706D01*
X24122Y576819D01*
X24157Y576933D01*
X24188Y577048D01*
X24216Y577165D01*
X24239Y577282D01*
X24259Y577399D01*
X24275Y577518D01*
X24287Y577637D01*
X24295Y577756D01*
X24299Y577875D01*
X24299Y577995D01*
X24295Y578114D01*
X24287Y578233D01*
X24275Y578352D01*
X24259Y578471D01*
X24239Y578588D01*
X24216Y578705D01*
X24188Y578822D01*
X24157Y578937D01*
X24122Y579051D01*
X24083Y579164D01*
X24041Y579276D01*
X23995Y579386D01*
X23945Y579494D01*
X23892Y579601D01*
X23835Y579706D01*
X23775Y579810D01*
X23711Y579911D01*
X23644Y580009D01*
X23574Y580106D01*
X23500Y580200D01*
X23424Y580292D01*
X23344Y580381D01*
X23262Y580468D01*
X23177Y580552D01*
X23089Y580633D01*
X22999Y580710D01*
X22906Y580785D01*
X22810Y580857D01*
X22712Y580926D01*
X22612Y580991D01*
X22510Y581053D01*
X22406Y581112D01*
X22300Y581167D01*
X22192Y581218D01*
X22083Y581266D01*
X21972Y581311D01*
X21860Y581351D01*
X21746Y581388D01*
X21631Y581421D01*
X21516Y581451D01*
X21399Y581476D01*
X21282Y581498D01*
X21163Y581515D01*
X21045Y581529D01*
X20926Y581539D01*
X20806Y581545D01*
X20687Y581547D01*
X18881Y581547D01*
X18881Y574322D01*
X24299Y587348D02*
X13462Y590961D01*
X24299Y594573D01*
X24299Y600339D02*
X13462Y600339D01*
X28815Y599888D02*
X29718Y599888D01*
X29718Y600791D01*
X28815Y600791D01*
X28815Y599888D01*
X24299Y607148D02*
X13462Y607148D01*
X24299Y607148D02*
X24299Y611663D01*
X24297Y611764D01*
X24291Y611865D01*
X24282Y611966D01*
X24269Y612067D01*
X24252Y612167D01*
X24231Y612266D01*
X24207Y612364D01*
X24179Y612461D01*
X24147Y612558D01*
X24112Y612653D01*
X24073Y612746D01*
X24031Y612838D01*
X23985Y612929D01*
X23936Y613018D01*
X23884Y613104D01*
X23828Y613189D01*
X23770Y613272D01*
X23708Y613352D01*
X23643Y613430D01*
X23576Y613506D01*
X23506Y613579D01*
X23433Y613649D01*
X23357Y613716D01*
X23279Y613781D01*
X23199Y613843D01*
X23116Y613901D01*
X23031Y613957D01*
X22945Y614009D01*
X22856Y614058D01*
X22765Y614104D01*
X22673Y614146D01*
X22580Y614185D01*
X22485Y614220D01*
X22388Y614252D01*
X22291Y614280D01*
X22193Y614304D01*
X22094Y614325D01*
X21994Y614342D01*
X21893Y614355D01*
X21792Y614364D01*
X21691Y614370D01*
X21590Y614372D01*
X21590Y614373D02*
X13462Y614373D01*
X24299Y629031D02*
X13462Y632644D01*
X24299Y636256D01*
X19784Y645145D02*
X19784Y649209D01*
X19784Y645145D02*
X19782Y645033D01*
X19776Y644922D01*
X19766Y644811D01*
X19753Y644700D01*
X19735Y644590D01*
X19713Y644481D01*
X19688Y644372D01*
X19659Y644264D01*
X19626Y644158D01*
X19589Y644052D01*
X19549Y643948D01*
X19505Y643846D01*
X19457Y643745D01*
X19406Y643646D01*
X19351Y643548D01*
X19293Y643453D01*
X19232Y643360D01*
X19167Y643269D01*
X19099Y643180D01*
X19028Y643094D01*
X18955Y643011D01*
X18878Y642930D01*
X18798Y642851D01*
X18716Y642776D01*
X18631Y642704D01*
X18544Y642634D01*
X18454Y642568D01*
X18362Y642505D01*
X18267Y642445D01*
X18171Y642389D01*
X18073Y642336D01*
X17973Y642287D01*
X17871Y642241D01*
X17768Y642199D01*
X17663Y642160D01*
X17557Y642125D01*
X17450Y642094D01*
X17342Y642067D01*
X17233Y642043D01*
X17123Y642024D01*
X17013Y642008D01*
X16902Y641996D01*
X16790Y641988D01*
X16679Y641984D01*
X16567Y641984D01*
X16456Y641988D01*
X16344Y641996D01*
X16233Y642008D01*
X16123Y642024D01*
X16013Y642043D01*
X15904Y642067D01*
X15796Y642094D01*
X15689Y642125D01*
X15583Y642160D01*
X15478Y642199D01*
X15375Y642241D01*
X15273Y642287D01*
X15173Y642336D01*
X15075Y642389D01*
X14979Y642445D01*
X14884Y642505D01*
X14792Y642568D01*
X14702Y642634D01*
X14615Y642704D01*
X14530Y642776D01*
X14448Y642851D01*
X14368Y642930D01*
X14291Y643011D01*
X14218Y643094D01*
X14147Y643180D01*
X14079Y643269D01*
X14014Y643360D01*
X13953Y643453D01*
X13895Y643548D01*
X13840Y643646D01*
X13789Y643745D01*
X13741Y643846D01*
X13697Y643948D01*
X13657Y644052D01*
X13620Y644158D01*
X13587Y644264D01*
X13558Y644372D01*
X13533Y644481D01*
X13511Y644590D01*
X13493Y644700D01*
X13480Y644811D01*
X13470Y644922D01*
X13464Y645033D01*
X13462Y645145D01*
X13462Y649209D01*
X21590Y649209D01*
X21691Y649207D01*
X21792Y649201D01*
X21893Y649192D01*
X21994Y649179D01*
X22094Y649162D01*
X22193Y649141D01*
X22291Y649117D01*
X22388Y649089D01*
X22485Y649057D01*
X22580Y649022D01*
X22673Y648983D01*
X22765Y648941D01*
X22856Y648895D01*
X22945Y648846D01*
X23031Y648794D01*
X23116Y648738D01*
X23199Y648680D01*
X23279Y648618D01*
X23357Y648553D01*
X23433Y648486D01*
X23506Y648416D01*
X23576Y648343D01*
X23643Y648267D01*
X23708Y648189D01*
X23770Y648109D01*
X23828Y648026D01*
X23884Y647941D01*
X23936Y647855D01*
X23985Y647766D01*
X24031Y647675D01*
X24073Y647583D01*
X24112Y647490D01*
X24147Y647395D01*
X24179Y647298D01*
X24207Y647201D01*
X24231Y647103D01*
X24252Y647004D01*
X24269Y646904D01*
X24282Y646803D01*
X24291Y646702D01*
X24297Y646601D01*
X24299Y646500D01*
X24299Y642887D01*
X24299Y656647D02*
X13462Y656647D01*
X24299Y656647D02*
X24299Y661162D01*
X24297Y661263D01*
X24291Y661364D01*
X24282Y661465D01*
X24269Y661566D01*
X24252Y661666D01*
X24231Y661765D01*
X24207Y661863D01*
X24179Y661960D01*
X24147Y662057D01*
X24112Y662152D01*
X24073Y662245D01*
X24031Y662337D01*
X23985Y662428D01*
X23936Y662517D01*
X23884Y662603D01*
X23828Y662688D01*
X23770Y662771D01*
X23708Y662851D01*
X23643Y662929D01*
X23576Y663005D01*
X23506Y663078D01*
X23433Y663148D01*
X23357Y663215D01*
X23279Y663280D01*
X23199Y663342D01*
X23116Y663400D01*
X23031Y663456D01*
X22945Y663508D01*
X22856Y663557D01*
X22765Y663603D01*
X22673Y663645D01*
X22580Y663684D01*
X22485Y663719D01*
X22388Y663751D01*
X22291Y663779D01*
X22193Y663803D01*
X22094Y663824D01*
X21994Y663841D01*
X21893Y663854D01*
X21792Y663863D01*
X21691Y663869D01*
X21590Y663871D01*
X13462Y663871D01*
X13462Y686203D02*
X29718Y686203D01*
X13462Y686203D02*
X13462Y681687D01*
X13464Y681586D01*
X13470Y681485D01*
X13479Y681384D01*
X13492Y681283D01*
X13509Y681183D01*
X13530Y681084D01*
X13554Y680986D01*
X13582Y680889D01*
X13614Y680792D01*
X13649Y680697D01*
X13688Y680604D01*
X13730Y680512D01*
X13776Y680421D01*
X13825Y680333D01*
X13877Y680246D01*
X13933Y680161D01*
X13991Y680078D01*
X14053Y679998D01*
X14118Y679920D01*
X14185Y679844D01*
X14255Y679771D01*
X14328Y679701D01*
X14404Y679634D01*
X14482Y679569D01*
X14562Y679507D01*
X14645Y679449D01*
X14730Y679393D01*
X14817Y679341D01*
X14905Y679292D01*
X14996Y679246D01*
X15088Y679204D01*
X15181Y679165D01*
X15276Y679130D01*
X15373Y679098D01*
X15470Y679070D01*
X15568Y679046D01*
X15667Y679025D01*
X15767Y679008D01*
X15868Y678995D01*
X15969Y678986D01*
X16070Y678980D01*
X16171Y678978D01*
X21590Y678978D01*
X21691Y678980D01*
X21792Y678986D01*
X21893Y678995D01*
X21994Y679008D01*
X22094Y679025D01*
X22193Y679046D01*
X22291Y679070D01*
X22388Y679098D01*
X22485Y679130D01*
X22580Y679165D01*
X22673Y679204D01*
X22765Y679246D01*
X22856Y679292D01*
X22944Y679341D01*
X23031Y679393D01*
X23116Y679449D01*
X23199Y679507D01*
X23279Y679569D01*
X23357Y679634D01*
X23433Y679701D01*
X23506Y679771D01*
X23576Y679844D01*
X23643Y679920D01*
X23708Y679998D01*
X23770Y680078D01*
X23828Y680161D01*
X23884Y680246D01*
X23936Y680333D01*
X23985Y680421D01*
X24031Y680512D01*
X24073Y680604D01*
X24112Y680697D01*
X24147Y680792D01*
X24179Y680889D01*
X24207Y680986D01*
X24231Y681084D01*
X24252Y681183D01*
X24269Y681283D01*
X24282Y681384D01*
X24291Y681485D01*
X24297Y681586D01*
X24299Y681687D01*
X24299Y686203D01*
X13462Y695829D02*
X13462Y700344D01*
X13462Y695829D02*
X13464Y695728D01*
X13470Y695627D01*
X13479Y695526D01*
X13492Y695425D01*
X13509Y695325D01*
X13530Y695226D01*
X13554Y695128D01*
X13582Y695031D01*
X13614Y694934D01*
X13649Y694839D01*
X13688Y694746D01*
X13730Y694654D01*
X13776Y694563D01*
X13825Y694475D01*
X13877Y694388D01*
X13933Y694303D01*
X13991Y694220D01*
X14053Y694140D01*
X14118Y694062D01*
X14185Y693986D01*
X14255Y693913D01*
X14328Y693843D01*
X14404Y693776D01*
X14482Y693711D01*
X14562Y693649D01*
X14645Y693591D01*
X14730Y693535D01*
X14817Y693483D01*
X14905Y693434D01*
X14996Y693388D01*
X15088Y693346D01*
X15181Y693307D01*
X15276Y693272D01*
X15373Y693240D01*
X15470Y693212D01*
X15568Y693188D01*
X15667Y693167D01*
X15767Y693150D01*
X15868Y693137D01*
X15969Y693128D01*
X16070Y693122D01*
X16171Y693120D01*
X16171Y693119D02*
X20687Y693119D01*
X20687Y693120D02*
X20806Y693122D01*
X20926Y693128D01*
X21045Y693138D01*
X21163Y693152D01*
X21282Y693169D01*
X21399Y693191D01*
X21516Y693216D01*
X21631Y693246D01*
X21746Y693279D01*
X21860Y693316D01*
X21972Y693356D01*
X22083Y693401D01*
X22192Y693449D01*
X22300Y693500D01*
X22406Y693555D01*
X22510Y693614D01*
X22612Y693676D01*
X22712Y693741D01*
X22810Y693810D01*
X22906Y693882D01*
X22999Y693957D01*
X23089Y694034D01*
X23177Y694115D01*
X23262Y694199D01*
X23344Y694286D01*
X23424Y694375D01*
X23500Y694467D01*
X23574Y694561D01*
X23644Y694658D01*
X23711Y694756D01*
X23775Y694857D01*
X23835Y694961D01*
X23892Y695066D01*
X23945Y695173D01*
X23995Y695281D01*
X24041Y695391D01*
X24083Y695503D01*
X24122Y695616D01*
X24157Y695730D01*
X24188Y695845D01*
X24216Y695962D01*
X24239Y696079D01*
X24259Y696196D01*
X24275Y696315D01*
X24287Y696434D01*
X24295Y696553D01*
X24299Y696672D01*
X24299Y696792D01*
X24295Y696911D01*
X24287Y697030D01*
X24275Y697149D01*
X24259Y697268D01*
X24239Y697385D01*
X24216Y697502D01*
X24188Y697619D01*
X24157Y697734D01*
X24122Y697848D01*
X24083Y697961D01*
X24041Y698073D01*
X23995Y698183D01*
X23945Y698291D01*
X23892Y698398D01*
X23835Y698503D01*
X23775Y698607D01*
X23711Y698708D01*
X23644Y698806D01*
X23574Y698903D01*
X23500Y698997D01*
X23424Y699089D01*
X23344Y699178D01*
X23262Y699265D01*
X23177Y699349D01*
X23089Y699430D01*
X22999Y699507D01*
X22906Y699582D01*
X22810Y699654D01*
X22712Y699723D01*
X22612Y699788D01*
X22510Y699850D01*
X22406Y699909D01*
X22300Y699964D01*
X22192Y700015D01*
X22083Y700063D01*
X21972Y700108D01*
X21860Y700148D01*
X21746Y700185D01*
X21631Y700218D01*
X21516Y700248D01*
X21399Y700273D01*
X21282Y700295D01*
X21163Y700312D01*
X21045Y700326D01*
X20926Y700336D01*
X20806Y700342D01*
X20687Y700344D01*
X18881Y700344D01*
X18881Y693119D01*
X13462Y707187D02*
X24299Y707187D01*
X24299Y711703D01*
X24297Y711804D01*
X24291Y711905D01*
X24282Y712006D01*
X24269Y712107D01*
X24252Y712207D01*
X24231Y712306D01*
X24207Y712404D01*
X24179Y712501D01*
X24147Y712598D01*
X24112Y712693D01*
X24073Y712786D01*
X24031Y712878D01*
X23985Y712969D01*
X23936Y713058D01*
X23884Y713144D01*
X23828Y713229D01*
X23770Y713312D01*
X23708Y713392D01*
X23643Y713470D01*
X23576Y713546D01*
X23506Y713619D01*
X23433Y713689D01*
X23357Y713756D01*
X23279Y713821D01*
X23199Y713883D01*
X23116Y713941D01*
X23031Y713997D01*
X22945Y714049D01*
X22856Y714098D01*
X22765Y714144D01*
X22673Y714186D01*
X22580Y714225D01*
X22485Y714260D01*
X22388Y714292D01*
X22291Y714320D01*
X22193Y714344D01*
X22094Y714365D01*
X21994Y714382D01*
X21893Y714395D01*
X21792Y714404D01*
X21691Y714410D01*
X21590Y714412D01*
X13462Y714412D01*
X22493Y730463D02*
X22493Y734979D01*
X22494Y734979D02*
X22492Y735112D01*
X22486Y735244D01*
X22476Y735376D01*
X22463Y735508D01*
X22445Y735640D01*
X22424Y735770D01*
X22399Y735901D01*
X22370Y736030D01*
X22337Y736158D01*
X22301Y736286D01*
X22261Y736412D01*
X22217Y736537D01*
X22169Y736661D01*
X22118Y736783D01*
X22063Y736904D01*
X22005Y737023D01*
X21943Y737141D01*
X21878Y737256D01*
X21809Y737370D01*
X21738Y737481D01*
X21662Y737590D01*
X21584Y737697D01*
X21503Y737802D01*
X21418Y737904D01*
X21331Y738004D01*
X21241Y738101D01*
X21148Y738196D01*
X21052Y738287D01*
X20954Y738376D01*
X20853Y738462D01*
X20749Y738545D01*
X20643Y738625D01*
X20535Y738701D01*
X20425Y738775D01*
X20312Y738845D01*
X20198Y738912D01*
X20081Y738975D01*
X19963Y739035D01*
X19843Y739092D01*
X19721Y739145D01*
X19598Y739194D01*
X19474Y739240D01*
X19348Y739282D01*
X19221Y739320D01*
X19093Y739355D01*
X18964Y739386D01*
X18835Y739413D01*
X18704Y739436D01*
X18573Y739456D01*
X18441Y739471D01*
X18309Y739483D01*
X18177Y739491D01*
X18044Y739495D01*
X17912Y739495D01*
X17779Y739491D01*
X17647Y739483D01*
X17515Y739471D01*
X17383Y739456D01*
X17252Y739436D01*
X17121Y739413D01*
X16992Y739386D01*
X16863Y739355D01*
X16735Y739320D01*
X16608Y739282D01*
X16482Y739240D01*
X16358Y739194D01*
X16235Y739145D01*
X16113Y739092D01*
X15993Y739035D01*
X15875Y738975D01*
X15758Y738912D01*
X15644Y738845D01*
X15531Y738775D01*
X15421Y738701D01*
X15313Y738625D01*
X15207Y738545D01*
X15103Y738462D01*
X15002Y738376D01*
X14904Y738287D01*
X14808Y738196D01*
X14715Y738101D01*
X14625Y738004D01*
X14538Y737904D01*
X14453Y737802D01*
X14372Y737697D01*
X14294Y737590D01*
X14218Y737481D01*
X14147Y737370D01*
X14078Y737256D01*
X14013Y737141D01*
X13951Y737023D01*
X13893Y736904D01*
X13838Y736783D01*
X13787Y736661D01*
X13739Y736537D01*
X13695Y736412D01*
X13655Y736286D01*
X13619Y736158D01*
X13586Y736030D01*
X13557Y735901D01*
X13532Y735770D01*
X13511Y735640D01*
X13493Y735508D01*
X13480Y735376D01*
X13470Y735244D01*
X13464Y735112D01*
X13462Y734979D01*
X13462Y730463D01*
X29718Y730463D01*
X29718Y734979D01*
X29716Y735098D01*
X29710Y735218D01*
X29700Y735337D01*
X29686Y735455D01*
X29669Y735574D01*
X29647Y735691D01*
X29622Y735808D01*
X29592Y735923D01*
X29559Y736038D01*
X29522Y736152D01*
X29482Y736264D01*
X29437Y736375D01*
X29389Y736484D01*
X29338Y736592D01*
X29283Y736698D01*
X29224Y736802D01*
X29162Y736904D01*
X29097Y737004D01*
X29028Y737102D01*
X28956Y737198D01*
X28881Y737291D01*
X28804Y737381D01*
X28723Y737469D01*
X28639Y737554D01*
X28552Y737636D01*
X28463Y737716D01*
X28371Y737792D01*
X28277Y737866D01*
X28180Y737936D01*
X28082Y738003D01*
X27981Y738067D01*
X27877Y738127D01*
X27772Y738184D01*
X27665Y738237D01*
X27557Y738287D01*
X27447Y738333D01*
X27335Y738375D01*
X27222Y738414D01*
X27108Y738449D01*
X26993Y738480D01*
X26876Y738508D01*
X26759Y738531D01*
X26642Y738551D01*
X26523Y738567D01*
X26404Y738579D01*
X26285Y738587D01*
X26166Y738591D01*
X26046Y738591D01*
X25927Y738587D01*
X25808Y738579D01*
X25689Y738567D01*
X25570Y738551D01*
X25453Y738531D01*
X25336Y738508D01*
X25219Y738480D01*
X25104Y738449D01*
X24990Y738414D01*
X24877Y738375D01*
X24765Y738333D01*
X24655Y738287D01*
X24547Y738237D01*
X24440Y738184D01*
X24335Y738127D01*
X24231Y738067D01*
X24130Y738003D01*
X24032Y737936D01*
X23935Y737866D01*
X23841Y737792D01*
X23749Y737716D01*
X23660Y737636D01*
X23573Y737554D01*
X23489Y737469D01*
X23408Y737381D01*
X23331Y737291D01*
X23256Y737198D01*
X23184Y737102D01*
X23115Y737004D01*
X23050Y736904D01*
X22988Y736802D01*
X22929Y736698D01*
X22874Y736592D01*
X22823Y736484D01*
X22775Y736375D01*
X22730Y736264D01*
X22690Y736152D01*
X22653Y736038D01*
X22620Y735923D01*
X22590Y735808D01*
X22565Y735691D01*
X22543Y735574D01*
X22526Y735455D01*
X22512Y735337D01*
X22502Y735218D01*
X22496Y735098D01*
X22494Y734979D01*
X24299Y745829D02*
X13462Y745829D01*
X24299Y745829D02*
X24299Y751248D01*
X22493Y751248D01*
X20687Y756165D02*
X17074Y756165D01*
X20687Y756166D02*
X20806Y756168D01*
X20926Y756174D01*
X21045Y756184D01*
X21163Y756198D01*
X21282Y756215D01*
X21399Y756237D01*
X21516Y756262D01*
X21631Y756292D01*
X21746Y756325D01*
X21860Y756362D01*
X21972Y756402D01*
X22083Y756447D01*
X22192Y756495D01*
X22300Y756546D01*
X22406Y756601D01*
X22510Y756660D01*
X22612Y756722D01*
X22712Y756787D01*
X22810Y756856D01*
X22906Y756928D01*
X22999Y757003D01*
X23089Y757080D01*
X23177Y757161D01*
X23262Y757245D01*
X23344Y757332D01*
X23424Y757421D01*
X23500Y757513D01*
X23574Y757607D01*
X23644Y757704D01*
X23711Y757802D01*
X23775Y757903D01*
X23835Y758007D01*
X23892Y758112D01*
X23945Y758219D01*
X23995Y758327D01*
X24041Y758437D01*
X24083Y758549D01*
X24122Y758662D01*
X24157Y758776D01*
X24188Y758891D01*
X24216Y759008D01*
X24239Y759125D01*
X24259Y759242D01*
X24275Y759361D01*
X24287Y759480D01*
X24295Y759599D01*
X24299Y759718D01*
X24299Y759838D01*
X24295Y759957D01*
X24287Y760076D01*
X24275Y760195D01*
X24259Y760314D01*
X24239Y760431D01*
X24216Y760548D01*
X24188Y760665D01*
X24157Y760780D01*
X24122Y760894D01*
X24083Y761007D01*
X24041Y761119D01*
X23995Y761229D01*
X23945Y761337D01*
X23892Y761444D01*
X23835Y761549D01*
X23775Y761653D01*
X23711Y761754D01*
X23644Y761852D01*
X23574Y761949D01*
X23500Y762043D01*
X23424Y762135D01*
X23344Y762224D01*
X23262Y762311D01*
X23177Y762395D01*
X23089Y762476D01*
X22999Y762553D01*
X22906Y762628D01*
X22810Y762700D01*
X22712Y762769D01*
X22612Y762834D01*
X22510Y762896D01*
X22406Y762955D01*
X22300Y763010D01*
X22192Y763061D01*
X22083Y763109D01*
X21972Y763154D01*
X21860Y763194D01*
X21746Y763231D01*
X21631Y763264D01*
X21516Y763294D01*
X21399Y763319D01*
X21282Y763341D01*
X21163Y763358D01*
X21045Y763372D01*
X20926Y763382D01*
X20806Y763388D01*
X20687Y763390D01*
X17074Y763390D01*
X16955Y763388D01*
X16835Y763382D01*
X16716Y763372D01*
X16598Y763358D01*
X16479Y763341D01*
X16362Y763319D01*
X16245Y763294D01*
X16130Y763264D01*
X16015Y763231D01*
X15901Y763194D01*
X15789Y763154D01*
X15678Y763109D01*
X15569Y763061D01*
X15461Y763010D01*
X15355Y762955D01*
X15251Y762896D01*
X15149Y762834D01*
X15049Y762769D01*
X14951Y762700D01*
X14855Y762628D01*
X14762Y762553D01*
X14672Y762476D01*
X14584Y762395D01*
X14499Y762311D01*
X14417Y762224D01*
X14337Y762135D01*
X14261Y762043D01*
X14187Y761949D01*
X14117Y761852D01*
X14050Y761754D01*
X13986Y761653D01*
X13926Y761549D01*
X13869Y761444D01*
X13816Y761337D01*
X13766Y761229D01*
X13720Y761119D01*
X13678Y761007D01*
X13639Y760894D01*
X13604Y760780D01*
X13573Y760665D01*
X13545Y760548D01*
X13522Y760431D01*
X13502Y760314D01*
X13486Y760195D01*
X13474Y760076D01*
X13466Y759957D01*
X13462Y759838D01*
X13462Y759718D01*
X13466Y759599D01*
X13474Y759480D01*
X13486Y759361D01*
X13502Y759242D01*
X13522Y759125D01*
X13545Y759008D01*
X13573Y758891D01*
X13604Y758776D01*
X13639Y758662D01*
X13678Y758549D01*
X13720Y758437D01*
X13766Y758327D01*
X13816Y758219D01*
X13869Y758112D01*
X13926Y758007D01*
X13986Y757903D01*
X14050Y757802D01*
X14117Y757704D01*
X14187Y757607D01*
X14261Y757513D01*
X14337Y757421D01*
X14417Y757332D01*
X14499Y757245D01*
X14584Y757161D01*
X14672Y757080D01*
X14762Y757003D01*
X14855Y756928D01*
X14951Y756856D01*
X15049Y756787D01*
X15149Y756722D01*
X15251Y756660D01*
X15355Y756601D01*
X15461Y756546D01*
X15569Y756495D01*
X15678Y756447D01*
X15789Y756402D01*
X15901Y756362D01*
X16015Y756325D01*
X16130Y756292D01*
X16245Y756262D01*
X16362Y756237D01*
X16479Y756215D01*
X16598Y756198D01*
X16716Y756184D01*
X16835Y756174D01*
X16955Y756168D01*
X17074Y756166D01*
X13462Y772422D02*
X13462Y776937D01*
X13462Y772422D02*
X13464Y772321D01*
X13470Y772220D01*
X13479Y772119D01*
X13492Y772018D01*
X13509Y771918D01*
X13530Y771819D01*
X13554Y771721D01*
X13582Y771624D01*
X13614Y771527D01*
X13649Y771432D01*
X13688Y771339D01*
X13730Y771247D01*
X13776Y771156D01*
X13825Y771068D01*
X13877Y770981D01*
X13933Y770896D01*
X13991Y770813D01*
X14053Y770733D01*
X14118Y770655D01*
X14185Y770579D01*
X14255Y770506D01*
X14328Y770436D01*
X14404Y770369D01*
X14482Y770304D01*
X14562Y770242D01*
X14645Y770184D01*
X14730Y770128D01*
X14817Y770076D01*
X14905Y770027D01*
X14996Y769981D01*
X15088Y769939D01*
X15181Y769900D01*
X15276Y769865D01*
X15373Y769833D01*
X15470Y769805D01*
X15568Y769781D01*
X15667Y769760D01*
X15767Y769743D01*
X15868Y769730D01*
X15969Y769721D01*
X16070Y769715D01*
X16171Y769713D01*
X16171Y769712D02*
X20687Y769712D01*
X20687Y769713D02*
X20806Y769715D01*
X20926Y769721D01*
X21045Y769731D01*
X21163Y769745D01*
X21282Y769762D01*
X21399Y769784D01*
X21516Y769809D01*
X21631Y769839D01*
X21746Y769872D01*
X21860Y769909D01*
X21972Y769949D01*
X22083Y769994D01*
X22192Y770042D01*
X22300Y770093D01*
X22406Y770148D01*
X22510Y770207D01*
X22612Y770269D01*
X22712Y770334D01*
X22810Y770403D01*
X22906Y770475D01*
X22999Y770550D01*
X23089Y770627D01*
X23177Y770708D01*
X23262Y770792D01*
X23344Y770879D01*
X23424Y770968D01*
X23500Y771060D01*
X23574Y771154D01*
X23644Y771251D01*
X23711Y771349D01*
X23775Y771450D01*
X23835Y771554D01*
X23892Y771659D01*
X23945Y771766D01*
X23995Y771874D01*
X24041Y771984D01*
X24083Y772096D01*
X24122Y772209D01*
X24157Y772323D01*
X24188Y772438D01*
X24216Y772555D01*
X24239Y772672D01*
X24259Y772789D01*
X24275Y772908D01*
X24287Y773027D01*
X24295Y773146D01*
X24299Y773265D01*
X24299Y773385D01*
X24295Y773504D01*
X24287Y773623D01*
X24275Y773742D01*
X24259Y773861D01*
X24239Y773978D01*
X24216Y774095D01*
X24188Y774212D01*
X24157Y774327D01*
X24122Y774441D01*
X24083Y774554D01*
X24041Y774666D01*
X23995Y774776D01*
X23945Y774884D01*
X23892Y774991D01*
X23835Y775096D01*
X23775Y775200D01*
X23711Y775301D01*
X23644Y775399D01*
X23574Y775496D01*
X23500Y775590D01*
X23424Y775682D01*
X23344Y775771D01*
X23262Y775858D01*
X23177Y775942D01*
X23089Y776023D01*
X22999Y776100D01*
X22906Y776175D01*
X22810Y776247D01*
X22712Y776316D01*
X22612Y776381D01*
X22510Y776443D01*
X22406Y776502D01*
X22300Y776557D01*
X22192Y776608D01*
X22083Y776656D01*
X21972Y776701D01*
X21860Y776741D01*
X21746Y776778D01*
X21631Y776811D01*
X21516Y776841D01*
X21399Y776866D01*
X21282Y776888D01*
X21163Y776905D01*
X21045Y776919D01*
X20926Y776929D01*
X20806Y776935D01*
X20687Y776937D01*
X18881Y776937D01*
X18881Y769712D01*
X13462Y783949D02*
X29718Y783949D01*
X24299Y791174D02*
X18881Y783949D01*
X21138Y787110D02*
X13462Y791174D01*
M02*
