G04 EAGLE Gerber X2 export*
%TF.Part,Single*%
%TF.FileFunction,Paste,Bot*%
%TF.FilePolarity,Positive*%
%TF.GenerationSoftware,Autodesk,EAGLE,8.6.0*%
%TF.CreationDate,2018-01-31T11:55:17Z*%
G75*
%MOMM*%
%FSLAX34Y34*%
%LPD*%
%AMOC8*
5,1,8,0,0,1.08239X$1,22.5*%
G01*
%ADD10R,1.200000X0.550000*%
%ADD11R,1.200000X1.200000*%
%ADD12R,1.300000X1.500000*%
%ADD13R,1.500000X1.300000*%
%ADD14R,4.600000X1.000000*%
%ADD15R,3.400000X1.600000*%
%ADD16R,1.350000X0.400000*%
%ADD17R,2.000000X1.000000*%
%ADD18R,2.500000X2.500000*%

G36*
X73707Y420731D02*
X73707Y420731D01*
X73752Y420746D01*
X73827Y420761D01*
X74892Y421135D01*
X74934Y421159D01*
X75004Y421188D01*
X75975Y421762D01*
X76012Y421794D01*
X76076Y421836D01*
X76916Y422589D01*
X76946Y422627D01*
X77000Y422680D01*
X77677Y423583D01*
X77699Y423626D01*
X77742Y423689D01*
X78230Y424706D01*
X78243Y424753D01*
X78272Y424823D01*
X78553Y425916D01*
X78556Y425964D01*
X78572Y426039D01*
X78633Y427165D01*
X78631Y427181D01*
X78634Y427200D01*
X78634Y438200D01*
X78631Y438219D01*
X78633Y438244D01*
X78544Y439529D01*
X78532Y439578D01*
X78519Y439669D01*
X78146Y440903D01*
X78123Y440948D01*
X78090Y441033D01*
X77453Y442153D01*
X77420Y442192D01*
X77369Y442268D01*
X76498Y443218D01*
X76458Y443249D01*
X76449Y443258D01*
X76439Y443269D01*
X76435Y443271D01*
X76391Y443312D01*
X75331Y444044D01*
X75285Y444065D01*
X75205Y444111D01*
X74009Y444589D01*
X73959Y444599D01*
X73872Y444627D01*
X72598Y444827D01*
X72410Y444828D01*
X71294Y444669D01*
X71248Y444654D01*
X71173Y444639D01*
X70108Y444265D01*
X70066Y444241D01*
X69996Y444212D01*
X69025Y443638D01*
X68988Y443606D01*
X68924Y443564D01*
X68084Y442811D01*
X68055Y442774D01*
X68000Y442720D01*
X67323Y441817D01*
X67301Y441774D01*
X67258Y441711D01*
X66770Y440694D01*
X66757Y440647D01*
X66728Y440577D01*
X66447Y439484D01*
X66444Y439436D01*
X66428Y439361D01*
X66367Y438235D01*
X66369Y438219D01*
X66366Y438200D01*
X66366Y427200D01*
X66369Y427185D01*
X66367Y427165D01*
X66428Y426039D01*
X66440Y425992D01*
X66447Y425916D01*
X66728Y424823D01*
X66748Y424779D01*
X66770Y424706D01*
X67258Y423689D01*
X67287Y423650D01*
X67323Y423583D01*
X68000Y422680D01*
X68035Y422647D01*
X68084Y422589D01*
X68924Y421836D01*
X68965Y421810D01*
X69025Y421762D01*
X69996Y421188D01*
X70041Y421171D01*
X70108Y421135D01*
X71173Y420761D01*
X71220Y420753D01*
X71294Y420731D01*
X72410Y420572D01*
X72438Y420573D01*
X72590Y420572D01*
X73707Y420731D01*
G37*
G36*
X73707Y342731D02*
X73707Y342731D01*
X73752Y342746D01*
X73827Y342761D01*
X74892Y343135D01*
X74934Y343159D01*
X75004Y343188D01*
X75975Y343762D01*
X76012Y343794D01*
X76076Y343836D01*
X76916Y344589D01*
X76946Y344627D01*
X77000Y344680D01*
X77677Y345583D01*
X77699Y345626D01*
X77742Y345689D01*
X78230Y346706D01*
X78243Y346753D01*
X78272Y346823D01*
X78553Y347916D01*
X78556Y347964D01*
X78572Y348039D01*
X78633Y349165D01*
X78631Y349181D01*
X78634Y349200D01*
X78634Y360200D01*
X78631Y360219D01*
X78633Y360244D01*
X78544Y361529D01*
X78532Y361578D01*
X78519Y361669D01*
X78146Y362903D01*
X78123Y362948D01*
X78090Y363033D01*
X77453Y364153D01*
X77420Y364192D01*
X77369Y364268D01*
X76498Y365218D01*
X76458Y365249D01*
X76449Y365258D01*
X76439Y365269D01*
X76435Y365270D01*
X76391Y365312D01*
X75331Y366044D01*
X75285Y366065D01*
X75205Y366111D01*
X74009Y366589D01*
X73959Y366599D01*
X73872Y366627D01*
X72598Y366827D01*
X72410Y366828D01*
X71294Y366669D01*
X71248Y366654D01*
X71173Y366639D01*
X70108Y366265D01*
X70066Y366241D01*
X69996Y366212D01*
X69025Y365638D01*
X68988Y365606D01*
X68924Y365564D01*
X68084Y364811D01*
X68055Y364774D01*
X68000Y364720D01*
X67323Y363817D01*
X67301Y363774D01*
X67258Y363711D01*
X66770Y362694D01*
X66757Y362647D01*
X66728Y362577D01*
X66447Y361484D01*
X66444Y361436D01*
X66428Y361361D01*
X66367Y360235D01*
X66369Y360219D01*
X66366Y360200D01*
X66366Y349200D01*
X66369Y349185D01*
X66367Y349165D01*
X66428Y348039D01*
X66440Y347992D01*
X66447Y347916D01*
X66728Y346823D01*
X66748Y346779D01*
X66770Y346706D01*
X67258Y345689D01*
X67287Y345650D01*
X67323Y345583D01*
X68000Y344680D01*
X68035Y344647D01*
X68084Y344589D01*
X68924Y343836D01*
X68965Y343810D01*
X69025Y343762D01*
X69996Y343188D01*
X70041Y343171D01*
X70108Y343135D01*
X71173Y342761D01*
X71220Y342753D01*
X71294Y342731D01*
X72410Y342572D01*
X72438Y342573D01*
X72590Y342572D01*
X73707Y342731D01*
G37*
D10*
X127301Y365100D03*
X127301Y355600D03*
X127301Y346100D03*
X101299Y346100D03*
X101299Y365100D03*
D11*
X165100Y421300D03*
X165100Y442300D03*
X165100Y383200D03*
X165100Y404200D03*
D12*
X136500Y431800D03*
X117500Y431800D03*
D13*
X139700Y403200D03*
X139700Y384200D03*
D14*
X87800Y505300D03*
X87800Y485300D03*
D15*
X35800Y529300D03*
X35800Y461300D03*
D13*
X190500Y441300D03*
X190500Y422300D03*
X165100Y346100D03*
X165100Y365100D03*
X114300Y403200D03*
X114300Y384200D03*
D16*
X71250Y380700D03*
X71250Y387200D03*
X71250Y393700D03*
X71250Y400200D03*
X71250Y406700D03*
D17*
X43500Y386200D03*
X43500Y401200D03*
D18*
X44500Y357700D03*
X44500Y429700D03*
M02*
