G04 EAGLE Gerber X2 export*
%TF.Part,Single*%
%TF.FileFunction,Soldermask,Bot,1*%
%TF.FilePolarity,Negative*%
%TF.GenerationSoftware,Autodesk,EAGLE,8.6.0*%
%TF.CreationDate,2018-01-31T11:55:17Z*%
G75*
%MOMM*%
%FSLAX34Y34*%
%LPD*%
%AMOC8*
5,1,8,0,0,1.08239X$1,22.5*%
G01*
%ADD10C,1.981200*%
%ADD11C,1.727200*%
%ADD12C,1.524000*%
%ADD13R,1.511200X1.511200*%
%ADD14C,1.511200*%
%ADD15P,1.649562X8X202.500000*%
%ADD16R,1.403200X0.753200*%
%ADD17R,1.403200X1.403200*%
%ADD18R,1.503200X1.703200*%
%ADD19R,1.703200X1.503200*%
%ADD20R,4.803200X1.203200*%
%ADD21R,3.603200X1.803200*%
%ADD22C,0.903200*%
%ADD23R,2.703200X2.703200*%
%ADD24C,1.411200*%
%ADD25R,2.203200X1.203200*%
%ADD26R,1.450000X0.500000*%
%ADD27C,0.959600*%


D10*
X38100Y723900D03*
D11*
X91694Y649732D02*
X91694Y634492D01*
X91694Y584708D02*
X91694Y569468D01*
X136906Y634492D02*
X136906Y649732D01*
X136906Y584708D02*
X136906Y569468D01*
D12*
X171196Y723900D02*
X184404Y723900D01*
X184404Y673100D02*
X171196Y673100D01*
X171196Y698500D02*
X184404Y698500D01*
D13*
X177950Y754875D03*
X101750Y754875D03*
D14*
X152550Y754875D03*
X127150Y754875D03*
X127150Y780275D03*
X152550Y780275D03*
X177950Y780275D03*
X101750Y780275D03*
D15*
X152400Y698500D03*
X76200Y698500D03*
D16*
X127301Y365100D03*
X127301Y355600D03*
X127301Y346100D03*
X101299Y346100D03*
X101299Y365100D03*
D17*
X165100Y421300D03*
X165100Y442300D03*
X165100Y383200D03*
X165100Y404200D03*
D18*
X136500Y431800D03*
X117500Y431800D03*
D19*
X139700Y403200D03*
X139700Y384200D03*
D20*
X87800Y505300D03*
X87800Y485300D03*
D21*
X35800Y529300D03*
X35800Y461300D03*
D19*
X190500Y441300D03*
X190500Y422300D03*
X165100Y346100D03*
X165100Y365100D03*
X114300Y403200D03*
X114300Y384200D03*
D22*
X63500Y374200D03*
X63500Y413200D03*
D23*
X44500Y429700D03*
X44500Y357700D03*
D24*
X72500Y360700D02*
X72500Y348620D01*
X72500Y426700D02*
X72500Y438780D01*
D25*
X43500Y386200D03*
X43500Y401200D03*
D26*
X71250Y380700D03*
X71250Y387200D03*
X71250Y393700D03*
X71250Y400200D03*
X71250Y406700D03*
D27*
X88900Y673100D03*
X76200Y647700D03*
X177800Y647700D03*
X114300Y647700D03*
X152400Y673100D03*
X127000Y723900D03*
X177800Y736600D03*
X190500Y774700D03*
X76200Y749300D03*
X88900Y520700D03*
X127000Y508000D03*
X152400Y495300D03*
X190500Y495300D03*
X177800Y469900D03*
X139700Y469900D03*
X88900Y469900D03*
X25400Y393700D03*
X101600Y419100D03*
X139700Y355600D03*
X190500Y368300D03*
X190500Y406400D03*
X127000Y457200D03*
X114300Y469900D03*
X25400Y406400D03*
X25400Y381000D03*
M02*
